<?xml version="1.0" encoding="UTF-8"?><svg id="Layer_1" xmlns="http://www.w3.org/2000/svg" viewBox="0 0 87.52 93.86"><defs><style>.cls-1{fill:#3c3f42;}</style></defs><path class="cls-1" d="m78.72,82.52l-4.04,4.04c-.11.03-.22.06-.34.09-.24.19-.48.39-.72.58-.16.11-.33.22-.49.33-1,.68-1.95,1.47-3.01,2.03-2,1.05-4.09,1.92-6.29,2.52-1.92.52-3.86.9-5.84,1.01-1.48.08-2.98.02-4.46-.06-2.14-.11-4.22-.55-6.27-1.18-2.81-.86-5.46-2.05-7.86-3.75-.86-.61-1.78-1.16-2.52-1.89-5.39-5.33-10.74-10.69-16.1-16.05-.49-.49-1.06-.92-1.43-1.49-1.17-1.77-1.72-3.7-1.53-5.86.18-2.08,1.01-3.83,2.46-5.26.68-.67,1.56-1.14,2.36-1.69.26-.18.62-.3.39-.71-1.21-2.17-1.35-4.44-.65-6.77.68-2.29,2.27-3.85,4.28-4.99,2.03-1.14,4.22-1.33,6.46-.66,1.71.51,3.1,1.52,4.34,2.76.66.66,1.32,1.32,1.98,1.98.56-.83,1.13-1.68,1.73-2.58-.11-.09-.25-.21-.4-.3-1.19-.7-2.38-1.39-3.58-2.08-1.69-.98-3.38-1.96-5.07-2.93-1.42-.81-2.85-1.59-4.26-2.42-2-1.17-3.98-2.36-5.98-3.53-2.05-1.2-4.11-2.39-6.17-3.58-1.63-.93-3.25-1.88-4.9-2.77-1.89-1.01-3.88.55-4.25,2.13-.34,1.44.3,2.69,1.24,3.29,1.51.96,3.08,1.81,4.62,2.7,2.24,1.3,4.48,2.59,6.71,3.91.85.5.84.52.3,1.38-.02.04-.01.09-.04.13-.64,1.13-1.28,2.26-1.92,3.39-.12.21-.27.27-.5.14-.31-.18-.64-.35-.95-.53-1.61-.93-3.23-1.86-4.83-2.79-1.85-1.08-3.68-2.2-5.56-3.24-1.33-.74-2.45-1.72-3.23-2.97-1.1-1.76-1.56-3.73-1.32-5.85.3-2.6,1.67-4.53,3.7-6.02.87-.64,1.9-1.03,2.98-1.26,1.68-.36,3.36-.34,4.91.38,1.6.74,3.12,1.68,4.66,2.56,2.29,1.31,4.57,2.63,6.85,3.95,2.24,1.3,4.47,2.61,6.71,3.91,1.36.79,2.73,1.56,4.09,2.34.3.18.61.36.91.54.04-.03.08-.07.12-.1-.22-.36-.44-.72-.66-1.08-.69-1.18-1.38-2.36-2.06-3.54-1.14-1.96-2.28-3.93-3.42-5.89-1.19-2.05-2.39-4.1-3.58-6.16-1.09-1.87-2.19-3.74-3.24-5.64-.93-1.68-1.19-3.51-.87-5.39.22-1.31.62-2.59,1.54-3.59.7-.76,1.37-1.59,2.21-2.16,1.48-1,3.16-1.44,4.98-1.41,2.31.04,4.21.99,5.86,2.47.65.58,1.11,1.42,1.57,2.18,1.21,2.01,2.38,4.05,3.56,6.08,1.92,3.29,3.83,6.57,5.74,9.86,2.09,3.61,4.18,7.23,6.27,10.84.12.22.22.26.41.06,1.22-1.23,2.44-2.46,3.67-3.69.69-.69,1.38-1.38,2.09-2.09l.43.43c5.25,5.25,10.5,10.49,15.73,15.75.8.8,1.54,1.66,2.26,2.53.71.86,1.4,1.74,2,2.67,1.53,2.37,2.73,4.89,3.54,7.6.83,2.78,1.29,5.62,1.28,8.51,0,1.1-.06,2.2-.2,3.29-.19,1.46-.42,2.92-.77,4.34-.54,2.15-1.3,4.23-2.38,6.17-.49.87-1.02,1.72-1.54,2.57-.24.39-.48.76-.73,1.14-.28.29-.56.58-.84.87-.03.15-.07.3-.1.45Zm-44.41-6.76c-.05-.01-.1-.02-.16-.04.01.06.03.12.04.19,2.16,2.12,4.3,4.27,6.51,6.34.83.77,1.81,1.39,2.77,2,1.88,1.19,3.93,2.05,6.08,2.62,2.87.76,5.79,1.03,8.75.71,1.67-.18,3.31-.47,4.91-.98,1.91-.61,3.72-1.43,5.41-2.49,1.36-.86,2.67-1.79,3.78-2.98.58-.62,1.19-1.22,1.74-1.87.65-.77,1.32-1.54,1.84-2.39,1.19-1.94,2.26-3.96,2.82-6.19.34-1.37.68-2.75.85-4.15.15-1.27.11-2.57.07-3.85-.03-1.06-.14-2.12-.3-3.16-.41-2.73-1.39-5.26-2.77-7.64-.93-1.61-2.01-3.11-3.33-4.43-3.93-3.93-7.86-7.86-11.79-11.79-.5-.5-.99-.99-1.5-1.5-.18.15-.35.26-.49.4-4.63,4.62-9.26,9.25-13.89,13.88-.22.22-.42.46-.63.69-1.32,1.45-.79,3.83.82,4.77,1.19.69,2.73.58,3.69-.37,2.61-2.58,5.2-5.18,7.8-7.77.26-.26.56-.47.85-.71,1.11,1.11,2.18,2.19,3.26,3.25.55.54.59.68.01,1.28-1.05,1.07-1.82,2.31-2.46,3.65-1.24,2.59-1.65,5.3-1.29,8.13.42,3.24,1.61,6.12,4.01,8.42.29.27.28.46,0,.73-1.01.99-2.01,2.01-3.02,3.01-.19.19-.39.39-.63.63-4.16-4.4-6.11-9.56-5.94-15.56-.19.07-.38.12-.55.21-1.1.56-2.27.87-3.49,1-.15.02-.36.27-.4.44-.15.6-.18,1.24-.36,1.83-.54,1.78-1.49,3.28-3.01,4.41-1.29.95-2.71,1.55-4.31,1.64-.52.03-.75.17-.75.68,0,.06.01.13,0,.19-.25,1.8-.95,3.41-2.14,4.79-.77.89-1.68,1.61-2.81,2Zm11.14-34.96c.31-.31.56-.56.81-.81,1.15-1.13,2.31-2.24,3.43-3.39.14-.15.26-.51.18-.66-1.3-2.31-2.64-4.6-3.98-6.88-1.84-3.15-3.7-6.3-5.55-9.45-2.36-4.05-4.71-8.12-7.07-12.17-.64-1.09-2.31-1.72-3.52-1.36-.66.2-1.07.69-1.53,1.14-.65.63-.8,1.42-.67,2.28.13.83.56,1.52.99,2.23,1.08,1.77,2.1,3.58,3.14,5.37,2.11,3.64,4.22,7.28,6.33,10.92.86,1.48,1.7,2.97,2.56,4.45,1.23,2.11,2.46,4.2,3.69,6.31.39.66.77,1.33,1.18,2.05Zm-12.75,16.88l.02-.02c1.42,1.42,2.84,2.83,4.25,4.25.76.77,1.7.88,2.69.72,1.33-.22,2.1-1.06,2.46-2.33.34-1.19-.03-2.19-.85-3.02-2.63-2.66-5.28-5.3-7.93-7.94-.3-.3-.63-.59-.98-.84-1.76-1.28-3.93-.31-4.68,1.43-.58,1.35-.19,2.56.84,3.58,1.4,1.39,2.79,2.79,4.18,4.18Zm-1.85,5.87s-.04.04-.07.07c-.79-.79-1.55-1.62-2.38-2.37-.98-.87-2.37-.96-3.48-.31-1.48.86-2.05,2.29-1.43,3.91.21.54.61,1.01.99,1.46.35.41.81.71,1.2,1.09.88.86,1.74,1.76,2.64,2.61.36.34.78.66,1.23.85,1.92.8,3.72-.37,4.2-2.19.33-1.24-.15-2.29-.98-3.19-.62-.67-1.28-1.29-1.92-1.93Z"/></svg>