<?xml version="1.0" encoding="UTF-8"?><svg id="Layer_1" xmlns="http://www.w3.org/2000/svg" viewBox="0 0 74.27 73.87"><defs><style>.cls-1{fill:#3c3f42;}</style></defs><path class="cls-1" d="m9.5,23.95c.04-.06.07-.11.11-.17.38-.36.77-.73,1.15-1.09.3-.19.6-.37.9-.56,1.32-.83,2.76-1.26,4.27-1.34.16-.81.28-1.62.5-2.4.29-1.02.86-1.91,1.5-2.75.03-.04.02-.1.03-.16.34-.3.69-.59,1.02-.89.1-.1.16-.25.24-.37.34-.21.68-.41,1.02-.62,1.16-.72,2.41-1.15,3.77-1.26.17-.01.33-.06.49-.09,0-1.38.42-2.64,1.07-3.82.26-.48.57-.93.85-1.4.42-.42.84-.84,1.26-1.26.33-.2.66-.38.98-.59,1.63-1.06,3.43-1.51,5.35-1.35,1.55.13,3.02.57,4.24,1.57.74.6,1.4,1.31,2.11,1.95.45.41.92.81,1.44,1.26,1.37-1.37,2.74-2.74,4.14-4.14.39.39.73.73,1.07,1.07,5.68,5.69,11.38,11.36,17.03,17.07.79.79,1.39,1.77,2.07,2.67,1.12,1.48,2.01,3.09,2.74,4.78.61,1.41,1.08,2.88,1.54,4.35.59,1.88.96,3.81,1,5.78.03,1.52.1,3.04,0,4.55-.13,1.87-.47,3.72-1.03,5.53-.59,1.92-1.26,3.79-2.19,5.57-.76,1.47-1.64,2.85-2.61,4.2-1.21,1.69-2.62,3.18-4.12,4.6-.66.62-1.41,1.16-2.17,1.65-1.32.86-2.65,1.72-4.05,2.45-2.99,1.55-6.19,2.55-9.52,2.96-2,.25-4.04.22-6.06.14-2.4-.09-4.75-.61-7.06-1.32-2.09-.64-4.06-1.57-5.93-2.67-1.3-.77-2.54-1.67-3.7-2.64-1.5-1.24-2.89-2.61-4.36-3.95,1.37-1.37,2.68-2.68,4.01-4.01.09.08.19.16.28.26.94.94,1.84,1.91,2.82,2.8,1.6,1.45,3.35,2.7,5.34,3.56,1.19.51,2.39,1.02,3.61,1.46,1.69.6,3.44.85,5.23.99,2.39.18,4.75.03,7.09-.46,2.17-.45,4.2-1.27,6.16-2.29,1.27-.66,2.45-1.44,3.54-2.36,1.02-.87,2.05-1.74,2.97-2.72.78-.82,1.42-1.78,2.1-2.7,1.52-2.06,2.51-4.38,3.19-6.82.4-1.42.62-2.89.83-4.35.14-.99.17-2,.15-3-.07-2.65-.47-5.26-1.52-7.71-.7-1.63-1.5-3.22-2.34-4.78-.38-.7-.92-1.32-1.45-1.93-4.12-4.8-8.86-8.99-13.23-13.54-.44-.46-.9-.9-1.42-1.42-.75.75-1.46,1.46-2.17,2.17-4,4-8,7.99-11.98,12-.57.57-1.13,1.15-1.46,1.92-.46,1.09-.26,2.07.34,3.02,1.14,1.8,3.72,1.57,4.85.41,2.62-2.68,5.3-5.31,7.96-7.96.47-.47.46-.46.93.02.44.45.93.85,1.39,1.29.71.69,1.4,1.4,2.12,2.11-.31.38-.55.71-.83,1.01-.99,1.08-1.81,2.29-2.32,3.66-.44,1.16-.83,2.36-1.06,3.58-.41,2.16-.28,4.32.29,6.46.47,1.75,1.25,3.34,2.24,4.83.41.62.95,1.16,1.44,1.73.14.16.28.27.06.49-1.21,1.19-2.41,2.39-3.61,3.59-.03.03-.07.05-.17.11-4.28-4.33-6.05-9.63-6.03-15.67-.42.18-.81.4-1.23.52-.89.26-1.8.48-2.7.68-.3.07-.45.16-.48.49-.16,1.71-.77,3.24-1.79,4.63-1.03,1.41-2.37,2.41-4.03,2.93-.71.23-1.46.34-2.2.46-.27.05-.41.12-.43.41-.12,1.43-.59,2.72-1.34,3.95-1.12,1.83-2.65,3.12-4.69,3.72-2.51.75-4.95.46-7.2-.88-.8-.48-1.52-1.14-2.2-1.79-1.31-1.25-2.58-2.53-3.84-3.83-1.38-1.43-2.18-3.14-2.4-5.13-.2-1.82.14-3.53.96-5.16.8-1.58,2.04-2.7,3.58-3.52.3-.16.6-.33.89-.5-.7-1.22-1.15-2.45-1.29-3.81-.19-1.97.38-3.72,1.35-5.38.18-.32.41-.61.61-.92Zm13.28,7.58h0c-1.39-1.39-2.79-2.76-4.16-4.17-.97-1-2.77-1.36-4.07-.46-1.68,1.17-1.84,3.51-.51,4.86,2.76,2.81,5.56,5.58,8.35,8.36.21.21.45.42.71.57,1.26.74,2.64.63,3.59-.13,1.57-1.24,1.73-3.43.22-4.91-1.39-1.36-2.76-2.75-4.13-4.13Zm-6.28,10.64c-.67-.67-1.33-1.36-2.02-2.01-.32-.3-.67-.6-1.06-.77-1.36-.58-3.05-.42-4.12,1.3-.61.99-.62,2.69.51,3.78,1.41,1.36,2.79,2.76,4.16,4.16.9.92,1.97,1.22,3.2.91.9-.23,1.55-.79,1.95-1.63.7-1.48.31-2.86-.77-3.9-.63-.6-1.23-1.23-1.85-1.85Zm8.7-16.19c.64-1.25,1.45-2.34,2.46-3.29.46-.42.88-.88,1.33-1.31.23-.22.26-.41,0-.65-.53-.5-1.03-1.04-1.56-1.54-.3-.29-.61-.59-.96-.8-1.24-.74-2.49-.67-3.63.17-.74.55-1.19,1.32-1.22,2.3-.03,1.07.34,1.94,1.12,2.67.82.78,1.61,1.6,2.46,2.45Zm10.28-11.09h0c.67-.67,1.34-1.35,2.02-2.01.24-.23.24-.39,0-.61-.75-.69-1.5-1.38-2.24-2.08-1.11-1.06-3.05-.97-4.19.12-1.37,1.32-1.25,3.18-.1,4.55.61.72,1.34,1.35,2,2.03.2.21.34.18.54-.02.65-.67,1.32-1.32,1.98-1.98Z"/></svg>