<?xml version="1.0" encoding="UTF-8"?><svg id="Layer_1" xmlns="http://www.w3.org/2000/svg" viewBox="0 0 225.57 81.88"><defs><style>.cls-1{fill:#fff;}</style></defs><path class="cls-1" d="m85.2,48.69c-.76-.82-1.14-1.83-1.31-2.89-.23-1.42.07-2.78.79-4.02.34-.58.79-1.08,1.33-1.52.48-.4.99-.71,1.52-1.01,0-.03,0-.06-.01-.08-1.48-1.48-2.95-2.97-4.45-4.43-.79-.77-1.47-1.61-1.84-2.67-.46-1.32-.48-2.63-.13-3.99.34-1.3,1.21-2.21,2.15-3.07.31-.28.71-.48,1.09-.65.31-.14.31-.29.22-.56-.23-.62-.51-1.23-.64-1.87-.33-1.6,0-3.11.91-4.46,1.04-1.56,2.52-2.5,4.37-2.75,1.27-.17,2.52.02,3.66.68.31.18.44.16.59-.2.37-.93,1.11-1.56,1.82-2.19.86-.77,1.95-1.12,3.08-1.28,1.27-.17,2.49.07,3.6.68.56.31,1.09.7,1.55,1.15,1.69,1.64,3.34,3.32,5.01,4.98.26.25.54.48.79.74.06.06.07.25.02.3-.88.89-1.76,1.78-2.66,2.67-.16-.16-.31-.31-.46-.46-1.72-1.72-3.44-3.45-5.16-5.17-.45-.45-.92-.86-1.59-.98-.97-.17-1.76.22-2.3.96-.53.73-.52,1.58-.09,2.39.08.15.24.27.37.4,4.92,4.92,9.85,9.85,14.78,14.77.24.24.25.38.01.62-.85.83-1.68,1.67-2.52,2.51-1.5-1.5-2.98-2.98-4.46-4.46-4.38-4.38-8.75-8.76-13.13-13.14-.43-.43-.86-.86-1.47-1-.78-.17-1.47-.04-2.09.52-.63.58-.92,1.27-.74,2.11.06.3.18.63.36.87.3.38.67.7,1.02,1.05.06.06.13.13.19.19,5.61,5.61,11.23,11.22,16.84,16.83.19.19.2.3,0,.49-.86.84-1.71,1.7-2.6,2.59-.15-.18-.26-.35-.4-.5-4.81-4.81-9.62-9.63-14.44-14.43-.82-.82-1.83-.99-2.78-.53-1.38.67-1.61,2.46-.73,3.43.32.35.64.7.98,1.03,5.31,5.32,10.63,10.63,15.94,15.95.41.41.82.82,1.25,1.25l-2.76,2.76c-.1-.09-.2-.17-.3-.26-2.77-2.77-5.53-5.55-8.31-8.31-.28-.27-.58-.53-.9-.75-1.07-.7-2.34-.28-3.02.67-.68.94-.36,2.2.36,2.92,5.31,5.27,10.58,10.58,15.89,15.86.92.91,2.02,1.61,3.14,2.25,1.18.67,2.41,1.23,3.71,1.64,1.35.43,2.73.75,4.15.81,1.04.04,2.09.1,3.13.04,1.93-.11,3.81-.5,5.58-1.28,1.05-.46,2.09-.95,3.08-1.51.68-.38,1.25-.94,1.9-1.36.83-.54,1.48-1.28,2.15-1.98.89-.94,1.67-1.97,2.33-3.09.79-1.34,1.46-2.72,1.91-4.21.37-1.22.64-2.47.75-3.74.18-1.97.09-3.92-.28-5.87-.43-2.28-1.32-4.38-2.53-6.34-.52-.84-1.15-1.62-1.8-2.38-2.22-2.62-4.79-4.92-7.19-7.38-1.74-1.78-3.52-3.53-5.28-5.28-.29-.29-.62-.55-.95-.78-.77-.54-1.87-.41-2.61.24-.71.63-.93,1.37-.75,2.27.11.56.5.93.87,1.31,2.09,2.1,4.19,4.2,6.29,6.29.28.28.56.56.86.86-.22.22-.42.41-.6.6-.52.54-1.08,1.06-1.56,1.64-1.02,1.26-1.77,2.67-2.09,4.27-.17.83-.27,1.7-.29,2.55-.02,1.5.3,2.94.93,4.31.51,1.1,1.12,2.13,2,2.98.19.18.2.32,0,.52-.86.84-1.7,1.69-2.57,2.56-.34-.38-.71-.71-.99-1.1-.51-.72-1-1.45-1.45-2.21-.61-1.05-1.05-2.18-1.33-3.36-.2-.86-.39-1.73-.47-2.61-.07-.82-.01-1.65.03-2.48.07-1.33.39-2.62.86-3.86.47-1.23,1.02-2.42,1.85-3.45.15-.18.17-.33-.04-.53-1.48-1.46-2.95-2.94-4.42-4.42-1.33-1.33-1.94-2.94-1.88-4.81.04-1.16.41-2.21,1.09-3.14.81-1.11,1.83-1.94,3.15-2.39,1.58-.54,3.12-.38,4.63.29.89.4,1.61,1.01,2.29,1.69,3.7,3.71,7.41,7.41,11.12,11.12.57.57,1.15,1.15,1.65,1.78.93,1.19,1.82,2.42,2.55,3.76.59,1.07,1.17,2.15,1.55,3.32.58,1.79,1.08,3.59,1.22,5.47.09,1.17.18,2.36.14,3.53-.06,1.89-.41,3.75-.93,5.57-.46,1.6-1.09,3.13-1.89,4.58-.51.92-1.13,1.77-1.71,2.65-.18.28-.39.53-.59.8-.08.17-.15.33-.23.5-.07.04-.14.08-.21.12-.06-.03-.11-.06-.25-.14.08.17.12.25.16.33l-.1.1c-.11.02-.27-.01-.34.06-.58.56-1.14,1.13-1.7,1.7-.05.06-.04.18-.05.27-.04.06-.08.12-.12.19-.14.05-.31.06-.42.15-.39.3-.76.64-1.14.96-.38.24-.76.48-1.13.73-1.38.92-2.87,1.62-4.41,2.19-2.22.82-4.52,1.29-6.89,1.39-1.66.07-3.32.04-4.95-.3-1.32-.27-2.64-.58-3.91-.99-1.64-.53-3.19-1.29-4.64-2.22-.91-.59-1.83-1.17-2.58-1.98-.17-.18-.36-.34-.54-.51-.44-.43-.89-.85-1.33-1.28-.06-.07-.11-.15-.17-.21-4.81-4.8-9.61-9.6-14.42-14.4-.04-.06-.08-.11-.12-.17-.14-.12-.28-.24-.42-.35Z"/><path class="cls-1" d="m10.68,32.98s.06-.1.09-.15c.33-.31.66-.62.99-.93.26-.16.51-.32.77-.48,1.13-.71,2.36-1.08,3.65-1.14.14-.69.24-1.38.43-2.05.24-.87.74-1.63,1.28-2.35.02-.03.02-.09.03-.13.29-.25.59-.5.87-.76.09-.08.14-.21.21-.32.29-.18.58-.35.87-.53.99-.61,2.06-.98,3.22-1.08.14-.01.28-.05.42-.07,0-1.18.36-2.26.91-3.27.22-.41.49-.8.73-1.2.36-.36.72-.72,1.08-1.08.28-.17.56-.33.84-.5,1.4-.91,2.93-1.3,4.58-1.15,1.32.11,2.58.49,3.63,1.34.63.52,1.2,1.12,1.8,1.67.39.35.79.69,1.23,1.08l3.54-3.54c.34.34.63.63.92.92,4.86,4.86,9.73,9.71,14.57,14.6.67.68,1.19,1.51,1.77,2.28.95,1.26,1.72,2.64,2.34,4.09.52,1.21.92,2.47,1.32,3.72.5,1.61.82,3.26.86,4.95.02,1.3.08,2.6,0,3.89-.11,1.6-.4,3.18-.88,4.73-.5,1.64-1.08,3.24-1.87,4.77-.65,1.26-1.41,2.44-2.23,3.59-1.03,1.45-2.24,2.72-3.53,3.93-.56.53-1.2.99-1.86,1.41-1.13.73-2.27,1.47-3.46,2.09-2.56,1.33-5.29,2.18-8.14,2.53-1.71.21-3.46.19-5.18.12-2.06-.08-4.07-.52-6.03-1.13-1.79-.55-3.47-1.34-5.07-2.28-1.11-.66-2.17-1.43-3.16-2.25-1.28-1.06-2.47-2.23-3.73-3.38,1.17-1.17,2.29-2.29,3.43-3.43.07.07.16.14.24.22.8.8,1.57,1.64,2.41,2.39,1.37,1.24,2.86,2.31,4.57,3.04,1.02.44,2.04.87,3.09,1.25,1.44.51,2.95.73,4.47.85,2.04.16,4.06.02,6.06-.4,1.85-.39,3.59-1.09,5.27-1.96,1.09-.56,2.1-1.23,3.02-2.02.87-.74,1.75-1.49,2.54-2.32.67-.7,1.22-1.52,1.8-2.31,1.3-1.76,2.14-3.75,2.73-5.83.34-1.21.53-2.47.71-3.72.12-.85.15-1.71.13-2.57-.06-2.27-.41-4.49-1.3-6.59-.59-1.4-1.29-2.75-2.01-4.09-.32-.6-.79-1.13-1.24-1.65-3.52-4.1-7.57-7.69-11.32-11.58-.38-.39-.77-.77-1.21-1.21-.64.64-1.25,1.25-1.86,1.86-3.42,3.42-6.84,6.83-10.25,10.26-.48.49-.97.98-1.25,1.64-.4.93-.22,1.77.29,2.58.98,1.54,3.18,1.35,4.15.35,2.24-2.29,4.53-4.54,6.8-6.81.41-.4.39-.39.8.01.38.38.8.73,1.18,1.1.61.59,1.2,1.19,1.81,1.81-.27.33-.47.61-.71.87-.85.93-1.54,1.96-1.99,3.13-.37.99-.71,2.02-.91,3.06-.35,1.85-.24,3.7.25,5.53.4,1.49,1.07,2.86,1.92,4.13.35.53.81.99,1.23,1.48.12.14.24.23.05.42-1.04,1.02-2.06,2.05-3.09,3.07-.03.03-.06.04-.14.09-3.66-3.71-5.17-8.23-5.16-13.4-.36.16-.69.35-1.05.45-.76.22-1.54.41-2.31.58-.26.06-.39.14-.41.42-.13,1.46-.66,2.77-1.53,3.96-.89,1.21-2.03,2.06-3.45,2.51-.61.19-1.25.29-1.89.4-.23.04-.35.1-.37.35-.1,1.22-.5,2.33-1.15,3.38-.96,1.57-2.27,2.67-4.01,3.19-2.15.64-4.23.4-6.16-.75-.69-.41-1.3-.97-1.88-1.53-1.12-1.07-2.21-2.16-3.28-3.27-1.18-1.22-1.87-2.68-2.05-4.38-.17-1.56.12-3.02.82-4.41.68-1.35,1.74-2.31,3.06-3.01.26-.14.51-.28.76-.42-.6-1.05-.99-2.09-1.1-3.26-.16-1.68.32-3.18,1.15-4.6.16-.27.35-.52.52-.79Zm11.36,6.48h0c-1.19-1.19-2.39-2.36-3.56-3.56-.83-.86-2.37-1.16-3.48-.39-1.44,1-1.57,3-.44,4.16,2.36,2.4,4.76,4.77,7.14,7.15.18.18.39.36.61.49,1.07.64,2.26.54,3.07-.11,1.34-1.06,1.48-2.93.18-4.2-1.19-1.16-2.36-2.35-3.53-3.53Zm-5.37,9.1c-.57-.57-1.14-1.16-1.73-1.72-.27-.25-.57-.51-.91-.66-1.16-.5-2.6-.36-3.52,1.11-.53.84-.53,2.3.44,3.23,1.21,1.16,2.38,2.36,3.56,3.56.77.78,1.68,1.04,2.73.78.77-.19,1.33-.68,1.67-1.39.6-1.26.27-2.45-.66-3.34-.54-.52-1.06-1.05-1.58-1.58Zm7.44-13.85c.54-1.07,1.24-2,2.11-2.81.39-.36.76-.75,1.14-1.12.2-.19.22-.35,0-.56-.45-.43-.88-.89-1.33-1.32-.26-.25-.52-.5-.82-.68-1.06-.63-2.13-.58-3.1.15-.63.47-1.02,1.13-1.04,1.97-.03.92.29,1.66.95,2.28.7.67,1.38,1.37,2.1,2.09Zm8.79-9.48h0c.57-.57,1.14-1.15,1.73-1.72.2-.19.21-.33,0-.52-.65-.59-1.29-1.18-1.92-1.78-.95-.9-2.61-.83-3.58.11-1.17,1.13-1.07,2.72-.09,3.89.52.62,1.14,1.15,1.71,1.73.17.18.29.16.46-.01.56-.57,1.13-1.13,1.69-1.7Z"/><path class="cls-1" d="m216.49,69.47l-3.23,3.23c-.09.02-.18.05-.27.07-.19.16-.38.31-.57.47-.13.09-.26.18-.39.27-.8.55-1.56,1.17-2.41,1.62-1.6.84-3.27,1.53-5.03,2.01-1.53.42-3.09.72-4.67.81-1.18.07-2.38.01-3.57-.05-1.71-.09-3.38-.44-5.01-.94-2.24-.69-4.36-1.63-6.28-3-.69-.49-1.43-.93-2.02-1.51-4.31-4.26-8.58-8.54-12.87-12.82-.39-.39-.84-.74-1.14-1.19-.93-1.41-1.37-2.96-1.22-4.68.14-1.66.8-3.06,1.97-4.2.54-.53,1.25-.91,1.88-1.35.21-.14.5-.24.31-.57-.97-1.73-1.08-3.55-.52-5.41.55-1.83,1.81-3.08,3.42-3.98,1.63-.91,3.37-1.06,5.16-.53,1.36.41,2.48,1.21,3.47,2.21.53.53,1.06,1.06,1.58,1.58.44-.66.9-1.34,1.38-2.06-.09-.07-.2-.17-.32-.24-.95-.56-1.91-1.11-2.86-1.66-1.35-.78-2.7-1.57-4.05-2.34-1.13-.65-2.28-1.27-3.4-1.93-1.6-.93-3.18-1.89-4.78-2.82-1.64-.96-3.28-1.91-4.93-2.86-1.3-.75-2.6-1.5-3.92-2.21-1.51-.81-3.1.44-3.4,1.71-.27,1.15.24,2.15.99,2.63,1.2.76,2.46,1.44,3.69,2.16,1.79,1.04,3.58,2.07,5.36,3.12.68.4.67.42.24,1.11-.02.03-.01.08-.03.11-.51.9-1.02,1.81-1.54,2.71-.09.17-.22.22-.4.11-.25-.15-.51-.28-.76-.42-1.29-.74-2.58-1.48-3.86-2.23-1.48-.86-2.94-1.76-4.45-2.59-1.06-.59-1.96-1.38-2.58-2.37-.88-1.41-1.25-2.98-1.05-4.67.24-2.08,1.33-3.62,2.96-4.81.7-.51,1.52-.83,2.38-1.01,1.34-.29,2.69-.27,3.92.3,1.28.59,2.49,1.35,3.72,2.05,1.83,1.04,3.65,2.1,5.48,3.16,1.79,1.04,3.57,2.08,5.36,3.12,1.09.63,2.18,1.25,3.27,1.87.24.14.49.29.73.43.03-.03.06-.05.1-.08-.18-.29-.35-.58-.53-.86-.55-.94-1.1-1.89-1.65-2.83-.91-1.57-1.82-3.14-2.74-4.71-.95-1.64-1.91-3.28-2.86-4.92-.87-1.5-1.75-2.99-2.59-4.5-.74-1.34-.95-2.8-.69-4.3.18-1.05.49-2.07,1.23-2.87.56-.61,1.09-1.27,1.76-1.72,1.18-.8,2.52-1.15,3.98-1.12,1.84.03,3.36.79,4.68,1.98.52.47.88,1.13,1.25,1.75.97,1.61,1.9,3.24,2.84,4.86,1.53,2.63,3.06,5.25,4.59,7.88,1.67,2.89,3.34,5.77,5.01,8.66.1.17.17.21.33.05.97-.99,1.95-1.97,2.93-2.95.55-.55,1.1-1.1,1.67-1.67l.34.34c4.19,4.19,8.39,8.38,12.57,12.58.64.64,1.23,1.32,1.81,2.02.56.69,1.12,1.39,1.6,2.14,1.22,1.89,2.18,3.91,2.83,6.07.66,2.22,1.03,4.49,1.03,6.8,0,.88-.04,1.76-.16,2.63-.15,1.16-.33,2.33-.62,3.47-.43,1.72-1.04,3.38-1.91,4.93-.39.7-.82,1.37-1.23,2.05-.19.31-.39.61-.58.91-.22.23-.45.46-.67.7-.03.12-.05.24-.08.36Zm-35.49-5.41s-.08-.02-.12-.03c.01.05.02.1.03.15,1.73,1.69,3.43,3.41,5.2,5.07.66.62,1.45,1.11,2.22,1.6,1.51.95,3.14,1.64,4.86,2.09,2.29.61,4.63.82,6.99.57,1.33-.14,2.64-.37,3.92-.78,1.52-.49,2.97-1.14,4.32-1.99,1.09-.69,2.13-1.43,3.02-2.38.47-.5.95-.98,1.39-1.5.52-.62,1.05-1.23,1.47-1.91.95-1.55,1.81-3.16,2.25-4.95.27-1.09.55-2.2.68-3.31.12-1.01.09-2.05.05-3.08-.03-.84-.11-1.69-.24-2.53-.33-2.18-1.11-4.21-2.21-6.11-.74-1.28-1.6-2.49-2.66-3.54-3.14-3.14-6.28-6.28-9.42-9.42-.4-.4-.79-.79-1.2-1.2-.14.12-.28.21-.39.32-3.7,3.7-7.4,7.39-11.1,11.09-.18.18-.34.37-.5.55-1.05,1.16-.63,3.06.65,3.81.95.55,2.18.47,2.95-.3,2.09-2.06,4.16-4.14,6.24-6.21.21-.2.44-.38.68-.57.89.89,1.74,1.75,2.6,2.6.44.44.47.55,0,1.02-.84.86-1.45,1.84-1.97,2.92-.99,2.07-1.32,4.24-1.03,6.5.33,2.59,1.29,4.89,3.21,6.72.23.22.22.37,0,.58-.81.79-1.61,1.6-2.41,2.41-.15.16-.31.31-.51.51-3.32-3.52-4.88-7.64-4.75-12.43-.15.06-.3.1-.44.17-.88.45-1.81.69-2.79.8-.12.01-.29.21-.32.35-.12.48-.14.99-.29,1.47-.43,1.42-1.19,2.62-2.41,3.52-1.03.76-2.17,1.24-3.44,1.31-.42.02-.6.14-.6.55,0,.05,0,.1,0,.15-.2,1.44-.76,2.73-1.71,3.83-.61.71-1.34,1.29-2.25,1.6Zm8.9-27.94c.24-.24.44-.45.65-.65.92-.9,1.84-1.79,2.74-2.71.12-.12.21-.41.14-.53-1.04-1.84-2.11-3.67-3.18-5.5-1.47-2.52-2.96-5.03-4.43-7.55-1.89-3.24-3.77-6.49-5.65-9.73-.51-.87-1.85-1.37-2.81-1.09-.53.16-.85.55-1.22.91-.52.51-.64,1.14-.54,1.82.1.66.45,1.21.79,1.78.86,1.42,1.68,2.86,2.51,4.29,1.69,2.91,3.37,5.81,5.06,8.72.69,1.18,1.36,2.37,2.04,3.56.98,1.68,1.97,3.36,2.95,5.04.31.53.61,1.06.94,1.63Zm-10.19,13.49l.02-.02c1.13,1.13,2.27,2.26,3.39,3.4.61.61,1.36.71,2.15.58,1.06-.17,1.68-.85,1.97-1.86.27-.95-.02-1.75-.68-2.42-2.1-2.13-4.22-4.23-6.34-6.34-.24-.24-.5-.47-.78-.67-1.41-1.02-3.14-.25-3.74,1.14-.46,1.08-.15,2.04.67,2.86,1.12,1.11,2.23,2.23,3.34,3.34Zm-1.48,4.69s-.04.03-.05.05c-.63-.63-1.24-1.3-1.91-1.89-.79-.7-1.89-.77-2.78-.25-1.19.69-1.64,1.83-1.14,3.12.16.43.49.81.79,1.17.28.32.65.57.96.87.71.69,1.39,1.41,2.11,2.08.29.27.62.53.98.68,1.54.64,2.97-.3,3.35-1.75.26-.99-.12-1.83-.78-2.55-.49-.53-1.02-1.03-1.53-1.54Z"/></svg>