<?xml version="1.0" encoding="UTF-8"?><svg id="Layer_1" xmlns="http://www.w3.org/2000/svg" viewBox="0 0 73.69 73.64"><defs><style>.cls-1{fill:#3c3f42;}</style></defs><path class="cls-1" d="m6.79,45.28c-.89-.95-1.33-2.14-1.53-3.38-.27-1.66.08-3.25.93-4.7.4-.68.92-1.26,1.55-1.78.56-.46,1.16-.83,1.78-1.19,0-.03-.01-.07-.02-.1-1.73-1.73-3.45-3.47-5.2-5.18-.93-.9-1.72-1.88-2.15-3.12-.54-1.54-.57-3.08-.15-4.66.4-1.53,1.42-2.59,2.52-3.59.36-.33.83-.57,1.28-.77.36-.16.37-.34.25-.66-.27-.72-.6-1.44-.75-2.18-.38-1.87,0-3.63,1.07-5.21,1.22-1.82,2.94-2.92,5.1-3.21,1.48-.2,2.95.02,4.28.8.36.21.52.19.68-.23.43-1.09,1.3-1.83,2.13-2.56,1.01-.9,2.27-1.31,3.6-1.49,1.48-.2,2.91.08,4.21.8.65.36,1.27.82,1.81,1.34,1.97,1.92,3.9,3.88,5.85,5.83.3.3.63.56.92.87.06.07.08.29.03.35-1.02,1.05-2.06,2.08-3.11,3.13-.19-.19-.36-.36-.54-.54-2.01-2.01-4.02-4.03-6.03-6.04-.53-.53-1.07-1.01-1.85-1.15-1.14-.2-2.06.26-2.69,1.12-.62.85-.61,1.84-.11,2.79.1.18.28.31.43.46,5.76,5.76,11.51,11.52,17.28,17.26.29.28.3.45.01.73-.99.97-1.96,1.95-2.94,2.93-1.76-1.76-3.49-3.49-5.21-5.21-5.12-5.12-10.23-10.25-15.35-15.37-.5-.5-1-1.01-1.72-1.16-.91-.2-1.72-.05-2.44.61-.74.68-1.07,1.49-.87,2.47.07.36.21.74.43,1.02.35.45.79.82,1.19,1.22.07.08.15.15.23.22,6.56,6.56,13.13,13.12,19.69,19.68.22.22.23.35,0,.57-1.01.99-2,1.99-3.04,3.03-.17-.21-.3-.41-.47-.58-5.62-5.63-11.25-11.26-16.88-16.88-.96-.96-2.14-1.15-3.25-.62-1.62.78-1.88,2.87-.85,4.01.37.41.75.81,1.14,1.21,6.21,6.22,12.43,12.43,18.64,18.65.48.48.96.96,1.46,1.46l-3.23,3.23c-.12-.1-.24-.2-.35-.31-3.24-3.24-6.47-6.48-9.71-9.72-.32-.32-.68-.62-1.06-.87-1.25-.82-2.73-.33-3.54.78-.79,1.1-.42,2.58.42,3.41,6.21,6.17,12.38,12.37,18.58,18.54,1.07,1.06,2.36,1.88,3.67,2.63,1.38.78,2.82,1.44,4.34,1.92,1.58.5,3.2.87,4.86.94,1.22.05,2.44.12,3.66.05,2.25-.13,4.45-.59,6.53-1.49,1.23-.53,2.44-1.11,3.61-1.77.79-.45,1.46-1.1,2.23-1.6.97-.63,1.73-1.49,2.51-2.32,1.04-1.09,1.95-2.3,2.72-3.61.92-1.56,1.71-3.18,2.23-4.92.43-1.43.75-2.88.88-4.38.21-2.31.1-4.59-.32-6.87-.5-2.67-1.54-5.12-2.96-7.41-.61-.98-1.35-1.9-2.1-2.78-2.6-3.07-5.6-5.75-8.4-8.62-2.04-2.08-4.11-4.13-6.18-6.18-.34-.34-.72-.64-1.11-.91-.9-.63-2.18-.48-3.05.28-.83.73-1.09,1.6-.87,2.66.13.65.58,1.09,1.02,1.53,2.45,2.46,4.9,4.91,7.36,7.36.32.32.65.65,1,1-.26.26-.49.48-.7.71-.61.64-1.26,1.24-1.82,1.92-1.2,1.47-2.07,3.13-2.45,4.99-.2.98-.32,1.98-.33,2.98-.02,1.75.35,3.44,1.09,5.04.59,1.29,1.31,2.49,2.34,3.48.22.21.23.38,0,.61-1,.98-1.98,1.97-3.01,3-.4-.44-.83-.83-1.16-1.29-.6-.84-1.17-1.7-1.69-2.59-.72-1.22-1.23-2.55-1.55-3.92-.24-1-.46-2.02-.55-3.05-.09-.96-.02-1.93.03-2.9.08-1.56.45-3.06,1.01-4.51.55-1.44,1.2-2.83,2.16-4.04.17-.21.19-.39-.04-.62-1.73-1.71-3.45-3.44-5.17-5.17-1.55-1.56-2.27-3.43-2.2-5.62.05-1.35.48-2.58,1.27-3.67.94-1.3,2.15-2.27,3.68-2.8,1.85-.63,3.64-.45,5.41.34,1.04.46,1.89,1.18,2.68,1.97,4.33,4.34,8.67,8.67,13,13.01.67.67,1.35,1.34,1.93,2.09,1.09,1.4,2.13,2.83,2.99,4.39.69,1.26,1.37,2.51,1.81,3.88.68,2.09,1.27,4.2,1.43,6.4.1,1.37.21,2.75.17,4.13-.07,2.21-.48,4.38-1.09,6.51-.54,1.87-1.28,3.66-2.21,5.35-.59,1.07-1.32,2.07-2,3.09-.21.32-.46.63-.69.94-.09.2-.18.39-.27.59-.08.05-.16.09-.24.14-.06-.04-.13-.07-.3-.16.1.2.14.3.18.39l-.11.11c-.13.02-.32-.01-.4.06-.68.65-1.34,1.32-1.99,1.99-.06.06-.04.21-.06.32-.05.07-.1.14-.15.22-.17.05-.37.07-.5.17-.46.36-.89.74-1.34,1.12-.44.28-.89.56-1.32.85-1.61,1.08-3.35,1.9-5.16,2.56-2.6.95-5.29,1.51-8.05,1.63-1.94.08-3.88.04-5.79-.35-1.54-.32-3.08-.68-4.58-1.16-1.91-.62-3.73-1.51-5.43-2.6-1.07-.69-2.14-1.37-3.02-2.32-.2-.21-.42-.4-.63-.6-.52-.5-1.04-1-1.55-1.49-.07-.08-.12-.17-.2-.24-5.62-5.61-11.24-11.23-16.86-16.84-.05-.06-.09-.13-.14-.19-.16-.14-.33-.28-.49-.41Z"/></svg>