<?xml version="1.0" encoding="UTF-8"?><svg id="Layer_1" xmlns="http://www.w3.org/2000/svg" xmlns:xlink="http://www.w3.org/1999/xlink" viewBox="0 0 224 226"><defs><style>.cls-1{fill:url(#linear-gradient);}.cls-2{fill:#fff;}.cls-3{fill:none;stroke:#fff;stroke-miterlimit:10;}</style><linearGradient id="linear-gradient" x1="112.94" y1="139.95" x2="112.94" y2="37.01" gradientUnits="userSpaceOnUse"><stop offset="0" stop-color="#ffea6c"/><stop offset="1" stop-color="#e00"/></linearGradient></defs><rect class="cls-3" x="5.48" y="6.48" width="213.03" height="213.03" rx="24.34" ry="24.34"/><path class="cls-1" d="m152.46,128.13l-4.49,4.49c-.12.03-.25.07-.37.1-.27.22-.53.43-.8.65-.18.12-.36.25-.54.37-1.11.76-2.16,1.63-3.35,2.25-2.22,1.17-4.55,2.13-6.99,2.8-2.13.58-4.29,1-6.49,1.12-1.65.09-3.31.02-4.96-.07-2.37-.13-4.69-.61-6.97-1.31-3.12-.96-6.06-2.27-8.73-4.17-.95-.68-1.98-1.29-2.8-2.1-5.99-5.92-11.93-11.87-17.88-17.82-.54-.54-1.17-1.03-1.59-1.65-1.29-1.96-1.91-4.11-1.7-6.5.2-2.31,1.12-4.26,2.73-5.84.76-.74,1.73-1.27,2.62-1.88.29-.2.69-.33.43-.79-1.35-2.41-1.5-4.93-.73-7.52.76-2.54,2.52-4.28,4.76-5.54,2.26-1.27,4.68-1.48,7.17-.74,1.89.56,3.44,1.68,4.82,3.07.73.74,1.47,1.47,2.2,2.2.62-.92,1.25-1.87,1.92-2.86-.13-.1-.28-.24-.45-.34-1.32-.77-2.65-1.54-3.97-2.31-1.88-1.09-3.75-2.18-5.63-3.26-1.57-.9-3.17-1.77-4.73-2.68-2.22-1.29-4.42-2.62-6.64-3.92-2.28-1.33-4.57-2.66-6.86-3.97-1.81-1.04-3.61-2.09-5.45-3.07-2.1-1.12-4.31.61-4.72,2.37-.38,1.6.34,2.99,1.38,3.65,1.67,1.06,3.42,2.01,5.13,3,2.49,1.44,4.98,2.88,7.45,4.34.95.56.93.58.34,1.54-.03.04-.02.11-.04.15-.71,1.26-1.42,2.51-2.14,3.77-.13.23-.31.3-.56.15-.35-.2-.71-.38-1.06-.58-1.79-1.03-3.58-2.06-5.37-3.1-2.06-1.2-4.09-2.45-6.18-3.6-1.48-.82-2.72-1.91-3.59-3.3-1.23-1.96-1.74-4.14-1.46-6.5.33-2.89,1.85-5.03,4.11-6.69.97-.71,2.11-1.15,3.31-1.4,1.86-.4,3.73-.38,5.45.42,1.78.83,3.46,1.87,5.17,2.85,2.54,1.45,5.08,2.92,7.61,4.39,2.49,1.44,4.97,2.9,7.45,4.34,1.51.88,3.03,1.74,4.54,2.6.34.2.67.4,1.01.6.04-.04.09-.07.13-.11-.24-.4-.49-.8-.73-1.2-.76-1.31-1.53-2.62-2.29-3.93-1.27-2.18-2.54-4.36-3.8-6.54-1.33-2.28-2.65-4.56-3.98-6.84-1.21-2.08-2.44-4.15-3.6-6.26-1.03-1.87-1.32-3.9-.96-5.98.25-1.45.68-2.87,1.71-3.99.78-.84,1.52-1.77,2.45-2.4,1.64-1.11,3.51-1.6,5.53-1.56,2.56.04,4.67,1.1,6.51,2.75.72.65,1.23,1.57,1.74,2.43,1.34,2.23,2.64,4.5,3.95,6.75,2.13,3.65,4.26,7.3,6.38,10.95,2.33,4.01,4.64,8.03,6.96,12.04.14.24.24.29.46.07,1.35-1.37,2.71-2.73,4.07-4.1.77-.77,1.53-1.53,2.32-2.32l.48.48c5.83,5.83,11.66,11.65,17.47,17.49.88.89,1.71,1.84,2.51,2.81.78.96,1.56,1.93,2.23,2.97,1.7,2.63,3.03,5.43,3.93,8.44.92,3.09,1.43,6.24,1.42,9.46,0,1.22-.06,2.44-.22,3.65-.22,1.62-.46,3.24-.86,4.82-.6,2.39-1.44,4.7-2.65,6.85-.54.97-1.14,1.91-1.72,2.85-.26.43-.54.85-.81,1.27-.31.32-.62.64-.93.97-.04.17-.07.33-.11.5Zm-49.32-7.51c-.06-.01-.12-.03-.17-.04.02.07.03.14.05.21,2.4,2.35,4.77,4.74,7.23,7.04.92.86,2.01,1.55,3.08,2.22,2.09,1.32,4.37,2.28,6.75,2.91,3.18.84,6.43,1.14,9.72.79,1.85-.2,3.68-.52,5.45-1.09,2.12-.68,4.13-1.59,6.01-2.77,1.51-.95,2.97-1.99,4.2-3.31.65-.69,1.32-1.36,1.93-2.08.72-.86,1.46-1.71,2.04-2.66,1.32-2.16,2.51-4.4,3.13-6.88.38-1.52.76-3.05.94-4.61.17-1.41.12-2.85.07-4.28-.04-1.17-.16-2.35-.34-3.51-.46-3.03-1.54-5.85-3.07-8.49-1.03-1.78-2.23-3.46-3.7-4.92-4.37-4.36-8.73-8.73-13.09-13.09-.55-.55-1.1-1.1-1.66-1.66-.2.17-.38.29-.54.45-5.14,5.14-10.28,10.28-15.42,15.42-.24.24-.47.51-.7.77-1.46,1.61-.88,4.26.91,5.29,1.33.77,3.03.65,4.1-.41,2.9-2.86,5.77-5.76,8.67-8.63.29-.28.62-.52.94-.79,1.23,1.23,2.42,2.43,3.62,3.61.61.6.65.76.01,1.42-1.17,1.19-2.02,2.56-2.74,4.06-1.38,2.88-1.84,5.89-1.43,9.03.46,3.59,1.79,6.8,4.46,9.35.32.3.31.51,0,.81-1.13,1.1-2.24,2.23-3.35,3.35-.22.22-.43.43-.7.7-4.61-4.89-6.78-10.61-6.6-17.28-.21.08-.42.14-.61.23-1.22.63-2.52.96-3.88,1.11-.17.02-.4.3-.45.49-.17.67-.2,1.38-.4,2.04-.6,1.97-1.66,3.64-3.35,4.89-1.43,1.06-3.01,1.72-4.78,1.82-.58.03-.84.19-.83.76,0,.07.01.14,0,.21-.28,2-1.06,3.79-2.37,5.32-.85.99-1.87,1.79-3.13,2.23Zm12.37-38.83c.34-.34.62-.62.9-.9,1.27-1.25,2.56-2.49,3.81-3.76.16-.16.29-.57.2-.73-1.45-2.56-2.93-5.1-4.42-7.64-2.05-3.5-4.11-6.99-6.16-10.5-2.63-4.5-5.24-9.01-7.86-13.52-.71-1.21-2.57-1.91-3.91-1.51-.73.22-1.19.77-1.7,1.26-.72.7-.89,1.58-.75,2.53.14.92.62,1.69,1.1,2.47,1.2,1.97,2.33,3.97,3.49,5.97,2.35,4.04,4.69,8.08,7.03,12.12.95,1.64,1.89,3.3,2.84,4.94,1.36,2.34,2.74,4.67,4.1,7,.43.74.85,1.48,1.31,2.27Zm-14.17,18.74s.02-.02.02-.02c1.57,1.57,3.15,3.14,4.72,4.72.85.85,1.89.98,2.98.8,1.48-.24,2.33-1.18,2.73-2.59.38-1.32-.03-2.44-.94-3.36-2.92-2.96-5.87-5.88-8.81-8.82-.34-.34-.7-.66-1.09-.94-1.96-1.42-4.37-.34-5.2,1.58-.64,1.5-.21,2.84.93,3.98,1.55,1.54,3.1,3.09,4.65,4.64Zm-2.05,6.52s-.05.05-.07.07c-.88-.88-1.72-1.8-2.65-2.63-1.09-.97-2.63-1.07-3.87-.35-1.65.95-2.27,2.54-1.58,4.34.23.6.68,1.13,1.1,1.62.39.45.9.79,1.33,1.21.98.96,1.93,1.96,2.93,2.9.4.38.87.73,1.37.94,2.13.89,4.13-.41,4.66-2.43.36-1.37-.16-2.54-1.09-3.54-.68-.74-1.42-1.43-2.13-2.14Z"/><path class="cls-2" d="m38.17,184.89l2.56-2.96c3.04,2.96,6.12,4.4,9.64,4.4,4.04,0,6.8-1.92,6.8-4.68,0-2.52-1.6-3.72-5.68-4.4l-4.68-.76c-5.12-.88-7.64-3.24-7.64-7.28,0-4.84,4.08-8.04,10.32-8.04,4,0,8.12,1.36,11.28,3.8l-2.32,3.2c-3.04-2.32-6.04-3.44-9.16-3.44-3.64,0-6.08,1.68-6.08,4.16,0,2.28,1.4,3.36,5,3.92l4.52.76c5.92.96,8.6,3.4,8.6,7.76,0,5.12-4.48,8.6-11.16,8.6-4.48,0-8.8-1.8-12-5.04Z"/><path class="cls-2" d="m65.81,179.33c0-5.92,4.6-10.56,10.48-10.56,3.08,0,6.08,1.24,8.16,3.36l-2.48,2.76c-1.56-1.68-3.52-2.56-5.6-2.56-3.72,0-6.6,3.08-6.6,7s2.92,7.04,6.68,7.04c2.04,0,3.84-.8,5.48-2.44l2.44,2.56c-2.16,2.16-5.04,3.4-8.08,3.4-5.88,0-10.48-4.6-10.48-10.56Z"/><path class="cls-2" d="m88.73,163.41c0-1.36,1.12-2.44,2.44-2.44s2.48,1.08,2.48,2.44-1.12,2.48-2.48,2.48-2.44-1.12-2.44-2.48Zm.44,5.76h4v20.36h-4v-20.36Z"/><path class="cls-2" d="m97.57,186.93l2.2-2.64c2.08,1.68,4.32,2.56,6.6,2.56,2.88,0,4.88-1.24,4.88-3.04,0-1.48-1.04-2.32-3.28-2.64l-3.68-.52c-4.08-.56-6.08-2.52-6.08-5.72,0-3.64,3.2-6.16,8-6.16,2.96,0,5.64.88,8.16,2.64l-2.04,2.64c-2.24-1.48-4.28-2.16-6.44-2.16-2.44,0-4.08,1.12-4.08,2.8,0,1.52.96,2.28,3.36,2.6l3.68.52c4.04.56,6.16,2.52,6.16,5.68,0,3.68-3.68,6.44-8.52,6.44-3.52,0-6.68-1.08-8.92-3Z"/><path class="cls-2" d="m117.77,186.93l2.2-2.64c2.08,1.68,4.32,2.56,6.6,2.56,2.88,0,4.88-1.24,4.88-3.04,0-1.48-1.04-2.32-3.28-2.64l-3.68-.52c-4.08-.56-6.08-2.52-6.08-5.72,0-3.64,3.2-6.16,8-6.16,2.96,0,5.64.88,8.16,2.64l-2.04,2.64c-2.24-1.48-4.28-2.16-6.44-2.16-2.44,0-4.08,1.12-4.08,2.8,0,1.52.96,2.28,3.36,2.6l3.68.52c4.04.56,6.16,2.52,6.16,5.68,0,3.68-3.68,6.44-8.52,6.44-3.52,0-6.68-1.08-8.92-3Z"/><path class="cls-2" d="m139.17,179.37c0-5.92,4.68-10.6,10.6-10.6s10.6,4.68,10.6,10.6-4.68,10.56-10.6,10.56-10.6-4.64-10.6-10.56Zm17.28,0c0-3.96-2.96-7.08-6.68-7.08s-6.68,3.12-6.68,7.08,2.96,7.04,6.68,7.04,6.68-3.08,6.68-7.04Z"/><path class="cls-2" d="m165.77,169.17h4v2.6c1.28-1.96,3.2-3.08,5.6-3.08.88.04,1.44.12,2.04.36v3.6c-.76-.28-1.56-.44-2.36-.44-2.36,0-4.24,1.28-5.28,3.68v13.64h-4v-20.36Z"/><path class="cls-2" d="m180.25,186.93l2.2-2.64c2.08,1.68,4.32,2.56,6.6,2.56,2.88,0,4.88-1.24,4.88-3.04,0-1.48-1.04-2.32-3.28-2.64l-3.68-.52c-4.08-.56-6.08-2.52-6.08-5.72,0-3.64,3.2-6.16,8-6.16,2.96,0,5.64.88,8.16,2.64l-2.04,2.64c-2.24-1.48-4.28-2.16-6.44-2.16-2.44,0-4.08,1.12-4.08,2.8,0,1.52.96,2.28,3.36,2.6l3.68.52c4.04.56,6.16,2.52,6.16,5.68,0,3.68-3.68,6.44-8.52,6.44-3.52,0-6.68-1.08-8.92-3Z"/></svg>