<?xml version="1.0" encoding="UTF-8"?><svg id="Layer_1" xmlns="http://www.w3.org/2000/svg" viewBox="0 0 224 226"><defs><style>.cls-1{fill:#fff;}.cls-2{fill:#6ec664;}.cls-3{fill:none;stroke:#fff;stroke-miterlimit:10;}</style></defs><rect class="cls-3" x="5.48" y="6.48" width="213.03" height="213.03" rx="24.34" ry="24.34"/><path class="cls-2" d="m66.87,104.15c-1.26-1.34-1.88-3.01-2.16-4.77-.38-2.34.11-4.59,1.31-6.63.56-.96,1.3-1.78,2.19-2.51.79-.65,1.64-1.17,2.51-1.67,0-.05-.02-.09-.02-.14-2.44-2.44-4.87-4.9-7.34-7.31-1.31-1.28-2.43-2.65-3.04-4.4-.76-2.17-.8-4.34-.21-6.57.57-2.15,2-3.65,3.55-5.06.51-.46,1.17-.8,1.8-1.08.51-.22.52-.49.35-.93-.38-1.02-.84-2.02-1.06-3.08-.54-2.64,0-5.12,1.5-7.35,1.72-2.57,4.15-4.12,7.2-4.53,2.09-.28,4.16.03,6.04,1.13.51.3.73.26.96-.33.61-1.54,1.83-2.58,3-3.62,1.42-1.27,3.21-1.85,5.08-2.1,2.09-.28,4.1.12,5.94,1.12.92.5,1.8,1.16,2.55,1.89,2.78,2.71,5.5,5.48,8.25,8.22.42.42.89.79,1.3,1.22.09.09.12.41.04.49-1.44,1.48-2.91,2.93-4.39,4.41-.26-.26-.51-.51-.75-.75-2.83-2.84-5.67-5.68-8.5-8.52-.74-.74-1.51-1.42-2.61-1.62-1.6-.29-2.9.36-3.79,1.59-.87,1.2-.86,2.6-.15,3.93.13.25.39.44.6.65,8.12,8.12,16.23,16.24,24.36,24.35.4.4.42.63.02,1.02-1.4,1.36-2.77,2.75-4.15,4.14-2.48-2.48-4.92-4.91-7.35-7.35-7.22-7.22-14.43-14.45-21.65-21.67-.7-.7-1.41-1.42-2.42-1.64-1.28-.28-2.43-.07-3.45.86-1.05.96-1.51,2.1-1.23,3.48.1.5.29,1.04.6,1.44.49.63,1.11,1.16,1.68,1.73.11.11.21.21.32.31,9.26,9.25,18.51,18.51,27.77,27.75.32.32.32.5,0,.81-1.42,1.39-2.82,2.81-4.28,4.27-.24-.3-.43-.58-.66-.82-7.93-7.94-15.86-15.87-23.8-23.8-1.36-1.36-3.02-1.63-4.58-.87-2.28,1.11-2.65,4.05-1.2,5.66.52.58,1.06,1.15,1.61,1.7,8.76,8.77,17.53,17.53,26.29,26.3.68.68,1.36,1.36,2.06,2.06l-4.55,4.55c-.17-.15-.34-.28-.49-.43-4.57-4.57-9.13-9.14-13.7-13.71-.45-.45-.95-.88-1.49-1.23-1.76-1.15-3.85-.46-4.99,1.11-1.12,1.55-.59,3.63.59,4.81,8.75,8.7,17.45,17.45,26.21,26.15,1.51,1.5,3.32,2.66,5.18,3.71,1.95,1.1,3.98,2.03,6.12,2.71,2.23.71,4.51,1.23,6.85,1.33,1.72.07,3.45.17,5.16.07,3.17-.19,6.27-.83,9.2-2.1,1.73-.75,3.44-1.57,5.09-2.49,1.11-.63,2.06-1.55,3.14-2.25,1.37-.89,2.43-2.11,3.54-3.26,1.47-1.54,2.75-3.25,3.84-5.09,1.29-2.2,2.41-4.49,3.15-6.94.61-2.02,1.05-4.07,1.24-6.17.29-3.25.15-6.47-.46-9.68-.71-3.76-2.17-7.22-4.17-10.45-.86-1.39-1.9-2.68-2.96-3.93-3.67-4.33-7.89-8.11-11.85-12.16-2.87-2.94-5.8-5.82-8.71-8.71-.48-.47-1.02-.9-1.57-1.29-1.28-.89-3.08-.67-4.3.4-1.18,1.03-1.53,2.26-1.23,3.75.18.92.82,1.54,1.44,2.16,3.45,3.46,6.92,6.92,10.37,10.37.46.46.92.92,1.41,1.41-.37.37-.69.68-.99,1-.86.9-1.78,1.75-2.56,2.71-1.69,2.07-2.92,4.41-3.45,7.04-.28,1.38-.45,2.8-.47,4.2-.03,2.47.49,4.86,1.53,7.11.83,1.81,1.85,3.51,3.3,4.91.31.3.33.53,0,.86-1.41,1.38-2.8,2.78-4.24,4.22-.57-.62-1.17-1.17-1.64-1.82-.84-1.18-1.65-2.39-2.38-3.65-1.01-1.73-1.73-3.59-2.19-5.53-.34-1.42-.65-2.85-.78-4.3-.12-1.35-.02-2.73.05-4.09.11-2.2.64-4.31,1.42-6.36.77-2.03,1.69-3.98,3.05-5.7.24-.3.27-.55-.06-.88-2.45-2.41-4.86-4.85-7.29-7.28-2.19-2.19-3.2-4.84-3.1-7.93.07-1.91.67-3.64,1.79-5.18,1.33-1.83,3.03-3.21,5.19-3.95,2.61-.89,5.14-.63,7.63.48,1.47.66,2.66,1.66,3.78,2.78,6.11,6.12,12.23,12.22,18.33,18.34.94.95,1.9,1.89,2.72,2.94,1.54,1.97,3,3.99,4.21,6.19.97,1.77,1.93,3.54,2.56,5.47.95,2.94,1.79,5.92,2.02,9.02.14,1.94.3,3.88.24,5.82-.1,3.12-.67,6.18-1.53,9.19-.76,2.64-1.8,5.16-3.12,7.55-.83,1.51-1.87,2.92-2.82,4.36-.3.46-.65.88-.98,1.32-.13.28-.25.55-.38.83-.11.06-.23.13-.34.19-.09-.05-.18-.1-.42-.23.14.29.2.42.26.55l-.16.16c-.19.03-.45-.02-.56.09-.95.92-1.88,1.86-2.8,2.81-.09.09-.06.3-.08.45-.07.1-.14.2-.2.31-.24.08-.52.1-.7.24-.65.5-1.26,1.05-1.88,1.58-.62.4-1.25.79-1.86,1.2-2.27,1.52-4.73,2.67-7.28,3.61-3.66,1.35-7.46,2.13-11.36,2.3-2.73.12-5.47.06-8.16-.49-2.17-.45-4.35-.95-6.45-1.64-2.7-.88-5.26-2.13-7.65-3.67-1.51-.97-3.02-1.93-4.25-3.27-.28-.3-.59-.56-.89-.85-.73-.7-1.46-1.4-2.19-2.11-.09-.12-.17-.24-.28-.35-7.93-7.92-15.85-15.83-23.78-23.75-.06-.09-.13-.18-.19-.27-.23-.19-.46-.39-.7-.58Z"/><path class="cls-1" d="m65.02,161.53h12.96c5.48,0,9.16,3.4,9.16,8.36s-3.72,8.36-9.16,8.36h-8.76v11.28h-4.2v-28Zm12.52,13.16c3.28,0,5.4-1.84,5.4-4.76s-2.12-4.72-5.4-4.72h-8.32v9.48h8.32Z"/><path class="cls-1" d="m90.5,183.69c0-3.84,3.12-6.2,8.24-6.2,1.96,0,3.88.4,5.56,1.16v-2.16c0-2.88-1.72-4.36-4.96-4.36-1.88,0-3.8.52-6.32,1.72l-1.48-3c3.08-1.44,5.68-2.08,8.36-2.08,5.32,0,8.32,2.6,8.32,7.24v13.52h-3.92v-1.76c-1.8,1.44-3.84,2.12-6.32,2.12-4.4,0-7.48-2.52-7.48-6.2Zm8.4,3.2c2.16,0,3.92-.6,5.4-1.92v-3.44c-1.52-.88-3.2-1.28-5.24-1.28-2.92,0-4.72,1.32-4.72,3.36s1.84,3.28,4.56,3.28Z"/><path class="cls-1" d="m114.42,169.17h3.96v1.96c1.68-1.48,3.84-2.28,6.24-2.28,5.8,0,10.28,4.6,10.28,10.48s-4.52,10.52-10.36,10.52c-2.24,0-4.36-.76-6.12-2.08v9.92h-4v-28.51Zm16.56,10.2c0-4-3-7.04-6.88-7.04-2.32,0-4.36.88-5.68,2.44v9.2c1.32,1.52,3.4,2.4,5.68,2.4,3.92,0,6.88-3,6.88-7Z"/><path class="cls-1" d="m139.38,179.33c0-5.88,4.48-10.52,10.2-10.52s9.84,4.68,9.84,10.72v1.12h-16.04c.56,3.36,3.32,5.84,6.84,5.84,2,0,3.88-.64,5.16-1.8l2.56,2.52c-2.4,1.84-4.84,2.68-7.88,2.68-6,0-10.68-4.6-10.68-10.56Zm16.08-1.68c-.56-3.12-3-5.44-5.96-5.44s-5.52,2.2-6.08,5.44h12.04Z"/><path class="cls-1" d="m164.82,169.17h4v2.6c1.28-1.96,3.2-3.08,5.6-3.08.88.04,1.44.12,2.04.36v3.6c-.76-.28-1.56-.44-2.36-.44-2.36,0-4.24,1.28-5.28,3.68v13.64h-4v-20.36Z"/></svg>