<?xml version="1.0" encoding="UTF-8"?><svg id="Layer_1" xmlns="http://www.w3.org/2000/svg" viewBox="0 0 236.4 349.53"><defs><style>.cls-1{fill:#6ec664;}</style></defs><path class="cls-1" d="m219.18,224.86c.16-.05.31-.1.47-.15,0,0,0,0,0,0-.16.05-.31.1-.47.15Z"/><path class="cls-1" d="m211.45,225.17c0,.21-.02.43-.02.64.47-.29.32-.47.02-.64Z"/><path class="cls-1" d="m23.08,135.9c-1.42-1.13-3.01-.81-4.59-.71-.38.04-.99-.05-1.07.31-.4,1.76-2.38,1.82-3.11,3.23-.3.58-1.13.44-1.73.59-.08.56-.16,1.12-.24,1.67.97-.25,1.58.04,1.65,1.15.08.15.17.3.25.45.26-.3.6-.31.95-.32,1.63-.44,3.28-.27,4.92-.11.12,1.03,1.2.52,1.64,1.06-.31.91-1.09.98-1.82,1.29-1.19.5-2.47-.06-3.72.8-.85.59-1.25-.77-1.27-1.71-.54.07-1.36-.07-1.57.24-.96,1.39-2.16,1.06-3.48.92-1.22-.13-2.54-.14-3.45,1.02-.24.02-.49.04-.73.07,0,5.33,0,10.66.01,16,.06,0,.13,0,.19,0,.24.7.69,1.07,1.43,1.01.24-.34.56-.46.96-.39h0c.18-.07.35-.14.53-.2.58-.03,1.15-.05,1.73-.08h0s.04-.1.04-.09c.43-.49.96-.43,1.5-.28,1.36-.39,2.72-.77,4.08-1.17.2-.06.4-.11.59-.1.13-.13.29-.24.4-.38.51-.58,1.08-1.13,1.9-.58.47.31.34.79.3,1.25,1.6.83,3.29.88,5,.8,0-3.42,0-6.85,0-10.27-.07.07-.16.16-.18.15-.15-.07-.3-.16-.4-.27-.05-.05-.05-.21,0-.25.05-.04.23-.05.29,0,.11.08.2.2.29.3,0-.58,0-1.15,0-1.73-.07.07-.15.16-.17.15-.15-.07-.3-.16-.4-.28-.05-.05-.05-.21,0-.25.05-.04.23-.05.29,0,.11.08.2.19.29.3,0-4.51-.02-9.01-.03-13.52-.04,0-.08,0-.12,0-.38,0-.88.14-1.12-.05Zm-5.6.62c.15-.18.36-.3.54-.45.11.11.31.26.29.3-.11.2-.25.41-.43.55-.08.07-.27.01-.41.01,0-.14-.06-.32.01-.41Zm-.43.42c.09-.07.33-.06.4,0,.07.07.02.26.02.4-.19.14-.47.45-.55.41-.57-.33-.18-.6.13-.81Zm1.59,1.19c-.03.15-.05.31-.11.44-.23.52-.55.95-1.18.93-.24-.01-.45-.16-.4-.45.11-.65.6-.85,1.15-.97.18.01.36.02.53.03.22-.47.51-.58.88-.14-.29.05-.57.1-.86.15Zm2.15-1.2c-.11-.1-.21-.21-.34-.33.11-.2.22-.4.34-.6.11.1.31.23.3.31-.05.22-.19.42-.3.63Zm-10.35,23.13c-.08-.13-.16-.26-.24-.39.09-.08.17-.15.24-.22.08.13.18.26.21.41.01.05-.14.13-.21.2Zm11.62-12.1c-.49-.41-.49-.81,0-1.21.49.4.49.81,0,1.21Zm1.7,2.76c.05.06,0,.18,0,.27h-.31c-.1-.12-.33-.3-.3-.35.24-.36.44-.12.59.08Zm0-1.55c-.11,0-.23.03-.31,0-.44-.23-.44-.58-.31-.95.03-.08.19-.2.21-.19.15.09.36.18.39.31.06.27.02.56.02.84Z"/><path class="cls-1" d="m7.8,164.25c.18.02.36-.1.53-.37.46-.02.93-.03,1.39-.05-.46.02-.93.03-1.39.04-.17.27-.34.39-.53.37Z"/><path class="cls-1" d="m9.72,163.84c.11-.06.22-.13.31-.19-.1.07-.2.14-.31.19h0Z"/><path class="cls-1" d="m24.36,162.24c0-.11,0-.21,0-.32,0,.11,0,.22,0,.32Z"/><path class="cls-1" d="m15.39,119.04c.74-.02,1.73.2,1.68-1.09-.04-.93-.78-.84-1.42-.86-.8.04-1.7.1-1.7,1.2,0,.98.86.76,1.44.74Z"/><path class="cls-1" d="m211.57,221.85c-.02.82-.06,1.64-.09,2.46,1.02-.5,2.29-.42,3.2-1.43-1.08-.38-2.27-.21-3.1-1.03Z"/><path class="cls-1" d="m6.11,179.08c.11.21.18.55.35.61,2.19.79,4.52.78,6.78,1.14.9.14.85-1.04.88-1.67.03-.59-.56-.64-1.06-.49-1.04.3-1.97-.29-2.96-.39,0,0,0,0,0,0-1.3.42-2.75,0-3.98.81Z"/><path class="cls-1" d="m212.48,219.17s-.09-.05-.09-.05c-.23-.02-.5.01-.77.05-.01.59-.02,1.19-.03,1.78.52-.44,1.13-.88.88-1.78Z"/><path class="cls-1" d="m6.95,113.38h0c.07.04.15.06.21.1-.07-.04-.14-.06-.21-.1Z"/><path class="cls-1" d="m21.58,168.39c-.36.64-.85,1.15-1.4,1.45.01.03.03.05.04.08.01.05-.14.13-.21.2-.03-.05-.06-.1-.09-.15-.63.26-1.35.25-2.07-.15-1.6-.88-3.17-.73-4.8-.76-.24,0-.47-.01-.71-.03-.5-.04-1.02-.13-.86-.81.12-.48.59-.52.97-.33,1.55.73,2.72-.07,4.06-.99-.8-.55-1.8-.63-2.1-1.59-.2.01-.4.03-.6.04-.8.74-1.61,1.18-2.51.16-.47.03-.95.05-1.42.08-.02-.29-.05-.58-.07-.87.02.29.05.58.07.87-1.48.23-2.97.49-4.01-1.05-.05,0-.09,0-.14,0,0,3.7,0,7.4,0,11.1,1.3.26,2.62.46,3.96.28.36.09.72.18.95.51,1.37.48,2.78.64,4.22.54.86-.05,1.73-.08,2.59-.16.43-.04.73-.33.73-.8,0-.49-.35-.68-.77-.74-.86-.12-1.81.33-3.06-.47,1.57-.32,2.71-.44,3.83-.17,1.7.41,3.37.79,5.1.19.37-.13.8-.14,1.08.19,0-2.38,0-4.75,0-7.13-.08-.04-.16-.09-.24-.15-1.39-.94-1.74-.78-2.53.64Zm-11.27-2.02c-.06.01-.15-.12-.22-.19.15-.07.3-.16.46-.19.06-.01.15.12.22.19-.15.07-.3.16-.46.19Zm1.37,3.63c-.06.01-.15-.12-.22-.19.15-.07.3-.15.44-.22.09.08.17.15.24.22-.15.07-.3.16-.46.19Zm1.58,3.05c-.14-.07-.29-.14-.44-.22.08-.07.17-.2.22-.19.16.03.31.12.46.19-.08.07-.15.13-.24.22Zm.24-2.64c.46-.43.91-.43,1.37,0-.46.43-.91.43-1.37,0Zm6.15,4.24c.46-.43.91-.43,1.37,0-.46.43-.91.43-1.37,0Zm1.13-.34c-.11-.21-.25-.41-.3-.63-.02-.08.19-.2.3-.31.11.2.23.41.34.6-.13.12-.23.23-.34.33Z"/><path class="cls-1" d="m7.36,163.95c0-.37-.02-.73-.02-1.1,0,.37.02.73.02,1.1h0Z"/><path class="cls-1" d="m230.77,227.62s.03-.06.05-.09h0s-.03.06-.05.09Z"/><path class="cls-1" d="m7.37,115.66c-.24.13-.49.07-.77-.24-.09,0-.19,0-.28,0h0c.09,0,.19,0,.28,0,.27.31.53.37.77.24Z"/><path class="cls-1" d="m13.01,104.92c.03.13.05.27.06.41-.08.15-.18.27-.29.35.11-.08.21-.2.29-.35,2.34.72,4.71.94,7.11.37,0-.55-.3-.98-.55-1.43,0-.2.05-.38.12-.53-.07.15-.11.33-.12.53-.49.03-.98.05-1.47.08-.8.02-1.61.12-2.39-.18.63-.64,1.31-.79,1.83-.47-.52-.32-1.21-.17-1.83.47-.94.19-2.04-.25-2.77.75Z"/><path class="cls-1" d="m229.26,238.24c.33-.04.63-.11.9-.21.07-.55.14-1.09.21-1.64.03-.28.05-.57.08-.86-.41-.1-.8-.22-1.06-.63-.45.08-.9.16-1.35.24-.98,1.15-1.2,1.15-1.99-.05-.31-.36-.63-.72-.94-1.07-.47.28-.9.9-1.51.25,0-.68,0-1.36-.01-2.03-1.28-.1-2.65.03-3.4-1.41.09-.32.18-.63.27-.95-.1-.12-.22-.22-.3-.35-.18-.3-.74-.52-.47-.91.22-.32.71-.11,1.08,0,1.58-.01,3.12-.31,4.63-.76-.1-.9-.56-1.8-1.45-1.37-.83.39-1.63.45-2.41.38-.06.69-.17.69-1.56.69-.1-.16-.18-.31-.23-.47-.38.03-.76-.08-1.14-.36.17-.12.33-.21.5-.28-.13-.02-.26-.05-.4-.07-.33.02-.65.04-.98.07,0-.15,0-.3,0-.46,0,.15,0,.3,0,.46-.31.03-.63.06-.94.09-.79.02-1.58.05-2.37.07h0c-.32.42-.77.47-1.25.47-1.35,0-1.75.76-1.51,2.03h-.37c.12,0,.25,0,.37,0,.23,0,.48-.08.7-.02,1.46.4,2.84,1.13,4.45.96.65-.07,1.05.59,1.07,1.33-.01.13-.02.25-.03.38-2.24-.09-4.48-.17-6.73-.26-.06.89-.1,1.78-.18,2.66-.08.91-.16,1.83-.25,2.74.03,0,.05-.02.07-.03,0,0,0,0,0,0,.02-.33.04-.66.06-.99,2.31.12,4.64.07,6.77,1.12-.85,1.02-2.32.76-3.53,1.19-.75.27-1.53.32-1.83,1.24,1.6.19,3.24-.28,4.82.29,1.35-.78,2.65-1.69,4.32-1.51.31.03.63-.05.92.03.37.1.76.3.7.8-.05.41-.42.41-.72.45-.54.07-1.09.07-1.63.16-.56.09-.7.57-.77,1.06.55,0,1.13-.13,1.54.4-.03.72.29,1.53-.48,2.06-1.96-.05-3.57,1.44-5.54,1.31-.86.21-1.48-.49-2.24-.65-.54-.11-1.22-.31-1.46.34-.26.72.39.94.94,1.09.15.04.31.06.47.08.25.04.45.15.5.42.07.4-.22.64-.51.7-.62.12-1.25.14-1.88.21-.39.05-.8.1-.98.54-.21.53.08.93.39,1.31.57.71,1.35.77,2.16.74.31-.01.62-.02.93.42-.65.6-1.47.33-2.18.4-1.01.09-1.98-.07-2.93-.34-2.58,10.43-6.64,20.28-12.76,29.24-2.49,3.65-5.2,7.09-8.1,10.35.27-.03.55.03.66.21,0,.07.02.16-.02.2-.23.28-.81.28-1.05.05-3.31,3.68-6.88,7.12-10.73,10.33-4.79,4-9.99,7.33-15.47,10.28-6.66,3.59-13.75,6.02-21.04,7.91-.72.19-1.43.36-2.15.53.02.02.04.05.06.07-.21.11-.41.22-.61.33-.09-.09-.16-.16-.23-.23-5.16,1.14-10.4,1.79-15.67,1.92-4.72.12-9.47.42-14.18-.57-3.71-.78-7.6-.84-11.24-1.85-5.35-1.49-10.62-3.37-15.8-5.41-8.76-3.45-16.56-8.57-23.57-14.8-3.78-3.36-7.17-7.17-10.6-10.9-4.68-5.1-8.33-10.92-11.51-17.05-3.05-5.88-5.35-12.05-7.11-18.41-.07-.24-.13-.47-.19-.71-.25.03-.52-.03-.67-.21-.04-.05-.05-.15-.02-.2.09-.15.3-.22.51-.23-1.5-5.63-2.68-11.36-2.7-17.18-.02-5.4-.02-10.8-.03-16.21-.06-.06-.11-.11-.11-.15.02-.09.06-.18.1-.26-.02-11.15-.03-22.31-.03-33.46-.03-.02-.06-.03-.09-.05-.05.04-.12.09-.17.13-.08-.13-.16-.26-.24-.39.09-.08.17-.15.24-.22.05.08.1.16.14.25.04-.04.08-.08.12-.12,0-.44,0-.88,0-1.32-.06,0-.13,0-.24-.02-.21,0-.44.04-.63-.01-.15-.05-.24-.22-.36-.34.17-.08.34-.22.52-.24.18-.02.39.05.58.11.05.02.09.05.13.09,0-.53,0-1.06,0-1.6-.14,0-.27-.01-.41-.04-.73-.76-1.62-.32-2.45-.33l-2.42.42c-.39-.25-.79-.46-1.26-.44-.66.03-1.33.06-1.99.08-.15-.03-.28-.07-.39-.12.11.05.23.09.39.12q-.92.94.52,1.53c.01.3.02.59.03.89-.27.18-.55.35-.82.54.13,0,.24-.03.3-.09,1.05-1.12,1.69-.38,2.51.41-1.29.47-2.47-.08-3.49.49.24.23.46.44.71.69-.64.4-1.03.27-1.36,0,0,0,0,0,0,0,0-.01-.01-.02-.02-.03-.23-.2-.43-.46-.66-.66.02-.01.03-.02.04-.04-1.01-.92-2.16-.83-3.41-.34-.89.35-1.75.98-2.56-.47-.34-.61-1.14-.43-1.9-.34,0,1.41,0,2.81,0,4.22,1.21.19,2.43.32,3.67.31.32,0,.63.12.72.49.12.5-.17.76-.57.89-.67.22-1.34.49-2.07.46-.28-.02-.64.04-.85-.07-.03.05-.05.09-.08.14-.11-.1-.31-.23-.3-.31,0-.02.02-.04.02-.06-.18-.12-.36-.22-.55-.3,0,11.74.02,23.48.03,35.23,0,.43-.09.87-.14,1.3.06,2.99.12,5.97.18,8.96.04,1.21.15,2.42.1,3.63-.22,5.35.94,10.52,2.06,15.68.13.62.28,1.23.43,1.84.13,0,.24.15.34.27.05.06,0,.18,0,.27h-.22c1.78,7.36,4.33,14.48,7.76,21.22,2.96,5.82,6.44,11.41,10.04,16.87,4.45,6.76,10.06,12.59,15.99,18.04,8.48,7.78,18.03,14.06,28.47,18.89,7.28,3.37,14.81,6.08,22.71,7.64,2.14.42,4.26.91,6.39,1.37,2.41.2,4.82.34,7.21.64.68.09,1.31.62,1.97.96.35-.07.71-.14,1.06-.21.37-.26.73-.75,1.11-.76,3.9-.06,7.8-.08,11.69,0,.46,0,.9.63,1.35.97h.66c.14-.4.28-.79.6-1.67.22.76.3,1.06.39,1.35.37.1.75.21,1.12.31.84-.31,1.68-.62,2.52-.93,1.6-.24,3.21-.4,4.79-.72,5.01-1.02,10.09-1.79,14.99-3.21,7.73-2.24,15.16-5.3,22.24-9.23,8.07-4.48,15.63-9.66,22.35-15.96,4.17-3.91,7.91-8.29,11.64-12.63,5.99-6.94,10.45-14.89,14.6-23.01,2.31-4.53,3.89-9.34,5.33-14.2-.89.03-1.78.14-2.65.46-.54.2-1.18.14-1.74-.4-1.59-1.52-2.01-1.37-2.69.71-.04.14-.16.25-.25.37,0,.01,0,.02,0,.03h-.01s.01,0,.01,0c-.03.05-.06.1-.09.15.03-.05.05-.11.08-.16,0,0,.01-.01.02-.02.15-1.66-.33-3.4.62-4.97.28-.47-.15-.89-.34-1.33-.17-.41-.22-.84-.17-1.25h-2.99c-.03-.33-.11-.61-.05-.86.03-.12.32-.24.51-.27,1.14-.2,1.76.6,2.56,1,.1-.59.4-1.11.85-1.37,1.02-.58,2.89-.29,3.1.77.28,1.36,1.23,1.01,1.89,1.46.85.57,1.77.78,2.71.9,1.47-5.57,2.44-11.23,3.2-16.92-1.14-.07-2.28-.11-3.45-.12.98-.5,1.83-.45,2.66-.55Zm-11.05-9.63c-.11-.1-.31-.23-.3-.31.05-.22.19-.42.3-.63.11.1.21.21.34.33-.11.2-.22.4-.34.6Zm.52,2.75c-.04-.94.48-.75,1.01-.52-.21.44-.59.51-1.01.52ZM6.69,218.18c-.2-.11-.41-.22-.61-.33.11-.1.23-.31.31-.29.22.05.43.19.64.29-.11.1-.21.21-.34.33Zm.33-17.19c-.08-.13-.18-.26-.21-.41-.01-.05.14-.13.21-.2.08.13.16.26.24.39-.09.08-.17.15-.24.22Zm18.52,64.12c.11.1.21.21.34.33-.11.2-.22.4-.34.6-.11-.1-.31-.23-.3-.31.05-.22.19-.42.3-.63Zm-.86-18.61c.16.03.31.12.46.19-.08.07-.15.13-.24.22-.14-.07-.29-.14-.44-.22.08-.07.17-.2.22-.19Zm-1.04-3.85c.11.2.23.41.34.6-.13.12-.23.23-.34.33-.11-.21-.25-.41-.3-.63-.02-.08.19-.2.3-.31Zm-.16,23.58c.22.05.43.19.64.29-.11.1-.21.21-.34.33-.2-.11-.41-.22-.61-.33.11-.1.23-.31.31-.29Zm-.62-47.15c-.22-.05-.43-.19-.64-.29.11-.1.21-.21.34-.33.2.11.41.22.61.33-.11.1-.23.31-.31.29Zm.23,50.01c-.08.07-.17.2-.22.19-.16-.03-.31-.12-.46-.19.08-.07.15-.13.24-.22.14.07.29.14.44.22Zm-.26-53.75c-.53.37-1.12.24-1.58-.33.32-.3.64-.62.99-.91.18-.14.41-.22.64-.33.42.56.56,1.14-.04,1.56Zm.34-11.53c-.11.1-.21.21-.34.33-.2-.11-.41-.22-.61-.33.11-.1.23-.31.31-.29.22.05.43.19.64.29Zm-.28-2.31c-.57-.08-.77-.55-1.16-.81.31-.34.74-.43,1.12-.19.43.27.33.65.04,1Zm-1.28-21.42c.2.11.41.22.61.33-.11.1-.23.31-.31.29-.22-.05-.43-.19-.64-.29.11-.1.21-.21.34-.33Zm-1.14,2.36c.18-.09.38-.18.57-.2.44-.03.89,0,1.34,0,.11,0,.27-.04.33,0,.12.11.2.25.25.4.01.04-.14.19-.23.19-.56.02-1.12,0-1.68,0-.42,0-.82-.29-.59-.4Zm.16,4.23c.22.05.43.19.64.29-.11.1-.21.21-.34.33-.2-.11-.41-.22-.61-.33.11-.1.23-.31.31-.29Zm-.11,33.83c.44-.54,1.03-.47,1.86.26-.62.38-1.21.74-1.81,1.11-.34-.29-.47-.87-.05-1.38Zm1.7,2.97c-.21.1-.41.24-.64.29-.08.02-.21-.19-.31-.29.21-.1.41-.24.64-.29.08-.02.21.19.31.29Zm-4.59-10.44c.26-.48,1.21-.49,1.56-.02.05.07.02.21.03.31-.28.47-1.21.49-1.57.02-.05-.07-.07-.23-.02-.31Zm-.63-6.88c.11.1.21.21.34.33-.11.2-.22.4-.34.6-.11-.1-.31-.23-.3-.31.05-.22.19-.42.3-.63Zm-1.09-2.73c.08.13.18.26.21.41.01.05-.14.13-.21.2-.08-.13-.18-.26-.21-.41-.01-.05.14-.13.21-.2Zm-1.91,15.06c.3-.34.64-.64,1.14-1.13,1.03,1.51-.29,1.96-.85,2.71-.76-.77-.81-1-.29-1.58Zm1.59,12.48c-.96.78-1.91.78-2.88,0,.96-.78,1.91-.78,2.88,0Zm-3.04,24.18c-.05.22-.19.42-.3.63-.11-.1-.21-.21-.34-.33.11-.2.22-.4.34-.6.11.1.31.23.3.31Zm-.74-16c.08.13.18.26.21.41.01.05-.14.13-.21.2-.08-.13-.18-.26-.21-.41-.01-.05.14-.13.21-.2Zm-2.38-54.51c-.31,0-.65.07-.92-.03-.18-.07-.29-.37-.36-.59-.02-.07.19-.3.31-.3.62-.03,1.24-.05,1.85.01.15.02.29.37.36.59.02.07-.19.28-.31.3-.3.05-.61.01-.92.01Zm-1.29,34.31c-.04-.08-.03-.24.02-.31.35-.47,1.29-.45,1.57.02,0,.11.02.24-.03.31-.35.47-1.3.46-1.56-.02Zm1,36.47c-.15-.07-.3-.16-.4-.28-.05-.05-.05-.21,0-.25.05-.04.22-.05.29,0,.13.09.22.23.33.34-.08.07-.19.2-.22.19Zm1.53,1.67c-.18.08-.37.15-.55.21-.34.03-.67-.05-.57-.39.1-.33.85-.32,1.11-.02.04.05.04.18.02.2Zm.45-57.29c-.08-.07-.23-.15-.21-.2.04-.14.14-.27.21-.41.08.07.15.13.24.22-.08.13-.16.26-.24.39Zm1.03,58.71h-.3c-.1-.12-.33-.3-.3-.35.24-.36.44-.12.59.08.05.06,0,.18,0,.27.47-.02.7.19.68.61-.47.02-.7-.19-.68-.61Zm.89,1.09c-.09-.04-.17-.12-.21-.2-.12-.28,0-.36.31-.28.29.07.59.1.88.17.05.01.07.13.11.19-.08.26-.63.33-1.1.13Zm-.21-6.23c.46-.43.91-.43,1.37,0-.46.43-.91.43-1.37,0Zm1.79-12.1c.11-.1.23-.31.31-.29.22.05.43.19.64.29-.11.1-.21.21-.34.33-.2-.11-.41-.22-.61-.33Zm1.17,2.83c.16.03.31.12.46.19-.08.07-.15.13-.24.22-.14-.07-.29-.14-.44-.22.08-.07.17-.2.22-.19Zm.26,24.78c-.11-.21-.25-.41-.3-.63-.02-.08.19-.2.3-.31.11.2.23.41.34.6-.13.12-.23.23-.34.33Zm1.44-48.69c-.25.3-.93.29-1.12-.01-.03-.05-.02-.15.02-.2.25-.3.93-.29,1.13.01,0,.07.02.16-.02.2Zm1.16,8.06c-.08-.13-.18-.26-.21-.41-.01-.05.14-.13.21-.2.08.13.18.26.21.41.01.05-.14.13-.21.2Zm.25-8.98c-.11-.1-.21-.21-.34-.33.11-.2.22-.4.34-.6.11.1.31.23.3.31-.05.22-.19.42-.3.63Zm-1.21-1.87c-.46.03-.9-.02-1.13-.5.4-.39.83-.81,1.51-1.49.38.56.77,1.11,1.17,1.69-.33.47-.97.26-1.54.3Zm4.6,19.17c-.92.58-1.22,2.08-2.98.97.92-.58,1.22-2.08,2.98-.97Zm-2.38,24.83c.09-.07.33-.06.4,0,.07.07.02.26.02.4-.19.14-.47.45-.55.41-.57-.33-.18-.6.13-.81Zm-.36-21.23c-.02-.08.19-.2.3-.31.11.21.25.41.3.63.02.08-.19.2-.3.31-.11-.21-.25-.41-.3-.63Zm.77,21.22c0-.42-.08-.86.02-1.26.1-.4.41-.71.93-.61,0,.42.08.86-.02,1.26-.1.4-.41.71-.93.61Zm.96-2.28c.15-.18.36-.3.54-.45.11.11.31.26.29.3-.11.2-.25.41-.43.55-.08.07-.33.07-.4,0-.07-.07-.07-.31,0-.39Zm.63,4.33c.08-.02.21.19.31.29-.21.1-.41.24-.64.29-.08.02-.21-.19-.31-.29.21-.1.41-.24.64-.29Zm-2.22,1.87c.22.05.43.19.64.29-.11.1-.21.21-.34.33-.2-.11-.41-.22-.61-.33.11-.1.23-.31.31-.29Zm.16,10.12c-.11-.1-.31-.23-.3-.31.05-.22.19-.42.3-.63.11.1.21.21.34.33-.11.2-.22.4-.34.6Zm1.54-2.87c.42.05.62.54,1.03.79-.67.5-1.34.49-2.1-.02.35-.25.68-.48,1.08-.77Zm-.59,10.36c-.11-.21-.25-.41-.3-.63-.02-.08.19-.2.3-.31.11.2.23.41.34.6-.13.12-.23.23-.34.33Zm-.07-2.92c-.57-.33-.18-.6.13-.81.09-.07.28-.01.42-.01,0,.14,0,.28,0,.42-.19.14-.47.45-.55.41Zm.96-.84c-.08.07-.33.07-.4,0-.07-.07-.07-.31,0-.39.15-.18.36-.3.54-.45.11.11.31.26.29.3-.11.2-.25.41-.43.55Zm.53-3.26c.64-.67,1.27-.67,1.9,0-.64.67-1.27.67-1.9,0Zm1.28-4.38c-.46-.14-.48-1.08-.02-1.52.42-.41.87-.8,1.38-1.09.19-.11.62,0,.82.15.19.15.24.49.36.79,0,.86-.81,1.18-1.33,1.66-.22.21-.83.12-1.21.01Zm2.5,5.32c-.18.14-.41.22-.64.33-.42-.56-.56-1.14.04-1.56.53-.37,1.12-.24,1.58.33-.32.3-.64.62-.99.91Zm1.08-20.96c-.18.08-.37.15-.55.21-.34.03-.67-.05-.57-.39.1-.33.85-.32,1.11-.02.04.05.04.18.02.2Zm7.01,19.55c-.11-.21-.25-.41-.3-.63-.02-.08.19-.2.3-.31.11.2.23.41.34.6-.13.12-.23.23-.34.33Zm.79,11.99c-.08.02-.21-.19-.31-.29.21-.1.41-.24.64-.29.08-.02.21.19.31.29-.21.1-.41.24-.64.29Zm1.55,9.22c-.08-.07-.15-.13-.24-.22.08-.13.16-.26.24-.39.08.07.23.15.21.2-.04.14-.14.27-.21.41Zm7.07,7.06c-.2.3-.87.32-1.13.01-.04-.05-.05-.15-.02-.2.19-.31.87-.32,1.12-.01.04.05.02.13.02.2Zm.45-2.82c-.08-.13-.18-.26-.21-.41-.01-.05.14-.13.21-.2.08.13.16.26.24.39-.09.08-.17.15-.24.22Zm6.15,7.87c-.08-.07-.15-.13-.24-.22.08-.13.16-.26.24-.39.08.07.23.15.21.2-.04.14-.14.27-.21.41Zm.6,3.65c.21-.11.41-.22.61-.33.13.12.23.23.34.33-.21.1-.41.24-.64.29-.08.02-.21-.19-.31-.29Zm.88,5.32c-.16-.03-.31-.12-.46-.19.08-.07.15-.13.24-.22.14.07.29.14.44.22-.08.07-.17.2-.22.19Zm4.34-9.53c-.11-.2-.23-.41-.34-.6.13-.12.23-.23.34-.33.11.21.25.41.3.63.02.08-.19.2-.3.31Zm2.72,8.1c-.14.09-.34.29-.39.26-.41-.21-.13-.39.09-.53.07-.04.24-.04.29,0,.05.05.01.17.01.26Zm1.05-.92c-.31.25-.48.71-1.05.65-.3-.85.38-1.28.97-1.77.6.34.54.75.08,1.12Zm.68-10.3c.05-.22.19-.42.3-.63.11.1.21.21.34.33-.11.2-.22.4-.34.6-.11-.1-.31-.23-.3-.31Zm1.69,10.64c-.46.43-.91.43-1.37,0,.46-.43.91-.43,1.37,0Zm1.4,4.62c-.27.1-.61.03-.92.03s-.62.03-.92-.01c-.12-.02-.33-.23-.31-.3.07-.22.21-.58.36-.59.61-.07,1.23-.04,1.85-.01.11,0,.33.24.31.3-.07.22-.19.53-.36.59Zm1.95-2.8c-.3.05-.61.01-.92.01s-.65.07-.92-.03c-.18-.07-.29-.37-.36-.59-.02-.07.19-.3.31-.3.62-.03,1.24-.05,1.85.01.15.02.29.37.36.59.02.07-.19.28-.31.3Zm1.09,5.14c-.08-.07-.23-.15-.21-.2.04-.14.14-.27.21-.41.08.07.15.13.24.22-.08.13-.16.26-.24.39Zm18.67,1.62c-.25.3-1.01.31-1.11-.02-.1-.34.23-.42.57-.39.18.07.37.13.55.21.03.01.02.15-.02.2Zm.17-.19c-.11-.21-.25-.41-.3-.63-.02-.08.19-.2.3-.31.11.21.25.41.3.63.02.08-.19.2-.3.31Zm.64,2.81c-.02-.29.04-.56.45-.48.11.02.16.31.23.48h-.68Zm10.12-5.95c-.25.13-.51.23-.77.33-.47.04-.94-.08-.79-.61.14-.51,1.18-.5,1.54-.03.05.07.06.28.02.3Zm3.48.33c-.11-.2-.23-.41-.34-.6.13-.12.23-.23.34-.33.11.21.25.41.3.63.02.08-.19.2-.3.31Zm6.57.17c-.08-.13-.18-.26-.21-.41-.01-.05.14-.13.21-.2.08.13.16.26.24.39-.09.08-.17.15-.24.22Zm12.52,2.2c-.11.12-.35.17-.55.21-.4.08-.66-.15-.67-.44-.01-.46-.22-.98.34-1.39.34.37.71.71.99,1.09.08.11,0,.4-.11.52Zm2.26,3.25c-.03-.45.06-.87.63-.74.16.03.22.48.32.74h-.95Zm13.29-6.08c.64-.67,1.27-.67,1.9,0-.64.67-1.27.67-1.9,0Zm5.54,1.08c-.18.35-.21.34-1.58.03.12-.76.86-1.04,1.27-1.57.54.43.61.96.31,1.54Zm25.86-5.89c.08.13.18.26.21.41.01.05-.14.13-.21.2-.08-.13-.18-.26-.21-.41-.01-.05.14-.13.21-.2Zm-19.82,1.21c.08.13.16.26.24.39-.09.08-.17.15-.24.22-.08-.13-.18-.26-.21-.41-.01-.05.14-.13.21-.2Zm-.8,1.13c-.13-.12-.23-.23-.34-.33.21-.1.41-.24.64-.29.08-.02.21.19.31.29-.21.11-.41.22-.61.33Zm2.35,5.42c-.25.13-.51.23-.77.33-.47.04-.94-.08-.79-.61.14-.51,1.18-.5,1.54-.03.05.07.06.28.02.3Zm2.51,1.3c-.31-.65-.54-1.32-.94-1.88-.29-.4-.48-.69.02-.94.24-.12.68-.14.88,0,.49.34.88.79,1.48,1.36-.58.58-.99,1.01-1.44,1.46Zm3.21-1.4c.08-.13.16-.26.24-.39.08.07.23.15.21.2-.04.14-.14.27-.21.41-.08-.07-.15-.13-.24-.22Zm1.87,1.04c-.25.13-.51.23-.77.33-.47.04-.94-.08-.79-.61.14-.51,1.18-.5,1.54-.03.05.07.06.28.02.3Zm1.99-3.24c-1.08,0-1.97,0-2.85,0-.09,0-.17-.1-.26-.15-.06-.08-.16-.16-.16-.23.02-1.03,1.15-1.33,1.69-2.03.65.24.05,1.55,1.37,1.23.07-.02.29.26.34.43.04.17-.05.36-.12.76Zm.7-3.15c-.22-.05-.43-.19-.64-.29.11-.1.21-.21.34-.33.2.11.4.22.61.33-.11.1-.23.31-.31.29Zm2.85,8.6c-.02-.29.04-.56.45-.48.11.02.16.31.23.48h-.68Zm3.08-10.29c-.08-.07-.23-.15-.21-.2.04-.14.14-.27.21-.41.08.07.15.13.24.22-.08.13-.16.26-.24.39Zm1.02,10.29c-.07-.88.54-.99,1.18-.92.47.05.83.35.72.92h-1.9Zm8.85-23.58c-.08.02-.21-.19-.31-.29.21-.11.41-.22.61-.33.13.12.23.23.34.33-.21.1-.41.24-.64.29Zm16.78-16.37c.08.07.23.15.21.2-.04.14-.14.27-.21.41-.08-.07-.15-.13-.24-.22.08-.13.16-.26.24-.39Zm.12,13.2c-.16-.03-.31-.12-.46-.19.08-.07.15-.13.24-.22.14.07.29.14.44.22-.08.07-.17.2-.22.19Zm5.41-1.67c-.25.13-.51.23-.77.33-.47.04-.94-.08-.79-.61.14-.51,1.18-.49,1.54-.03.05.07.06.28.02.3Zm-.85-7.42c-.42-.27-.34-.65-.03-1,.56.1.77.55,1.14.82-.32.34-.74.42-1.12.18Zm10.08-6.29c.03-.08.19-.2.21-.19.15.09.36.18.39.31.06.27.02.56.02.84-.11,0-.23.03-.31,0-.44-.23-.44-.58-.31-.95Zm-2.46-2.67c.08.13.18.26.21.41.01.05-.14.13-.21.2-.08-.13-.18-.26-.21-.41-.01-.05.14-.13.21-.2Zm-3.89,14.33c-.25.3-.93.29-1.12-.01-.03-.05-.02-.15.02-.2.25-.3.93-.29,1.13.01,0,.07.02.16-.02.2Zm1.55-.06c.39-.54.85-.47,1.27-.07.29.27.81.43.73.93-.96.27-1.45-.34-2-.86Zm2.49,1.45c-.31,0-.57-.23-.49-.59.66.12,1.45-.31,2.01.34-.45.45-1.02.25-1.53.25Zm3.52-11.14c-.24.38-.68.33-1.34.02.31-.28.54-.48.74-.69.33-.35.45-.38.54-.09.08.24.18.57.06.76Zm1.24-14.68c.13-.13.23-.23.34-.33.11.21.25.41.3.63.02.08-.19.2-.3.31-.11-.2-.23-.41-.34-.6Zm.35-10.28s.14-.13.21-.2c.08.13.16.26.24.39-.09.08-.17.15-.24.22-.08-.13-.18-.26-.21-.41Zm1.13,23.19c-.18.08-.37.15-.55.21-.34.03-.67-.05-.57-.39.1-.33.85-.32,1.11-.02.04.05.04.18.02.2Zm-1.22-26.95c-.57-.1-1.13-.38-.95-1.07.22-.83.99-.57,1.57-.56.51.02.83.34.92.82-.31.81-.9.91-1.54.8Zm1.79-5.63c-.16-.03-.31-.12-.46-.19.08-.07.15-.13.24-.22.14.07.29.14.44.22-.08.07-.17.2-.22.19Zm1.14,21.21c-.11-.21-.25-.41-.3-.63-.02-.08.19-.2.3-.31.11.21.25.41.3.63.02.08-.19.2-.3.31Zm1.7,11.99c0,.07-.14.14-.22.21-.31-.27-.63-.54-.91-.83-.03-.04.16-.35.27-.36.3-.02.72-.15.87.2.1.23.03.52,0,.79Zm.46-33.08c-.08-.07-.23-.15-.21-.2.04-.14.14-.27.21-.41.08.07.15.13.24.22-.08.13-.16.26-.24.39Zm2.73,18.76c-.08-.13-.18-.26-.21-.41-.01-.05.14-.13.21-.2.08.13.16.26.24.39-.09.08-.17.15-.24.22Zm1.28-6.56c-.64.67-1.27.67-1.9,0,.64-.67,1.27-.67,1.9,0Zm-.59-13.42c-.08-.13-.18-.26-.21-.41-.01-.05.14-.13.21-.2.08.13.16.26.24.39-.09.08-.17.15-.24.22Zm2.05,0c-.08-.13-.16-.26-.24-.39.09-.08.17-.15.24-.22.08.13.18.26.21.41.01.05-.14.13-.21.2Z"/><path class="cls-1" d="m212.71,212.43c-1.35,2.04.82,1.85,1.52,2.58.16.17.32.35.48.52,1.53.28,3.07.39,4.62.17.37-.54.89-.57,1.41-.4-.09-.15.11-.27.28-.38.07-.04.24-.04.29,0s.01.17.01.26c-.09.06-.2.16-.28.22.43.15.84.25,1.33,0,.49-.25,1.16-.45,1.47.17.4.79-.43.85-.85,1.11-.33.21-.28.54-.28.86h0c2.62.44,2.83.89,1.58,3.64-.79-.84-1.3-2.13-2.76-1.76-.57.15-1.21-.03-.56.89.18.25-.12.45-.37.35-1.75-.7-2.97,1.4-4.7.94-.38-.1-.68.33-.71.79-.04.73.53.92,1.01,1.18.11-.06.23-.09.35-.11.76-.63,1.54-1.17,2.5-.37.95-.06,1.9-.11,2.85-.17.58-.17,1.08-.03,1.52.39-.04.32-.07.64-.11.96-.3.02-.6.04-.91.05-.18-.17-.36-.34-.54-.5h0c-.18.17-.37.35-.55.52-.25,0-.5.04-.75.1t0,0c.25-.05.49-.1.75-.1.21.88.78,1.16,1.6,1.02.78-.03,1.56-.06,2.34-.09,1.58-.05,3.14.06,4.68.46.29.18.58.36.87.55,0-.57,0-1.14,0-1.7,0-1.54,0-3.07,0-4.61-.59.13-1.17.31-1.75.57-.5.22-1.07.2-1.52-.24-.11-.29-.32-.73-.01-.85.8-.3,1.64-.52,2.47-.63.27-.03.54-.05.81-.07.02-23.55,0-47.09.03-70.64,0-4.68-.38-9.26-2.08-13.69-2.88-7.51-7.62-13.32-14.91-16.9-6.07-2.98-12.47-3.64-19.06-2.6-5.53.88-10.41,3.22-14.53,7.06-3.87,3.61-6.63,7.71-8.28,12.3,0,.05,0,.1-.02.13,0,0-.02.01-.03.02-1.15,3.26-1.74,6.77-1.74,10.54,0,10.13-.06,20.26,0,30.38,0,1.4-.57,1.83-1.7,1.96-6.42.72-12.41,2.89-18.24,5.51-2,.9-3.95,1.89-5.86,2.95.03.03.06.06.1.09-.01.02-.02.04-.04.07.06.1.12.2.18.29-.09.08-.17.15-.24.22-.04-.07-.08-.13-.12-.19-.04.07-.08.15-.12.22-.11-.1-.31-.23-.3-.31,0-.04.03-.08.05-.12-3.51,2.01-6.83,4.34-9.87,7.08-2.99,2.69-6.06,5.36-8.62,8.42-.75.9-1.46,1.82-2.16,2.77.13.06.24.13.32.24.05.07.02.21.03.31-.17.29-.6.41-.99.34-1.6,2.24-3.1,4.57-4.54,6.92-1.99,3.22-3.68,6.59-5.03,10.1.08.04.18.19.27.28-.15.07-.3.16-.45.22-.67,1.8-1.27,3.63-1.76,5.5-.86,3.3-1.57,6.64-2.18,10,.08-.05.17-.09.25-.14.13.12.23.23.34.33-.21.1-.41.24-.64.29-.01,0-.02,0-.04-.01-.12.7-.25,1.4-.37,2.1-.39,2.32-.26,4.73-.37,7.2,6.01,0,11.83-.04,17.65.03,1.39.02,1.83-.51,1.8-1.77-.12-5.95,1.31-11.6,3.35-17.12,2.54-6.87,6.42-12.94,11.63-18.02,2.97-2.89,6.28-5.49,9.74-7.78,1.06-.7,2.15-1.33,3.26-1.93-.1-.19-.23-.38-.28-.59-.02-.08.19-.2.3-.31.11.2.23.41.34.6-.09.09-.16.16-.23.23,5.72-3.07,11.96-4.81,18.49-5.48,3.64-.37,7.33-.23,11-.31,1.3-.03,2.61,0,4.15,0,0-2.07,0-3.98,0-5.88,0-4.3,0-8.6,0-12.91-.03,0-.06,0-.09,0-.11,0-.29.04-.32,0-.36-.58-1.24-.48-1.69-.96.56-.33,1.32-.25,1.64-.84.41.19.34.62.45.96,0-9.83,0-19.67,0-29.5,0-2.59-.02-5.2,1.51-7.5,2.47-3.72,5.77-5.54,10.38-5.24,4.76.31,8.97,3.62,9.78,8.13.35,1.96.59,3.97.6,5.96.05,10.73.11,21.46.03,32.19.05.05.11.09.16.14-.05.02-.1.05-.16.07,0,1.31-.01,2.62-.03,3.92-.06,5.16,0,10.33.05,15.49.53.06,1.07.22,1.65.46-.57.25-1.11.4-1.64.46.04,3.71.07,7.43.07,11.14.24.15.5.29.81.39.1.04.25.32.21.37Zm15.11-74.78c.08.07.15.13.24.22-.08.13-.16.26-.24.39-.08-.07-.23-.15-.21-.2.04-.14.14-.27.21-.41Zm-116,106.73c-.25.3-1.01.31-1.11-.02-.1-.34.23-.42.57-.39.18.07.37.13.55.21.03.01.02.15-.02.2Zm1.17-19.65c-.2-.11-.41-.22-.61-.33.11-.1.23-.31.31-.29.22.05.43.19.64.29-.11.1-.21.21-.34.33Zm2.72,18.02c.08.13.16.26.24.39-.09.08-.17.15-.24.22-.08-.13-.18-.26-.21-.41-.01-.05.14-.13.21-.2Zm1.26,1.44c-.25.13-.51.23-.77.33-.47.04-.94-.08-.79-.61.14-.51,1.18-.5,1.54-.03.05.07.06.28.02.3Zm1.02-3.47c-.18.08-.37.15-.55.21-.34.03-.67-.05-.57-.39.1-.33.85-.32,1.11-.02.04.05.04.18.02.2Zm12.76-27.02c.08.07.15.13.24.22-.08.13-.16.26-.24.39-.08-.07-.23-.15-.21-.2.04-.14.14-.27.21-.41Zm-6.84-3.63c.08.07.15.13.24.22-.08.13-.16.26-.24.39-.08-.07-.23-.15-.21-.2.04-.14.14-.27.21-.41Zm-3.06,4.84c.18.07.37.13.55.21.03.01.02.15-.02.2-.25.3-1.01.31-1.11-.02-.1-.34.23-.42.57-.39Zm-1.84-3.14c-.06.01-.15-.12-.22-.19.15-.07.3-.16.46-.19.06-.01.15.12.22.19-.15.07-.3.16-.46.19Zm.8,29.17c-.08-.07-.15-.13-.24-.22.08-.13.16-.26.24-.39.08.07.23.15.21.2-.04.14-.14.27-.21.41Zm.79-7.8c-.11,0-.25.02-.32-.03-.48-.35-.46-1.28.02-1.54.08-.04.24-.03.32.02.48.35.46,1.27-.02,1.55Zm.58,5.98c.08.07.15.13.24.22-.08.13-.16.26-.24.39-.08-.07-.23-.15-.21-.2.04-.14.14-.27.21-.41Zm0,2.42c-.49-.4-.49-.81,0-1.21.49.41.49.81,0,1.21Zm.08-22.43c-.13-.12-.23-.23-.34-.33.21-.1.41-.24.64-.29.08-.02.21.19.31.29-.21.11-.41.22-.61.33Zm1.09-7.35c.11.21.25.41.3.63.02.08-.19.2-.3.31-.11-.21-.25-.41-.3-.63-.02-.08.19-.2.3-.31Zm-.14,22.99c.06-.3.24-.5.67-.47.52.04.77.28.69.75-.05.31-.28.47-.68.47-.52,0-.79-.27-.69-.74Zm.9,1.84c-.06.01-.15-.12-.22-.19.15-.07.3-.16.46-.19.06-.01.15.12.22.19-.15.07-.3.16-.46.19Zm.19-15.47c-.11-.21-.25-.41-.3-.63-.02-.08.19-.2.3-.31.11.2.23.41.34.6-.13.12-.23.23-.34.33Zm.61-6.21c-.08-.13-.16-.26-.24-.39.09-.08.17-.15.24-.22.08.13.18.26.21.41.01.05-.14.13-.21.2Zm.33-.34c-.11-.1-.21-.21-.34-.33.11-.2.22-.4.34-.6.11.1.31.23.3.31-.05.22-.19.42-.3.63Zm1.95,2.55c-.18.08-.37.15-.55.21-.34.03-.67-.05-.57-.39.1-.33.85-.32,1.11-.02.04.05.04.18.02.2Zm2.73-1.21c-.05.08-.14.19-.23.2-.22.03-.44,0-.66,0-.9,0-1.08-.12-1.03-.72.01-.16.2-.31.3-.47.36.54,1.08.51,1.6.78.04.02.05.15.02.2Zm2.56,3.19h-2.18c-.1-.21-.27-.39-.25-.54.09-.6.16-.66.65-.32.51.36.93.43,1.38,0,.46-.44.91-.42,1.38,0-.32.28-.63.56-.98.87Zm2.59-4.89c-.09-.08-.17-.15-.24-.22.15-.07.3-.16.46-.19.06-.01.15.12.22.19-.15.07-.3.15-.44.22Zm1.8-17.8c-.26.39-.66.39-1.08.28-.09-.02-.23-.17-.22-.19.1-.13.21-.32.35-.35.31-.05.63-.02.95,0,0,0,.04.2,0,.26Zm.3-.28c-.06.04-.24.04-.29,0s-.05-.2,0-.25c.1-.12.26-.2.39-.29.08.07.22.17.21.19-.08.13-.18.26-.31.36Zm.62,3.15c.38-.09.47.21.44.51-.08.16-.15.33-.24.49-.02.02-.17.02-.22-.01-.34-.23-.35-.89.02-.98Zm1,13.61c-.25.3-.93.29-1.12-.01-.03-.05-.02-.15.02-.2.25-.3.93-.29,1.13.01,0,.07.02.16-.02.2Zm2.59-20.8c-.11-.21-.25-.41-.3-.63-.02-.08.19-.2.3-.31.11.2.23.41.34.6-.13.12-.23.23-.34.33Zm5.62,3.24c-.25.3-.93.29-1.12-.01-.03-.05-.02-.15.02-.2.25-.3.93-.29,1.13.01,0,.07.02.16-.02.2Zm4.34-2.44c-.03-.05-.02-.15.02-.2.25-.3.93-.29,1.13.01,0,.07.02.16-.02.2-.25.3-.93.29-1.12-.01Zm.8,2.5c-.39-.28-.34-.66.19-1.19.28.4.54.77.81,1.15-.21.22-.64.3-1.01.04Zm2.64-7.94s-.05-.15-.02-.2c.19-.31.87-.32,1.12-.01.04.05.02.13.02.2-.2.3-.87.31-1.13.01Zm.67,2.41c-.03-.05-.02-.15.02-.2.25-.3.93-.29,1.13.01,0,.07.02.16-.02.2-.25.3-.93.29-1.12-.01Zm.83,6.27c-.02-.08.19-.2.3-.31.11.21.25.41.3.63.02.08-.19.2-.3.31-.11-.21-.25-.41-.3-.63Zm.77,3.02c-.08-.07-.23-.15-.21-.2.04-.14.14-.27.21-.41.08.07.15.13.24.22-.08.13-.16.26-.24.39Zm3.53-9.8c-.16-.03-.31-.12-.46-.19.08-.07.15-.13.24-.22.14.07.29.14.44.22-.08.07-.17.2-.22.19Zm1.21,6.94c.63-.67,1.27-.67,1.9,0-.64.67-1.27.67-1.9,0Zm6.19-14.09c-.08-.13-.16-.26-.24-.39.09-.08.17-.15.24-.22.08.13.18.26.21.41.01.05-.14.13-.21.2Zm1.09,13.45c-.22-.05-.43-.19-.64-.29.11-.1.21-.21.34-.33.2.11.41.22.61.33-.11.1-.23.31-.31.29Zm.79-8.25c-.11-.21-.25-.41-.3-.63-.02-.08.19-.2.3-.31.11.2.23.41.34.6-.13.12-.23.23-.34.33Zm2.04-8.56c-.2-.11-.41-.22-.61-.33.11-.1.23-.31.31-.29.22.05.43.19.64.29-.11.1-.21.21-.34.33Zm2.08,15.72c-.25.13-.51.23-.77.33-.47.04-.94-.08-.79-.61.14-.51,1.18-.5,1.54-.03.05.07.06.28.02.3Zm.63-17.45c-.11-.21-.25-.41-.3-.63-.02-.08.19-.2.3-.31.11.2.23.41.34.6-.13.12-.23.23-.34.33Zm-.16-39.45c-.08.02-.21-.19-.31-.29.21-.11.41-.22.61-.33.13.12.23.23.34.33-.21.1-.41.24-.64.29Zm.26-1.96c-.06.01-.15-.12-.22-.19.15-.07.3-.15.44-.22.09.08.17.15.24.22-.15.07-.3.16-.46.19Zm1.94,30.04c-.2-.11-.41-.22-.61-.33h.95c-.11.1-.21.21-.34.33Zm1.81.14c-.15-.18-.46-.46-.41-.54l.83.13c.07.09.07.33,0,.4-.07.07-.27.02-.41.02Zm.47,28.43c-.08-.13-.18-.26-.21-.41-.01-.05.14-.13.21-.2.08.13.16.26.24.39-.09.08-.17.15-.24.22Zm.53-27.6c-.21-.11-.41-.25-.56-.43-.07-.08-.07-.32,0-.39s.31-.07.4,0c.18.14.31.35.46.53-.11.11-.27.31-.3.29Zm6.55,2.91c-.11-.21-.25-.41-.3-.63-.02-.08.19-.2.3-.31.11.2.23.41.34.6-.13.12-.23.23-.34.33Zm1.36,6.92c-.18.08-.37.15-.55.21-.34.03-.67-.05-.57-.39.1-.33.85-.32,1.11-.02.04.05.04.18.02.2Zm2.03-52.43c-.25.3-.93.29-1.12-.01-.03-.05-.02-.15.02-.2.25-.3.93-.29,1.13.01,0,.07.02.16-.02.2Zm1.84-2.83c.08.07.23.15.21.2-.04.14-.14.27-.21.41-.08-.07-.15-.13-.24-.22.08-.13.16-.26.24-.39Zm.12,13.2c-.16-.03-.31-.12-.46-.19.08-.07.15-.13.24-.22.14.07.29.14.44.22-.08.07-.17.2-.22.19Zm5.41-1.67c-.25.13-.51.23-.77.33-.47.04-.94-.08-.79-.61.14-.51,1.18-.5,1.54-.03.05.07.06.28.02.3Zm-.85-7.42c-.42-.27-.34-.65-.03-1,.56.1.77.55,1.14.82-.32.34-.74.42-1.12.18Zm3.74,5.37c-.25.3-.93.29-1.12-.01-.03-.05-.02-.15.02-.2.25-.3.93-.29,1.13.01,0,.07.02.16-.02.2Zm6.35-11.66c.03-.08.19-.2.21-.19.15.09.36.18.39.31.06.27.02.56.02.84-.11,0-.23.03-.31,0-.44-.23-.44-.58-.31-.95Zm-2.46-2.67c.08.13.18.26.21.41.01.05-.14.13-.21.2-.08-.13-.18-.26-.21-.41-.01-.05.14-.13.21-.2Zm-2.34,14.27c.39-.54.85-.47,1.27-.07.29.27.81.43.73.93-.96.27-1.45-.34-2-.86Zm2.49,1.45c-.31,0-.57-.23-.49-.59.66.12,1.45-.31,2.01.34-.45.45-1.02.25-1.53.25Zm3.52-11.14c-.24.38-.68.33-1.34.02.31-.28.54-.48.74-.69.33-.35.45-.38.54-.09.08.24.18.57.06.76Zm2.71-1.77c-.18.08-.37.15-.55.21-.34.03-.67-.05-.57-.39.1-.33.85-.32,1.11-.02.04.05.04.18.02.2Zm3.19,29.27c-.08-.13-.18-.26-.21-.41-.01-.05.14-.13.21-.2.08.13.18.26.21.41.01.05-.14.13-.21.2Zm.22-28.66c0,.07-.14.14-.22.21-.31-.27-.63-.54-.91-.83-.03-.04.16-.35.27-.36.3-.02.72-.15.87.2.1.23.03.52,0,.79Zm2.51,84.13c-.08-.13-.18-.26-.21-.41-.01-.05.14-.13.21-.2.08.13.18.26.21.41.01.05-.14.13-.21.2Zm3.55,11.31c-.07.05-.24.07-.32.02-.48-.26-.5-1.19-.02-1.54.07-.05.21-.02.32-.03.48.27.49,1.2.02,1.55Zm2.68-21.35c-.11-.21-.25-.41-.3-.63-.02-.08.19-.2.3-.31.11.2.23.41.34.6-.13.12-.23.23-.34.33Zm.56,20.93c-.06.04-.2,0-.3,0,0-.09-.04-.21,0-.26.1-.12.26-.2.39-.29.08.07.22.17.21.19-.08.13-.18.26-.31.36Zm2.12-67.86c-.08.02-.21-.19-.31-.29.21-.1.41-.24.64-.29.08-.02.21.19.31.29-.21.1-.41.24-.64.29Zm-.31-6.84c.21-.1.41-.24.64-.29.08-.02.21.19.31.29-.21.1-.41.24-.64.29-.08.02-.21-.19-.31-.29Zm.97,58.98c-.08-.07-.23-.15-.21-.2.04-.14.14-.27.21-.41.08.07.15.13.24.22-.08.13-.16.26-.24.39Zm2.49,2.43c.13.12.23.23.34.33-.21.1-.41.24-.64.29-.08.02-.21-.19-.31-.29.21-.11.41-.22.61-.33Zm-1.09-64.68c.11.2.23.41.34.6-.13.12-.23.23-.34.33-.11-.21-.25-.41-.3-.63-.02-.08.19-.2.3-.31Zm.21,63.86c-.09.08-.17.15-.24.22-.08-.13-.18-.26-.21-.41-.01-.05.14-.13.21-.2.08.13.16.26.24.39Zm-.37,22.39c.22.05.43.19.64.29-.11.1-.21.21-.34.33-.2-.11-.41-.22-.61-.33.11-.1.23-.31.31-.29Zm-.93-80.46c.53-.14.66.32.61.78-.1.25-.2.51-.33.76-.02.04-.23.03-.31-.02-.48-.35-.49-1.38.03-1.52Zm-.33-6.26c-.64.67-1.27.67-1.9,0,.64-.67,1.27-.67,1.9,0Zm-1.94,10.36c.09.08.17.15.24.22-.15.07-.3.16-.46.19-.06.01-.15-.12-.22-.19.15-.07.3-.15.44-.22Zm.13,20.28c.09-.04.25-.04.33,0,.15.09.27.23.4.35-.54.34-.7.69-.04,1.07-.1.13-.17.34-.31.37-.2.06-.59.05-.64-.03-.33-.67-1.25-.36-1.68-.85.64-.31,1.28-.62,1.92-.92Zm-2.07,42.17c-.25.3-.93.29-1.12-.01-.03-.05-.02-.15.02-.2.25-.3.93-.29,1.13.01,0,.07.02.16-.02.2Zm-.4-43.37c.11.2.23.41.34.6-.13.12-.23.23-.34.33-.11-.21-.25-.41-.3-.63-.02-.08.19-.2.3-.31Zm-.85,35.47c-.21-.11-.41-.25-.56-.43-.07-.08-.07-.32,0-.39s.31-.07.4,0c.18.14.31.35.46.53-.11.11-.27.31-.3.29Zm-.55-21.42c.25.1.52.2.77.33.04.02.03.23-.02.3-.35.47-1.4.48-1.54-.03-.14-.53.32-.65.79-.61Zm-.16,17.18c-.11.2-.22.4-.34.6-.11-.1-.31-.23-.3-.31.05-.22.19-.42.3-.63.11.1.21.21.34.33Zm.13,3c.07.09.07.33,0,.39s-.27.02-.41.02c-.15-.18-.46-.46-.41-.54.33-.56.6-.18.82.13Zm-1.46-2.75c.61-.01.61.02.59,1.24-.76-.39-1.33-.67-1.91-.97.44-.45.91-.26,1.32-.27Zm-3.09-16.2c.35-.47,1.29-.45,1.57.02,0,.11.02.24-.03.31-.35.47-1.3.46-1.56-.02-.04-.08-.03-.24.02-.31Zm1.05,18.91c-.46.43-.91.43-1.37,0,.46-.43.91-.43,1.37,0Z"/><path class="cls-1" d="m24.36,178.13c0-.7,0-1.39,0-2.09-.05.1-.11.21-.16.31-.55,1.15-.56,1.62.16,1.78Z"/><path class="cls-1" d="m17.46,99.96c-.04-.09-.07-.22-.13-.29.05.07.08.2.12.29,0,0,0,0,0,0Z"/><path class="cls-1" d="m26.29,105.52c.27.56.81.73,1.33.84.94.21,1.08-.12.63-1.38-.62.29-1.26.53-1.96.54-.47,0-.96.4-1.44.33.48.07.96-.32,1.44-.33Z"/><path class="cls-1" d="m12.27,141.18s.04-.09.06-.15c-.02.06-.06.15-.06.15,0,0,0,0,0,0Z"/><path class="cls-1" d="m211.49,237.16c.17.14.26.34.26.58,0-.25-.09-.44-.26-.58Z"/><path class="cls-1" d="m19.15,100.72c.32-.05.58-.19.61-.56-.13-.07-.26-.14-.39-.21,0,0,0,0,0,0-.28.04-.49.22-.53.54,0,.07.2.16.31.24Z"/><path class="cls-1" d="m10.86,132.91c.29,0,.49-.1.66-.25-.17.15-.37.25-.66.25h0Z"/><path class="cls-1" d="m24.63,99.23c3.15.97,6.45.26,9.68.34,2.16.06,4.32-.28,6.48.21.8.18,1.61-.05,2.02-.91.58-1.22,1.52-1.23,2.61-.96,1.37.33,2.75.59,4.51.97-2.28,1.34-4.55-.8-6.52.69.33.83,1.03.64,1.6.64,1.52,0,2.97.39,4.41.8.47.13.92.24.73.95-.3,1.15.46,1.36,1.31,1.52.93.18,1.87.35,2.76.67.57.21.89.78.4,1.37-.35.43-.59,1.15-1.48.47-1.05-.82-4.63-1.19-5.84-.86-1.38.37-2.72.74-4.05-.29-.85-.66-1.83-.37-2.69.12-1.62.93-3.26,1.11-4.94.26-.37-.19-.8-.44-1.1-.18-1.24,1.1-2.36,0-3.52-.14-.04.79.13,1.38,1.03,1.57,1.13.23,2.24.57,3.36.87.03.33.06.65.09.98-.02.32-.03.64-.05.96,0,.09,0,.19,0,.28-.44.1-.88.15-1.32.18-.02.02-.04.03-.05.05,0-.02-.02-.03-.02-.05-2.19.15-4.39-.36-6.58-.24-1.95.1-3.91-.07-5.84.48-.89.25-1.88.18-2.78-.24,0,0,0,0,0,0-2.03.55-4.15-.19-6.18.48-1.03.19-1.77-.13-2.04-1.26-.59.12-1.18.18-1.77.21-.49.88-.93,1.78-1.32,2.7,1.08-.16,2.24.13,3.31.2,1.69.1,3.35.64,5.09.36.65-.1,1.2.33,1.76.62.87.46,1.78.77,2.73.92.04-.16.23-.3.41-.42.09-.07.28-.01.42-.01,0,.14,0,.28,0,.42-.03.02-.07.06-.1.09.05,0,.1.01.15.02.18,1.05.13,1.98-.25,2.77.02.04.05.08.07.12-.12.12-.22.22-.33.32-.33.46-.8.86-1.46,1.18-.28.13-.49.39-.75.58-.37.27-.51.65-.28,1.03.18.3.51.21.83.13,1.11-.28,2.23-.5,3.35-.75.55,1.05-.68,1.47-.54,2.27-2.57.04-5.07.71-7.64.82-1.56.07-2.97,1.31-4.66,1.12-.32.24-.65.28-1.01.1-.49.56-.75,1.13-.16,1.82.34.4.6.88.89,1.32.17.2.34.41.52.61.14.14.29.28.43.41.89.91,1.85,1.3,3.16.83.93-.34,1.76-.36,2.67.69.8.92,2.36.6,3.53,0,.64-.32,1.22-.75,1.98-.59.62-.04,1.23-.08,1.85-.12.29.28.54.65.8,1.01,0-1.81,0-3.63-.01-5.44-.02-4.9,3.23-10.35,8.8-11.25,2.54-.41,5.12-.03,7.3,1.06.1-.19.21-.38.32-.57.11.1.31.23.3.31-.04.17-.13.32-.22.48,2.45,1.36,4.34,3.65,5,6.81.38,1.85.54,3.78.54,5.67.02,19.04,0,38.09-.01,57.13,0,.63.08,1.27.12,1.92h1.59s.07-.08.11-.11c.07-.05.29-.06.31-.02.02.04.04.09.06.13h16.91v-8.93c-.05.03-.11.06-.16.09-.13-.12-.23-.23-.34-.33.17-.08.33-.18.5-.24,0-8.19,0-16.37,0-24.56-.01,0-.02.01-.03.01-.3.04-.61.01-.92.01s-.65.07-.92-.03c-.18-.07-.29-.37-.36-.59-.02-.07.19-.3.31-.3.62-.03,1.24-.05,1.85.01.03,0,.05.03.08.05,0-21.94,0-43.88,0-65.82-.17-.06-.34-.16-.51-.24.11-.1.21-.21.34-.33.06.03.12.06.17.09,0-1.16,0-2.32,0-3.49-.48.06-.75.11-1.01.11-1.12,0-1.19-.13-.67-1.21.27.53.98.53,1.68.89,0-4.47,0-8.94,0-13.4,0-2.3.07-4.61.18-6.91.32-6.37,7.23-11.73,14.29-9.29,4.84,1.68,7.73,5.7,7.74,11.36,0,1.76,0,3.52,0,5.27,0,0,.02-.02.03-.02.08.13.18.26.21.41.01.05-.14.13-.21.2,0-.02-.02-.03-.03-.05,0,6.86,0,13.72,0,20.59,0,0,.02,0,.03.01.07.07.02.26.02.4-.01.01-.03.03-.04.04,0,7.95,0,15.9,0,23.84.02-.28.13-.56.34-.72.07-.05.21-.02.32-.03.48.27.49,1.2.02,1.55-.07.05-.24.06-.32.02-.23-.12-.34-.39-.36-.68,0,11.44,0,22.87-.01,34.31.23,0,.45,0,.67.03.1.01.21.24.26.38.02.04-.13.18-.22.19-.22.03-.44,0-.67,0-.01,0-.03,0-.04,0,0,4.5,0,8.99,0,13.49,0,.98-.2,1.97-.33,3.09,6.09,0,11.96-.03,17.83.03,1.31.01,1.67-.37,1.67-1.69-.02-20.12-.03-40.23-.04-60.35-.15-.05-.24-.16-.18-.35.02-.08.09-.14.18-.18,0-18.29,0-36.58,0-54.88,0-.44-.01-.88,0-1.32,0-2.37-.19-4.77.1-7.1.19-1.47.91-2.98,1.74-4.24,2.3-3.49,5.62-4.88,9.81-4.71,4.06.17,6.91,2.13,8.98,5.39,1.64,2.57,1.63,5.55,1.63,8.48,0,14.41-.01,28.82-.02,43.23.12,0,.25.02.37,0,.49-.04,1.01-.02,1.71-.01-.05-.05-.05-.14,0-.28.08-.26.11-.52.19-.78.01-.05.14-.07.22-.1.3.07.38.56.15.97-.04.08-.14.15-.23.18,0,0-.01,0-.02,0h0c-.84.83-1.67.52-2.38.6,0,.2,0,.4,0,.61.41.09.83.16,1.02.59.51-.26.86-1.12,1.65-.36-.33.96-1.53.91-2.23,1.46-.11.08-.26.12-.44.13,0,.9,0,1.8,0,2.7.5.43.92.9.75,1.68-.06.27.47.61.62.95.13.29-.04.62-.38.71-.3.07-.79.12-.88-.23-.03-.11-.08-.21-.12-.32,0,5.31,0,10.63,0,15.94.57,0,.76,1.18,1.41,1.18-.44.43-.89.87-1.42,1.39,0,5.38,0,10.76,0,16.14.04-.02.09-.05.13-.07.13.12.23.23.34.33-.16.08-.31.16-.47.23,0,1.15,0,2.29,0,3.44,0,.18,0,.36,0,.54.11.1.31.23.3.31-.05.22-.19.42-.3.63,0,0,0,0,0,0,0,3.97,0,7.95,0,11.93.25.05.49.14.74.33-.25.18-.5.27-.74.33,0,5.5,0,11.02,0,16.59,5.77,0,11.52-.05,17.27.03,1.65.02,2.1-.5,2.1-2.17-.04-27.24-.04-54.48-.04-81.72-.17.09-.33.19-.51.23-.08.02-.21-.19-.31-.29.21-.11.41-.22.61-.33.08.08.14.14.21.21,0-1.79,0-3.58,0-5.37-.59.54-1.18.51-1.77-.12.59-.63,1.18-.66,1.77-.12,0-3.5,0-6.99,0-10.49-.28.06-.55-.03-.83-.29.28-.26.55-.35.83-.29v-2.96c0-.88-.14-1.81.1-2.62,1.31-4.25,4.21-7.19,8.51-7.88,1.75-.28,3.44-.23,5.02.18.11-.08.22-.17.32-.25.11.11.31.26.29.3-.02.04-.05.07-.07.11.97.3,1.89.75,2.74,1.34.13-.1.24-.22.27-.39.42.37.76.67,1.14,1.01-.15.08-.28.12-.42.17.69.61,1.33,1.32,1.91,2.15,1.89,2.71,2.08,5.72,2.07,8.82-.01,11.83-.03,23.67-.04,35.5,0,1.02,0,2.05,0,3.15,6.17,0,12.26.02,18.34-.05.33,0,.94-.71.94-1.1.03-1.75-.17-3.5-.17-5.26,0-1.68,0-3.37,0-5.05-.01-.02-.03-.04-.04-.05.02,0,.03-.02.04-.02,0-9.74.06-19.48-.07-29.21-.03-2.51-.36-5.08-.93-7.54-.17-.03-.31-.1-.34-.23-.06-.2.04-.3.2-.35-.1-.38-.18-.76-.29-1.13-.87-2.99-2.16-5.75-3.86-8.23-.64.31-.99.28-3.83,0,.34-.25.43-.36.51-.36,1.02-.01,2.03,0,3.05,0-1.62-2.29-3.58-4.35-5.91-6.13-3.11-2.37-6.48-4.29-10.14-5.35.07.06.13.12.21.19-.08.13-.16.26-.24.39-.08-.07-.23-.15-.21-.2.03-.14.13-.26.2-.39-1.55-.44-3.14-.75-4.8-.85-4.6-.27-9.32-.66-13.79,1.29-1.72.75-2.25.36-2.69-1.33-.19-.74-.42-1.47-.68-2.18-.3.09-.68.03-.82-.19-.03-.05-.02-.15.02-.2.12-.15.34-.21.56-.22-1.9-4.92-5.15-8.96-9.32-12.15-7.2-5.5-15.52-7.33-24.45-5.57-7.77,1.53-14.07,5.57-18.46,12.2-1.75,2.65-2.87,5.72-4.21,8.63-.58,1.26-1.14,1.78-2.67,1.19-1.92-.74-3.98-1.41-6.01-1.51-6.18-.3-12.29-.17-17.95,3.14-5.87,3.43-10.31,8.03-13.26,14.14-1.55,3.2-2.3,6.53-2.63,9.95.11.09.23.18.22.24-.05.21-.18.41-.29.61-.12,1.55-.16,3.11-.14,4.69.12,10.18.05,20.36.06,30.55-.08.11-.16.23-.24.34-2.87-.76-5.71-1.46-8.72-1.74-3.37-.32-6.62-.15-9.79.68-3.43.9-6.58,2.29-9.4,4.18,2.09.48,4.32-.27,6.44.39Zm-4.66,19.78c-.2-.11-.41-.22-.61-.33.11-.1.23-.31.31-.29.22.05.43.19.64.29-.11.1-.21.21-.34.33Zm1.7-5.49c-.08.07-.33.07-.4,0-.07-.07-.07-.31,0-.39.15-.18.36-.3.54-.45.11.11.31.26.29.3-.11.2-.25.41-.43.55Zm.53-3.26c.64-.67,1.27-.67,1.9,0-.64.67-1.27.67-1.9,0Zm3.78.94c-.18.14-.41.22-.64.33-.42-.56-.56-1.14.04-1.56.53-.37,1.12-.24,1.58.33-.32.3-.64.62-.99.91Zm16.62,4.21c-.11-.21-.25-.41-.3-.63-.02-.08.19-.2.3-.31.11.2.23.41.34.6-.13.12-.23.23-.34.33Zm22.5,11.36c.08.07.15.13.24.22-.08.13-.16.26-.24.39-.08-.07-.23-.15-.21-.2.04-.14.14-.27.21-.41Zm117.58-27.84c-.08-.07-.15-.13-.24-.22.08-.13.16-.26.24-.39.08.07.23.15.21.2-.04.14-.14.27-.21.41Zm3.42-16.34c-.08-.13-.16-.26-.24-.39.09-.08.17-.15.24-.22.08.13.18.26.21.41.01.05-.14.13-.21.2Zm2.67-10.23c.11.21.25.41.3.63.02.08-.19.2-.3.31-.11-.2-.23-.41-.34-.6.13-.12.23-.23.34-.33Zm-1.87-20.52c.06-.01.15.12.22.19-.15.07-.3.15-.44.22-.09-.08-.17-.15-.24-.22.15-.07.3-.16.46-.19Zm.31,2.14c-.11.2-.22.4-.34.6-.11-.1-.31-.23-.3-.31.05-.22.19-.42.3-.63.11.1.21.21.34.33Zm-1.11,9.25c.08.07.15.13.24.22-.08.13-.16.26-.24.39-.08-.07-.23-.15-.21-.2.04-.14.14-.27.21-.41Zm-.65,14.54c.91-.01,1.82,0,2.7,0,.34.3.66.59,1.03.91-.75.33-1.48.66-2.17.96-.81-.47-1.32-1.06-1.93-1.58.21-.16.29-.28.37-.28Zm-.71,14.52c.08.07.23.15.21.2-.04.14-.14.27-.21.41-.08-.07-.15-.13-.24-.22.08-.13.16-.26.24-.39Zm-1.66-47.06c.11.1.31.23.3.31-.05.22-.19.42-.3.63-.11-.1-.21-.21-.34-.33.11-.2.22-.4.34-.6Zm-.15,43.21c-.09.08-.17.15-.24.22-.08-.13-.18-.26-.21-.41-.01-.05.14-.13.21-.2.08.13.16.26.24.39Zm-.5-15.74c.38.52.24,1.1-.33,1.56-.31-.32-.63-.63-.92-.97-.15-.17-.22-.41-.33-.63.57-.42,1.16-.55,1.58.04Zm-3.42-31.85c.44-.54,1.03-.47,1.86.26-.62.38-1.21.74-1.81,1.11-.34-.29-.47-.87-.05-1.38Zm-.42,21.17c.08.13.16.26.24.39-.09.08-.17.15-.24.22-.08-.13-.18-.26-.21-.41-.01-.05.14-.13.21-.2Zm-2.96,21.44c-.2-.11-.41-.22-.61-.33.11-.1.23-.31.31-.29.22.05.43.19.64.29-.11.1-.21.21-.34.33Zm.36-40.54c.03-.2.4-.36.63-.49.11-.06.29-.01.44-.01.24.13.7.29.68.38-.07.46-.46.67-.89.54-.3-.09-1,.45-.86-.41Zm.08,12.85s-.14.13-.21.2c-.08-.13-.16-.26-.24-.39.09-.08.17-.15.24-.22.08.13.18.26.21.41Zm-.52-12.41c.09-.07.33-.06.4,0,.07.07.02.26.02.4-.19.14-.47.45-.55.41-.57-.33-.18-.6.13-.81Zm-.02,17.45c.18.07.37.13.55.21.03.01.02.15-.02.2-.25.3-1.01.31-1.11-.02-.1-.34.23-.42.57-.39Zm-1.73,30.87c-.08-.13-.18-.26-.21-.41-.01-.05.14-.13.21-.2.08.13.18.26.21.41.01.05-.14.13-.21.2Zm-.27-9.94c.18.14.31.35.46.53-.11.11-.27.31-.3.29-.21-.11-.41-.25-.56-.43-.07-.08-.07-.32,0-.39.07-.07.31-.07.4,0Zm-1.51-.93c.26-.03.54.08.8.17.12.04.24.19.29.31.17.43,0,.58-.43.43-.29,0-.61.07-.88-.02-.2-.07-.34-.34-.5-.53.24-.13.47-.33.72-.37Zm-.95,13.89c.08.07.15.13.24.22-.08.13-.16.26-.24.39-.08-.07-.23-.15-.21-.2.04-.14.14-.27.21-.41Zm-8.11-51.3c.15.09.39.23.64.38-.84.5-.8,1.47-1.22,2.19-.03.05-.23.07-.31.02-.13-.07-.31-.2-.32-.31-.03-.6-.12-1.23.02-1.81.1-.43.58-.64,1.19-.47Zm-1.46-.76c.08.13.16.26.24.39-.09.08-.17.15-.24.22-.08-.13-.18-.26-.21-.41-.01-.05.14-.13.21-.2Zm-5.47-9.68c.08.07.15.13.24.22-.08.13-.16.26-.24.39-.08-.07-.23-.15-.21-.2.04-.14.14-.27.21-.41Zm-.47,1.96c.11.2.23.41.34.6-.13.12-.23.23-.34.33-.11-.21-.25-.41-.3-.63-.02-.08.19-.2.3-.31Zm-2.14,7.84c.06-.01.15.12.22.19-.15.07-.3.16-.46.19-.06.01-.15-.12-.22-.19.15-.07.3-.16.46-.19Zm-4.98,7.61c.64-.67,1.27-.67,1.9,0-.64.67-1.27.67-1.9,0Zm2.23-8.34c.34.6.28.94-.11,1.23-.41-.55-1.02-.68-1.72-.61-.33.03-.61-.03-.55-.43.72-.35,1.5-.1,2.37-.19Zm-19.25,33.3c-.08-.13-.18-.26-.21-.41-.01-.05.14-.13.21-.2.08.13.18.26.21.41.01.05-.14.13-.21.2Zm.26,27.14c.08-.04.24-.03.32.02.48.35.46,1.27-.02,1.55-.11,0-.25.02-.32-.03-.48-.35-.46-1.28.02-1.54Zm-.38,5.06c.16.03.31.12.46.19-.08.07-.15.13-.24.22-.14-.07-.29-.14-.44-.22.08-.07.17-.2.22-.19Zm-1.67-10.19c-.05-.07-.07-.23-.02-.31.26-.48,1.21-.49,1.56-.02.05.07.02.21.03.31-.28.47-1.21.49-1.57.02Zm.8,14.85c.03-.2.4-.36.63-.49.11-.06.29-.01.44-.01.24.13.7.29.68.38-.07.46-.46.67-.89.54-.3-.09-1,.45-.86-.41Zm.08,11.97c-.03-.05-.02-.15.02-.2.25-.3.93-.29,1.13.01,0,.07.02.16-.02.2-.25.3-.93.29-1.12-.01Zm2.59,9.66c-.25.13-.51.23-.77.33-.47.04-.94-.08-.79-.61.14-.51,1.18-.49,1.54-.03.05.07.06.28.02.3Zm-.61-12.46c-.02-.08.19-.2.3-.31.11.2.23.41.34.6-.13.12-.23.23-.34.33-.11-.21-.25-.41-.3-.63Zm.13-39.8c-.08.02-.21-.19-.31-.29.21-.11.41-.22.61-.33.13.12.23.23.34.33-.21.1-.41.24-.64.29Zm3.47-1.17c.07.09.01.27.01.41h-.42c-.15-.18-.46-.46-.41-.54.33-.56.6-.18.83.13Zm-.23-1.72c.15-.07.3-.16.46-.19.06-.01.15.12.22.19-.15.07-.3.16-.46.19-.06.01-.15-.12-.22-.19Zm-.1,46.92c-.2-.11-.41-.22-.61-.33.11-.1.23-.31.31-.29.22.05.43.19.64.29-.11.1-.21.21-.34.33Zm.34,7.15c-.21.1-.41.24-.64.29-.08.02-.21-.19-.31-.29.21-.1.41-.24.64-.29.08-.02.21.19.31.29Zm-1.29-27.75c-.2-.11-.41-.22-.61-.33.11-.1.23-.31.31-.29.22.05.43.19.64.29-.11.1-.21.21-.34.33Zm1.18-4.02c.1-.33.85-.32,1.11-.02.04.05.04.18.02.2-.18.08-.37.15-.55.21-.34.03-.67-.05-.57-.39Zm-.23-14.51c.11.14.13.37.09.54-.08.3-.3.5-.69.43-.41-.07-.89.18-1.24-.2.02-.75.92-.14,1.18-.6.08-.14.31-.64.67-.18Zm-1.56,68.74c.64-.67,1.27-.67,1.9,0-.64.67-1.27.67-1.9,0Zm2.22-45.42c1.22.14,2.3-.25,3.32.3-.01,1.35-1.77.04-1.95,1.28-.08.52-.88.44-1.2.27-.61-.31-.63-.93-.18-1.86Zm.97,43.88c-.13-.12-.23-.23-.34-.33.21-.1.41-.24.64-.29.08-.02.21.19.31.29-.21.11-.41.22-.61.33Zm2.35,2.62c-.18.35-.21.34-1.58.03.12-.76.86-1.04,1.27-1.57.54.43.61.96.31,1.54Zm1.25-6.5c-.08-.07-.15-.13-.24-.22.08-.13.16-.26.24-.39.08.07.23.15.21.2-.04.14-.14.27-.21.41Zm5.55-41.38c-.64.67-1.27.67-1.9,0,.64-.67,1.27-.67,1.9,0Zm-1.66-5.63s.14-.13.21-.2c.08.13.16.26.24.39-.09.08-.17.15-.24.22-.08-.13-.18-.26-.21-.41Zm1.14,49.22c-.09.08-.17.15-.24.22-.08-.13-.18-.26-.21-.41-.01-.05.14-.13.21-.2.08.13.16.26.24.39Zm-1.04.74c-.13-.12-.23-.23-.34-.33.21-.1.41-.24.64-.29.08-.02.21.19.31.29-.21.11-.41.22-.61.33Zm2.35,5.42c-.25.13-.51.23-.77.33-.47.04-.94-.08-.79-.61.14-.51,1.18-.5,1.54-.03.05.07.06.28.02.3Zm-1.27-99.82c.11.21.25.41.3.63.02.08-.19.2-.3.31-.11-.21-.25-.41-.3-.63-.02-.08.19-.2.3-.31Zm-.29,9.75c.08.13.18.26.21.41.01.05-.14.13-.21.2-.08-.13-.16-.26-.24-.39.09-.08.17-.15.24-.22Zm-.23,24.42c.19-.31.87-.32,1.12-.01.04.05.02.13.02.2-.2.3-.87.32-1.13.01-.04-.05-.05-.15-.02-.2Zm-.11-10.44s.03.23-.02.3c-.35.47-1.4.48-1.54-.03-.14-.53.32-.65.79-.61.25.1.52.2.77.33Zm-.79-19.52c-.21.1-.41.24-.64.29-.08.02-.21-.19-.31-.29.21-.11.41-.22.61-.33.13.12.23.23.34.33Zm-.92-4.15c.08.13.18.26.21.41.01.05-.14.13-.21.2-.08-.13-.16-.26-.24-.39.09-.08.17-.15.24-.22Zm-1.37,18.16c-.08-.07-.23-.15-.21-.2.04-.14.14-.27.21-.41.08.07.15.13.24.22-.08.13-.16.26-.24.39Zm0-23c.08.07.23.15.21.2-.04.14-.14.27-.21.41-.08-.07-.15-.13-.24-.22.08-.13.16-.26.24-.39Zm-.47,1.62c.01.05-.14.13-.21.2-.08-.13-.18-.26-.21-.41-.01-.05.14-.13.21-.2.08.13.18.26.21.41Zm-.57-4.32c.11.21.25.41.3.63.02.08-.19.2-.3.31-.11-.2-.23-.41-.34-.6.13-.12.23-.23.34-.33Zm-.78,99c-.38.13-.92.23-1.22.06-.51-.3-.89-.82-1.32-1.25.57-.75,1.39-.45,2.1-.45.47,0,.84.32.74.88-.05.27-.13.7-.3.76Zm-.17-124.27c.11.2.23.41.34.6-.13.12-.23.23-.34.33-.11-.21-.25-.41-.3-.63-.02-.08.19-.2.3-.31Zm0,69.26c.11.1.31.23.3.31-.05.22-.19.42-.3.63-.11-.1-.21-.21-.34-.33.11-.2.22-.4.34-.6Zm-.52,26.9c-.18.08-.37.15-.55.21-.34.03-.67-.05-.57-.39.1-.33.85-.32,1.11-.02.04.05.04.18.02.2Zm-.13-16.29c.05.05.05.23,0,.31-.31.5-.82.25-1.25.31-.43-.06-.94.19-1.25-.31-.05-.08-.05-.26,0-.31.51-.44,2-.44,2.51,0Zm-2.94-23.75c-.43,0-.79-.35-.68-.91.92.18,2.01-.47,2.8.52-.62.7-1.42.39-2.12.38Zm1.99-3.08c-.35.47-1.4.48-1.54-.03-.14-.53.32-.65.79-.61.25.1.52.2.77.33.04.02.03.23-.02.3Zm-.19-8.39c.03.27.17.64-.22.77-.26.09-.59.03-.89,0-.08,0-.16-.13-.23-.2.31-.27.61-.56.94-.81.04-.03.39.14.4.24Zm-1.22-1.78c-.08.02-.21-.19-.31-.29.21-.11.41-.22.61-.33.13.12.23.23.34.33-.21.1-.41.24-.64.29Zm.45-21.35c0,.07.02.16-.02.2-.25.3-.93.29-1.12-.01-.03-.05-.02-.15.02-.2.25-.3.93-.29,1.13.01Zm-1.02-13.41c.38-.09.47.21.44.51-.08.16-.15.33-.24.49-.02.02-.17.02-.22-.01-.34-.23-.35-.89.02-.98Zm-.91-3.41c.1-.12.26-.2.39-.29.08.07.22.17.21.19-.08.13-.18.26-.31.36-.06.04-.24.04-.29,0s-.05-.2,0-.25Zm-.96.28c.31-.05.63-.02.95,0,0,0,.04.2,0,.26-.26.39-.66.39-1.08.28-.09-.02-.23-.17-.22-.19.1-.13.21-.32.35-.35Zm-.64,17.65c.06-.01.15.12.22.19-.15.07-.3.15-.44.22-.09-.08-.17-.15-.24-.22.15-.07.3-.16.46-.19Zm-1.7-31.99s.14-.13.21-.2c.08.13.16.26.24.39,0,0,0,0-.01.01.07.06.16.18.23.26-.21.1-.41.24-.64.29-.08.02-.21-.19-.31-.29.13-.06.26-.14.4-.2-.05-.08-.1-.17-.12-.26Zm-1.84,10.69c.57.61.57,1.22,0,1.83-.57-.61-.57-1.22,0-1.83Zm.24,21.41c-.08.13-.16.26-.24.39-.08-.07-.23-.15-.21-.2.04-.14.14-.27.21-.41.08.07.15.13.24.22Zm-1.29,4.33c.51.36.93.43,1.38,0,.46-.44.91-.42,1.38,0-.32.28-.63.56-.98.87h-2.18c-.1-.21-.27-.39-.25-.54.09-.6.16-.66.65-.32Zm-3.06-19.68c.08.07.15.13.24.22-.08.13-.16.26-.24.39-.08-.07-.23-.15-.21-.2.04-.14.14-.27.21-.41Zm-3.35-10.21c.11.1.31.23.3.31-.05.22-.19.42-.3.63-.11-.1-.21-.21-.34-.33.11-.2.22-.4.34-.6Zm-3.01,3.16c.1-.33.85-.32,1.11-.02.04.05.04.18.02.2-.18.08-.37.15-.55.21-.34.03-.67-.05-.57-.39Zm-3.3.48c.14.07.29.14.44.22-.08.07-.17.2-.22.19-.16-.03-.31-.12-.46-.19.08-.07.15-.13.24-.22Zm-7.42,1.73c.08.13.16.26.24.39-.09.08-.17.15-.24.22-.08-.13-.18-.26-.21-.41-.01-.05.14-.13.21-.2Zm-9.99,127.55c-.11-.2-.23-.41-.34-.6.13-.12.23-.23.34-.33.11.21.25.41.3.63.02.08-.19.2-.3.31Zm-.61-49.16c.08-.07.15-.13.24-.22.14.07.29.14.44.22-.08.07-.17.2-.22.19-.16-.03-.31-.12-.46-.19Zm2.04,9.99c.56-.01,1.12,0,1.67,0,.4.28.71.62,1.11.93-.77.45-1.45.25-2.09.26-.41,0-.89.19-1.25-.17-.05-1-.05-1,.55-1.02Zm1.5-9.89c.04-.14.14-.27.21-.41.08.07.15.13.24.22-.08.13-.16.26-.24.39-.08-.07-.23-.15-.21-.2Zm.56,1.95c.05-.22.19-.42.3-.63.11.1.21.21.34.33-.11.2-.22.4-.34.6-.11-.1-.31-.23-.3-.31Zm-1.71,30.33c-.08-.07-.23-.15-.21-.2.04-.14.14-.27.21-.41.08.07.15.13.24.22-.08.13-.16.26-.24.39Zm1.71,11.17c-.14.09-.34.29-.39.26-.41-.21-.13-.39.09-.53.07-.04.24-.04.29,0,.05.05.01.17.01.26Zm.64-.28c-.22-.06-.72.29-.62-.27.02-.13.28-.23.46-.32.08-.04.21,0,.31,0,.17.08.5.19.49.25-.05.29-.33.43-.64.35Zm1.17-17.04c-.29.05-.7.09-.91-.04-.87-.56-1.85-.91-2.94-1.31.86-1.25,2.02-.99,3.15-.92.44.31.2.89.67,1.28.49.4.39.93.03.99Zm-.06-49.14c-.47.04-.94-.08-.79-.61.14-.51,1.18-.5,1.54-.03.05.07.06.28.02.3-.25.13-.51.23-.77.33Zm.85,41.57s.02.13.02.2c-.2.3-.87.32-1.13.01-.04-.05-.05-.15-.02-.2.19-.31.87-.32,1.12-.01Zm-1.68-72.92c-.09-.08-.17-.15-.24-.22.15-.07.3-.16.46-.19.06-.01.15.12.22.19-.15.07-.3.15-.44.22Zm1.47,98.75c-.08-.07-.23-.15-.21-.2.04-.14.14-.27.21-.41.08.07.15.13.24.22-.08.13-.16.26-.24.39Zm.68,4.84c-.08-.13-.18-.26-.21-.41-.01-.05.14-.13.21-.2.08.13.16.26.24.39-.09.08-.17.15-.24.22Zm.07-110.62c.11.21.25.41.3.63.02.08-.19.2-.3.31-.11-.21-.25-.41-.3-.63-.02-.08.19-.2.3-.31Zm-.42,53.4c0,.2.05.41-.02.58-.05.11-.27.19-.43.23-.05.01-.22-.12-.22-.2-.02-.39-.04-.79,0-1.18.01-.09.27-.18.43-.23.05-.01.21.12.22.2.03.19.01.39.01.59Zm-.37-47.61c.08-.02.21.19.31.29-.21.1-.41.24-.64.29-.08.02-.21-.19-.31-.29.21-.1.41-.24.64-.29Zm-.77,7.49c.16.03.31.12.46.19-.08.07-.15.13-.24.22-.14-.07-.29-.14-.44-.22.08-.07.17-.2.22-.19Zm-.22-10.1c-.15.07-.3.16-.46.19-.06.01-.15-.12-.22-.19.15-.07.3-.15.44-.22.09.08.17.15.24.22Zm-.91-1.4c.06-.01.15.12.22.19-.15.07-.3.16-.46.19-.06.01-.15-.12-.22-.19.15-.07.3-.16.46-.19Zm-.12,13.2c-.08-.07-.23-.15-.21-.2.04-.14.14-.27.21-.41.08.07.15.13.24.22-.08.13-.16.26-.24.39Zm.21,1.01s-.14.13-.21.2c-.08-.13-.18-.26-.21-.41-.01-.05.14-.13.21-.2.08.13.18.26.21.41Zm-.42,30.98c.22.05.43.19.64.29-.11.1-.21.21-.34.33-.2-.11-.41-.22-.61-.33.11-.1.23-.31.31-.29Zm-.48-26.55c.08.13.18.26.21.41.01.05-.14.13-.21.2-.08-.13-.16-.26-.24-.39.09-.08.17-.15.24-.22Zm-.68-12.71c.08.07.15.13.24.22-.08.13-.16.26-.24.39-.08-.07-.23-.15-.21-.2.04-.14.14-.27.21-.41Zm-1.02-2.1c.25.1.52.2.77.33.04.02.03.23-.02.3-.35.47-1.4.48-1.54-.03-.14-.53.32-.65.79-.61Zm-.69,96.22c-.15.07-.3.16-.46.19-.06.01-.15-.12-.22-.19.15-.07.3-.15.44-.22.09.08.17.15.24.22Zm-.76-20.41c-.11-.21-.25-.41-.3-.63-.02-.08.19-.2.3-.31.11.2.23.41.34.6-.13.12-.23.23-.34.33Zm0-83.3c.11.21.25.41.3.63.02.08-.19.2-.3.31-.11-.21-.25-.41-.3-.63-.02-.08.19-.2.3-.31Zm-.27,54.38c.49.4.49.81,0,1.21-.49-.41-.49-.81,0-1.21Zm-.35,36.08c-.13.12-.23.23-.34.33-.11-.21-.25-.41-.3-.63-.02-.08.19-.2.3-.31.11.2.23.41.34.6Zm-.34-113.86c.11.21.25.41.3.63.02.08-.19.2-.3.31-.11-.2-.23-.41-.34-.6.13-.13.23-.23.34-.33Zm-.8,101.49q1.12.81.93,1.6-1.12-.8-.93-1.6Zm-.09,29.14c.25-.3.93-.29,1.13.01,0,.07.02.16-.02.2-.25.3-.93.29-1.12-.01-.03-.05-.02-.15.02-.2Zm-.37-47.32c.09.08.17.15.24.22-.15.07-.3.16-.46.19-.06.01-.15-.12-.22-.19.15-.07.3-.15.44-.22Zm-8.07,25.73c-.18.08-.37.15-.55.21-.34.03-.67-.05-.57-.39.1-.33.85-.32,1.11-.02.04.05.04.18.02.2Zm4.46-24.94c-.13-.12-.23-.23-.34-.33.21-.1.41-.24.64-.29.08-.02.21.19.31.29-.21.11-.41.22-.61.33Zm2.83,39.68c-.08-.13-.18-.26-.21-.41-.01-.05.14-.13.21-.2.08.13.16.26.24.39-.09.08-.17.15-.24.22Zm-1.37-81.71c.44-.02.89-.03,1.33,0,.1.01.21.24.26.38.02.04-.13.18-.22.2-.22.03-.44,0-.67,0s-.46.05-.66-.02c-.13-.04-.21-.24-.26-.38-.02-.04.14-.19.22-.2Zm1.02,30.85c0,.46-.31.7-.84.61-.34-.06-.57-.22-.54-.59.04-.46.31-.68.85-.61.35.04.53.24.53.6Zm-1.4-13.03c.11.2.23.41.34.6-.13.12-.23.23-.34.33-.11-.21-.25-.41-.3-.63-.02-.08.19-.2.3-.31Zm-.29,75.21c.14-.51,1.18-.5,1.54-.03.05.07.06.28.02.3-.25.13-.51.23-.77.33-.47.04-.94-.08-.79-.61Zm-.58-123.19c.06-.01.15.12.22.19-.15.07-.3.16-.46.19-.06.01-.15-.12-.22-.19.15-.07.3-.16.46-.19Zm-1.25,26.92c-.2.3-.87.32-1.13.01-.04-.05-.05-.15-.02-.2.19-.31.87-.32,1.12-.01.04.05.02.13.02.2Zm-.59-13.43c.13.12.23.23.34.33-.21.1-.41.24-.64.29-.08.02-.21-.19-.31-.29.21-.11.41-.22.61-.33Zm2.26,42.46c-.45.41-.89.82-1.41,1.3-.59-.51-1.04-.89-1.5-1.29,1.01-.78,1.95-.79,2.92,0Zm-1.77,40.28c.31.35.39.72-.03,1-.38.25-.8.17-1.12-.18.37-.28.59-.73,1.14-.82Zm-1.5-92.71c.08.13.18.26.21.41.01.05-.14.13-.21.2-.08-.13-.18-.26-.21-.41-.01-.05.14-.13.21-.2Zm-.07,18.26c.11.2.23.41.34.6-.13.12-.23.23-.34.33-.11-.21-.25-.41-.3-.63-.02-.08.19-.2.3-.31Zm-1.54,34.05c-.41.72-.86,1.38-1.78,1.52q.1-1.99,1.78-1.52Zm-1.14-50.72c.08-.02.21.19.31.29-.21.1-.41.24-.64.29-.08.02-.21-.19-.31-.29.21-.1.41-.24.64-.29Zm-2.26-1.38c.19-.31.87-.32,1.12-.01.04.05.02.13.02.2-.2.3-.87.31-1.13.01-.04-.05-.05-.15-.02-.2Zm-.11,11.59c-.46.43-.91.43-1.37,0,.46-.43.91-.43,1.37,0Zm-2.18,2.31s.04.18.02.2c-.18.08-.37.15-.55.21-.34.03-.67-.05-.57-.39.1-.33.85-.32,1.11-.02Zm-.9-1.41c.08.07.15.13.24.22-.08.13-.16.26-.24.39-.08-.07-.23-.15-.21-.2.04-.14.14-.27.21-.41Zm-2.73,1.21c.08.07.23.15.21.2-.04.14-.14.27-.21.41-.08-.07-.15-.13-.24-.22.08-.13.16-.26.24-.39Zm-15.72,26.03c-.08-.13-.18-.26-.21-.41-.01-.05.14-.13.21-.2.08.13.18.26.21.41.01.05-.14.13-.21.2Zm4.92-27.48c-.22-.05-.43-.19-.64-.29.11-.1.21-.21.34-.33.2.11.41.22.61.33-.11.1-.23.31-.31.29Zm8.38,2.05c-.11-.21-.25-.41-.3-.63-.02-.08.19-.2.3-.31.11.2.23.41.34.6-.13.13-.23.23-.34.33Zm-.52-11.28c.1-.33.85-.32,1.11-.02.04.05.04.18.02.2-.18.08-.37.15-.55.21-.34.03-.67-.05-.57-.39Zm-.12,8.56c-.69.51-1.38.51-2.07,0,.69-.51,1.38-.51,2.07,0Zm-9.53-6.12c.52-.44,1.11-.17,1.64-.22.44-.04.9-.04,1.35,0,.54.05,1.11-.18,1.62.17-.15.61-.81.84-1.22,1.33.91.4,1.8.8,2.7,1.2-.39.53-1.02.2-1.5.34-.39.11-.76.6-1.06.55-.7-.11-1.41-.38-2.01-.72-.55-.32-.97-.82-1.52-1.31v-1.33Zm-2.01,9.95c.08-.02.21.19.31.29-.21.1-.41.24-.64.29-.08.02-.21-.19-.31-.29.21-.1.41-.24.64-.29Zm-1.22,7.48c.26-.09.59-.03.89,0,.08,0,.16.13.23.2-.31.27-.61.56-.94.81-.04.03-.39-.14-.4-.23-.03-.27-.17-.64.22-.77Zm-12.06,23.05c-.07.05-.24.07-.32.02-.48-.26-.5-1.19-.02-1.54.07-.05.21-.02.32-.03.48.27.49,1.2.02,1.55Zm-.98,64.9c.13.12.23.23.34.33-.21.1-.41.24-.64.29-.08.02-.21-.19-.31-.29.21-.11.41-.22.61-.33Zm-.2,7.92c.05.06,0,.18,0,.27h-.31c-.1-.12-.33-.3-.3-.35.24-.36.44-.12.59.08Zm-1.02-11.84c.08.07.23.15.21.2-.04.14-.14.27-.21.41-.08-.07-.15-.13-.24-.22.08-.13.16-.26.24-.39Zm-1.61-21.31c.08-.02.21.19.31.29-.21.1-.41.24-.64.29-.08.02-.21-.19-.31-.29.21-.1.41-.24.64-.29Zm-2.06-7.66c-.11-.1-.21-.21-.34-.33.11-.2.22-.4.34-.6.11.1.31.23.3.31-.05.22-.19.42-.3.63Zm1.11,53.14c-.22-.05-.43-.19-.64-.29.11-.1.21-.21.34-.33.2.11.41.22.61.33-.11.1-.23.31-.31.29Zm1.74,9.54c-.11-.1-.21-.21-.34-.33.11-.2.22-.4.34-.6.11.1.31.23.3.31-.05.22-.19.42-.3.63Zm.26-15.66c-.05.03-.17.04-.23.01-.35-.17-.36-.77-.02-1,.05-.03.15-.01.23-.02.34.18.36.77.01,1Zm-1.47-2.31c-.12-.15-.31-.3-.34-.47-.22-1.19.37-2.16,1.08-3.11.7.68,1.48.93,2.3.22.11-.1.05-.41.36-.26.16.08.3.29.33.47.04.17-.99,1.91-1.12,1.93-.33.04-.69-.04-.88.35.43.18.88.36,1.35.56-.35.31-.67.6-1,.88-.51-.71-1.32-.57-2.08-.57Zm3.29,10.57c-.06.01-.15-.12-.22-.19.15-.07.3-.15.44-.22.09.08.17.15.24.22-.15.07-.3.16-.46.19Zm.23-16.73c-.16-.03-.31-.12-.46-.19.08-.07.15-.13.24-.22.14.07.29.14.44.22-.08.07-.17.2-.22.19Zm1.2-38.22c.14-.51,1.18-.5,1.54-.03.05.07.06.28.02.3-.25.13-.51.23-.77.33-.47.04-.94-.08-.79-.61Zm.77,63.75c.64-.67,1.27-.67,1.9,0-.64.67-1.27.67-1.9,0Zm3.32-1.42c-.3.05-.61.01-.92.01s-.65.07-.92-.03c-.18-.07-.29-.37-.36-.59-.02-.07.19-.3.31-.3.62-.03,1.24-.05,1.85.01.15.02.29.37.36.59.02.07-.19.28-.31.3Zm-.95-34.58c.11.21.25.41.3.63.02.08-.19.2-.3.31-.11-.2-.23-.41-.34-.6.13-.12.23-.23.34-.33Zm-.3-28.71c-.02-.08.19-.2.3-.31.11.2.23.41.34.6-.13.12-.23.23-.34.33-.11-.21-.25-.41-.3-.63Zm1.41-14.5c.09.08.17.15.24.22-.15.07-.3.16-.46.19-.06.01-.15-.12-.22-.19.15-.07.3-.15.44-.22Zm-.31-2.3c.1-.33.85-.32,1.11-.02.04.05.04.18.02.2-.18.08-.37.15-.55.21-.34.03-.67-.05-.57-.39Zm.15,3.38c.11.1.31.23.3.31-.05.22-.19.42-.3.63-.11-.1-.21-.21-.34-.33.11-.2.22-.4.34-.6Zm.85,84.48c-.14-.07-.29-.14-.44-.22.08-.07.17-.2.22-.19.16.03.31.12.46.19-.08.07-.15.13-.24.22Zm.93-33.32c-.14.09-.34.29-.39.26-.41-.21-.13-.39.09-.53.07-.04.24-.04.29,0s.01.17.01.26Zm.13-63.32c.11.1.21.21.34.33-.11.2-.22.4-.34.6-.11-.1-.31-.23-.3-.31.05-.22.19-.42.3-.63Zm-.03-24.93c.08-.13.16-.26.24-.39.08.07.23.15.21.2-.04.14-.14.27-.21.41-.08-.07-.15-.13-.24-.22Zm.59,61.65c-.08.07-.15.13-.24.22-.14-.07-.29-.14-.44-.22.08-.07.17-.2.22-.19.16.03.31.12.46.19Zm1.04,15.39c.05-.22.19-.42.3-.63.11.1.21.21.34.33-.11.2-.22.4-.34.6-.11-.1-.31-.23-.3-.31Zm1.69,10.64c-.46.43-.91.43-1.37,0,.46-.43.91-.43,1.37,0Zm.69,21.61c.1-.12.26-.2.39-.29.08.07.22.17.21.19-.07.11-.16.21-.26.29.04,0,.07,0,.11-.01-1.1.91-1.77.85-2.49.43.49-.56,1.14-.33,2.03-.38-.04-.06-.04-.18,0-.23Zm.29,4.05c-.21.1-.41.24-.64.29-.08.02-.21-.19-.31-.29.21-.1.41-.24.64-.29.08-.02.21.19.31.29Zm-.62,7.09c-.53-.04-1.11.19-1.6-.17.53-.45.53-.45,2.63-.23-.35.53-.72.42-1.03.39Zm1.1-29.04c.11,0,.33.24.31.3-.07.22-.19.53-.36.59-.27.1-.61.03-.92.03s-.62.03-.92-.01c-.12-.02-.33-.23-.31-.3.07-.22.21-.58.36-.59.61-.07,1.23-.04,1.85-.01Zm-.79-58.81c.08-.02.21.19.31.29-.21.1-.41.24-.64.29-.08.02-.21-.19-.31-.29.21-.1.41-.24.64-.29Zm-.54-8.58s.14-.13.21-.2c.08.13.18.26.21.41.01.05-.14.13-.21.2-.08-.13-.18-.26-.21-.41Zm.71,14.62c-.13.12-.23.23-.34.33-.11-.21-.25-.41-.3-.63-.02-.08.19-.2.3-.31.11.2.23.41.34.6Zm.08,25.62c-.37-.09-.36-.75-.02-.98.05-.03.21-.04.22-.01.1.16.17.33.24.49.03.3-.06.6-.44.51Zm-1.48-77.16c.22-.32.59-.16.9-.2.31.04.68-.12.9.2.03.05.04.17,0,.2-.37.29-1.44.29-1.8,0-.04-.03-.04-.15,0-.2Zm-.12,78.18c-.08.03-.15.07-.23.11-.06.24-.22.48-.48.73-.68-.63-.68-1.25,0-1.88.31.29.47.57.5.86.06,0,.14.12.21.18Zm-.37-41.62c-.13.12-.23.23-.34.33-.11-.21-.25-.41-.3-.63-.02-.08.19-.2.3-.31.11.2.23.41.34.6Zm-.44,15.7s-.14.13-.21.2c-.08-.13-.18-.26-.21-.41-.01-.05.14-.13.21-.2.08.13.18.26.21.41Zm-.21-42.17c.08.07.15.13.24.22-.08.13-.16.26-.24.39-.08-.07-.23-.15-.21-.2.04-.14.14-.27.21-.41Zm0,50.24c.08.07.15.13.24.22-.08.13-.16.26-.24.39-.08-.07-.23-.15-.21-.2.04-.14.14-.27.21-.41Zm-.66,39.91c-.31.25-.48.71-1.05.65-.3-.85.38-1.28.97-1.77.6.34.54.75.08,1.12Zm-.58-107.6c.31.35.39.72-.03,1-.38.25-.8.17-1.12-.18.37-.28.59-.73,1.14-.82Zm-2.31,13.39c.18.14.31.35.46.53-.11.11-.27.31-.3.29-.21-.11-.41-.25-.56-.43-.07-.08-.07-.32,0-.39s.31-.07.4,0Zm-.42-.42c.07.09.01.27.01.41h-.42c-.15-.18-.46-.46-.41-.54.33-.56.6-.18.83.13Zm-.82-3.98c.08.13.18.26.21.41.01.05-.14.13-.21.2-.08-.13-.16-.26-.24-.39.09-.08.17-.15.24-.22Zm.71,27.49c.11-.21.43-.98.93-.27.15.21.18.58.12.84-.11.46-.41.78-.96.67-.57-.11-1.23.28-1.72-.31.02-1.16,1.28-.22,1.63-.93Zm.93,6.25c-.11.2-.22.4-.34.6-.11-.1-.31-.23-.3-.31.05-.22.19-.42.3-.63.11.1.21.21.34.33Zm.22,6.24s-.05-.02-.06-.03c-.07-.07-.07-.31,0-.39.15-.18.36-.3.54-.45.11.11.31.26.29.3-.11.2-.25.41-.43.55-.05.04-.17.06-.27.04-.7,1.02-1.11,2.26-2.95,1.61.63-1.19,1.43-1.82,2.89-1.62Zm-2.93-8.91c-.21.1-.41.24-.64.29-.08.02-.21-.19-.31-.29.21-.1.41-.24.64-.29.08-.02.21.19.31.29Zm-.98-15.33c.08.13.18.26.21.41.01.05-.14.13-.21.2-.08-.13-.16-.26-.24-.39.09-.08.17-.15.24-.22Zm-.57-5.94c.06-.01.15.12.22.19-.15.07-.3.15-.44.22-.09-.08-.17-.15-.24-.22.15-.07.3-.16.46-.19Zm-1.13,2.65c.1-.12.26-.2.39-.29.08.07.22.17.21.19-.08.13-.18.26-.31.36-.06.04-.2,0-.3,0,0-.09-.04-.21,0-.26Zm-.02.27c.05.05.01.17.01.26-.14.09-.34.29-.39.26-.41-.21-.13-.39.09-.53.07-.04.24-.04.29,0Zm-.62-4.58c.11.2.23.41.34.6-.13.12-.23.23-.34.33-.11-.21-.25-.41-.3-.63-.02-.08.19-.2.3-.31Zm-.29,8.75c.14-.51,1.18-.5,1.54-.03.05.07.06.28.02.3-.25.13-.51.23-.77.33-.47.04-.94-.08-.79-.61Zm-.78-7.21c.08.13.18.26.21.41.01.05-.14.13-.21.2-.08-.13-.16-.26-.24-.39.09-.08.17-.15.24-.22Zm-2.72,9.69c.11.2.23.41.34.6-.13.12-.23.23-.34.33-.11-.21-.25-.41-.3-.63-.02-.08.19-.2.3-.31Zm-25.46,27.32c.08-.02.21.19.31.29-.21.1-.41.24-.64.29-.08.02-.21-.19-.31-.29.21-.1.41-.24.64-.29Z"/></svg>