<?xml version="1.0" encoding="UTF-8"?><svg id="Layer_1" xmlns="http://www.w3.org/2000/svg" xmlns:xlink="http://www.w3.org/1999/xlink" viewBox="0 0 236.4 374.48"><defs><style>.cls-1{fill:url(#linear-gradient);}.cls-2{fill:url(#linear-gradient-8);}.cls-3{fill:url(#linear-gradient-9);}.cls-4{fill:url(#linear-gradient-3);}.cls-5{fill:url(#linear-gradient-4);}.cls-6{fill:url(#linear-gradient-2);}.cls-7{fill:url(#linear-gradient-6);}.cls-8{fill:url(#linear-gradient-7);}.cls-9{fill:url(#linear-gradient-5);}.cls-10{fill:url(#linear-gradient-13);}.cls-11{fill:url(#linear-gradient-12);}.cls-12{fill:url(#linear-gradient-10);}.cls-13{fill:url(#linear-gradient-11);}</style><linearGradient id="linear-gradient" x1="19.33" y1="373.51" x2="19.33" y2="0" gradientUnits="userSpaceOnUse"><stop offset="0" stop-color="#ffea6c"/><stop offset="1" stop-color="#e00"/></linearGradient><linearGradient id="linear-gradient-2" x1="1.7" y1="210.33" x2="1.7" y2="129.28" xlink:href="#linear-gradient"/><linearGradient id="linear-gradient-3" x1="11.46" x2="11.46" xlink:href="#linear-gradient"/><linearGradient id="linear-gradient-4" x1="1.44" x2="1.44" xlink:href="#linear-gradient"/><linearGradient id="linear-gradient-5" x1="10.38" x2="10.38" xlink:href="#linear-gradient"/><linearGradient id="linear-gradient-6" x1="7.61" x2="7.61" xlink:href="#linear-gradient"/><linearGradient id="linear-gradient-7" x1="117.76" y1="373.51" x2="117.76" y2="0" xlink:href="#linear-gradient"/><linearGradient id="linear-gradient-8" x1="5.32" x2="5.32" xlink:href="#linear-gradient"/><linearGradient id="linear-gradient-9" x1="12.57" x2="12.57" xlink:href="#linear-gradient"/><linearGradient id="linear-gradient-10" x1="9.03" x2="9.03" xlink:href="#linear-gradient"/><linearGradient id="linear-gradient-11" x1="2.6" x2="2.6" xlink:href="#linear-gradient"/><linearGradient id="linear-gradient-12" x1="4.61" x2="4.61" xlink:href="#linear-gradient"/><linearGradient id="linear-gradient-13" x1="12.41" x2="12.41" xlink:href="#linear-gradient"/></defs><path class="cls-1" d="m18.59,145.38c.18.3.51.21.83.13.25-.06.49-.11.74-.17-.27-.23-.62-.42-1.18-.66-.16.09-.33.18-.49.28-.01.14,0,.28.09.43Z"/><path class="cls-6" d="m1.89,169.79c-.13,0-.25,0-.38,0h0c.13,0,.25,0,.38,0Z"/><path class="cls-4" d="m11.13,158.25h0c.29,0,.49-.1.66-.25-.17.15-.37.25-.66.25Z"/><path class="cls-5" d="m1.44,170.52c0,.18,0,.36,0,.53,0-.18,0-.36,0-.54h0Z"/><path class="cls-9" d="m6.38,204.42c.11.21.18.55.34.61,2.19.79,4.52.78,6.78,1.14.9.14.85-1.04.88-1.67.03-.59-.56-.64-1.06-.49-1.04.3-1.97-.29-2.96-.39h0c-1.3.42-2.75,0-3.98.81Z"/><path class="cls-7" d="m7.63,189.29c0-.37-.02-.73-.02-1.1,0,.37.02.73.02,1.1h0Z"/><path class="cls-8" d="m232.25,252.13h0c-.69-.49-1.48-.47-2.27-.49-.09-.48-.16-.96-.28-1.43-.12-.43-.14-.84.28-1.06.55-.29.55.43.81.54,1.14.49,2.14,1.5,3.34,1.82,0-2.96,0-5.93,0-8.89-1-.17-1.99-.34-2.99-.51-.66.13-1.32.34-1.99.44-.06.05-.13.11-.18.15-.02-.04-.04-.08-.07-.12-.69.07-1.39,0-2.13-.42,1.61-.4,3.07-1.15,4.7-.6.35-.02.67-.08.95-.19-.04-.02-.09-.05-.13-.07.11-.1.23-.31.31-.29.1.02.19.06.28.11.33-.26.55-.67.6-1.28-.01-1.46.9-2.98-.46-4.35-.4-.41.03-1.09.33-1.56.22-.34.53-.48.79-.38,0-2.69,0-5.38,0-8.08-.07-.03-.15-.05-.22-.09.08-.03.15-.06.22-.09,0-10.84.01-21.67.01-32.51-.05-.02-.09-.05-.14-.07.05-.04.09-.09.14-.14,0-8.75,0-17.49,0-26.24v-2.4c-3.95,0-7.8,0-11.66,0-6.85.01-13.7.01-20.54.06-1.09,0-1.23-.38-.98-1.32,4.28-15.93,8.55-31.86,12.79-47.8,3.8-14.31,7.56-28.63,11.33-42.95-.18-.18-.35-.36-.5-.56-.05-.06.14-.38.2-.38.17,0,.36.02.54.05,1.31-4.98,2.64-9.95,3.95-14.93,0-.02-.02-.04-.03-.06-.07-.26-.02-.54-.02-.82.1-.02.19-.01.27,0,.95-3.62,1.89-7.25,2.8-10.88.85-3.44,1.91-7.03,1.72-10.48-.48-8.74-3.12-16.72-9.46-23.27-5.01-5.18-10.94-8.64-17.85-9.99-3.93-.76-8.13-.31-12.19-.14-5.41.22-10.08,2.7-14.36,5.73-6.15,4.35-10.52,10.19-12.63,17.48-2.38,8.22-4.49,16.52-6.7,24.8-2.38,8.95-4.74,17.91-7.11,26.86.06.02.12.04.18.07.04.02.05.15.02.2-.05.08-.14.19-.23.2-.03,0-.06,0-.09,0-1.77,6.71-3.55,13.41-5.32,20.11.02,0,.04-.02.06-.02.06-.01.15.12.23.19-.12.05-.25.12-.37.16-.48,1.82-.96,3.64-1.44,5.46-1.38,5.22-2.75,10.44-4.13,15.66-.22.91-.44,1.83-.67,2.74.37-.07.75.09,1.12.48-.45.47-.89.61-1.34.41-.1.41-.2.82-.3,1.23-.2-.02-.41-.04-.61-.06-.34-1.35-.69-2.71-1.03-4.06-1.25-4.61-2.51-9.22-3.76-13.83-.16-.03-.29-.11-.33-.23-.06-.19.03-.3.17-.35-.32-1.19-.65-2.38-.96-3.57-.17-.65-.34-1.29-.51-1.94-.17.09-.33.19-.51.23-.08.02-.21-.19-.31-.29.21-.11.41-.22.61-.33.06.05.1.1.15.14-1.81-6.81-3.6-13.63-5.4-20.44-.07-.06-.13-.12-.19-.17.04-.02.09-.04.13-.06-.6-2.27-1.19-4.53-1.8-6.8-2.68-10.07-5.35-20.15-8.1-30.2-1.85-6.76-3.45-13.62-5.85-20.18-2.32-6.35-6.97-11.11-12.66-14.79-3.65-2.36-7.63-4.14-11.85-4.78-9.85-1.51-19.05.04-27.16,6.48-6.61,5.24-10.82,12.01-12.66,20.03-1.03,4.49-1,9.11-.13,13.7.18-.02.39.05.57.11.09.03.17.12.21.2.12.28,0,.37-.31.28-.11,0-.23.01-.34.01.09.41.17.83.27,1.24.01-.01.03-.03.05-.04.05.08.1.16.14.25.06-.06.12-.12.2-.2.2.11.41.22.61.33-.11.1-.23.31-.31.29-.16-.04-.32-.12-.47-.2-.02.02-.06.05-.09.07.11.43.21.86.34,1.29,2.35,8.15,4.32,16.4,6.49,24.6.33,1.25.67,2.49,1,3.73.1-.06.21-.11.31-.17.13.12.23.23.34.33-.18.09-.35.19-.53.25,1.52,5.72,3.05,11.44,4.59,17.16.33,1.23.72,2.45,1.06,3.68.16.06.3.15.4.27.05.07.02.21.03.31-.05.08-.11.14-.19.19.3.73.86.91,1.67.69,4.96-1.36,9.91-2.73,14.86-4.11.17-.05.3-.23.47-.27,3.9-.9,4-.92,3.02-4.71-.41-1.6-.84-3.19-1.26-4.79-.14-.09-.28-.19-.39-.32-.07-.08-.07-.32,0-.39.03-.03.11-.05.18-.05-.33-1.26-.66-2.52-.99-3.78-.01,0-.02.02-.03.03-.08-.13-.16-.26-.24-.39.06-.05.1-.09.15-.13-1.35-5.11-2.7-10.22-4.06-15.32-.11-.1-.24-.19-.27-.31-.04-.13,0-.29.04-.58-.32-1.21-.65-2.43-.97-3.64-1.81-6.82-3.83-13.59-5.36-20.47-.38-1.72-.33-3.59.17-5.42-.01-.02-.03-.03-.04-.05.02-.01.04-.02.07-.03.44-1.55,1.2-3.05,2.33-4.41-.16-.06-.31-.15-.46-.22.11-.1.21-.21.34-.33.13.07.27.15.41.23.8-.9,1.76-1.72,2.9-2.43,5.47-3.39,15.4-2.19,17.84,5.91.08.28.16.56.25.84.02,0,.04,0,.06,0,.47-.05.82.07.84.61-.2.18-.41.27-.62.31,1.93,6.52,3.67,13.1,5.45,19.67,1.16,4.27,2.3,8.54,3.44,12.82.21.02.42.09.53.22.04.05.04.18.02.2-.13.06-.26.1-.39.15,1.23,4.62,2.45,9.24,3.66,13.86,0,0,0,0,0,0,.4.19.58.7.38,1.24,0,.02-.03.04-.05.06,2.19,8.42,4.28,16.86,6.5,25.27,1.64,6.24,3.46,12.43,5.15,18.65,2.02,7.45,3.98,14.91,5.97,22.36.9,3.36,1.78,6.73,2.67,10.09.61-.17,1.28-.07,1.94-.03.44.31.2.89.67,1.28.49.4.39.93.03.99-.29.05-.7.09-.91-.04-.42-.27-.86-.49-1.33-.69.37,1.4.75,2.8,1.11,4.21.18.68.2,1.4.28,1.97-.86.17-1.7.33-2.54.5-.04.07-.09.14-.13.21-.05-.05-.14-.1-.19-.15-3.15.62-6.2,1.22-9.17,1.81,0-3.67,0-7.36,0-11.05,0-.09,0-.18,0-.27-.19-.03-.38-.14-.54-.31.19-.14.35-.33.52-.49-.09-6.56-1.21-12.91-4.38-18.77-2.01-3.71-4.48-6.88-7.41-9.47.08.12.15.24.23.36-.09.08-.17.15-.24.22-.08-.13-.18-.26-.21-.41-.01-.05.13-.13.21-.19-3.49-3.08-7.64-5.35-12.46-6.7-3.56-1-7.13-1.59-10.66-1.66-.51.79-1.08,1.43-2.51.92.19-.36.4-.66.63-.91-3.21.12-6.39.71-9.51,1.87-.22.16-.44.24-.66.24-1.07.43-2.14.92-3.19,1.49-4.74,2.56-8.69,5.79-11.71,9.79-.04.11-.09.21-.18.32-.16.19-.3.44-.48.6-.92,1.3-1.74,2.69-2.46,4.15,0,0,.01.01.02.02-.02.02-.04.03-.05.05-.89,1.81-1.64,3.75-2.23,5.81-.51,1.79-1.85,1.11-3.07.88-.17-.03-.34-.07-.51-.1,0,0,0,0,0,0-.13.12-.23.23-.34.33-.08-.15-.16-.3-.23-.45-3.41-.69-6.82-1.62-10.24-1.65-5.59-.05-10.77,1.18-15.53,3.71.7-.04,1.36.05,1.97.01.25.2.5.39.7.59.11-.02.21-.05.32-.07.18.34.16.62.07.86,0,.13,0,.27-.06.42-.06,0-.11,0-.17,0-.21.31-.44.6-.38.98-2.57.04-5.07.71-7.64.82-.11,0-.21.03-.32.04-.18.15-.36.29-.54.44-1.48,1.24-2.81,2.56-4.02,3.95.15.18.3.36.45.54.14.14.29.28.43.41.89.91,1.85,1.3,3.16.83.93-.34,1.76-.36,2.67.69.8.92,2.36.6,3.53,0,.64-.32,1.22-.75,1.98-.59.62-.04,1.23-.08,1.85-.12,1.07,1.05,1.63,3.27,3.83,1.75.45-.31.66.26.99.4,1.56.69,3.12.16,4.68-.01.31-.03.48-.38.36-.78-.45-.46-1.29.01-1.67-.67-.75-.03-1.55.03-1.88-.91.78-.04,1.56-.07,2.34-.11h0c.46-.01.92-.03,1.38-.03,3.07.02,3.17.14,2.85,3.39-.02.15-.09.3-.13.45.18.33.19.66.07,1.01.25,1.98.04,2.29-1.67,2.42-.6.04-1.21-.03-1.82-.05-.5.15-.99.16-1.46-.12-.6.28-1.23.34-1.87.18-.62.02-1.19,1.01-1.87.11-1.14.07-2.29.13-3.43.2-.38,0-.88.14-1.12-.05-1.42-1.13-3.01-.81-4.59-.71-.38.04-.99-.05-1.07.31-.4,1.76-2.38,1.82-3.11,3.23-.3.58-1.13.44-1.73.59-.08.56-.16,1.12-.24,1.67.97-.25,1.58.04,1.65,1.15.08.15.17.3.25.45.26-.3.6-.31.95-.32,1.63-.44,3.27-.27,4.92-.11.12,1.03,1.2.52,1.64,1.06-.31.91-1.09.98-1.82,1.29-1.19.5-2.47-.06-3.72.8-.85.59-1.25-.77-1.27-1.71-.54.07-1.36-.07-1.57.24-.96,1.39-2.16,1.06-3.48.92-1.22-.13-2.54-.14-3.45,1.02-.31.03-.61.06-.92.08-1.02-.36-2.02-.64-2.86.38-.54-.03-1.07-.11-1.48-.53-.01,0-.03,0-.04,0-.11,2,.09,4.06.09,6.07,0,.34,0,.67,0,1.01.13,0,.26,0,.39-.01-.09.46-.18.92-.39,1.3,0,2.17,0,4.34,0,6.51.67.55,1.33,1.1,2.33.87.12.04.24.09.35.14.11.3.29.45.61.3l-.03.11c.46-.26.95-.17,1.43-.16.24.7.69,1.07,1.43,1.01.24-.34.56-.46.96-.39h0c.18-.07.35-.14.53-.2.58-.03,1.15-.05,1.73-.08,0,0,0,0,0,0,0,0,.04-.09.04-.09.43-.49.96-.43,1.5-.28,1.36-.39,2.72-.77,4.08-1.17.39-.11.76-.21,1.1.11-.19.15-.45.28-.67.42.22-.14.48-.27.67-.42.7-.2,1.46-.25,2.09.08,1.11.57,2.25.77,3.42.81,0-1.31,0-2.63-.02-3.94-.03-2.14-.46-4.29-.3-6.41.16-2.2.36-4.53,1.17-6.53-.04.05-.08.11-.13.15-.06.04-.24.04-.29,0-.05-.05-.05-.2,0-.25.1-.12.26-.2.39-.29.04.04.1.08.14.12,0-.01,0-.02.01-.04,2.8-6.28,8.37-8.68,14.91-6.94,4.93,1.32,8.55,5.42,8.86,10.61.27,4.41.06,8.85.06,13.27h.37c0,3.59.11,7.18-.03,10.76-.19,4.83-1.8,9.08-6.17,11.63-5.96,3.48-13.55,2.19-17.11-4.12-.23,0-.46-.01-.7-.06-.73-.76-1.62-.32-2.45-.33l-2.42.42c-.39-.25-.79-.46-1.26-.44-.66.03-1.33.06-1.99.08-.15-.03-.28-.07-.39-.12.11.05.23.09.39.12q-.92.94.52,1.53c.01.3.02.59.03.89-.77.52-1.63.93-2.15,2.05-1.15-1.69-2.52-1.66-4.04-1.06-.89.35-1.75.98-2.56-.47-.46-.83-1.77-.19-2.69-.33-.14.08-.31.26-.4.22-1.08-.47-2.2-.59-3.31-.6,0,1.29,0,2.59,0,3.88.18-.1.44-.12.77-.04,2.44.54,4.88,1.08,7.4,1.06.32,0,.63.12.72.49.12.5-.17.76-.57.89-.67.22-1.34.49-2.07.46-.31-.03-.72.07-.92-.1-1.25-1.07-2.69-.68-4.08-.66-.54,0-.97-.12-1.26-.53,0,5.43,0,10.87.02,16.3.34-.03.72.07.91.33.05.07.02.21.03.31-.17.28-.57.4-.94.35.02,12.43.05,24.86.12,37.29.02,3.29.69,6.59,1.31,9.87,0-.15,0-.3.03-.44.07-.26.3-.46.67-.39,0,.27.06.56-.02.82-.07.24-.28.43-.61.4.13.7.26,1.4.38,2.1,1.95,11.48,6.05,22.2,11.49,32.45,3.97,7.48,8.57,14.53,14.23,20.82,3.93,4.37,7.92,8.74,12.29,12.65,5.83,5.22,12.32,9.61,19.15,13.51,7.81,4.47,16.07,7.88,24.61,10.54,4.54,1.42,9.38,1.87,14.09,2.76.77.14,1.53.29,2.3.43,1.21.13,2.42.25,3.64.38.4.23.79.46,1.19.68h22.59c.51-.33,1.02-.65,1.52-.98,1.59-.03,3.19-.05,4.78-.08,1.74-.39,3.49-.74,5.23-1.16,3.84-.93,7.7-1.79,11.5-2.86,8.47-2.38,16.4-6.08,23.91-10.58,4.97-2.98,9.68-6.44,14.3-9.97,3.44-2.63,6.67-5.56,9.74-8.62,8.12-8.08,14.75-17.28,20.21-27.38,5.32-9.83,9.01-20.23,11.35-31.11.42-1.98.76-3.98,1.04-5.98-.72-.25-1.43-.52-2.14-.76-1.45-.48-1.42-1-1.05-2.68.2-.93.09-1.94.08-2.91-.02-1.83-.04-1.83,1.74-2.02.31-.03.63-.06.94-.1.76-1.05.24-2.42.86-3.51.27.02.53.05.8.07.2-2.85.34-5.71.35-8.56,0-.4,0-.8,0-1.21-.11-.04-.24-.08-.4-.08-.7.07-1.38.09-1.48-.9Zm.65-57.19c.14.07.29.14.44.22-.08.07-.17.2-.23.19-.16-.03-.31-.12-.46-.19.08-.07.15-.13.24-.22Zm0-165.64c.14.07.29.14.44.22-.08.07-.17.2-.23.19-.16-.03-.31-.12-.46-.19.08-.07.15-.13.24-.22Zm-.91,8.64c.08-.02.21.19.31.29-.21.1-.41.24-.64.29-.08.02-.21-.19-.31-.29.21-.1.41-.24.64-.29Zm-2.36,5.74c.35-.47,1.29-.45,1.57.02,0,.11.02.24-.03.31-.35.47-1.3.46-1.56-.02-.04-.08-.03-.24.02-.31Zm-2.72,10.28c-.15-.07-.3-.16-.4-.28-.05-.05-.05-.21,0-.25.05-.04.23-.05.29,0,.13.09.22.23.33.34-.08.07-.19.2-.22.19Zm1.98-9.62c.08.13.16.26.24.39-.09.08-.17.15-.24.22-.08-.13-.18-.26-.21-.41-.01-.05.14-.13.21-.2Zm-.45,10.3c.18-.02.39.05.58.11.09.03.17.12.21.2.12.28,0,.37-.31.28-.21,0-.44.04-.63-.01-.15-.05-.24-.22-.36-.34.17-.08.34-.22.52-.24Zm-1.82-12.2c.25.1.52.2.77.33.04.02.03.23-.02.3-.35.47-1.4.48-1.54-.03-.14-.53.32-.65.79-.61Zm-.82,10.11c.05.06,0,.18,0,.27.47-.02.7.19.68.61-.47.02-.7-.19-.68-.61h-.31c-.1-.12-.33-.3-.3-.35.24-.36.44-.12.59.08Zm-169.18-11.24c.08.07.15.13.24.22-.08.13-.16.26-.24.39-.08-.07-.23-.15-.21-.2.04-.14.14-.27.21-.41Zm-7.73-14.12s-.05-.15-.02-.2c.19-.31.87-.32,1.12-.01.04.05.02.13.02.2-.2.3-.87.31-1.13.01Zm.76,14.6c-.09-.04-.17-.12-.21-.2-.12-.28,0-.36.31-.28.29.07.59.1.88.17.05.01.07.13.11.19-.08.26-.63.33-1.1.13Zm2.96-10.86c-.14-.07-.29-.14-.44-.22.08-.07.17-.2.22-.19.16.03.31.12.46.19-.08.07-.15.13-.24.22Zm1.48,19.26c-.25.3-.93.29-1.12-.01-.03-.05-.02-.15.02-.2.25-.3.93-.29,1.13.01,0,.07.02.16-.02.2Zm.38-20.11c-.22.38-.63.65-.96.98-.93-.07-.42-.84-.65-1.25-.2-.36-.66-.58-1.52-1.29,1.38-.08,1.84-.17,2.26-.11.41.06.99.2,1.13.47.14.29-.06.84-.27,1.19Zm.5,4.56c.05-.22.19-.42.3-.63.11.1.21.21.34.33-.11.2-.22.4-.34.6-.11-.1-.31-.23-.3-.31Zm.28,6.67c-.08-.13-.18-.26-.21-.41-.01-.05.14-.13.21-.2.08.13.16.26.24.39-.09.08-.17.15-.24.22Zm.34,2.12c.46-.43.91-.43,1.37,0-.46.43-.91.43-1.37,0Zm1.42,1.64c-.08.02-.21-.19-.31-.29.21-.1.41-.24.64-.29.08-.02.21.19.31.29-.21.1-.41.24-.64.29Zm.3-17.74c-.2-.11-.41-.22-.61-.33.11-.1.23-.31.31-.29.22.05.43.19.64.29-.11.1-.21.21-.34.33Zm.81,44.13c-.11-.1-.31-.23-.3-.31.05-.22.19-.42.3-.63.11.1.21.21.34.33-.11.2-.22.4-.34.6Zm.55-4.11c-.49-.4-.49-.81,0-1.21.49.41.49.81,0,1.21Zm.34-28.15c.15-.07.3-.16.46-.19.06-.01.15.12.22.19-.15.07-.3.16-.46.19-.06.01-.15-.12-.22-.19Zm.84,33.02c-.08.02-.21-.19-.31-.29.21-.1.41-.24.64-.29.08-.02.21.19.31.29-.21.1-.41.24-.64.29Zm.86-43.61c-.08-.13-.18-.26-.21-.41-.01-.05.14-.13.21-.2.08.13.16.26.24.39-.09.08-.17.15-.24.22Zm1.15,59.65c-1.31-1.59.55-1.83,1.02-3.09q.49,1.85-1.02,3.09Zm19.5-7.85c.07.09.01.27.01.41-.14,0-.28,0-.42,0-.15-.18-.46-.46-.41-.54.33-.56.6-.18.83.13Zm-12.44-3.37c.08,0,.24.15.22.2-.05.14-.13.34-.26.38-.2.06-.44.02-.66.02s-.45.02-.67,0c-.09-.01-.24-.15-.22-.2.05-.14.15-.37.26-.38.07,0,.13,0,.2,0-.24-.09-.51-.27-.82-.54.62-.38,1.21-.74,1.81-1.11.34.29.47.87.05,1.38-.1.12-.2.2-.31.26.13,0,.27,0,.4.01Zm-2.01-7.9c-.13-.04-.21-.24-.26-.38-.02-.04.14-.19.22-.2.44-.02.89-.03,1.33,0,.1.01.21.24.26.38.02.04-.13.18-.22.2-.22.03-.44,0-.67,0s-.46.05-.66-.02Zm1.94-26.39c-.05.22-.19.42-.3.63-.11-.1-.21-.21-.34-.33.11-.2.22-.4.34-.6.11.1.31.23.3.31Zm-.62-.83c.08.13.18.26.21.41.01.05-.14.13-.21.2-.08-.13-.16-.26-.24-.39.09-.08.17-.15.24-.22Zm-.68,6.05c.08.13.18.26.21.41.01.05-.14.13-.21.2-.08-.13-.18-.26-.21-.41-.01-.05.14-.13.21-.2Zm.05,2.89c.11.2.23.41.34.6-.13.12-.23.23-.34.33-.11-.21-.25-.41-.3-.63-.02-.08.19-.2.3-.31Zm-.74,8.61c.08.13.18.26.21.41.01.05-.14.13-.21.2-.08-.13-.16-.26-.24-.39.09-.08.17-.15.24-.22Zm-1.37-23.61c.08.13.18.26.21.41.01.05-.14.13-.21.2-.08-.13-.16-.26-.24-.39.09-.08.17-.15.24-.22Zm-.68-10.9c.08.13.18.26.21.41.01.05-.14.13-.21.2-.08-.13-.18-.26-.21-.41l.21-.2Zm-.06,35.25c.11.1.21.21.34.33-.11.2-.22.4-.34.6-.11-.1-.31-.23-.3-.31.05-.22.19-.42.3-.63Zm.26,20.6c.74-.14,1.16.23,1.17.96.11.56-.26.81-.73.9-.74.14-1.12-.23-1.18-.94-.05-.58.27-.83.74-.92Zm-1.68,6.54c.66-.02.97.29.95.94-.66.02-.97-.29-.95-.94Zm1.24,1.68c-.12-.06-.24-.19-.29-.31-.17-.43-.01-.56.44-.44.4.11.82.15,1.22.26.07.02.1.19.15.3-.1.41-.87.52-1.52.2Zm2.51,2.3c-.22.32-.59.16-.9.2-.31-.04-.68.12-.9-.2-.03-.05-.04-.17,0-.2.37-.29,1.44-.29,1.8,0,.04.03.04.15,0,.2Zm.52.69c-.11-.1-.31-.23-.3-.31.05-.22.19-.42.3-.63.11.1.21.21.34.33-.11.2-.22.4-.34.6Zm.94-5.64c-.92-.14-1.38.43-1.9.96-.45-.44-.88-.87-1.33-1.31.17-.18.32-.52.5-.53,1.23-.05,2.46-.03,3.69-.01.11,0,.22.2.33.32-.09.91-.83.65-1.29.58Zm1.16-12.5s-.17.02-.22-.01c-.34-.23-.35-.89.02-.98.38-.09.47.21.44.51-.08.16-.15.33-.24.49Zm.75,5.04c-.11-.21-.25-.41-.3-.63-.02-.08.19-.2.3-.31.11.2.23.41.34.6-.13.12-.23.23-.34.33Zm.95,6.55c-.11-.1-.21-.21-.34-.33.11-.2.22-.4.34-.6.11.1.31.23.3.31-.05.22-.19.42-.3.63Zm6.52.72c.06-.01.15.12.22.19-.15.07-.3.15-.44.22-.09-.08-.17-.15-.24-.22.15-.07.3-.16.46-.19Zm-1.13,2.65c.1-.12.26-.2.39-.29.08.07.22.17.21.19-.08.13-.18.26-.31.36-.06.04-.2,0-.3,0,0-.09-.04-.21,0-.26Zm-.02.27c.05.05.01.17.01.26-.14.09-.34.29-.39.26-.41-.21-.13-.39.09-.53.07-.04.24-.04.29,0Zm-.62-4.58c.11.2.23.41.34.6-.13.12-.23.23-.34.33-.11-.21-.25-.41-.3-.63-.02-.08.19-.2.3-.31Zm-1.08,1.55c.08.13.18.26.21.41.01.05-.14.13-.21.2-.08-.13-.16-.26-.24-.39.09-.08.17-.15.24-.22Zm-3.53-15.04c.14.06.32.11.44.2.25.19.47.4.7.61-.41.62-1.54-.03-1.67,1.33q-.35-1.29.54-2.14Zm-1.26-31.57c.08.07.15.13.24.22-.08.13-.16.26-.24.39-.08-.07-.23-.15-.21-.2.04-.14.14-.27.21-.41Zm.51,5.15c-.11.2-.22.4-.34.6-.11-.1-.31-.23-.3-.31.05-.22.19-.42.3-.63.11.1.21.21.34.33Zm-.17,15.75c.08-.02.21.19.31.29-.21.11-.41.22-.61.33-.13-.12-.23-.23-.34-.33.21-.1.41-.24.64-.29Zm-.9-18.37c.06-.01.15.12.22.19-.15.07-.3.16-.46.19-.06.01-.15-.12-.22-.19.15-.07.3-.16.46-.19Zm30.16-11.76c-.11-.2-.23-.41-.34-.6.13-.12.23-.23.34-.33.11.21.25.41.3.63.02.08-.19.2-.3.31Zm2.91-1.85c-.39.2-.68.59-1.01.9-.73-1.64-.63-1.84.92-1.85.31,0,.62-.03.92.01.12.02.23.17.37.29.02.97-.8.45-1.2.66Zm2.46-1.73s-.17.02-.22-.01c-.34-.23-.35-.89.02-.98.38-.09.47.21.44.51-.08.16-.15.33-.24.49Zm1.38.59c-.16-.03-.31-.12-.46-.19.08-.07.15-.13.24-.22.14.07.29.14.44.22-.08.07-.17.2-.22.19ZM22.19,143.27c.24-.36.44-.12.59.08.05.06,0,.18,0,.27-.1,0-.2,0-.3,0-.11-.12-.33-.3-.3-.35Zm.61.63c-.12-.28,0-.36.31-.28.29.07.59.1.88.17.05.01.07.13.11.19-.08.26-.63.33-1.1.13-.09-.04-.17-.12-.21-.2Zm-.8,4.35c-.18.08-.37.15-.55.21-.34.03-.67-.05-.57-.39.1-.33.85-.32,1.11-.02.04.05.04.18.02.2Zm.34,3.73c-.06.01-.15-.12-.22-.19.15-.07.3-.15.44-.22.09.08.17.15.24.22-.15.07-.3.16-.46.19Zm1.14-5.33c-.47.02-.7-.19-.68-.61.47-.02.7.19.68.61.43.07.67-.17.66-.47,0-.26-.17-.56-.37-.75-.2-.2-.32-.32-.12-.43.18-.09.44-.2.6-.14.63.21,1.15.55,1.28,1.2-.58-.04-.68.29-.69.7,0,.32-.21.5-.57.51-.47.01-.83-.09-.79-.6Zm.96,7.66c.64-.67,1.27-.67,1.9,0-.64.67-1.27.67-1.9,0Zm1.09-8.26c.66.09.99.52,1.28.98q-1.21.3-1.28-.98Zm5.73-3.13c-.02-.08.19-.2.3-.31.11.21.25.41.3.63.02.08-.19.2-.3.31-.11-.21-.25-.41-.3-.63Zm.76,6.76c-.08-.13-.18-.26-.21-.41-.01-.05.14-.13.21-.2.08.13.16.26.24.39-.09.08-.17.15-.24.22Zm-13.11,13.79c-.03.15-.05.31-.11.44-.23.52-.55.95-1.18.93-.24-.01-.45-.16-.4-.45.11-.65.6-.85,1.15-.97.18.01.36.02.53.03.22-.47.51-.58.88-.14-.29.05-.57.1-.86.15Zm.46-1.39c-.1.07-.6-.19-.6-.27.03-.41.04-.96.3-1.19.24-.21.79-.1,1.21-.09.11,0,.22.2.46.44-.45.38-.89.78-1.37,1.11Zm-17.1,19.71c-.2-.11-.41-.22-.61-.33.11-.1.23-.31.31-.29.22.05.43.19.64.29-.11.1-.21.21-.34.33Zm2.18-9.51c.18-.09.38-.18.57-.2.44-.03.89,0,1.34,0,.11,0,.27-.04.33,0,.12.11.2.25.25.4.01.04-.14.19-.23.19-.56.02-1.12,0-1.68,0-.42,0-.82-.29-.59-.4Zm.8,6.35c-.35-.17-.36-.77-.02-1,.05-.03.15-.01.23-.02.34.18.36.77.01,1-.05.03-.17.04-.23.01Zm1.12,2.53c-.43.03-.6-.17-.67-.47-.1-.47.17-.74.7-.74.41-.07.59.16.66.47.1.47-.17.72-.68.75Zm1.93,1.01c-.25.3-1.01.31-1.11-.02-.1-.34.23-.42.57-.39.18.07.37.13.55.21.03.01.02.15-.02.2Zm5.26,2.62c-.08-.07-.23-.15-.21-.2.04-.14.14-.27.21-.41.08.07.15.13.24.22-.08.13-.16.26-.24.39Zm1.37-11.5c.08.07.15.13.24.22-.08.13-.16.26-.24.39-.08-.07-.23-.15-.21-.2.04-.14.14-.27.21-.41Zm.62,12.25c-.15-.08-.31-.17-.47-.26-.05.04-.11.08-.15.12-.08-.13-.18-.26-.21-.41-.01-.05.14-.13.21-.2.05.09.1.17.15.26.07-.08.13-.15.18-.14.22.05.43.19.64.29-.11.1-.21.21-.34.33Zm1.43-6.8c-.08-.13-.18-.26-.21-.41-.01-.05.14-.13.21-.2.08.13.18.26.21.41.01.05-.14.13-.21.2Zm.5-3.54c-.22-.05-.43-.19-.64-.29.11-.1.21-.21.34-.33.2.11.41.22.61.33-.11.1-.23.31-.31.29Zm.87,9.59c-.08-.13-.16-.26-.24-.39.09-.08.17-.15.24-.22.08.13.18.26.21.41.01.05-.14.13-.21.2Zm4.58-17.77c.04-.14.13-.26.21-.39.08.07.15.13.24.22-.07.12-.15.24-.22.36.07.12.13.24.2.35-.13.12-.23.23-.34.33-.11-.21-.25-.41-.3-.63-.01-.06.11-.15.21-.23Zm-.82,4.11c-.26.39-.66.39-1.08.28-.09-.02-.23-.17-.22-.19.1-.13.21-.32.35-.35.31-.05.63-.02.95,0,0,0,.04.2,0,.26Zm.35,9.41c-.08-.13-.18-.26-.21-.41-.01-.05.14-.13.21-.2.08.13.18.26.21.41.01.05-.14.13-.21.2Zm1.03-10.29c.07.33-.15.53-.45.59-.29.06-.61.01-.92.01-.08-.33.15-.53.45-.59.29-.06.61-.01.92-.01Zm4.12-6.3c-.08.02-.21-.19-.31-.29.21-.1.41-.24.64-.29.08-.02.21.19.31.29-.21.1-.41.24-.64.29Zm10.11-20.89c-.02.12-.24.33-.31.31-.22-.07-.58-.21-.6-.35-.07-.6-.04-1.22-.01-1.82,0-.11.24-.32.31-.3.22.07.54.18.6.36.1.27.03.6.03.9s.03.61-.01.91Zm.65,18.09c-.44,0-.68-.42-.51-.86.05-.11.37-.27.41-.24.33.25.63.53,1.01.87-.33.09-.62.23-.91.23Zm4.11,1.52c-.19.14-.47.45-.55.41-.57-.33-.18-.6.13-.81.09-.07.33-.06.4,0,.07.07.02.26.02.4Zm.41-.43c-.08.07-.27.01-.41.01,0-.14-.06-.32.01-.41.15-.18.36-.3.54-.45.11.11.31.26.29.3-.11.2-.25.41-.43.55Zm-3.95-3.18c1.41.11,2.8-.46,4.45.14-1.95,2.02-2.18,2-4.45-.14Zm6.04-14.72c-.2-.11-.41-.22-.61-.33.11-.1.23-.31.31-.29.22.05.43.19.64.29-.11.1-.21.21-.34.33Zm.81,17.92c-.11-.1-.21-.21-.34-.33.11-.2.22-.4.34-.6.11.1.31.23.3.31-.05.22-.19.42-.3.63ZM1.94,224.52c-.08-.07-.23-.15-.21-.2.04-.14.14-.27.21-.41.08.07.15.13.24.22-.08.13-.16.26-.24.39Zm224.97-4.91c-.15-.07-.3-.16-.4-.28-.05-.05-.05-.21,0-.25.05-.04.23-.05.29,0,.13.09.22.23.33.34-.08.07-.19.2-.22.19Zm-1.09-1.14c-.1,0-.2,0-.31,0-.1-.12-.33-.3-.3-.35.24-.36.44-.12.59.08.05.06,0,.18,0,.27.47-.02.7.19.68.61-.47.02-.7-.19-.68-.61Zm.56,22.2s-.14.13-.21.2c-.08-.13-.18-.26-.21-.41-.01-.05.14-.13.21-.2.08.13.18.26.21.41Zm-.1,27.55c.06-.01.15.12.22.19-.15.07-.3.16-.46.19-.06.01-.15-.12-.22-.19.15-.07.3-.16.46-.19Zm-.55-30.61c0,.07-.14.14-.32.3-.28-.29-.57-.56-.81-.88-.05-.06.14-.38.2-.38.3.02.7.03.87.19.15.15.08.51.06.77Zm1.65-28.88c-.35.47-1.4.48-1.54-.03-.14-.53.32-.65.79-.61.25.1.52.2.77.33.04.02.03.23-.02.3Zm-1.56-26.66c.15-.07.3-.16.46-.19.06-.01.15.12.22.19-.15.07-.3.16-.46.19-.06.01-.15-.12-.22-.19Zm5,41.13c-.09-.04-.17-.12-.21-.2-.12-.28,0-.36.31-.28.29.07.59.1.88.17.05.01.07.13.11.19-.08.26-.63.33-1.1.13Zm-.08-2.71s.14-.13.21-.2c.08.13.18.26.21.41.01.05-.14.13-.21.2-.08-.13-.18-.26-.21-.41Zm1.26-16.9c.08-.02.21.19.31.29-.21.1-.41.24-.64.29-.08.02-.21-.19-.31-.29.21-.1.41-.24.64-.29Zm-2.36,5.74c.35-.47,1.29-.45,1.57.02,0,.11.02.24-.03.31-.35.47-1.3.46-1.56-.02-.04-.08-.03-.24.02-.31Zm.27,11.95c.07.26.02.54.02.82.47-.02.7.19.68.61-.47.02-.7-.19-.68-.61-.37.07-.59-.14-.67-.39-.07-.26-.02-.54-.02-.82.37-.07.59.14.67.4Zm-1.01-11.29c.08.13.16.26.24.39-.09.08-.17.15-.24.22-.08-.13-.18-.26-.21-.41-.01-.05.14-.13.21-.2Zm-.45,10.3c.18-.02.39.05.58.11.09.03.17.12.21.2.12.28,0,.37-.31.28-.21,0-.44.05-.63-.01-.15-.05-.24-.22-.36-.34.17-.08.34-.22.52-.24Zm-.88-49.14c-.96.78-1.91.78-2.88,0,.96-.78,1.91-.78,2.88,0Zm-2.77,8.18c.08.07.15.13.24.22-.08.13-.16.26-.24.39-.08-.07-.23-.15-.21-.2.04-.14.14-.27.21-.41Zm-.56,3.52c.11.1.21.21.34.33-.11.2-.22.4-.34.6-.11-.1-.31-.23-.3-.31.05-.22.19-.42.3-.63Zm-.79-9.18c.08-.02.21.19.31.29-.21.11-.41.22-.61.33-.13-.12-.23-.23-.34-.33.21-.1.41-.24.64-.29Zm-1.39,5.67c.08.07.23.15.21.2-.04.14-.14.27-.21.41-.08-.07-.15-.13-.24-.22.08-.13.16-.26.24-.39Zm-5.35,1.32c.06-.01.15.12.23.19-.15.07-.3.16-.46.19-.06.01-.15-.12-.22-.19.15-.07.3-.16.46-.19Zm.12,55.15c-.2.3-.87.32-1.13.01-.04-.05-.05-.15-.02-.2.19-.31.87-.32,1.12-.01.04.05.02.13.02.2Zm-.8-36.22c-.16-.03-.31-.12-.46-.19.08-.07.15-.13.24-.22.14.07.29.14.44.22-.08.07-.17.2-.22.19Zm.13,6.56c-.09.08-.17.15-.24.22-.08-.13-.18-.26-.21-.41-.01-.05.14-.13.21-.2.08.13.16.26.24.39Zm-.12-15.24c-.13.12-.23.23-.34.33-.11-.21-.25-.41-.3-.63l.63.3Zm-.34,41.52c.11.1.31.23.3.31-.05.22-.19.42-.3.63-.11-.1-.21-.21-.34-.33.11-.2.22-.4.34-.6Zm-.69,1.99c.19-.31.87-.32,1.12-.01.04.05.02.13.02.2-.2.3-.87.32-1.13.01-.04-.05-.05-.15-.02-.2Zm1.17,53.71c-.11.1-.21.21-.34.33-.2-.11-.41-.22-.61-.33.11-.1.23-.31.31-.29.22.05.43.19.64.29Zm-15.8-152.2c-.13-.13-.23-.23-.34-.33.21-.1.41-.24.64-.29.08-.02.21.19.31.29-.21.11-.41.22-.61.33Zm.27-27.14c-.2-.11-.41-.22-.61-.33.11-.1.23-.31.31-.29.22.05.43.19.64.29-.11.1-.21.21-.34.33Zm.44-22.24c-.25.3-1.01.31-1.11-.02-.1-.34.23-.42.57-.39.18.07.37.13.55.21.03.01.02.15-.02.2Zm-.46-5.64c.09-.08.17-.15.24-.22.08.13.18.26.21.41.01.05-.14.13-.21.2-.08-.13-.16-.26-.24-.39Zm1.39,50.88c.04-.12.27-.31.29-.3.2.13.5.28.54.47.08.42.03.87,0,1.3,0,0-.31.05-.41,0-.6-.35-.61-.9-.43-1.47Zm.38,18.33c-.11-.1-.31-.23-.3-.31.05-.22.19-.42.3-.63.11.1.21.21.34.33-.11.2-.22.4-.34.6Zm1.05-16.02c-.21-.11-.41-.25-.56-.43-.07-.08-.07-.32,0-.39.07-.07.31-.07.4,0,.18.14.31.35.46.53-.11.11-.27.31-.3.29Zm.15-46.14c-.08-.13-.18-.26-.21-.41-.01-.05.14-.13.21-.2.08.13.16.26.24.39-.09.08-.17.15-.24.22Zm.87,49.01c-.44,0-.68-.42-.51-.86.05-.11.37-.27.41-.24.33.25.63.53,1.01.87-.33.09-.62.23-.91.23Zm1.73-38.35c-.15-.17-.22-.41-.33-.63.57-.42,1.16-.55,1.58.04.38.52.24,1.1-.33,1.56-.31-.32-.63-.63-.92-.97Zm1.51,25.65c-.08-.07-.15-.13-.24-.22.08-.13.16-.26.24-.39.08.07.23.15.21.2-.04.14-.14.27-.21.41Zm0-10.29c-.08-.13-.18-.26-.21-.41-.01-.05.14-.13.21-.2.08.13.16.26.24.39-.09.08-.17.15-.24.22Zm.39-42.49c-.11-.1-.21-.21-.34-.33.11-.2.22-.4.34-.6.11.1.31.23.3.31-.05.22-.19.42-.3.63Zm-2.91-1.32c.34-.25.43-.36.51-.36,1.12-.01,2.25-.01,3.37,0,.08,0,.16.13.24.2q-.88.47-4.12.16Zm4.57,48.05c-.08-.07-.15-.13-.24-.22.08-.13.16-.26.24-.39.08.07.23.15.21.2-.04.14-.14.27-.21.41Zm1.37-10.29c-.08-.13-.16-.26-.24-.39.09-.08.17-.15.24-.22.08.13.18.26.21.41.01.05-.14.13-.21.2Zm.9-2.97c-.81-.47-1.31-1.06-1.93-1.58.21-.16.29-.28.37-.28.91-.01,1.82,0,2.7,0,.34.3.66.59,1.03.91-.75.33-1.48.66-2.17.96Zm-1.83-33.56c.08-.13.16-.26.24-.39.08.07.23.15.21.2-.04.14-.14.27-.21.41-.08-.07-.15-.13-.24-.22Zm.71,17.57c.04-.14.14-.27.21-.41.08.07.15.13.24.22-.08.13-.16.26-.24.39-.08-.07-.23-.15-.21-.2Zm.69-9.36c.05-.22.19-.42.3-.63.11.1.21.21.34.33-.11.2-.22.4-.34.6-.11-.1-.31-.23-.3-.31Zm.65-3.97c.08-.13.16-.26.24-.39.08.07.23.15.21.2-.04.14-.14.27-.21.41-.08-.07-.15-.13-.24-.22Zm1.82,4.26c-.25.3-1.01.31-1.11-.02-.1-.34.23-.42.57-.39.18.07.37.13.55.21.03.01.02.15-.02.2Zm.02,18.43c.02.08-.19.2-.3.31-.11-.2-.23-.41-.34-.6.13-.12.23-.23.34-.33.11.21.25.41.3.63Zm5.4-47.43c.11.2.23.41.34.6-.13.12-.23.23-.34.33-.11-.21-.25-.41-.3-.63-.02-.08.19-.2.3-.31Zm-1.9,44.93c-.11-.21-.25-.41-.3-.63-.02-.08.19-.2.3-.31.11.21.25.41.3.63.02.08-.19.2-.3.31Zm-.44-13.2c.05-.03.21-.04.22-.01.1.16.17.33.24.49.03.3-.06.6-.44.51-.37-.09-.36-.75-.02-.98Zm-.35,5.14c-.25.3-1.01.31-1.11-.02-.1-.34.23-.42.57-.39.18.07.37.13.55.21.03.01.02.15-.02.2Zm.02-17.57c-.2.3-.87.31-1.13.01-.04-.05-.05-.15-.02-.2.19-.31.87-.32,1.12-.01.04.05.02.13.02.2Zm-.8-36.22c-.16-.03-.31-.12-.46-.19.08-.07.15-.13.24-.22.14.07.29.14.44.22-.08.07-.17.2-.22.19Zm.13,6.56c-.09.08-.17.15-.24.22-.08-.13-.18-.26-.21-.41-.01-.05.14-.13.21-.2.08.13.16.26.24.39Zm-.12-15.24c-.13.12-.23.23-.34.33-.11-.21-.25-.41-.3-.63l.63.3Zm-.34,41.52c.11.1.31.23.3.31-.05.22-.19.42-.3.63-.11-.1-.21-.21-.34-.33.11-.2.22-.4.34-.6Zm-.69,1.99c.19-.31.87-.32,1.12-.01.04.05.02.13.02.2-.2.3-.87.31-1.13.01-.04-.05-.05-.15-.02-.2Zm-1.15-34.1c.63.3.12,1.18.91,1.39-.07.14-.12.29-.23.4-.05.05-.21,0-.32,0s-.29.04-.32,0c-.36-.58-1.24-.48-1.69-.96.56-.33,1.32-.25,1.64-.84Zm-2.14,42.88c-.09-.08-.17-.15-.24-.22.15-.07.3-.16.46-.19.06-.01.15.12.23.19-.15.07-.3.15-.44.22Zm-26.57-50.14c.24.2.47.4.71.59.75.08,1.53-.18,2.26.18q-.63.48-4.13.25c.53-.47.84-.75,1.16-1.02Zm.91,4.03s-.14.13-.21.2c-.08-.13-.16-.26-.24-.39.09-.08.17-.15.24-.22.08.13.18.26.21.41Zm-5.45,17.96c0,.07.02.16-.02.2-.25.3-.93.29-1.12-.01-.03-.05-.02-.15.02-.2.25-.3.93-.29,1.13.01Zm.27,6.78c.02.08-.19.2-.3.31-.11-.21-.25-.41-.3-.63-.02-.08.19-.2.3-.31.1.21.25.41.3.63Zm-.96-9.01c-.2.3-.87.31-1.13.01-.04-.05-.05-.15-.02-.2.19-.31.87-.32,1.12-.01.04.05.02.13.02.2Zm-.82-17.86c.09.08.17.15.24.22-.15.07-.3.16-.46.19-.06.01-.15-.12-.22-.19.15-.07.3-.15.44-.22Zm1.32,29.94c2.1-7.92,4.29-15.82,6.23-23.79.64-2.62,1.25-5.22,2.54-7.54-.07-.08-.13-.21-.16-.31-.02-.04.14-.19.22-.2.08,0,.15,0,.23,0,.19-.32.4-.63.62-.94,2.02-2.74,4.65-4.53,8.24-4.48,2.53.04,5.05-.2,7.45,1.1,4.36,2.37,7.3,8.8,6.02,13.63-2.6,9.83-5.21,19.67-7.82,29.5.01-.02.02-.04.03-.06.44-.54,1.03-.47,1.86.26-.62.38-1.21.74-1.81,1.11-.16-.13-.26-.33-.29-.54-2.08,7.84-4.16,15.67-6.22,23.51-1.08,4.08-2.13,8.17-3.2,12.26,0,0,0,0,0,0,0,0,0,0,0,0-2.57,9.88-5.13,19.76-7.72,29.64-1.77,6.77-3.57,13.54-5.39,20.3.27-.05.54.04.82.3-.32.31-.64.38-.97.26-.85,3.16-1.7,6.33-2.58,9.49-.18.64-1.53,1.34-2.34,1.34-6.35.05-12.7-.07-19.06-.13-1.41-.01-2.82,0-4.53,0,.85-3.14,1.66-6.07,2.43-9,.46-1.77.92-3.55,1.39-5.32-.31.13-.75.07-.89-.17-.03-.05-.02-.15.02-.2.22-.26.72-.28,1-.09,1.92-7.39,3.84-14.78,5.79-22.16,1.73-6.54,3.54-13.05,5.28-19.58,3.48-13.04,6.94-26.08,10.4-39.13-.01-.01-.03-.03-.04-.04.02,0,.04-.02.06-.03.8-3,1.59-5.99,2.39-8.99Zm15.55,74.8c.16.03.31.12.46.19-.08.07-.15.13-.24.22-.14-.07-.29-.14-.44-.22.08-.07.17-.2.22-.19Zm-.1-13.63c.04-.14.14-.27.21-.41.08.07.15.13.24.22-.08.13-.16.26-.24.39-.08-.07-.23-.15-.21-.2Zm0,39.13c.25-.3.93-.29,1.13.01,0,.07.02.16-.02.2-.25.3-.93.29-1.12-.01-.03-.05-.02-.15.02-.2Zm.68-6.04c.1-.33.85-.32,1.11-.02.04.05.04.18.02.2-.18.08-.37.15-.55.21-.34.03-.67-.05-.57-.39Zm1.13-46.48c-.29,0-.61.07-.88-.02-.2-.07-.34-.34-.5-.53.24-.13.47-.33.72-.37.26-.03.54.08.8.17.12.04.24.19.29.31.17.43,0,.58-.43.43Zm.46.02c.07-.07.31-.07.4,0,.18.14.31.35.46.53-.11.11-.27.31-.3.29-.21-.11-.41-.25-.56-.43-.07-.08-.07-.32,0-.39Zm.67,9.94c-.08-.13-.18-.26-.21-.41-.01-.05.14-.13.21-.2.08.13.18.26.21.41.01.05-.14.13-.21.2Zm.08,28.12c.02.08-.19.2-.3.31-.11-.21-.25-.41-.3-.63-.02-.08.19-.2.3-.31.11.21.25.41.3.63Zm-.16,17.29c.13.12.23.23.34.33-.21.1-.41.24-.64.29-.08.02-.21-.19-.31-.29.21-.11.41-.22.61-.33Zm-.04-1.33c-.06.01-.15-.12-.22-.19.15-.07.3-.15.44-.22.09.08.17.15.24.22-.15.07-.3.16-.46.19Zm-.11-14.02c-.03-.05-.02-.15.02-.2.25-.3.93-.29,1.13.01,0,.07.02.16-.02.2-.25.3-.93.29-1.12-.01Zm-3.44-16.94c-.13.12-.23.23-.34.33-.11-.21-.25-.41-.3-.63-.02-.08.19-.2.3-.31.11.2.23.41.34.6Zm-1.32,14.4c.2.03.37.39.5.62.06.11.01.28.01.43-.13.24-.3.69-.39.67-.46-.07-.68-.45-.54-.88.09-.3-.46-.99.42-.85Zm-3.76,21.49c-.12-.02-.33-.24-.31-.3.07-.22.21-.58.36-.59.61-.07,1.23-.04,1.85-.01.11,0,.33.24.31.3-.07.22-.19.53-.36.59-.27.1-.61.03-.92.03s-.62.03-.92-.01Zm.76,10.12s-.14.13-.21.2c-.08-.13-.18-.26-.21-.41-.01-.05.14-.13.21-.2.08.13.18.26.21.41Zm-1.06-42.56c-.02-.08.19-.2.3-.31.11.21.25.41.3.63.02.08-.19.2-.3.31-.11-.21-.25-.41-.3-.63Zm1.11,29.51c-.13-.12-.23-.23-.34-.33.21-.1.41-.24.64-.29.08-.02.21.19.31.29-.21.11-.41.22-.61.33Zm.76,1.44c-.08.07-.15.13-.24.22-.14-.07-.29-.14-.44-.22.08-.07.17-.2.22-.19.16.03.31.12.46.19Zm-.79-32.36c-.5-.33-.35-.83-.27-1.24.03-.19.45-.45.69-.44.72.02,1.54-.31,2.13.46-.86.41-1.71.82-2.54,1.22Zm1.11-11.07c.1.21.25.41.3.63.02.08-.19.2-.3.31-.11-.2-.23-.41-.34-.6.13-.12.23-.23.34-.33Zm-.21-2.06c.19-.31.87-.32,1.12-.01.04.05.02.13.02.2-.2.3-.87.31-1.13.01-.04-.05-.05-.15-.02-.2Zm1.62,25.05c.07.09.07.33,0,.39-.07.07-.27.02-.41.02-.15-.18-.46-.46-.41-.54.33-.56.6-.18.82.13Zm-6.39,18.53c.1-.33.85-.32,1.11-.02.04.05.04.18.02.2-.18.08-.37.15-.55.21-.34.03-.67-.05-.57-.39Zm-.11-7.49c.13-.12.23-.23.34-.33.11.21.25.41.3.63.02.08-.19.2-.3.31-.11-.2-.23-.41-.34-.6Zm1.1-12.84c-.04.06-.09.11-.14.13-.19.06-.44.02-.66.02s-.45.02-.67,0c-.03,0-.07-.03-.11-.05-.2.09-.4.17-.59.25-.47.04-.94-.08-.79-.61.13-.47,1.03-.49,1.44-.12.03-.03.06-.05.08-.05.44-.04.89-.03,1.33,0,.02,0,.05.01.08.03.07-.06.15-.12.21-.18.11.21.25.41.3.63.02.08-.19.2-.3.31-.06-.11-.12-.23-.18-.34Zm-1.24,24.21c-.64.67-1.27.67-1.9,0,.63-.67,1.27-.67,1.9,0Zm-2.24-12.77c-.2-.11-.41-.22-.61-.33.11-.1.23-.31.31-.29.22.05.43.19.64.29-.1.1-.21.21-.34.33Zm1.6-8.46c-.08.02-.21-.19-.31-.29.21-.11.41-.22.61-.33.13.12.23.23.34.33-.21.1-.41.24-.64.29Zm.5,2.38c-.11.2-.22.4-.34.6-.11-.1-.31-.23-.3-.31.05-.22.19-.42.3-.63.11.1.21.21.34.33Zm1.96,28.08c.08.07.15.13.24.22-.08.13-.16.26-.24.39-.08-.07-.23-.15-.21-.2.04-.14.14-.27.21-.41Zm-10.18,8.41c.14-.51,1.18-.5,1.54-.03.05.07.06.28.02.3-.25.13-.51.23-.77.33-.47.04-.94-.08-.79-.61Zm-.07-.55c-.08-.07-.15-.13-.24-.22.08-.13.16-.26.24-.39.08.07.23.15.21.2-.04.14-.14.27-.21.41Zm.77-2.43c-.09,0-.17-.1-.26-.15-.06-.08-.16-.16-.16-.23.02-1.03,1.15-1.33,1.69-2.03.65.24.05,1.56,1.37,1.23.07-.02.29.26.34.43.04.17-.05.36-.12.76-1.08,0-1.97,0-2.85,0Zm.94-11.19c.15-.07.3-.15.44-.22.09.08.17.15.24.22-.15.07-.3.16-.46.19-.06.01-.15-.12-.22-.19Zm1.98,7.75c.11-.1.21-.21.34-.33.2.11.4.22.61.33-.11.1-.23.31-.31.29-.22-.05-.43-.19-.64-.29Zm.53-20.89c-.07.04-.43-.12-.43-.18.02-.27.03-.62.22-.77.17-.14.57-.07.87-.06.08,0,.16.13.33.29-.33.24-.64.51-.99.72Zm-6.6,14.05c-.52,0-.79-.27-.69-.74.06-.3.24-.5.67-.47.52.04.77.28.69.75-.05.31-.28.47-.68.47Zm.37,12.44c-.58.58-.99,1.01-1.44,1.46-.31-.65-.54-1.32-.94-1.88-.29-.4-.48-.69.02-.94.24-.12.68-.14.88,0,.49.34.88.79,1.48,1.36Zm-5.72-6.18s.14-.13.21-.2c.08.13.16.26.24.39-.09.08-.17.15-.24.22-.08-.13-.18-.26-.21-.41Zm.03.59c-.21.11-.41.22-.61.33-.13-.12-.23-.23-.34-.33.21-.1.41-.24.64-.29.08-.02.21.19.31.29Zm.18,5.48c.14-.51,1.18-.5,1.54-.03.05.07.06.28.02.3-.25.13-.52.23-.77.33-.47.04-.94-.08-.79-.61Zm-6.45-7.97c-.51-.3-.89-.82-1.32-1.25.57-.75,1.39-.45,2.1-.45.47,0,.84.32.74.88-.05.27-.13.7-.3.76-.38.13-.92.23-1.22.06Zm.42,6.39c-.18.35-.21.34-1.58.03.12-.76.86-1.04,1.27-1.57.54.43.61.96.31,1.54Zm1.25-7.1c.08.07.23.15.21.2-.04.14-.14.27-.21.41-.08-.07-.15-.13-.24-.22.08-.13.16-.26.24-.39Zm-2.99,4.15c-.21.11-.41.22-.61.33-.13-.13-.23-.23-.34-.33.21-.1.41-.24.64-.29.08-.02.21.19.31.29Zm-1.9,1.87c-.63.67-1.27.67-1.9,0,.63-.67,1.27-.67,1.9,0Zm-5.72-59.41c.13.29-.04.62-.38.71-.29.07-.79.12-.88-.23-.22-.84-.77-1.53-1.25-2.25-.2-.3-.2-.55-.2-.83,0-.28-.15-.61.3-.85.2.15.44.31.64.49.63.55,1.36,1.03,1.14,2.01-.06.27.47.61.62.95Zm1.6,8.25c-.11,0-.25.02-.32-.03-.48-.35-.46-1.28.02-1.54.08-.04.24-.03.32.02.48.35.46,1.27-.02,1.55Zm.21,8.02c-.07.46-.46.67-.89.54-.3-.09-1,.45-.86-.41.03-.2.4-.36.63-.49.11-.06.29-.01.44-.01.24.13.7.29.68.38Zm-.42-4.34c-.08.07-.15.13-.24.22-.14-.07-.29-.14-.44-.22.08-.07.17-.2.22-.19.16.03.31.12.46.19Zm-.56-10.4c-.28.47-1.21.49-1.57.02-.05-.07-.07-.23-.02-.31.26-.48,1.21-.49,1.56-.02.05.07.02.21.03.31Zm-2.22,17.16c-.16-.2-.43-.38-.46-.6-.06-.6-.02-1.21-.02-1.76,1-.84,1.09.95,1.9.96-.45.44-.89.87-1.42,1.39Zm.47,16.39c-.21.1-.41.24-.64.29-.08.02-.21-.19-.31-.29.21-.11.41-.22.61-.33.13.12.23.23.34.33Zm-1.24-31.12s.04.18.02.2c-.18.08-.37.15-.55.21-.34.03-.67-.05-.57-.39.1-.33.85-.32,1.11-.02Zm-.8,53.16c.09.08.17.15.24.22-.15.07-.3.16-.46.19-.06.01-.15-.12-.22-.19.15-.07.3-.15.44-.22Zm.23-4.63c.69-.51,1.38-.51,2.07,0-.69.51-1.38.51-2.07,0Zm.08-6.33c-.02-.08.19-.2.3-.31.11.2.23.41.34.6-.13.12-.23.23-.34.33-.11-.21-.25-.41-.3-.63Zm8.35-61.56c.07.09.01.27.01.41h-.42c-.15-.18-.46-.46-.41-.54.33-.56.6-.18.83.13Zm-.23-1.72c.15-.07.3-.16.46-.19.06-.01.15.12.22.19-.15.07-.3.16-.46.19-.06.01-.15-.12-.22-.19Zm1.24,22.29s.04.18.02.2c-.18.08-.37.15-.55.21-.34.03-.67-.05-.57-.39.1-.33.85-.32,1.11-.02Zm-1.34-14.49c.11.14.13.37.09.54-.08.3-.3.5-.69.43-.41-.07-.89.18-1.24-.2.02-.75.92-.14,1.18-.6.08-.14.31-.64.67-.18Zm-.61,18.2c-.11.1-.21.21-.34.33-.2-.11-.41-.22-.61-.33.11-.1.23-.31.31-.29.22.05.43.19.64.29Zm5.83-53.49c.13-.12.23-.23.34-.33.11.21.25.41.3.63.02.08-.19.2-.3.31-.11-.2-.23-.41-.34-.6Zm2.74,7.82c-.08-.13-.16-.26-.24-.39.09-.08.17-.15.24-.22.08.13.18.26.21.41.01.05-.14.13-.21.2Zm.58,3.21c.13.12.23.23.34.33-.21.1-.41.24-.64.29-.08.02-.21-.19-.31-.29.21-.11.41-.22.61-.33Zm1.23,6.08c.09-.08.17-.15.24-.22.08.13.18.26.21.41.01.05-.14.13-.21.2-.08-.13-.16-.26-.24-.39Zm2.9-17.92c.63-.67,1.27-.67,1.9,0-.63.67-1.27.67-1.9,0Zm2.69-20.56c-.39-.28-.34-.66.19-1.19.28.4.54.77.81,1.15-.21.22-.64.3-1.01.04Zm.22-22.18c.09.08.17.15.24.22-.15.07-.3.16-.46.19-.06.01-.15-.12-.22-.19.15-.07.3-.15.44-.22Zm-.99,19.48c.25-.3.93-.29,1.13.01,0,.07.02.16-.02.2-.25.3-.93.29-1.12-.01-.03-.05-.02-.15.02-.2Zm.32,14.92c.34.6.28.94-.11,1.23-.41-.55-1.02-.68-1.72-.61-.33.03-.61-.03-.55-.43.72-.35,1.5-.1,2.37-.19Zm-4.3,16.92c.02.08-.19.2-.3.31-.1-.21-.25-.41-.3-.63-.02-.08.19-.2.3-.31.11.21.25.41.3.63Zm-1.48-29.43c.25-.3.93-.29,1.13.01,0,.07.02.16-.02.2-.25.3-.93.29-1.12-.01-.03-.05-.02-.15.02-.2Zm-.38-9.25s-.02.04-.04.07c.06.1.12.2.18.29-.09.08-.17.15-.24.22-.04-.06-.08-.13-.12-.19-.04.07-.08.15-.12.22-.11-.1-.31-.23-.3-.31.05-.22.19-.42.3-.63.11.1.21.21.34.33Zm-.44-9.41c-.46.43-.91.43-1.37,0,.46-.43.91-.43,1.37,0Zm-1.71,65.67c-.08-.07-.23-.15-.21-.2.04-.14.14-.27.21-.41.08.07.15.13.24.22-.08.13-.16.26-.24.39Zm0-23c.08.07.23.15.21.2-.04.14-.14.27-.21.41-.08-.07-.15-.13-.24-.22.08-.13.16-.26.24-.39Zm-.68,1.82c-.08-.13-.18-.26-.21-.41-.01-.05.14-.13.21-.2.08.13.18.26.21.41.01.05-.14.13-.21.2Zm-.22-49.32c.13.12.23.23.34.33-.21.1-.41.24-.64.29-.08.02-.21-.19-.31-.29.21-.11.41-.22.61-.33Zm-1.09,19.52c.11.2.23.41.34.6-.13.12-.23.23-.34.33-.1-.21-.25-.41-.3-.63-.02-.08.19-.2.3-.31Zm-3.59,56.13c-.43,0-.79-.35-.68-.91.92.18,2.01-.47,2.8.52-.62.7-1.42.39-2.12.38Zm1.99-3.08c-.35.47-1.4.48-1.54-.03-.14-.53.32-.65.79-.61.25.1.52.2.77.33.04.02.03.23-.02.3Zm-.19-8.39c.03.27.17.64-.22.77-.26.09-.59.03-.89,0-.08,0-.16-.13-.23-.2.31-.27.61-.56.94-.81.04-.03.39.14.4.24Zm-1.22-1.78c-.08.02-.21-.19-.31-.29.21-.11.41-.22.61-.33.13.12.23.23.34.33-.21.1-.41.24-.64.29Zm.45-21.35c0,.07.02.16-.02.2-.25.3-.93.29-1.12-.01-.03-.05-.02-.15.02-.2.25-.3.93-.29,1.13.01Zm-1.02-13.41c.38-.09.47.21.44.51-.08.16-.15.33-.24.49-.02.02-.17.02-.22-.01-.34-.23-.35-.89.02-.98Zm-.91-3.41c.1-.12.26-.2.39-.29.08.07.22.17.21.19-.08.13-.18.26-.31.36-.06.04-.24.04-.29,0-.05-.05-.05-.2,0-.25Zm-.96.28c.31-.05.63-.02.95,0,0,0,.04.2,0,.26-.26.39-.66.39-1.08.28-.09-.02-.23-.17-.22-.19.1-.13.21-.32.35-.35Zm-.64,17.65c.06-.01.15.12.23.19-.15.07-.3.15-.44.22-.09-.08-.17-.15-.24-.22.15-.07.3-.16.46-.19Zm-1.02,33.05c-.21.1-.41.24-.64.29-.08.02-.21-.19-.31-.29.21-.11.41-.22.61-.33.13.12.23.23.34.33Zm-2.52-33.16c.08.07.15.13.24.22-.08.13-.16.26-.24.39-.08-.07-.23-.15-.21-.2.04-.14.14-.27.21-.41Zm-1.05,4.55c.51.36.93.43,1.38,0,.46-.44.91-.42,1.38,0-.32.28-.63.56-.98.87h-2.18c-.1-.21-.27-.39-.25-.54.09-.6.16-.66.65-.32Zm1.94,22.49s-.14.13-.21.2c-.08-.13-.18-.26-.21-.41-.01-.05.14-.13.21-.2.08.13.18.26.21.41Zm-5.03,13.54c.99-.58,1.02-.61,1.17-1.06.47-.39,1.06-.13,1.6-.17.49-.04,1.01-.02,1.71-.01-.05-.05-.05-.14,0-.28.08-.26.11-.52.19-.78.01-.05.14-.07.22-.1.3.07.38.56.15.97-.04.08-.14.15-.23.18,0,0-.01,0-.02,0h0c-1.02,1.02-2.05.31-2.83.73.26-.33-.52-.02-.18.23.5.38,1.37.17,1.66.84.51-.26.86-1.12,1.65-.36-.33.96-1.53.91-2.23,1.46-.33.26-1.07.11-1.62.13-.81.04-1.15-.53-1.5-1.01-.16-.21-.05-.58.28-.78Zm-.47,24.87c.11.21.25.41.3.63.02.08-.19.2-.3.31-.11-.21-.25-.41-.3-.63-.02-.08.19-.2.3-.31Zm.48,36.97c-.64.67-1.27.67-1.9,0,.63-.67,1.27-.67,1.9,0Zm-1.43-4.21c.11.1.31.23.3.31-.05.22-.19.42-.3.63-.11-.1-.21-.21-.34-.33.11-.2.22-.4.34-.6Zm-.79-11.99c.08-.02.21.19.31.29-.21.1-.41.24-.64.29-.08.02-.21-.19-.31-.29.21-.1.41-.24.64-.29Zm-1.08-44.37c.09.08.17.15.24.22-.15.07-.3.16-.46.19-.06.01-.15-.12-.22-.19.15-.07.3-.15.44-.22Zm-.5,54.03c.18-.14.42-.22.64-.34.44.55.56,1.14-.02,1.56-.52.38-1.11.26-1.62-.35.33-.29.65-.6,1-.87Zm-1.55-9.84c.09.08.17.15.24.22-.15.07-.3.16-.46.19-.06.01-.15-.12-.22-.19.15-.07.3-.15.44-.22Zm-.83-4.67c.11.21.25.41.3.63.02.08-.19.2-.3.31-.11-.21-.25-.41-.3-.63-.02-.08.19-.2.3-.31Zm-.76-23.14c.16.03.31.12.46.19-.08.07-.15.13-.24.22-.14-.07-.29-.14-.44-.22.08-.07.17-.2.22-.19Zm-1.62,16.12c.63-.67,1.27-.67,1.9,0-.64.67-1.27.67-1.9,0Zm.59,35.6c-.11.12-.35.17-.55.21-.4.08-.67-.15-.67-.44-.01-.46-.22-.98.34-1.39.34.37.7.71.99,1.09.08.11,0,.4-.11.52Zm.37-40.28c-.64.67-1.27.67-1.9,0,.63-.67,1.27-.67,1.9,0Zm-2.38-17.32c.11.2.23.41.34.6-.13.12-.23.23-.34.33-.11-.21-.25-.41-.3-.63-.02-.08.19-.2.3-.31Zm-.45,38.38c.25.1.52.2.77.33.04.02.03.23-.02.3-.35.47-1.4.48-1.54-.03-.14-.53.32-.65.79-.61Zm-2.4.93c.67.61.68,1.23.03,1.84.02.03.04.07.06.1-.09.08-.17.15-.24.22-.08-.13-.18-.26-.21-.41,0-.03.06-.08.13-.13-.43-.54-.35-1.08.24-1.62Zm.06,9.39c.27-.1.61-.03.92-.03s.62-.03.92.01c.12.02.33.23.31.3-.07.22-.21.58-.36.59-.61.07-1.23.04-1.85.01-.11,0-.33-.24-.31-.3.07-.22.19-.53.36-.59Zm.6-14.69c-.02-.08.19-.2.3-.31.11.21.25.41.3.63.02.08-.19.2-.3.31-.11-.21-.25-.41-.3-.63Zm.36-32.88c.1-.33.85-.32,1.11-.02.04.05.04.18.02.2-.18.08-.37.15-.55.21-.34.03-.67-.05-.57-.39Zm.28,21c-.13.12-.23.23-.34.33-.11-.21-.25-.41-.3-.63-.02-.08.19-.2.3-.31.11.2.23.41.34.6Zm-.59-14.44c.25.19.34.56.04.89-.32.35-.74.3-1.34-.17.45-.25.87-.48,1.3-.72Zm-2.59-13.31c.11.1.31.23.3.31-.05.22-.19.42-.3.63-.1-.1-.21-.21-.34-.33.11-.2.22-.4.34-.6Zm-1.1,4.22c.16.03.31.12.46.19-.08.07-.15.13-.24.22-.14-.07-.29-.14-.44-.22.08-.07.17-.2.22-.19Zm.63,36.49c-.64.67-1.27.67-1.9,0,.63-.67,1.27-.67,1.9,0Zm-2.51-47.13c.2.11.41.22.61.33-.11.1-.23.31-.31.29-.22-.05-.43-.19-.64-.29.11-.1.21-.21.34-.33Zm.61,54.18c-.1.25-.2.51-.33.76-.02.04-.23.03-.31-.02-.48-.35-.49-1.38.03-1.52.53-.14.66.32.61.78Zm-.69-29.71c.14.02.26.25.36.4.05.07,0,.18,0,.28-.09.15-.21.45-.28.44-.33-.05-.49-.29-.39-.57.07-.19-.33-.64.3-.55Zm-.31,6.34c-.08.07-.15.13-.24.22-.14-.07-.29-.14-.44-.22.08-.07.17-.2.22-.19.16.03.31.12.46.19Zm-.62-7.31c.03-.08.19-.2.21-.19.15.09.36.18.39.31.06.27.02.56.02.84-.11,0-.23.03-.31,0-.44-.23-.44-.58-.31-.95Zm-1.3-9.12c.1-.33.85-.32,1.11-.02.04.05.04.18.02.2-.18.08-.37.15-.55.21-.34.03-.67-.05-.57-.39Zm-.47,52.45c.08.13.16.26.24.39-.09.08-.17.15-.24.22-.08-.13-.18-.26-.21-.41-.01-.05.14-.13.21-.2Zm-.35-57.2c.03.19.01.39.01.59s.05.41-.02.58c-.05.11-.27.19-.43.23-.05.01-.22-.12-.22-.2-.02-.39-.04-.79,0-1.18.01-.09.27-.18.43-.23.05-.01.21.12.22.2Zm-1.13-39.53c.16.03.31.12.46.19-.08.07-.15.13-.24.22-.14-.07-.29-.14-.44-.22.08-.07.17-.2.22-.19Zm-1.25,1.1c.08.07.15.13.24.22-.08.13-.16.26-.24.39-.08-.07-.23-.15-.21-.2.04-.14.14-.27.21-.41Zm0,1.21c.08.13.18.26.21.41.01.05-.14.13-.21.2-.08-.13-.18-.26-.21-.41-.01-.05.14-.13.21-.2Zm-.68,4.84c.08.13.18.26.21.41.01.05-.14.13-.21.2-.08-.13-.16-.26-.24-.39.09-.08.17-.15.24-.22Zm0,40.55c.08.07.15.13.24.22-.08.13-.16.26-.24.39-.08-.07-.23-.15-.21-.2.04-.14.14-.27.21-.41Zm-.68-53.27c.08.07.15.13.24.22-.08.13-.16.26-.24.39-.08-.07-.23-.15-.21-.2.04-.14.14-.27.21-.41Zm-8.09-21.07c.06-.01.15.12.22.19-.15.07-.3.16-.46.19-.06.01-.15-.12-.22-.19.15-.07.3-.16.46-.19Zm-1.25,26.92c-.2.3-.87.31-1.13.01-.04-.05-.05-.15-.02-.2.19-.31.87-.32,1.12-.01.04.05.02.13.02.2Zm-.59-13.43c.13.12.23.23.34.33-.21.1-.41.24-.64.29-.08.02-.21-.19-.31-.29.21-.11.41-.22.61-.33Zm-1.35-22.38c-.46.43-.91.43-1.37,0,.46-.43.91-.43,1.37,0Zm-4.66-12.21c.25-.3.93-.29,1.13.01,0,.07.02.16-.02.2-.25.3-.93.29-1.12-.01-.03-.05-.02-.15.02-.2Zm-3.21,37.33c.08.07.15.13.24.22-.08.13-.16.26-.24.39-.08-.07-.23-.15-.21-.2.04-.14.14-.27.21-.41Zm.91,1.6c-.18.08-.37.15-.55.21-.34.03-.67-.05-.57-.39.1-.33.85-.32,1.11-.02.04.05.04.18.02.2Zm.57-35.01c-.16-.03-.31-.12-.46-.19.08-.07.15-.13.24-.22.14.07.29.14.44.22-.08.07-.17.2-.22.19Zm.22,32.5c.46-.43.91-.43,1.37,0-.46.43-.91.43-1.37,0Zm2.63-11.4c-.2.3-.87.31-1.13.01-.04-.05-.05-.15-.02-.2.19-.31.87-.32,1.12-.01.04.05.02.13.02.2Zm.45,32.89c-.08-.13-.18-.26-.21-.41-.01-.05.14-.13.21-.2.08.13.18.26.21.41.01.05-.14.13-.21.2Zm.33-31.12c-.08.02-.21-.19-.31-.29.21-.1.41-.24.64-.29.08-.02.21.19.31.29-.21.1-.41.24-.64.29Zm2-10.13c-.08.07-.27.01-.41.01,0,.15.05.32,0,.42-.36.6-.91.6-1.49.43-.12-.04-.32-.26-.3-.29.14-.2.29-.5.48-.53.43-.08.88-.02,1.32-.02,0-.14-.06-.32.01-.41.15-.18.36-.3.54-.45.11.11.31.26.29.3-.11.2-.25.41-.43.55Zm1.01,27.16c-.11-.21-.25-.41-.3-.63-.02-.08.19-.2.3-.31.11.2.23.41.34.6-.13.12-.23.23-.34.33Zm-.14-19s.14-.13.21-.2c.08.13.18.26.21.41.01.05-.14.13-.21.2-.08-.13-.18-.26-.21-.41Zm.31-18.45c-.14-.07-.29-.14-.44-.22.08-.07.17-.2.22-.19.16.03.31.12.46.19-.08.07-.15.13-.24.22Zm1.76,71.97c-.59-.51-1.04-.89-1.5-1.29,1.01-.78,1.95-.79,2.92,0-.45.41-.89.82-1.41,1.3Zm1.56-8.95c-.02-.08.19-.2.3-.31.11.2.23.41.34.6-.13.12-.23.23-.34.33-.11-.21-.25-.41-.3-.63Zm.86,13.33c-.34-.06-.57-.22-.54-.59.04-.46.31-.68.85-.61.35.04.53.24.53.6,0,.46-.31.7-.84.61Zm1.18-30.87c-.22.03-.44,0-.67,0s-.46.05-.66-.02c-.13-.04-.21-.24-.26-.38-.02-.04.14-.19.22-.2.44-.02.89-.03,1.33,0,.1.01.21.24.26.38.02.04-.13.18-.22.19Zm.57,41.06c-.06.01-.15-.12-.22-.19.15-.07.3-.15.44-.22.09.08.17.15.24.22-.15.07-.3.16-.46.19Zm2.28,3.03c-.16-.03-.31-.12-.46-.19.08-.07.15-.13.24-.22.14.07.29.14.44.22-.08.07-.17.2-.22.19Zm-.12-7.75c-.49-.4-.49-.81,0-1.21.49.4.49.81,0,1.21Zm.27-54.66c-.11-.21-.25-.41-.3-.63-.02-.08.19-.2.3-.31.11.21.25.41.3.63.02.08-.19.2-.3.31Zm.66,7.16c-.14-.53.32-.65.79-.61.25.1.52.2.77.33.04.02.03.23-.02.3-.35.47-1.4.48-1.54-.03Zm1.47,66.24c-.41,0-.89.19-1.25-.17-.05-1-.05-1,.55-1.02.56-.01,1.12,0,1.67,0,.4.28.71.62,1.11.93-.77.45-1.45.25-2.09.26Zm1.37-9.13c.05-.22.19-.42.3-.63.11.1.21.21.34.33-.11.2-.22.4-.34.6-.11-.1-.31-.23-.3-.31Zm.43-15.74c-.2-.11-.41-.22-.61-.33.11-.1.23-.31.31-.29.22.05.43.19.64.29-.11.1-.21.21-.34.33Zm.52-9.83c.14-.51,1.18-.5,1.54-.03.05.07.06.28.02.3-.25.13-.51.23-.77.33-.47.04-.94-.08-.79-.61Zm.54,42.39s-.05-.15-.02-.2c.19-.31.87-.32,1.12-.01.04.05.02.13.02.2-.2.3-.87.32-1.13.01Zm1.14,25.23c-.08.13-.16.26-.24.39-.08-.07-.23-.15-.21-.2.04-.14.14-.27.21-.41.08.07.15.13.24.22Zm-2.62-1.1c.02-.13.28-.23.46-.32.08-.04.21,0,.31,0,.17.08.5.19.49.25-.05.29-.33.43-.64.35-.22-.06-.72.29-.62-.27Zm-.32.29c.07-.04.24-.04.29,0,.05.04.01.17.01.26-.14.09-.34.29-.39.26-.41-.21-.13-.39.09-.53Zm-2.68-2.95c.09.08.17.15.24.22-.15.07-.3.16-.46.19-.06.01-.15-.12-.22-.19.15-.07.3-.15.44-.22Zm-.52,7.89c.11.21.25.41.3.63.02.08-.19.2-.3.31-.11-.2-.23-.41-.34-.6.13-.12.23-.23.34-.33Zm-1.84-4.15c.25-.3.93-.29,1.13.01,0,.07.02.16-.02.2-.25.3-.93.29-1.12-.01-.03-.05-.02-.15.02-.2Zm-1.16-7.46c.08.13.16.26.24.39-.09.08-.17.15-.24.22-.08-.13-.18-.26-.21-.41-.01-.05.14-.13.21-.2Zm-2.04,11.93c.14-.51,1.18-.5,1.54-.03.05.07.06.28.02.3-.25.13-.51.23-.77.33-.47.04-.94-.08-.79-.61Zm-3.55,27.31c.16.03.31.12.46.19-.08.07-.15.13-.24.22-.14-.07-.29-.14-.44-.22.08-.07.17-.2.22-.19Zm.33,19.06s-.14.13-.21.2c-.08-.13-.18-.26-.21-.41-.01-.05.14-.13.21-.2.08.13.18.26.21.41Zm-.55-12.81c-.46.43-.91.43-1.37,0,.46-.43.91-.43,1.37,0Zm-1.17,4.88c-.36.6-.91.61-1.49.43-.12-.04-.32-.26-.3-.29.14-.2.29-.5.48-.53.43-.08.88-.02,1.32-.02,0-.14-.06-.32.01-.41.15-.18.36-.3.54-.45.11.11.31.26.29.3-.11.2-.25.41-.43.55-.08.07-.27.01-.41.01,0,.15.05.32,0,.42Zm-.32-64.5c-.18.08-.37.15-.55.21-.34.03-.67-.05-.57-.39.1-.33.85-.32,1.11-.02.04.05.04.18.02.2Zm-1.27-16.2c.07-.05.21-.02.32-.03.48.27.49,1.2.02,1.55-.07.05-.24.06-.32.02-.48-.26-.5-1.19-.02-1.54Zm.32,35.2c.1.01.21.24.26.38.02.04-.13.18-.22.19-.22.03-.44,0-.67,0s-.46.05-.66-.02c-.13-.04-.21-.24-.26-.38-.02-.04.14-.19.22-.2.44-.02.89-.03,1.33,0Zm-2.24,53.24c.19-.31.87-.32,1.12-.01.04.05.02.13.02.2-.2.3-.87.31-1.13.01-.04-.05-.05-.15-.02-.2Zm.02-24.83c.25-.3.93-.29,1.13.01,0,.07.02.16-.02.2-.25.3-.93.29-1.12-.01-.03-.05-.02-.15.02-.2Zm.84-41.78c.45.32.55.7.27,1.03-.31.38-.73.29-1.13.03.03-.54.72-.61.86-1.06Zm-.52,26.19c.11.02.16.31.23.48h-.68c-.02-.29.04-.56.45-.48Zm-1.09-3.26c.11.21.25.41.3.63.02.08-.19.2-.3.31-.11-.21-.25-.41-.3-.63-.02-.08.19-.2.3-.31Zm-.71.72c.18.07.37.13.55.21.03.01.02.15-.02.2-.25.3-1.01.31-1.11-.02-.1-.34.23-.42.57-.39Zm-.46,21.66c.14.07.29.14.44.22-.08.07-.17.2-.22.19-.16-.03-.31-.12-.46-.19.08-.07.15-.13.24-.22Zm-2.72-70c.16-.09.42-.12.62-.08.1.02.18.05.25.09.32-.3,1.11-.23,1.41.17.05.07.06.28.02.3-.25.13-.51.23-.77.33-.16.01-.31,0-.44-.02.02.29.12.6-.22.84-.85-.01-.16-.82-.68-1.04-.16-.07-.72-.27-.2-.59Zm-.02,57.29c.14.07.29.14.44.22-.08.07-.17.2-.22.19-.16-.03-.31-.12-.46-.19.08-.07.15-.13.24-.22Zm-1.37-1.18c.38-.09.47.21.44.51-.08.16-.15.33-.24.49-.02.02-.17.02-.22-.01-.34-.23-.35-.89.02-.98Zm-.42-60.9c.11.21.25.41.3.63.02.08-.19.2-.3.31-.11-.2-.23-.41-.34-.6.13-.12.23-.23.34-.33Zm-1.09,34.77c.2.11.41.22.61.33-.11.1-.23.31-.31.29-.22-.05-.43-.19-.64-.29.11-.1.21-.21.34-.33Zm.08,27.92c.12.02.23.17.37.29.02.97-.8.45-1.2.66-.39.2-.68.59-1.01.9-.73-1.64-.63-1.84.92-1.85.31,0,.62-.03.92.01Zm-1.52-45.26c.18.07.37.13.55.21.03.01.02.15-.02.2-.25.3-1.01.31-1.11-.02-.1-.34.23-.42.57-.39Zm.93-11.18c.02.08-.19.2-.3.31-.11-.21-.25-.41-.3-.63-.02-.08.19-.2.3-.31.11.21.25.41.3.63Zm-.61-11.82c.08.13.18.26.21.41.01.05-.14.13-.21.2-.08-.13-.18-.26-.21-.41-.01-.05.14-.13.21-.2Zm-.78.1c.2.11.41.22.61.33-.11.1-.23.31-.31.29-.22-.05-.43-.19-.64-.29.11-.1.21-.21.34-.33Zm-.81,14.84c.11.1.31.23.3.31-.05.22-.19.42-.3.63-.11-.1-.21-.21-.34-.33.11-.2.22-.4.34-.6Zm-.46,18.35c.08.13.16.26.24.39-.09.08-.17.15-.24.22-.08-.13-.18-.26-.21-.41-.01-.05.14-.13.21-.2Zm0,2.42c.08.07.15.13.24.22-.08.13-.16.26-.24.39-.08-.07-.23-.15-.21-.2.04-.14.14-.27.21-.41Zm-.19,35.04c.02.08-.19.2-.3.31-.11-.2-.23-.41-.34-.6.13-.12.23-.23.34-.33.11.21.25.41.3.63Zm-1.51-58.18c.06-.3.24-.5.67-.47.52.04.77.28.69.75-.05.31-.28.47-.68.47-.52,0-.79-.27-.69-.74Zm.55,17.49s-.14.13-.21.2c-.08-.13-.18-.26-.21-.41-.01-.05.14-.13.21-.2.08.13.18.26.21.41Zm-2.47-2.63c.14-.51,1.18-.5,1.54-.03.05.07.06.28.02.3-.25.13-.51.23-.77.33-.47.04-.94-.08-.79-.61Zm1.73,10.46c-.86.41-1.71.82-2.69,1.29-.06-.49-.19-.92-.12-1.32.03-.19.45-.44.69-.44.72.02,1.54-.3,2.12.47Zm-2.21-39.11c.08.13.16.26.24.39-.09.08-.17.15-.24.22-.08-.13-.18-.26-.21-.41-.01-.05.14-.13.21-.2Zm0,5.45c.08.13.18.26.21.41.01.05-.14.13-.21.2-.08-.13-.18-.26-.21-.41-.01-.05.14-.13.21-.2Zm-.32,29.56c.2.11.41.22.61.33-.11.1-.23.31-.31.29-.22-.05-.43-.19-.64-.29.11-.1.21-.21.34-.33Zm-.47,59.13c-.11.2-.22.4-.34.6-.11-.1-.31-.23-.3-.31.05-.22.19-.42.3-.63.11.1.21.21.34.33Zm-1.6-94.44c-.46.43-.91.43-1.37,0,.46-.43.91-.43,1.37,0Zm-1.94-3.12c.19-.31.87-.32,1.12-.01.04.05.02.13.02.2-.2.3-.87.32-1.13.01-.04-.05-.05-.15-.02-.2Zm.21,11.28c.2.11.41.22.61.33-.11.1-.23.31-.31.29-.22-.05-.43-.19-.64-.29.11-.1.21-.21.34-.33Zm-4.45-11.19c.08-.02.21.19.31.29-.21.1-.41.24-.64.29-.08.02-.21-.19-.31-.29.21-.1.41-.24.64-.29Zm.18,6.04c-.13.12-.23.23-.34.33-.11-.21-.25-.41-.3-.63-.02-.08.19-.2.3-.31.11.2.23.41.34.6Zm-2.55.31c.08.13.18.26.21.41.01.05-.14.13-.21.2-.08-.13-.18-.26-.21-.41-.01-.05.14-.13.21-.2Zm0,8.47c.08.07.15.13.24.22-.08.13-.16.26-.24.39-.08-.07-.23-.15-.21-.2.04-.14.14-.27.21-.41Zm-3.63-13.71c.1-.33.85-.32,1.11-.02.04.05.04.18.02.2-.18.08-.37.15-.55.21-.34.03-.67-.05-.57-.39Zm.31,2.3c.09.08.17.15.24.22-.15.07-.3.16-.46.19-.06.01-.15-.12-.22-.19.15-.07.3-.15.44-.22Zm-.16,1.09c.11.1.31.23.3.31-.05.22-.19.42-.3.63-.11-.1-.21-.21-.34-.33.11-.2.22-.4.34-.6Zm-.95,13.1c.11.2.23.41.34.6-.13.12-.23.23-.34.33-.11-.21-.25-.41-.3-.63-.02-.08.19-.2.3-.31Zm-9.49,0c.11.1.31.23.3.31-.05.22-.19.42-.3.63-.11-.1-.21-.21-.34-.33.11-.2.22-.4.34-.6Zm6.03,1.83c.12-.05.25-.08.38-.13-.09-.1-.12-.24-.06-.43.14-.51,1.18-.5,1.54-.03,0,0,0,.01,0,.02,6.55-1.54,13.96,1.91,15.19,9.66.27,1.68.37,3.39.37,5.09.03,14.78.08,29.56-.02,44.34-.03,4.61-1.81,8.46-6.08,10.83-4.55,2.53-9.07,2.75-13.39-.37-3.2-2.31-5.51-5.25-5.49-9.52.04-7.91.01-15.82.01-23.74h-.12c0-7.79.03-15.58,0-23.37-.02-5.75,2.27-10.21,7.66-12.35Zm10.44,81.11c-.13.13-.23.23-.34.33-.11-.21-.25-.41-.3-.63-.02-.08.19-.2.3-.31.11.2.23.41.34.6Zm-9.72,5.48c.05-.04.23-.05.29,0,.13.09.22.23.33.34-.08.07-.19.2-.22.19-.15-.07-.3-.16-.4-.28-.05-.05-.05-.21,0-.25Zm-1.69.57c-.12-.13-.31-.24-.36-.38-.05-.17.02-.36.07-.84.72.06,1.23.1,1.74.16.08,0,.17.12.21.2.04.08,0,.19,0,.28-.67-.07-1.28,0-1.68.58Zm1.08-7.79c-.05-.48-.12-.68-.07-.84.05-.15.23-.26.36-.38.39.57,1,.64,1.68.58,0,.1.03.2,0,.28-.04.08-.13.19-.21.2-.51.06-1.02.1-1.74.16Zm1.95-.65c.32-.58.64-1.16.97-1.76h3.61q-.27.68-.75,1.1c-1.16-.71-1.2-.74-2.09.06-.51.46-1.03.7-1.75.6Zm-5.73-6.65c.04.46-.08.92-.61.78-.51-.14-.5-1.17-.03-1.52.07-.05.29-.06.31-.02.13.24.23.51.33.76Zm-3.49-6.05c-.08-.07-.23-.15-.21-.2.04-.14.14-.27.21-.41.08.07.15.13.24.22-.08.13-.16.26-.24.39Zm.51,4.54c-.11.2-.22.4-.34.6-.11-.1-.31-.23-.3-.31.05-.22.19-.42.3-.63.11.1.21.21.34.33Zm-.17,15.75c.08-.02.21.19.31.29-.21.11-.41.22-.61.33-.13-.12-.23-.23-.34-.33.21-.1.41-.24.64-.29Zm-.9-18.37c.06-.01.15.12.22.19-.15.07-.3.16-.46.19-.06.01-.15-.12-.22-.19.15-.07.3-.16.46-.19Zm-.8-47.72c.08.13.16.26.24.39-.09.08-.17.15-.24.22-.08-.13-.18-.26-.21-.41-.01-.05.14-.13.21-.2Zm-.07,48.43c-.05.22-.19.42-.3.63-.11-.1-.21-.21-.34-.33.11-.2.22-.4.34-.6.11.1.31.23.3.31Zm-.86-.61c.09-.08.17-.15.24-.22.08.13.18.26.21.41.01.05-.14.13-.21.2-.08-.13-.16-.26-.24-.39Zm-.67-79.69c.19-.31.87-.32,1.12-.01.04.05.02.13.02.2-.2.3-.87.31-1.13.01-.04-.05-.05-.15-.02-.2Zm.62,12.31c-.13.12-.23.23-.34.33-.11-.21-.25-.41-.3-.63-.02-.08.19-.2.3-.31.11.2.23.41.34.6Zm-.62,22.8c.19-.31.87-.32,1.12-.01.04.05.02.13.02.2-.2.3-.87.32-1.13.01-.04-.05-.05-.15-.02-.2Zm.28,53.31c.11.2.23.41.34.6-.13.12-.23.23-.34.33-.11-.21-.25-.41-.3-.63-.02-.08.19-.2.3-.31Zm-.27-2.69s.14-.13.21-.2c.08.13.18.26.21.41.01.05-.14.13-.21.2-.08-.13-.18-.26-.21-.41Zm-.47,11.3c.08.13.18.26.21.41.01.05-.14.13-.21.2-.08-.13-.16-.26-.24-.39.09-.08.17-.15.24-.22Zm-1.16-86.26c.11.1.31.23.3.31-.05.22-.19.42-.3.63-.11-.1-.21-.21-.34-.33.11-.2.22-.4.34-.6Zm-.42,43.11c.1-.33.85-.32,1.11-.02.04.05.04.18.02.2-.18.08-.37.15-.55.21-.34.03-.67-.05-.57-.39Zm.21,19.55c.08.13.18.26.21.41.01.05-.14.13-.21.2-.08-.13-.16-.26-.24-.39.09-.08.17-.15.24-.22Zm-.47-10.49s-.14.13-.21.2c-.08-.13-.18-.26-.21-.41l.21-.2c.08.13.18.26.21.41Zm.07,35.18c-.11.2-.22.4-.34.6-.11-.1-.31-.23-.3-.31.05-.22.19-.42.3-.63.11.1.21.21.34.33Zm-.43-56.34c-1.12.66-1.96.22-3.19.53q.92-.77,3.19-.53Zm-1.33,5.03c-.21.1-.41.24-.64.29-.08.02-.21-.19-.31-.29.21-.11.41-.22.61-.33.13.12.23.23.34.33Zm-1.94-19.17c.08.07.23.15.21.2-.04.14-.14.27-.21.41-.08-.07-.15-.13-.24-.22.08-.13.16-.26.24-.39Zm-1.22-9.2c.08-.02.21.19.31.29-.21.1-.41.24-.64.29-.08.02-.21-.19-.31-.29.21-.1.41-.24.64-.29Zm-1.11-12.34c.11.2.23.41.34.6-.13.12-.23.23-.34.33-.11-.21-.25-.41-.3-.63-.02-.08.19-.2.3-.31Zm1.72,34.85c-1.85,1.43-2.63-.34-4.23.02,1.85-1.43,2.63.34,4.23-.02Zm.18,25c-.09.08-.17.15-.24.22-.08-.13-.18-.26-.21-.41-.01-.05.14-.13.21-.2.08.13.16.26.24.39Zm-1.27-10.77c.15-.07.3-.16.46-.19.06-.01.15.12.22.19-.15.07-.3.16-.46.19-.06.01-.15-.12-.22-.19Zm0,21.58c-.15.07-.3.16-.46.19-.06.01-.15-.12-.22-.19.15-.07.3-.16.46-.19.06-.01.15.12.22.19Zm-2.36,5.29c.08-.02.21.19.31.29-.21.1-.41.24-.64.29-.08.02-.21-.19-.31-.29.21-.1.41-.24.64-.29Zm-1.74-1.05c.46-.43.91-.43,1.37,0-.46.43-.91.43-1.37,0Zm1.72-16.1c-.2-.11-.41-.22-.61-.33.11-.1.23-.31.31-.29.22.05.43.19.64.29-.11.1-.21.21-.34.33Zm-.43-21.05c-.02-.08.19-.2.3-.31.11.2.23.41.34.6-.13.12-.23.23-.34.33-.11-.21-.25-.41-.3-.63Zm-.26,35.03c.08.07.15.13.24.22-.08.13-.16.26-.24.39-.08-.07-.23-.15-.21-.2.04-.14.14-.27.21-.41Zm-.58-26.94c.09.08.17.15.24.22-.15.07-.3.16-.46.19-.06.01-.15-.12-.22-.19.15-.07.3-.15.44-.22Zm-.76,19.64c.11.1.21.21.34.33-.11.2-.22.4-.34.6-.11-.1-.31-.23-.3-.31.05-.22.19-.42.3-.63Zm.22,7.08c-.09.08-.17.15-.24.22-.08-.13-.18-.26-.21-.41-.01-.05.14-.13.21-.2.08.13.16.26.24.39Zm-.75-12.21c.14.29-.06.84-.27,1.19-.22.38-.63.65-.96.98-.93-.07-.42-.84-.65-1.25-.2-.36-.66-.59-1.52-1.29,1.38-.08,1.84-.17,2.26-.11.41.06.99.2,1.13.47Zm-.65,21.31c-.25.3-.93.29-1.12-.01-.03-.05-.02-.15.02-.2.25-.3.93-.29,1.13.01,0,.07.02.16-.02.2Zm-1.24-19.48c-.08.07-.15.13-.24.22-.14-.07-.29-.14-.44-.22.08-.07.17-.2.22-.19.16.03.31.12.46.19Zm-3.21,11.08c-.09-.04-.17-.12-.21-.2-.12-.28,0-.36.31-.28.29.07.59.1.88.17.05.01.07.12.11.19-.08.26-.63.33-1.1.13Zm.4,1.11c-.11.1-.23.31-.31.29-.16-.04-.32-.12-.47-.2-.05.04-.12.09-.17.13-.08-.13-.16-.26-.24-.39.09-.08.17-.15.24-.22.05.08.1.16.14.25.06-.06.12-.12.2-.2.2.11.41.22.61.33Zm.19-31.25c-.03-.05-.02-.15.02-.2.25-.3.93-.29,1.13.01,0,.07.02.16-.02.2-.25.3-.93.29-1.12-.01Zm2.75-6.04c.04-.14.14-.27.21-.41.08.07.15.13.24.22-.08.13-.16.26-.24.39-.08-.07-.23-.15-.21-.2Zm-.01-14.12c.19-.31.87-.32,1.12-.01.04.05.02.13.02.2-.2.3-.87.31-1.13.01-.04-.05-.05-.15-.02-.2Zm0,10.9c.19-.31.87-.32,1.12-.01.04.05.02.13.02.2-.2.3-.87.31-1.13.01-.04-.05-.05-.15-.02-.2Zm-1.14-11.1c.08.13.18.26.21.41.01.05-.14.13-.21.2-.08-.13-.16-.26-.24-.39.09-.08.17-.15.24-.22Zm-1.6,4.71c.14-.51,1.18-.5,1.54-.03.05.07.06.28.02.3-.25.13-.51.23-.77.33-.47.04-.94-.08-.79-.61Zm-.24,30.98s.02.13.02.2c-.2.3-.87.31-1.13.01-.04-.05-.05-.15-.02-.2.19-.31.87-.32,1.12-.01Zm-1.23-16.06c-.05-.05-.05-.21,0-.25.05-.04.23-.05.29,0,.13.09.22.23.33.34-.08.07-.19.2-.22.19-.15-.07-.3-.16-.4-.27Zm.29-2.07c.13.09.22.23.33.34-.08.07-.19.2-.22.19-.15-.07-.3-.16-.4-.28-.05-.05-.05-.21,0-.25.05-.04.23-.05.29,0Zm-.92-.97c.03-.08.19-.2.21-.19.15.09.36.18.39.31.06.27.02.56.02.84-.11,0-.23.03-.31,0-.44-.23-.44-.58-.31-.95Zm.02,2.42c.24-.36.44-.12.59.08.05.06,0,.18,0,.27h-.31c-.1-.12-.33-.3-.3-.35Zm.5,30.41c.18-.02.39.05.58.11.09.03.17.12.21.2.12.28,0,.37-.31.28-.21,0-.44.04-.63-.01-.15-.05-.24-.22-.36-.34.17-.08.34-.22.52-.24Zm-.5,22.78c-.11.1-.21.21-.34.33-.2-.11-.41-.22-.61-.33.11-.1.23-.31.31-.29.22.05.43.19.64.29Zm-.28-2.31c-.57-.08-.77-.55-1.16-.81.31-.34.74-.43,1.12-.19.43.27.33.65.04,1Zm-1.28-21.42c.2.11.41.22.61.33-.11.1-.23.31-.31.29-.22-.05-.43-.19-.64-.29.11-.1.21-.21.34-.33Zm-1.14,2.36c.18-.09.38-.18.57-.2.44-.03.89,0,1.34,0,.11,0,.27-.04.33,0,.12.11.2.25.25.4.01.04-.14.19-.23.19-.56.02-1.12,0-1.68,0-.42,0-.82-.29-.59-.4Zm.16,4.23c.22.05.43.19.64.29-.11.1-.21.21-.34.33-.2-.11-.41-.22-.61-.33.11-.1.23-.31.31-.29Zm-4.72,16.75c.08.13.18.26.21.41.01.05-.14.13-.21.2-.08-.13-.18-.26-.21-.41-.01-.05.14-.13.21-.2Zm-4.79-4.24c.08.07.15.13.24.22-.08.13-.16.26-.24.39-.08-.07-.23-.15-.21-.2.04-.14.14-.27.21-.41Zm-3.86,1.6c-.09.08-.17.15-.24.22-.08-.13-.18-.26-.21-.41-.01-.05.14-.13.21-.2.08.13.16.26.24.39Zm-.71-13.35c.11.1.21.21.34.33-.11.2-.22.4-.34.6-.11-.1-.31-.23-.3-.31.05-.22.19-.42.3-.63Zm-7.74,6.3c.08.13.18.26.21.41.01.05-.14.13-.21.2-.08-.13-.18-.26-.21-.41-.01-.05.14-.13.21-.2Zm-1.03,89.92c.05.06,0,.18,0,.27-.1,0-.2,0-.3,0-.11-.12-.33-.3-.3-.35.24-.36.44-.12.59.08Zm.33.26c.29.07.59.1.88.17.05.01.07.13.11.19-.08.26-.63.33-1.1.13-.09-.04-.17-.12-.21-.2-.12-.28,0-.36.31-.28Zm-1.05-4.76c-.11-.1-.21-.21-.34-.33.11-.2.22-.4.34-.6.11.1.31.23.3.31-.05.22-.19.42-.3.63Zm.3-7.82c-.43.59-1.02.46-1.56.05.13-.77.86-1.05,1.27-1.58.54.43.67,1.01.29,1.53Zm-1.73-2.94c.11-.1.23-.31.31-.29.22.05.43.19.64.29-.11.1-.21.21-.34.33-.2-.11-.41-.22-.61-.33Zm1.09-53.22c.11-.2.22-.4.34-.6.11.1.31.23.3.31-.05.22-.19.42-.3.63-.11-.1-.21-.21-.34-.33Zm-.13-15.99c.15-.18.36-.3.54-.45.11.11.31.26.29.3-.11.2-.25.41-.43.55-.08.07-.33.07-.4,0-.07-.07-.07-.31,0-.39Zm-.43.42c.09-.07.33-.06.4,0,.07.07.02.26.02.4-.19.14-.47.45-.55.41-.57-.33-.18-.6.13-.81Zm0,6.32c.09.08.17.15.24.22-.15.07-.3.16-.46.19-.06.01-.15-.12-.22-.19.15-.07.3-.15.44-.22Zm-.54,25.03c-.21.1-.41.24-.64.29-.08.02-.21-.19-.31-.29.21-.1.41-.24.64-.29.08-.02.21.19.31.29Zm-1.82,36.82c.25-.3.93-.29,1.13.01,0,.07.02.16-.02.2-.25.3-.93.29-1.12-.01-.03-.05-.02-.15.02-.2Zm-.08-8.74c.21-.1.41-.24.64-.29.08-.02.21.19.31.29-.21.11-.41.22-.61.33-.13-.12-.23-.23-.34-.33Zm.97-64.68c.1,0,.34.29.32.43-.03.26-.15.55-.34.74-.09.1-.42.04-.64,0-.09-.01-.16-.12-.24-.19-.28-.24-.55-.49-.83-.73.63-.46,1.2-.23,1.73-.26Zm-1.15,12.28c-.04.14-.14.27-.21.41-.08-.07-.15-.13-.24-.22.08-.13.16-.26.24-.39.08.07.23.15.21.2Zm-1.58-19.57c.08.13.16.26.24.39-.09.08-.17.15-.24.22-.08-.13-.18-.26-.21-.41-.01-.05.14-.13.21-.2Zm-1.39,4.84c.29.07.59.1.88.17.05.01.07.13.11.19-.08.26-.63.33-1.1.13-.09-.04-.17-.12-.21-.2-.12-.28,0-.36.31-.28Zm-.33-.26c.05.06,0,.18,0,.27h-.3c-.11-.12-.33-.3-.3-.35.24-.36.44-.12.59.08Zm2.8,4.71c-.26.25-.33.39-.41.39-1.12.01-2.25.01-3.37,0-.08,0-.17-.12-.25-.18q.67-.49,4.03-.21Zm-.84,2c-.09.08-.17.15-.24.22-.08-.13-.18-.26-.21-.41-.01-.05.14-.13.21-.2.08.13.16.26.24.39Zm-.52,17.76c-.13.12-.23.23-.34.33-.11-.21-.25-.41-.3-.63-.02-.08.19-.2.3-.31.11.2.23.41.34.6Zm-1.09-10.28c.08.07.15.13.24.22-.08.13-.16.26-.24.39-.08-.07-.23-.15-.21-.2.04-.14.14-.27.21-.41Zm-.49-4.67c.05-.22.19-.42.3-.63.11.1.21.21.34.33-.11.2-.22.4-.34.6-.11-.1-.31-.23-.3-.31Zm-3.84-5.41c.19-.31.87-.32,1.12-.01.04.05.02.13.02.2-.2.3-.87.32-1.13.01-.04-.05-.05-.15-.02-.2Zm-.8,7.71h1.82c.38.64-.99.82-.45,1.46-.29.1-.57.29-.86.28-.33,0-.56-.22-.52-.59.04-.29,0-.59,0-1.15Zm-2.51,35.17c.16.03.31.12.46.19-.08.07-.15.13-.24.22-.14-.07-.29-.14-.44-.22.08-.07.17-.2.22-.19Zm.19,23.34c-.13.12-.23.23-.34.33-.11-.21-.25-.41-.3-.63-.02-.08.19-.2.3-.31.11.2.23.41.34.6Zm-.75-62.19c.08.13.18.26.21.41.01.05-.14.13-.21.2-.08-.13-.18-.26-.21-.41-.01-.05.14-.13.21-.2Zm-.68,46.61c.08.13.18.26.21.41.01.05-.14.13-.21.2-.08-.13-.16-.26-.24-.39.09-.08.17-.15.24-.22Zm-1.75-27.14c.11.1.31.23.3.31-.05.22-.19.42-.3.63-.11-.1-.21-.21-.34-.33.11-.2.22-.4.34-.6Zm-.3,5.35c.08.07.15.13.24.22-.08.13-.16.26-.24.39-.08-.07-.23-.15-.21-.2.04-.14.14-.27.21-.41Zm-1.37-30.87c.08.13.16.26.24.39-.09.08-.17.15-.24.22-.08-.13-.18-.26-.21-.41-.01-.05.14-.13.21-.2Zm.25,18.5c-.64.67-1.27.67-1.9,0,.64-.67,1.27-.67,1.9,0Zm-.03.46c-.04.14-.14.27-.21.41-.08-.07-.15-.13-.24-.22.08-.13.16-.26.24-.39.08.07.23.15.21.2Zm-1.58,19.17c-.08-.13-.18-.26-.21-.41-.01-.05.14-.13.21-.2.08.13.16.26.24.39-.09.08-.17.15-.24.22Zm1.13-5.85c-.14.14-.31.26-.46.39-.39-.28-.48-.66-.2-.99.31-.37.74-.3,1.2.03-.19.2-.35.39-.54.57Zm.87,24.61c-.06.04-.24.04-.29,0-.05-.05-.05-.2,0-.25.1-.12.26-.2.39-.29.08.07.22.17.21.19-.08.13-.18.26-.31.36Zm1.35-12.04c-.25.13-.51.23-.77.33-.47.04-.94-.08-.79-.61.14-.51,1.18-.5,1.54-.03.05.07.06.28.02.3Zm.09-4.29c-.22,0-.47.05-.65-.02-.17-.06-.38-.27-.37-.41.02-.26.13-.55.32-.75.09-.1.46-.1.62-.02.28.14.5.36.72.58.12.11.18.27.26.41-.19.07-.37.15-.57.2-.1.03-.22,0-.33,0Zm.56,14.41c-.14-.1-.19-.31-.24-.49-.09-.36.17-.59.5-.59.51,0,1.1-.2,1.56.31-.41.3-.8.62-1.23.87-.13.07-.45,0-.59-.1Zm2.35,15.69c-.57-.51-1.14-1.02-1.7-1.53.67-.51,1.04.11,1.49.48.48.39.49.79.2,1.05Zm.83-45.53c.15-.07.3-.16.46-.19.06-.01.15.12.22.19-.15.07-.3.15-.44.22-.09-.08-.17-.15-.24-.22Zm.31,25.05c-.02-.08.19-.2.3-.31.11.2.23.41.34.6-.13.12-.23.23-.34.33-.11-.21-.25-.41-.3-.63Zm.48,19.23c.08-.13.16-.26.24-.39.08.07.23.15.21.2-.04.14-.14.27-.21.41-.08-.07-.15-.13-.24-.22Zm.83,13.27c-.61-.5-.74-1.08-.36-1.6.43-.57,1.02-.46,1.57-.03-.07.82-.98.96-1.22,1.62Zm.56-15.89c-.01-.05.14-.13.21-.2.08.13.16.26.24.39-.09.08-.17.15-.24.22-.08-.13-.18-.26-.21-.41Zm.21-13.52c-.39-.28-.48-.65-.21-.99.31-.38.73-.29,1.13-.03-.09.5-.62.68-.92,1.02Zm1.2,6.09c.13.12.23.23.34.33-.21.1-.41.24-.64.29-.08.02-.21-.19-.31-.29.21-.11.41-.22.61-.33Zm.41,20.15c-.08.13-.16.26-.24.39-.08-.07-.23-.15-.21-.2.04-.14.14-.27.21-.41.08.07.15.13.24.22Zm-.55,7.79c-.11-.1-.21-.21-.34-.33.11-.2.22-.4.34-.6.11.1.31.23.3.31-.05.22-.19.42-.3.63Zm.95-3.13c-.21-.21-.44-.41-.64-.64-.1-.12-.16-.26-.25-.41.4-.28.83-.36,1.14.01.28.33.19.71-.25,1.03Zm.64-23.73c.55-.4,1.14-.54,1.56.05.38.52.25,1.1-.3,1.53-.41-.53-1.14-.81-1.27-1.58Zm2.04,26.61c-.37-.09-.36-.75-.02-.98.05-.03.21-.04.22-.01.1.16.17.33.24.49.03.3-.06.6-.44.51Zm.17-1.62c-.11-.21-.25-.41-.3-.63-.02-.08.19-.2.3-.31.11.2.23.41.34.6-.13.12-.23.23-.34.33Zm0-3.76c-.41-.53-1.14-.81-1.27-1.58.55-.4,1.14-.54,1.56.05.38.52.25,1.1-.3,1.53Zm-.64-26.71s-.21.04-.22.02c-.45-.82-1.03.13-1.42-.07-.37-.2-.65-.45-1.14-.46-.32,0-.47-.34-.42-.67.05-.33.23-.55.63-.51.57.07.71-.41,1.1-.58.58.2.05.95.7,1.15q1.03-.79,2.31.29c-.25.65-1.34.1-1.54.83Zm1.71-27.92c.04-.14.14-.27.21-.41.08.07.15.13.24.22-.08.13-.16.26-.24.39-.08-.07-.23-.15-.21-.2Zm.98,4.28c.08-.02.21.19.31.29-.21.1-.41.24-.64.29-.08.02-.21-.19-.31-.29.21-.1.41-.24.64-.29Zm.34,9.19c.25.1.52.2.77.33.04.02.03.23-.02.3-.35.47-1.4.48-1.54-.03-.14-.53.32-.65.79-.61Zm-.5,32.76c.11.2.23.41.34.6-.13.12-.23.23-.34.33-.11-.21-.25-.41-.3-.63-.02-.08.19-.2.3-.31Zm-.25,16.18c.06-.3.24-.5.67-.47.52.04.77.28.69.75-.1.3-.25.5-.68.47-.52-.04-.78-.28-.68-.75Zm.51,1.6c1.19-.44,2.27-.18,3.24-.24.66.53,1.31.97,1.02,1.81q-.97.05-1.73.59c-.73-1.33-.85-1.44-2.53-2.15Zm3.47,3.78c-.18.08-.37.15-.55.21-.34.03-.67-.05-.57-.39.1-.33.85-.32,1.11-.02.04.05.04.18.02.2Zm.34,3.73c-.06.01-.15-.12-.22-.19.15-.07.3-.15.44-.22.09.08.17.15.24.22-.15.07-.3.16-.46.19Zm1.14-5.33c-.47.02-.7-.19-.68-.61.47-.02.7.19.68.61.43.07.67-.17.66-.47,0-.26-.17-.56-.37-.75-.2-.2-.32-.32-.12-.43.18-.09.44-.2.6-.14.63.21,1.15.55,1.28,1.2-.58-.04-.68.29-.69.7,0,.32-.21.5-.57.51-.47.02-.83-.09-.79-.6Zm.96,7.66c.64-.67,1.27-.67,1.9,0-.64.67-1.27.67-1.9,0Zm1.09-8.26c.66.09.99.52,1.28.98q-1.21.3-1.28-.98Zm2.07,17.92c-.08.02-.21-.19-.31-.29.21-.1.41-.24.64-.29.08-.02.21.19.31.29-.21.1-.41.24-.64.29Zm3.66-21.05c-.02-.08.19-.2.3-.31.11.21.25.41.3.63.02.08-.19.2-.3.31-.11-.21-.25-.41-.3-.63Zm.76,6.76c-.08-.13-.18-.26-.21-.41-.01-.05.14-.13.21-.2.08.13.16.26.24.39-.09.08-.17.15-.24.22Zm-.94-15.03c.64-.67,1.27-.67,1.9,0-.64.67-1.27.67-1.9,0Zm6.77,25.66c.05-.11.37-.27.41-.24.33.25.63.53,1.01.87-.33.09-.62.23-.91.23-.44,0-.68-.42-.51-.86Zm1.3,3.83c-.11-.21-.25-.41-.3-.63-.02-.08.19-.2.3-.31.11.2.23.41.34.6-.13.12-.23.23-.34.33Zm3.32-1.45c-.19.14-.47.45-.55.41-.57-.33-.18-.6.13-.81.09-.07.33-.06.4,0,.07.07.02.26.02.4Zm.41-.43c-.08.07-.27.01-.41.01,0-.14-.06-.32.01-.41.15-.18.36-.3.54-.45.11.11.31.26.29.3-.11.2-.25.41-.43.55Zm2.91.01c-.11-.1-.21-.21-.34-.33.11-.2.22-.4.34-.6.11.1.31.23.3.31-.05.22-.19.42-.3.63Zm1.27,11.02c-.49-.4-.49-.81,0-1.21.49.4.49.81,0,1.21Zm1.11,2.68c.24-.36.44-.12.59.08.05.06,0,.18,0,.27h-.31c-.1-.12-.33-.3-.3-.35Zm-.02-2.42c.03-.08.19-.2.21-.19.15.09.36.18.39.31.06.27.02.56.02.84-.11,0-.23.03-.31,0-.44-.23-.44-.58-.31-.95Zm1.03,3.31c-.15-.07-.3-.16-.4-.27-.05-.05-.05-.21,0-.25.05-.04.23-.05.29,0,.13.09.22.23.33.34-.08.07-.19.2-.22.19Zm0-1.82c-.15-.07-.3-.16-.4-.28-.05-.05-.05-.21,0-.25.05-.04.23-.05.29,0,.13.09.22.23.33.34-.08.07-.19.2-.22.19Zm2.19,2.29c-.25.3-.93.29-1.12-.01-.03-.05-.02-.15.02-.2.25-.3.93-.29,1.13.01,0,.07.02.16-.02.2Zm.43-15.39c-.25.13-.51.23-.77.33-.47.04-.94-.08-.79-.61.14-.51,1.18-.5,1.54-.03.05.07.06.28.02.3Zm1.41,9.54c-.08-.07-.23-.15-.21-.2.04-.14.14-.27.21-.41.08.07.15.13.24.22-.08.13-.16.26-.24.39Zm.92-3.23c-.2.3-.87.32-1.13.01-.04-.05-.05-.15-.02-.2.19-.31.87-.32,1.12-.01.04.05.02.13.02.2Zm1.7,12.2c-.06.01-.15-.12-.22-.19.15-.07.3-.15.44-.22.09.08.17.15.24.22-.15.07-.3.16-.46.19Zm1.35-7.87c-.11-.21-.25-.41-.3-.63-.02-.08.19-.2.3-.31.11.2.23.41.34.6-.13.12-.23.23-.34.33Zm2.75,10.9c-.06.01-.15-.12-.22-.19.15-.07.3-.16.46-.19.06-.01.15.12.22.19-.15.07-.3.16-.46.19Zm-3.37-14.41c1.85-1.43,2.63.34,4.23-.02-1.85,1.43-2.63-.34-4.23.02Zm6.15,6.14c-.08.02-.21-.19-.31-.29.21-.11.41-.22.61-.33.13.12.23.23.34.33-.21.1-.41.24-.64.29Zm3.71,6.96c-.18.08-.37.15-.55.21-.34.03-.67-.05-.57-.39.1-.33.85-.32,1.11-.02.04.05.04.18.02.2Zm8.1,3.73c-.05.03-.17.04-.23.01-.35-.17-.36-.77-.02-1,.05-.03.15-.01.23-.02.34.18.36.77.01,1Zm1.61-2.63c-.35.31-.67.6-1,.88-.51-.71-1.32-.57-2.08-.56-.12-.16-.31-.3-.34-.47-.22-1.19.37-2.16,1.08-3.11.7.68,1.48.93,2.3.22.11-.1.05-.41.36-.26.16.08.3.29.33.47.04.17-.99,1.91-1.12,1.93-.33.04-.69-.04-.88.35.43.18.88.36,1.35.56Zm-.62-3.66c.24-.36.44-.12.59.08.05.06,0,.18,0,.27h-.31c-.1-.12-.33-.3-.3-.35Zm1.06-2.19c-.16-.03-.31-.12-.46-.19.08-.07.15-.13.24-.22.14.07.29.14.44.22-.08.07-.17.2-.22.19Zm69.36,9.19c-.03-.46.06-.87.63-.74.16.03.22.48.32.74h-.95Zm13.29-6.08c.63-.67,1.27-.67,1.9,0-.63.67-1.27.67-1.9,0Zm3.19-1.54c-.13-.13-.23-.23-.34-.33.21-.1.41-.24.64-.29.08-.02.21.19.31.29-.21.11-.41.22-.61.33Zm2.35,2.62c-.18.35-.21.34-1.58.03.12-.76.86-1.04,1.27-1.57.54.43.61.96.31,1.54Zm1.25-6.5c-.08-.07-.15-.13-.24-.22.08-.13.16-.26.24-.39.08.07.23.15.21.2-.04.14-.14.27-.21.41Zm3.99,2.94c-.13-.12-.23-.23-.34-.33.21-.1.41-.24.64-.29.08-.02.21.19.31.29-.21.11-.41.22-.61.33Zm.58-.93s.14-.13.21-.2c.08.13.16.26.24.39-.09.08-.17.15-.24.22-.08-.13-.18-.26-.21-.41Zm1.77,6.35c-.25.13-.52.23-.77.33-.47.04-.94-.08-.79-.61.14-.51,1.18-.5,1.54-.03.05.07.06.28.02.3Zm2.51,1.3c-.31-.65-.54-1.32-.94-1.88-.29-.4-.48-.69.02-.94.24-.12.68-.14.88,0,.49.34.88.79,1.48,1.36-.58.58-.99,1.01-1.44,1.46Zm1.07-13.9c-.52,0-.79-.27-.69-.74.06-.3.24-.5.67-.47.52.04.77.28.69.75-.05.31-.28.47-.68.47Zm2.14,12.5c.08-.13.16-.26.24-.39.08.07.23.15.21.2-.04.14-.14.27-.21.41-.08-.07-.15-.13-.24-.22Zm1.87,1.04c-.25.13-.51.23-.77.33-.47.04-.94-.08-.79-.61.14-.51,1.18-.5,1.54-.03.05.07.06.28.02.3Zm1.99-3.24c-1.08,0-1.97,0-2.85,0-.09,0-.17-.1-.26-.15-.06-.08-.16-.16-.16-.23.02-1.03,1.15-1.33,1.69-2.03.65.24.05,1.56,1.37,1.23.07-.02.29.26.34.43.04.17-.05.36-.12.76Zm-1.91-11.2c.15-.07.3-.15.44-.22.09.08.17.15.24.22-.15.07-.3.16-.46.19-.06.01-.15-.12-.22-.19Zm2.61,8.05c-.22-.05-.43-.19-.64-.29.11-.1.21-.21.34-.33.2.11.4.22.61.33-.11.1-.23.31-.31.29Zm2.21-11.52c.63-.67,1.27-.67,1.9,0-.64.67-1.27.67-1.9,0Zm3.27-3.7c-.18.08-.37.15-.55.21-.34.03-.67-.05-.57-.39.1-.33.85-.32,1.11-.02.04.05.04.18.02.2Zm.46,13.53c-.08-.07-.23-.15-.21-.2.04-.14.14-.27.21-.41.08.07.15.13.24.22-.08.13-.16.26-.24.39Zm2.05,0c-.08-.13-.18-.26-.21-.41-.01-.05.14-.13.21-.2.08.13.18.26.21.41.01.05-.14.13-.21.2Zm1.29-10.33c-.27.1-.61.03-.92.03s-.62.03-.92-.01c-.12-.02-.33-.23-.31-.3.07-.22.21-.58.36-.59.61-.07,1.23-.04,1.85-.01.11,0,.33.24.31.3-.07.22-.19.53-.36.59Zm-1.03-2.92c-.13-.12-.23-.23-.34-.33.21-.1.41-.24.64-.29.08-.02.21.19.31.29-.21.11-.41.22-.61.33Zm.76,1.44c-.08.07-.15.13-.24.22-.14-.07-.29-.14-.44-.22.08-.07.17-.2.22-.19.16.03.31.12.46.19Zm5.34-4.73c-.25.3-.93.29-1.12-.01-.03-.05-.02-.15.02-.2.25-.3.93-.29,1.13.01,0,.07.02.16-.02.2Zm.7-6.07c-.18.08-.37.15-.55.21-.34.03-.67-.05-.57-.39.1-.33.85-.32,1.11-.02.04.05.04.18.02.2Zm.76,9.32c-.08.02-.21-.19-.31-.29.21-.11.41-.22.61-.33.13.12.23.23.34.33-.21.1-.41.24-.64.29Zm.26-1.96c-.06.01-.15-.12-.22-.19.15-.07.3-.15.44-.22.09.08.17.15.24.22-.15.07-.3.16-.46.19Zm-.39-16.28c-.02-.08.19-.2.3-.31.11.21.25.41.3.63.02.08-.19.2-.3.31-.11-.21-.25-.41-.3-.63Zm1.4,2.27c-.25.3-.93.29-1.12-.01-.03-.05-.02-.15.02-.2.25-.3.93-.29,1.13.01,0,.07.02.16-.02.2Zm2.69,3.03c-.11-.1-.31-.23-.3-.31.05-.22.19-.42.3-.63.11.1.21.21.34.33-.11.2-.22.4-.34.6Zm1.05-16.02c-.21-.11-.41-.25-.56-.43-.07-.08-.07-.32,0-.39.07-.07.31-.07.4,0,.18.14.31.35.46.53-.11.11-.27.31-.3.29Zm1.02,2.87c-.44,0-.68-.42-.51-.86.05-.11.37-.27.41-.24.33.25.63.53,1.01.87-.33.09-.62.23-.91.23Zm3.24-12.7c-.08-.07-.15-.13-.24-.22.08-.13.16-.26.24-.39.08.07.23.15.21.2-.04.14-.14.27-.21.41Zm2.05-6.05c-.08-.07-.15-.13-.24-.22.08-.13.16-.26.24-.39.08.07.23.15.21.2-.04.14-.14.27-.21.41Zm1.37-10.29c-.08-.13-.16-.26-.24-.39.09-.08.17-.15.24-.22.08.13.18.26.21.41.01.05-.14.13-.21.2Zm2.26,41.57c-.25.3-.93.29-1.12-.01-.03-.05-.02-.15.02-.2.25-.3.93-.29,1.13.01,0,.07.02.16-.02.2Zm-1.36-44.54c-.28-.16-.52-.35-.75-.53-.54,4.04-1.37,8.03-2.42,11.98-1.5,5.63-3.48,11.06-5.96,16.24,0,.2-.02.41-.03.61,0,0-.15.03-.28.02-2.08,4.25-4.5,8.34-7.35,12.21-2.44,3.32-5.06,6.54-7.87,9.55.07.12.13.25.16.38.02.08-.19.2-.3.31-.06-.11-.12-.22-.19-.33-3.41,3.64-6.86,7.3-10.75,10.37-3.63,2.86-7.56,5.34-11.53,7.75.13.01.25.02.37.02.47,0,.84.32.74.88-.05.27-.13.7-.3.76-.38.13-.92.23-1.22.06-.37-.22-.67-.55-.97-.88-.35.21-.7.42-1.05.63-5.85,3.52-12.17,5.88-18.66,7.73.04.04.08.09.11.13.08.11,0,.4-.11.52-.11.12-.35.17-.55.21-.4.08-.67-.15-.67-.44,0-.03,0-.07,0-.1-1.75.48-3.52.94-5.29,1.37-3.84.93-7.86,1.2-11.82,1.54-3.35.29-6.72.28-10.09.39-1.23.04-2.46.02-3.68-.03.04.1.07.21.1.3h-.68c-.01-.12,0-.23.04-.32-4.95-.24-9.82-1.1-14.65-2.2-7.7-1.74-15.05-4.52-22.08-8.14-3.42-1.76-6.67-3.78-9.8-5.97-1.02.5-1.83.14-2.99.43.85-.72.93-.77,2.78-.58-2.2-1.54-4.34-3.17-6.44-4.86-7.98-6.43-14.63-14.01-20.1-22.55,0,.22.01.44-.02.66-.02.12-.24.33-.31.3-.22-.07-.58-.21-.6-.35-.07-.6-.04-1.22-.01-1.82,0-.05.04-.11.09-.16-.52-.83-1.04-1.66-1.53-2.51-4.41-7.59-7.72-15.71-9.67-24.3-.99-4.39-2.01-8.87-2.16-13.34-.38-11.42-.35-22.85-.46-34.27-.02,0-.03.01-.05.02-.06.01-.15-.12-.22-.19.09-.05.18-.09.27-.13,0-.44,0-.88-.01-1.32.13-.21.26-.43.4-.64.11.18.22.36.34.54,4.27,2.06,8.84,2.61,13.46,2.26,1.52-.12,3-.34,4.46-.63,0-.01-.02-.03-.01-.04.05-.22.19-.42.3-.63.11.1.21.21.34.33-.04.08-.09.16-.13.24,5.21-1.13,10.02-3.39,14.4-6.69.19-.15.35-.35.52-.53,1.41-1.44,2.45-1.2,3.99.18,4.71,4.21,10.34,6.53,16.6,7.46,7.39,1.1,14.26-.44,20.74-3.89,2.16-1.15,4.03-2.84,6.13-4.11.61-.37,1.89-.5,2.36-.12,1.9,1.54,3.88,2.91,5.97,4.09-.07-.06-.15-.17-.21-.24.21-.1.41-.24.64-.29.08-.02.21.19.31.29-.21.1-.41.24-.64.29,2.04,1.14,4.19,2.1,6.46,2.83.72.23,1.39.61,2.12.94-1.48,1.4-2.87,2.83-4.23,4.28.02.02.05.05.08.08-.1.05-.19.1-.29.15-6.67,7.18-11.86,15.01-15.55,23.52.05-.04.1-.07.14-.08.44-.02.89-.03,1.33,0,.1.01.21.24.26.38.02.04-.13.18-.22.2-.22.03-.44,0-.67,0s-.46.05-.66-.02c-.12-.04-.19-.2-.25-.34-.46,1.06-.9,2.12-1.31,3.2,0,0,.02.02.02.02-.02.13-.07.24-.14.33-3.28,8.74-5.08,18.16-5.37,28.32,1.37,0,2.46,0,3.54,0,5.62,0,11.23-.04,16.85.01,1.51.02,2.06-.46,2.02-2.03-.08-3.55.21-6.97.83-10.28,0,0,0,0-.01.01-.59-.51-1.04-.89-1.5-1.29.65-.5,1.27-.68,1.88-.54,1.85-8.21,5.75-15.69,11.1-22.63,5.4-7,11.91-12.45,19.63-16.3.06-.11.12-.21.18-.32.05.05.11.1.17.15,2.03-1,4.15-1.89,6.35-2.66,5.56-1.95,11.16-3.26,17.09-3.33.2,0,.38,0,.56-.01.44-.18.9-.16,1.39-.14,1.44-.3,1.6-1.15,1.58-3.44-.02-2.88-.02-5.77-.02-8.68-.08-.03-.15-.06-.23-.11-.39-.28-.34-.66.19-1.19.01.02.02.03.04.05,0-.43,0-.86,0-1.29-.3.22-.85.2-1.03-.08-.03-.05-.02-.15.02-.2.22-.26.74-.28,1.01-.08,0-2.19,0-4.38,0-6.61-1.49-.13-2.93-.36-4.36-.37-.91,0-1.83,0-2.74,0,.08.08.15.15.24.24-.01.02-.02.04-.04.07.06.1.12.2.18.29-.09.08-.17.15-.24.22-.04-.06-.08-.13-.12-.19-.04.07-.08.15-.12.22-.11-.1-.31-.23-.3-.31.04-.19.15-.36.25-.54-13.54-.03-27.08,0-40.62-.09-5.37-.03-9.96-4.01-11.36-9.28-1.89-7.12,3.31-15.24,11.03-15.61,1.23-.06,2.46-.17,3.69-.17,19.32,0,38.64,0,57.96.01.22-.19.58-.22.94-.18.18.02.33.09.45.18,6.08,0,12.15,0,18.23,0,.78,0,1.57.14,2.49.23v8.37c0,16.11,0,32.23,0,48.34.06.01.14.12.21.18-.07.03-.14.07-.21.1,0,.52,0,1.04,0,1.56.09.09.18.18.29.28-.09.17-.19.34-.29.52,0,4.96,0,9.93,0,14.89,0,2.81-.17,5.61-.49,8.37.58,0,1.16,0,1.72,0,.34.3.66.59,1.03.91-.75.33-1.48.66-2.17.96Zm-93.53-47.57c.15-.07.3-.16.46-.19.06-.01.15.12.22.19-.15.07-.3.16-.46.19-.06.01-.15-.12-.22-.19Zm1.49,30.17s.14-.19.22-.2c.44-.02.89-.03,1.33,0,.1.01.21.24.26.38.02.04-.13.18-.22.2-.22.03-.44,0-.67,0s-.46.05-.66-.02c-.13-.04-.21-.24-.26-.38Zm.18,18.23c-.13.12-.23.23-.34.33-.11-.21-.25-.41-.3-.63-.02-.08.19-.2.3-.31.11.2.23.41.34.6Zm-2.46-21.67c-.2.3-.87.31-1.13.01-.04-.05-.05-.15-.02-.2.19-.31.87-.32,1.12-.01.04.05.02.13.02.2Zm-1.34-4.54c-.13.12-.23.23-.34.33-.11-.21-.25-.41-.3-.63-.02-.08.19-.2.3-.31.11.2.23.41.34.6Zm-4.08,34.98c.09-.07.33-.06.4,0s.02.26.02.4c-.19.14-.47.45-.55.41-.57-.33-.18-.6.13-.81Zm-.53-3.99c.09-.08.17-.15.24-.22.08.13.18.26.21.41.01.05-.14.13-.21.2-.08-.13-.16-.26-.24-.39Zm.71-16.96s.14-.13.21-.2c.08.13.18.26.21.41.01.05-.14.13-.21.2-.08-.13-.18-.26-.21-.41Zm.24,20.94q.1-1.99,1.78-1.52c-.41.72-.86,1.38-1.78,1.52Zm-2.51-22.14c-.08.13-.16.26-.24.39-.08-.07-.23-.15-.21-.2.04-.14.14-.27.21-.41.08.07.15.13.24.22Zm-1.37,24.21c-.08.13-.16.26-.24.39-.08-.07-.23-.15-.21-.2.04-.14.14-.27.21-.41.08.07.15.13.24.22Zm-3.53,8.85c.05-.22.19-.42.3-.63.11.1.21.21.34.33-.11.2-.22.4-.34.6-.11-.1-.31-.23-.3-.31Zm.12.4c-.09.08-.17.15-.24.22-.08-.13-.18-.26-.21-.41-.01-.05.14-.13.21-.2.08.13.16.26.24.39Zm-.8-3.8c-.72-.88-.36-1.66-.41-2.38,0-.14.46-.46.68-.43.4.05.85.21,1.15.47.15.13.15.66,0,.86-.4.55-.94.98-1.43,1.48Zm.35-6.68s.14-.13.21-.2c.08.13.16.26.24.39-.09.08-.17.15-.24.22-.08-.13-.18-.26-.21-.41Zm-.39-2.85c1.2-.62,2.04-.23,3.23-.5q-.88.74-3.23.5Zm1.08-25s.14-.13.21-.2c.08.13.16.26.24.39-.09.08-.17.15-.24.22-.08-.13-.18-.26-.21-.41Zm1.51,4.2c.11-.2.22-.4.34-.6.11.1.31.23.3.31-.05.22-.19.42-.3.63-.11-.1-.21-.21-.34-.33Zm-4.93,33.33s.14-.13.21-.2c.08.13.18.26.21.41.01.05-.14.13-.21.2-.08-.13-.18-.26-.21-.41Zm.05.23c-.11.1-.23.31-.31.29-.22-.05-.43-.19-.64-.29.11-.1.21-.21.34-.33.2.11.41.22.61.33Zm-.79-7.34c-.04-.08-.03-.24.02-.31.35-.47,1.29-.45,1.57.02,0,.11.02.24-.03.31-.35.47-1.3.46-1.56-.02Zm-2.23-14.34c-.05.22-.19.42-.3.63-.11-.1-.21-.21-.34-.33.11-.2.22-.4.34-.6.11.1.31.23.3.31Zm-2.72,20.44c-.09.08-.17.15-.24.22-.08-.13-.18-.26-.21-.41-.01-.05.14-.13.21-.2.08.13.16.26.24.39Zm26.76-78.44c.13-.13.23-.23.34-.33.11.21.25.41.3.63.02.08-.19.2-.3.31-.11-.2-.23-.41-.34-.6Zm.99,23.37c-.02-.08.19-.2.3-.31.11.21.25.41.3.63.02.08-.19.2-.3.31-.11-.21-.25-.41-.3-.63Zm1.75,7.18c.25.1.52.2.77.33.04.02.03.23-.02.3-.35.47-1.4.48-1.54-.03-.14-.53.32-.65.79-.61Zm.81,2.51c.04-.14.14-.27.21-.41.08.07.15.13.24.22-.08.13-.16.26-.24.39-.08-.07-.23-.15-.21-.2Zm.65,12.52c.09-.08.17-.15.24-.22.08.13.18.26.21.41.01.05-.14.13-.21.2-.08-.13-.16-.26-.24-.39Zm2.64-7.18c-.08.07-.15.13-.24.22-.14-.07-.29-.14-.44-.22.08-.07.17-.2.22-.19.16.03.31.12.46.19Zm-.32-7.38c.21-.1.41-.24.64-.29.08-.02.21.19.31.29-.21.1-.41.24-.64.29-.08.02-.21-.19-.31-.29Zm-.8.94c-.09-.08-.17-.15-.24-.22.15-.07.3-.16.46-.19.06-.01.15.12.22.19-.15.07-.3.15-.44.22Zm-.02-3.66c-.06.01-.15-.12-.22-.19.15-.07.3-.15.44-.22.09.08.17.15.24.22-.15.07-.3.16-.46.19Zm-.68-1.21c-.06.01-.15-.12-.22-.19.15-.07.3-.16.46-.19.06-.01.15.12.22.19-.15.07-.3.16-.46.19Zm.12,12.82c-.08-.07-.23-.15-.21-.2.04-.14.14-.27.21-.41.08.07.15.13.24.22-.08.13-.16.26-.24.39Zm.21,1.01s-.14.13-.21.2c-.08-.13-.18-.26-.21-.41-.01-.05.14-.13.21-.2.08.13.18.26.21.41Zm2.3-15.69c-.02-.08.19-.2.3-.31.11.21.25.41.3.63.02.08-.19.2-.3.31-.11-.21-.25-.41-.3-.63Zm1.38,13.06s.14-.13.21-.2c.08.13.16.26.24.39-.09.08-.17.15-.24.22-.08-.13-.18-.26-.21-.41Zm2.05-30.26s.14-.13.21-.2c.08.13.16.26.24.39-.09.08-.17.15-.24.22-.08-.13-.18-.26-.21-.41Zm2.05,7.26s.14-.13.21-.2c.08.13.18.26.21.41.01.05-.14.13-.21.2-.08-.13-.18-.26-.21-.41Zm2.07-4.07c.13-.12.23-.23.34-.33.11.21.25.41.3.63.02.08-.19.2-.3.31-.11-.2-.23-.41-.34-.6Zm3.72-4.72c-.16-.03-.31-.12-.46-.19.08-.07.15-.13.24-.22.14.07.29.14.44.22-.08.07-.17.2-.23.19Zm.55,12.01c.13.12.23.23.34.33-.21.1-.41.24-.64.29-.08.02-.21-.19-.31-.29.21-.11.41-.22.61-.33Zm1.05,7.17c.15-.07.3-.16.46-.19.06-.01.15.12.22.19-.15.07-.3.16-.46.19-.06.01-.15-.12-.22-.19Zm2.62-19.89c-.18.08-.37.15-.55.21-.34.03-.67-.05-.57-.39.1-.33.85-.32,1.11-.02.04.05.04.18.02.2Zm-.02,23.63c-.25.3-1.01.31-1.11-.02-.1-.34.23-.42.57-.39.18.07.37.13.55.21.03.01.02.15-.02.2Zm-.94-9.18c.11.21.25.41.3.63.02.08-.19.2-.3.31-.11-.21-.25-.41-.3-.63-.02-.08.19-.2.3-.31Zm3.14-1.57c.05.07.02.21.03.31-.28.47-1.21.49-1.57.02-.05-.07-.07-.23-.02-.31.26-.48,1.21-.49,1.56-.02Zm-.63-15.61c.11-.2.22-.4.34-.6.11.1.31.23.3.31-.05.22-.19.42-.3.63-.11-.1-.21-.21-.34-.33Zm-.31,23.43c.02.08-.19.2-.3.31-.11-.21-.25-.41-.3-.63-.02-.08.19-.2.3-.31.11.21.25.41.3.63Zm1.05-1.91c.04-.14.14-.27.21-.41.08.07.15.13.24.22-.08.13-.16.26-.24.39-.08-.07-.23-.15-.21-.2Zm2.73-11.5c.04-.14.14-.27.21-.41.08.07.15.13.24.22-.08.13-.16.26-.24.39-.08-.07-.23-.15-.21-.2Zm4.32-6.47c.57.61.57,1.22,0,1.83-.57-.61-.57-1.22,0-1.83Zm5.13,3.65s.04.2,0,.26c-.26.39-.66.39-1.08.28-.09-.02-.23-.17-.22-.19.1-.13.21-.32.35-.35.31-.05.63-.02.95,0Zm0-.28c.1-.12.26-.2.39-.29.08.07.22.17.21.19-.08.13-.18.26-.31.36-.06.04-.24.04-.29,0-.05-.05-.05-.2,0-.25Zm.91,3.41c.38-.09.47.21.44.51-.08.16-.15.33-.24.49-.02.02-.17.02-.22-.01-.34-.23-.35-.89.02-.98Zm3.29-7.81c-.02-.08.19-.2.3-.31.11.2.23.41.34.6-.13.12-.23.23-.34.33-.1-.21-.25-.41-.3-.63Zm4.81,3.66c.25-.3.93-.29,1.13.01,0,.07.02.16-.02.2-.25.3-.93.29-1.12-.01-.03-.05-.02-.15.02-.2Zm42.35,20.77c.08-.13.16-.26.24-.39.08.07.23.15.21.2-.04.14-.14.27-.21.41-.08-.07-.15-.13-.24-.22Zm1.82,4.26c-.25.3-1.01.31-1.11-.02-.1-.34.23-.42.57-.39.18.07.37.13.55.21.03.01.02.15-.02.2Zm.02,18.43c.02.08-.19.2-.3.31-.11-.2-.23-.41-.34-.6.13-.12.23-.23.34-.33.11.21.25.41.3.63Zm-.2-61.83c-.36-.58-1.24-.48-1.69-.96.56-.33,1.32-.25,1.64-.84.63.3.12,1.18.91,1.39-.07.14-.12.29-.23.4-.05.05-.21,0-.32,0s-.29.04-.32,0Zm.37,80.39c.21-.11.41-.22.61-.33.13.12.23.23.34.33-.21.1-.41.24-.64.29-.08.02-.21-.19-.31-.29Zm.96,30.39c-.08-.07-.15-.13-.24-.22.08-.13.16-.26.24-.39.08.07.23.15.21.2-.04.14-.14.27-.21.41Zm.47-16.81c-.68-.63-.68-1.25,0-1.88.68.63.68,1.25,0,1.88Zm1.11-42.7c-.25.3-1.01.31-1.11-.02-.1-.34.23-.42.57-.39.18.07.37.13.55.21.03.01.02.15-.02.2Zm.35-5.14c.05-.03.21-.04.22-.01.1.16.17.33.24.49.03.3-.06.6-.44.51-.37-.09-.36-.75-.02-.98Zm.73,12.89c.02.08-.19.2-.3.31-.11-.21-.25-.41-.3-.63-.02-.08.19-.2.3-.31.11.21.25.41.3.63Zm-.3,16.22c.68.63.68,1.25,0,1.88-.68-.63-.68-1.25,0-1.88Zm.37,8.91c-.08-.07-.23-.15-.21-.2.04-.14.14-.27.21-.41.08.07.15.13.24.22-.08.13-.16.26-.24.39Zm.58,12.62c-.11-.21-.25-.41-.3-.63-.02-.08.19-.2.3-.31.11.21.25.41.3.63.02.08-.19.2-.3.31Zm.65-82.06c-.02-.08.19-.2.3-.31.11.2.23.41.34.6-.13.12-.23.23-.34.33-.11-.21-.25-.41-.3-.63Zm.7,58.65c.16.03.31.12.46.19-.08.07-.15.13-.24.22-.14-.07-.29-.14-.44-.22.08-.07.17-.2.22-.19Zm.54,24.34c-.1-.1-.31-.23-.3-.31.05-.22.19-.42.3-.63.11.1.21.21.34.33-.11.2-.22.4-.34.6Zm4.29-16.67c-.29-.11-.51-.5-.77-.5-1.36-.02-1.34-1.09-1.84-1.8-.74-.03-1.5-.07-2.31-.1-.06-.68.5-.44.79-.56.29-.12.51-.36.77-.55.53.57,1.24.71,1.97.53.55.31.43.73.43,1.11,0,.43.07.79.71.75.7-.04.78.67,1.32.79-.25.53-.68.48-1.07.34Zm-.02-6.27c.64-.67,1.27-.67,1.9,0-.63.67-1.27.67-1.9,0Zm2.35-30.17c-.25.3-1.01.31-1.11-.02-.1-.34.23-.42.57-.39.18.07.37.13.55.21.03.01.02.15-.02.2Zm1.84,5.64c-.08-.07-.23-.15-.21-.2.04-.14.14-.27.21-.41.08.07.15.13.24.22-.08.13-.16.26-.24.39Zm5.13,4.1c.07.48-.18.72-.69.75-.43.03-.6-.17-.67-.47-.1-.47.17-.74.69-.74.4,0,.63.15.68.47Z"/><path class="cls-2" d="m5.45,204.66c-.28.28-.29.77-.21,1.33-.01.43-.03.86-.04,1.28.01-.43.03-.85.04-1.28-.08-.56-.08-1.05.21-1.33Z"/><path class="cls-3" d="m12.6,166.37c-.02.06-.06.15-.06.15h0s.04-.09.06-.15Z"/><path class="cls-12" d="m8.6,189.23c.46-.01.93-.03,1.39-.04-.46.02-.93.03-1.39.04-.17.27-.34.39-.53.37.18.02.36-.1.53-.37Z"/><path class="cls-13" d="m2,204.56c.54-.27,1.14-.41,1.71-.6q-.63-1.99-2.1-.81s-.08.05-.12.08c0,.5,0,.99,0,1.49.14-.01.3-.06.51-.16Z"/><path class="cls-11" d="m3.97,205.39c.08.2.19.4.31.59.32,0,.65,0,.97,0-.32,0-.65,0-.97,0-.12-.19-.22-.39-.31-.59Z"/><path class="cls-10" d="m23.04,192.52c-.43.03-.74.41-1.19,1.21-.82,1.46-2.25,2.25-3.74,1.44-1.6-.88-3.17-.73-4.8-.76-.24,0-.47-.01-.71-.03-.5-.04-1.02-.13-.86-.81.12-.48.59-.52.97-.33,1.55.73,2.72-.07,4.06-.99-.8-.55-1.8-.63-2.1-1.59-.2.01-.4.03-.6.04-.8.74-1.61,1.18-2.51.16-.47.03-.95.05-1.42.08-.02-.29-.05-.58-.07-.87.02.29.05.58.07.87-1.48.23-2.97.49-4.01-1.05-.39.01-.78.03-1.17.04-.16.16-.31.29-.45.4.03.45-.09.89-.61.75-.16-.04-.27-.18-.33-.35-.25-.07-.45-.34-.69-.83h0c-.45.02-.89.03-1.34.05-.01.03-.03.07-.04.1,0,3.6,0,7.2,0,10.8.03,0,.06,0,.09,0,0,.1-.01.2-.03.29.64.42,1.28.8,1.75-.22,0,0,.16-.14.16-.14.54-.06,1.06-.1,1.63.02,1.6.34,3.21.69,4.86.47.36.09.72.18.95.51,1.37.48,2.78.64,4.22.54.86-.05,1.73-.08,2.59-.16.43-.04.73-.33.73-.8,0-.49-.35-.68-.77-.74-.86-.12-1.81.33-3.06-.47,1.57-.32,2.71-.44,3.83-.17,1.63.39,3.24.75,4.89.25-.12-.85-.2-1.71-.23-2.55-.05-1.72-.07-3.45-.07-5.17Zm-18.85,5.09c-.22-.05-.43-.19-.64-.29.11-.1.21-.21.34-.33.2.11.41.22.61.33-.11.1-.23.31-.31.29Zm4.59,2.08c-.08-.13-.16-.26-.24-.39.09-.08.17-.15.24-.22.08.13.18.26.21.41.01.05-.14.13-.21.2Zm.31-6.92c-.25.13-.51.23-.77.33-.47.04-.94-.08-.79-.61.14-.51,1.18-.5,1.54-.03.05.07.06.28.02.3Zm4.68,7.33c-.25.3-1.01.31-1.11-.02-.1-.34.23-.42.57-.39.18.07.37.13.55.21.03.01.02.15-.02.2Z"/></svg>