<?xml version="1.0" encoding="UTF-8"?><svg id="Layer_1" xmlns="http://www.w3.org/2000/svg" viewBox="0 0 154.77 65.65"><defs><style>.cls-1{fill:#f4a650;}.cls-2{fill:#fff;}.cls-3{fill:#e11819;}.cls-4{fill:#4bb3d3;}.cls-5{fill:#80c096;}</style></defs><g id="c"><path class="cls-2" d="m4.92,16.76h7.54c3.33,0,5.56,2,5.56,4.92,0,2.16-1.33,3.85-3.42,4.54l3.71,7.18h-2.76l-3.45-6.83h-4.69v6.83h-2.5v-16.65Zm7.35,7.73c1.95,0,3.26-1.09,3.26-2.78s-1.31-2.76-3.26-2.76h-4.85v5.54h4.85Z"/><path class="cls-2" d="m19.05,27.34c0-3.5,2.66-6.25,6.06-6.25,3.4,0,5.85,2.78,5.85,6.37v.67h-9.54c.33,2,1.97,3.47,4.07,3.47,1.19,0,2.31-.38,3.07-1.07l1.52,1.5c-1.43,1.09-2.88,1.59-4.69,1.59-3.57,0-6.35-2.73-6.35-6.28Zm9.56-1c-.33-1.85-1.78-3.23-3.54-3.23s-3.28,1.31-3.61,3.23h7.16Z"/><path class="cls-2" d="m32.7,27.34c0-3.5,2.69-6.23,6.16-6.23,1.33,0,2.59.43,3.64,1.21v-5.56l2.38-.45v17.1h-2.35v-1.17c-1,.88-2.28,1.36-3.71,1.36-3.42,0-6.11-2.73-6.11-6.25Zm9.8,2.71v-5.45c-.78-.9-2.02-1.45-3.38-1.45-2.31,0-4.09,1.78-4.09,4.16s1.78,4.21,4.09,4.21c1.38,0,2.59-.52,3.38-1.47Z"/><path class="cls-2" d="m52.94,16.76h2.5s0,7.13,0,7.13h8.85v-7.13h2.5v16.65h-2.5v-7.25h-8.85s0,7.25,0,7.25h-2.5v-16.65Z"/><path class="cls-2" d="m69.04,29.93c0-2.28,1.85-3.69,4.9-3.69,1.17,0,2.31.24,3.31.69v-1.28c0-1.71-1.02-2.59-2.95-2.59-1.12,0-2.26.31-3.76,1.02l-.88-1.78c1.83-.86,3.38-1.24,4.97-1.24,3.16,0,4.95,1.55,4.95,4.3v8.04h-2.33v-1.05c-1.07.86-2.28,1.26-3.76,1.26-2.62,0-4.45-1.5-4.45-3.69h0Zm4.99,1.9c1.28,0,2.33-.36,3.21-1.14v-2.05c-.9-.52-1.9-.76-3.12-.76-1.74,0-2.81.78-2.81,2s1.09,1.95,2.71,1.95Z"/><path class="cls-2" d="m83.52,30.41v-7.11h-2.57v-2h2.57v-3.09l2.35-.57v3.66h3.57v2s-3.57,0-3.57,0v6.56c0,1.24.5,1.71,1.78,1.71.67,0,1.14-.07,1.74-.29v2c-.64.21-1.57.33-2.26.33-2.35,0-3.61-1.09-3.61-3.21Z"/><path class="cls-2" d="m4.73,41.73h6.4c4.97,0,8.8,3.64,8.8,8.35s-3.83,8.3-8.8,8.3h-6.4v-16.65Zm6.37,13.58c2.95,0,5.26-2.28,5.26-5.23s-2.31-5.28-5.26-5.28h-2.93v10.51h2.93Z"/><path class="cls-2" d="m21.5,52.19c0-3.59,2.81-6.42,6.37-6.42,3.57,0,6.14,2.85,6.14,6.66v.86h-9.18c.43,1.52,1.76,2.59,3.47,2.59,1.09,0,2.09-.36,2.73-1l2.14,1.95c-1.52,1.24-3.04,1.78-5.04,1.78-3.73,0-6.64-2.81-6.64-6.42h0Zm9.3-1.24c-.36-1.47-1.55-2.5-3-2.5s-2.66.98-3.02,2.5h6.02Z"/><path class="cls-2" d="m34.36,45.98h3.54l3.4,8.25,3.38-8.25h3.47l-5.33,12.39h-3.16l-5.3-12.39h0Z"/><path class="cls-2" d="m48.51,52.19c0-3.59,2.81-6.42,6.37-6.42,3.57,0,6.14,2.85,6.14,6.66v.86h-9.18c.43,1.52,1.76,2.59,3.47,2.59,1.09,0,2.09-.36,2.73-1l2.14,1.95c-1.52,1.24-3.04,1.78-5.04,1.78-3.73,0-6.64-2.81-6.64-6.42h0Zm9.3-1.24c-.36-1.47-1.55-2.5-3-2.5s-2.66.98-3.02,2.5h6.02Z"/><path class="cls-2" d="m63.02,41.73l3.26-.55v17.19h-3.26v-16.65Z"/><path class="cls-2" d="m68.25,52.19c0-3.61,2.9-6.44,6.61-6.44s6.61,2.83,6.61,6.44-2.9,6.42-6.61,6.42c-3.71,0-6.61-2.81-6.61-6.42h0Zm10.06,0c0-2.02-1.52-3.61-3.45-3.61s-3.42,1.59-3.42,3.61,1.5,3.59,3.42,3.59,3.45-1.57,3.45-3.59Z"/><path class="cls-2" d="m83.47,45.98h3.21s0,1.02,0,1.02c1-.78,2.21-1.19,3.52-1.19,3.52,0,6.3,2.81,6.3,6.37s-2.81,6.35-6.4,6.35c-1.24,0-2.4-.33-3.38-.98v5.66h-3.26v-17.24s0,0,0,0Zm9.82,6.21c0-2.05-1.59-3.59-3.61-3.59-1.19,0-2.24.4-2.95,1.19v4.83c.71.74,1.78,1.17,2.95,1.17,2.05,0,3.61-1.55,3.61-3.59Z"/><path class="cls-2" d="m97.93,52.19c0-3.59,2.81-6.42,6.37-6.42,3.57,0,6.14,2.85,6.14,6.66v.86h-9.18c.43,1.52,1.76,2.59,3.47,2.59,1.09,0,2.09-.36,2.73-1l2.14,1.95c-1.52,1.24-3.04,1.78-5.04,1.78-3.73,0-6.64-2.81-6.64-6.42h0Zm9.3-1.24c-.36-1.47-1.55-2.5-3-2.5s-2.66.98-3.02,2.5h6.02Z"/><path class="cls-2" d="m112.44,45.98h3.26v1.38c.78-1.07,1.93-1.66,3.31-1.66.67.02,1.02.1,1.36.29v2.85c-.48-.21-1.07-.33-1.66-.33-1.28,0-2.38.67-3,1.83v8.04s-3.26,0-3.26,0v-12.39s0,0,0,0Z"/></g><g id="e"><path class="cls-3" d="m70.57,10.87c-.15-.11-.51-.33-.97-.3-.45.02-.89.25-1.17.65-.03.05-.07.1-.1.15h0c-.29.39-.37.87-.26,1.3.04.17.12.32.2.44.07.11.17.22.27.31.05.04.09.07.12.1.02.01.06.04.12.07.09.05.18.09.28.12.13.04.29.07.46.07.2,0,.43-.04.66-.17.18-.09.33-.21.47-.37.07-.07.14-.16.2-.25.58-.81.29-1.69-.28-2.12h0Z"/><path class="cls-5" d="m92.92,35.57c-.64.4-1.31.77-2,1.08-.69.31-1.41.57-2.13.78-.79.23-1.24,1.05-1.02,1.84.19.65.78,1.07,1.43,1.07.14,0,.28-.02.41-.06.86-.25,1.71-.56,2.53-.93.82-.37,1.62-.8,2.38-1.28.69-.44.9-1.36.46-2.05-.44-.69-1.36-.9-2.05-.46h0Z"/><path class="cls-3" d="m101.96,17.37c.38,0,.76-.15,1.05-.43.58-.58.59-1.52,0-2.1l-3.46-3.48c-.58-.58-1.52-.58-2.1,0-.58.58-.59,1.52,0,2.1l3.46,3.48c.29.29.67.44,1.05.44h0Z"/><path class="cls-3" d="m93.22,9.24c.48,0,.94-.23,1.23-.65.46-.68.29-1.6-.39-2.07-3.23-2.19-6.59-3.26-10.29-3.26s-7.35,1.08-10.46,3.11c-.69.45-.88,1.37-.43,2.06.45.69,1.37.88,2.06.43,2.62-1.72,5.68-2.62,8.83-2.62s5.87.87,8.62,2.74c.26.18.55.26.84.26h0Z"/><path class="cls-5" d="m117.44,11.24c-.29.28-.57.57-.86.86-4.32,4.36-8.7,8.79-12.93,13.09-1.89,1.92-3.78,3.84-5.67,5.76-.58.59-.57,1.53.01,2.1.29.29.67.43,1.04.43s.77-.15,1.06-.44c1.89-1.92,3.78-3.84,5.67-5.76,4.23-4.29,8.6-8.73,12.92-13.08.28-.29.56-.56.84-.84.58-.58.59-1.52,0-2.1-.58-.58-1.52-.59-2.1,0h0Z"/><path class="cls-1" d="m144.24,6.8c-3.25-2.31-7.08-3.53-11.07-3.53-3.73,0-6.97,1.02-10.19,3.21-.68.46-.86,1.39-.39,2.07.46.68,1.39.86,2.07.39,2.71-1.84,5.41-2.7,8.51-2.7,3.38,0,6.61,1.03,9.35,2.98.26.19.56.28.86.28.46,0,.92-.22,1.21-.62.48-.67.32-1.6-.35-2.07h0Z"/><path class="cls-3" d="m149.02,11.7c-.46-.68-1.39-.86-2.06-.4-.68.46-.86,1.38-.4,2.06,1.8,2.67,2.76,5.79,2.76,9.03s-.93,6.29-2.7,8.94c-.45.68-.27,1.61.41,2.06.25.17.54.25.82.25.48,0,.95-.23,1.24-.66,2.09-3.14,3.2-6.8,3.2-10.59,0-3.79-1.13-7.53-3.27-10.7h0Z"/><path class="cls-4" d="m142.19,35.79c-2.67,1.8-5.79,2.76-9.03,2.76-3.24,0-6.06-.87-8.64-2.5-.69-.44-1.61-.23-2.05.46-.44.69-.23,1.61.46,2.05,3.05,1.94,6.59,2.96,10.23,2.96,3.83,0,7.53-1.13,10.7-3.27.68-.46.86-1.38.4-2.06-.46-.68-1.39-.86-2.06-.4h0Z"/><path class="cls-4" d="m116.06,27.88c-.57-.59-1.51-.62-2.1-.05s-.62,1.51-.05,2.1l3.26,3.42c.29.31.68.46,1.08.46.37,0,.74-.14,1.03-.41.59-.57.62-1.51.05-2.1l-3.26-3.42h0Z"/></g></svg>