<?xml version="1.0" encoding="UTF-8"?><svg id="Layer_1" xmlns="http://www.w3.org/2000/svg" viewBox="0 0 250.25 273.01"><defs><style>.cls-1{fill:#4cb6d6;}</style></defs><path class="cls-1" d="m245.48,168.19h0c-.22,1.31.82,1.34,1.53,1.7.11-.72.23-1.43.35-2.15-.62-.16-1.24-.15-1.87.44Z"/><path class="cls-1" d="m227.49,156.7c.16-.05.31-.1.47-.15,0,0,0,0,0,0-.16.05-.31.1-.47.15Z"/><path class="cls-1" d="m245.13,162.25c-.04,1.15-.12,1.85-.35,2.29.24-.43.32-1.14.35-2.29-1.1.23-2.22-.19-3.32-.26,1.11.06,2.22.49,3.32.26Z"/><path class="cls-1" d="m239.35,158.7c-.02.29-.1.55-.27.75.16-.2.25-.46.27-.75Z"/><path class="cls-1" d="m227.64,147.54c.37-.54.89-.57,1.41-.4-.09-.15.11-.27.28-.38.07-.04.24-.04.29,0,.05.05.01.17.01.26-.09.06-.2.16-.28.22.43.15.84.26,1.33,0,.49-.25,1.16-.45,1.47.17.4.79-.43.85-.85,1.11-.33.21-.28.54-.28.86h0c2.62.44,2.83.89,1.58,3.64-.79-.84-1.3-2.13-2.76-1.76-.57.15-1.21-.03-.56.89.18.25-.12.45-.37.35-1.31-.52-2.32.52-3.46.88-.03.51-.05,1.02-.08,1.54.61-.41,1.24-.61,1.99.02.95-.06,1.9-.11,2.85-.17.58-.17,1.08-.03,1.52.39-.04.32-.07.64-.11.96-.3.02-.6.04-.91.05-.18-.17-.36-.34-.54-.5h0c-.18.17-.37.35-.55.52-.25,0-.5.04-.75.1h0c.25-.05.49-.1.75-.1.21.88.78,1.16,1.6,1.02.78-.03,1.56-.06,2.34-.09,1.58-.05,3.14.06,4.68.46.36.23.72.45,1.09.68.01.14.01.28,0,.42,0-.13,0-.27,0-.42.41-.05.82-.09,1.22-.14.35-.37.71-.69,1.15-.12-.17.22-.35.32-.55.33.19-.01.38-.12.55-.33.32-.03.64-.06.95-.1.1.09.22.13.35.12.36-.06.72-.12,1.08-.19,1.44.5,2.91.84,4.42.99.03-.51.05-1.01.05-1.52.02-3.63.02-7.26.04-10.9-.01,0-.02,0-.03,0,0,0,.02-.01.03-.03,0-.22,0-.45,0-.67-.06-.49-.2-.95-.34-1.44-.28-1.01-.15-1.81.35-2.39.04-13.6.06-27.2.06-40.8-.16.09-.32.18-.5.22-.08.02-.21-.19-.31-.29.21-.1.41-.24.64-.29.05-.01.11.06.17.13,0-8.96,0-17.91,0-26.87-.16.09-.32.18-.5.22-.08.02-.21-.19-.31-.29.21-.1.41-.24.64-.29.05,0,.11.06.17.13,0-5.48,0-10.96,0-16.44,0-1.99,0-3.97,0-6.28-8.22,0-16.24,0-24.27,0-.2-2.85-.43-5.38-.54-7.92-.09-1.94-.1-3.89-.14-5.84-.05-.09-.1-.17-.13-.26,0-.03.05-.08.12-.12-.04-1.9-.11-3.8-.3-5.68,0-.05-.02-.1-.02-.16-.07-.06-.13-.12-.2-.19.05-.05.1-.1.15-.14-.77-6.31-3.71-11.75-7.75-16.56-5.17-6.14-11.76-10.07-19.65-11.75-1.55-.33-3.07-.76-4.6-1.14-2.47,0-4.94,0-7.41,0-2.21.53-4.44.96-6.61,1.6-2.3.67-4.5,1.52-6.59,2.57.09.05.18.1.27.14-.11.1-.21.21-.34.33-.14-.07-.28-.15-.42-.23-2.21,1.16-4.29,2.57-6.2,4.28,0,0,0,0,0,0,.48.35.46,1.27-.02,1.55-.11,0-.25.02-.32-.03-.26-.19-.37-.56-.34-.9-.13.13-.27.24-.4.37-.56-.39-1.16-.74-1.69-1.19-4.22-3.56-9.03-5.92-14.36-7.24-.02.11-.08.22-.25.27-.26.09-.59.03-.89,0-.08,0-.16-.13-.23-.2.12-.11.25-.22.37-.33-1.4-.33-2.79-.68-4.18-1.02-.6.14-1.2.4-1.79.38-1.87-.07-3.74-.24-5.61-.37-.18.12-.36.33-.55.36-4.33.61-8.61,1.52-12.45,3.67-2.92,1.64-5.62,3.67-8.49,5.57-4.66-4.2-10.15-7.16-16.44-8.6-1.42-.33-2.85-.66-4.27-.99-2.02-.06-4.04-.11-6.06-.17.1,0,.21,0,.31.01.1.01.21.24.26.38.02.04-.13.18-.22.2-.22.03-.44,0-.67,0s-.46.05-.66-.02c-.13-.04-.21-.24-.26-.38,0-.01,0-.03.02-.05-.04,0-.07.02-.11.03-1.5.3-3.01.51-4.49.9-6.26,1.65-11.91,4.24-16.61,8.55.36,0,.75.06.93-.29.11-.21.43-.98.93-.27.15.21.18.58.12.84-.11.46-.41.78-.96.67-.56-.11-1.21.27-1.69-.29-.84.82-1.65,1.69-2.42,2.62-3.6,4.38-5.87,9.29-7.4,14.94-1.36-.39-2.73-.75-4.08-1.16-6.53-1.98-13.06-2.4-19.63-.53-.15.26-.42.42-.82.34,0-.03,0-.06,0-.09-.06.02-.13.04-.19.06.07,0,.14.02.18.05.07.07.02.26.02.4-.19.14-.47.45-.55.41-.53-.31-.23-.56.06-.76-2.91.96-5.62,2.22-8.14,3.75,1.46-.05,2.92-.09,4.37.23.8.18,1.61-.05,2.02-.91.58-1.22,1.52-1.23,2.61-.96.21.05.42.1.63.14.19-.1.37-.22.57-.26.08-.02.21.19.31.29-.07.04-.15.08-.22.12.97.21,2,.42,3.21.67-2.28,1.34-4.55-.8-6.52.69.25.62.7.67,1.15.66-.16-.08-.31-.17-.47-.26.11-.1.23-.31.31-.29.22.05.43.19.64.29-.08.08-.16.16-.25.25.08,0,.15,0,.23,0,1.06,0,2.08.19,3.1.45.03-.03.06-.05.09-.05.14.03.28.1.42.18.27.07.54.15.81.22.47.13.92.24.73.95-.3,1.15.46,1.36,1.31,1.52.93.18,1.87.35,2.76.67.57.21.89.78.4,1.37-.35.43-.59,1.15-1.48.47-.52-.41-1.66-.7-2.83-.85-.27.27-.62.48-.89.73-.22.21-.83.12-1.21.01-.28-.08-.39-.46-.34-.84-.22.02-.42.05-.57.09-1.38.37-2.72.74-4.05-.29-.85-.66-1.83-.37-2.69.12-1.62.93-3.26,1.11-4.94.26-.37-.19-.8-.44-1.1-.18-1.24,1.1-2.36,0-3.52-.14-.04.79.13,1.38,1.03,1.57,1.13.23,2.24.57,3.36.87.03.33.06.65.09.98-.02.32-.03.64-.05.96,0,.09,0,.19,0,.28-1.11.25-2.22.25-3.32.19-.29.12-.58.1-.87-.06-1.26-.11-2.52-.25-3.79-.18-.62.03-1.25.04-1.87.05-2.15,2.94-3.79,6.06-4.94,9.36.29.01.56.02.83,0,.25.2.5.39.7.59.11-.02.21-.05.32-.07.18.34.16.62.07.86,0,.13,0,.27-.06.42-.06,0-.11,0-.17,0-.21.31-.44.6-.38.98-.73.01-1.46.07-2.18.16-.64,2.55-.99,5.2-1.06,7.95.33-.1.66-.23.96-.38.64-.32,1.22-.75,1.98-.59.62-.04,1.23-.08,1.85-.12,1.07,1.05,1.63,3.27,3.83,1.75.45-.31.66.26.99.4,1.56.69,3.12.16,4.68-.01.31-.03.47-.38.36-.78-.45-.46-1.29.01-1.67-.67-.75-.03-1.55.03-1.88-.91.78-.04,1.56-.07,2.34-.11h0c.46-.01.92-.03,1.38-.03,3.07.02,3.17.14,2.85,3.39-.02.15-.09.3-.13.45.18.33.19.66.07,1.01.25,1.98.04,2.29-1.67,2.42-.6.04-1.21-.03-1.82-.05-.5.15-.99.16-1.46-.12-.6.28-1.23.34-1.87.18-.62.02-1.19,1.01-1.87.11-1.14.07-2.29.13-3.43.2-.38,0-.88.14-1.12-.05-1.37-1.09-2.91-.83-4.44-.73,0,.12,0,.23,0,.35.04-.1.09-.19.16-.26.24-.21.79-.1,1.21-.09.11,0,.22.2.46.44-.45.38-.89.78-1.37,1.11-.07.05-.31-.06-.47-.15,0,.51,0,1.03,0,1.54h0c.22-.47.51-.58.88-.14-.29.05-.57.1-.86.15,0,.03-.01.06-.02.09,0,1.27-.01,2.54-.01,3.81.5.03,1,.08,1.51.13.12,1.03,1.2.52,1.64,1.06-.31.91-1.09.98-1.82,1.29-.43.18-.86.22-1.31.24.02,2.62.05,5.25.11,7.87.07,2.72.17,5.48.55,8.18.02.01.05.01.07.03,1.61.83,3.31.88,5.04.8-.19,1.11.23,1.61,1.34,1.45.37-.05.74-.09,1.11-.14,0-.34,0-.67-.01-1.01.47-.04.95-.08,1.42-.13.05.37.09.74.14,1.11-.38.45-.72.96-1.33,1.11,0,0,0,0,0,0-.44.4-.87.8-1.31,1.2-.04,0-.08,0-.12.01.04,0,.08,0,.12-.01.07.66-.05,1.29-.2,1.93-.21.95-.49,1.23-1.43.6-1.39-.94-1.74-.78-2.53.64-.07.12-.15.23-.22.34,1.32,3.47,3.09,6.62,5.29,9.42.79-.03,1.58-.07,2.37-.08.37,0,.88.09.86.61-.02.72-.53.61-1.03.52-.45-.08-.89-.06-1.33,0,2.97,3.49,6.64,6.43,10.98,8.78,7.77,4.21,16.03,4.92,24.68,2.84,3.43-.83,6.63-2.02,9.62-3.63-.4-.24-.37-1.14.07-1.46.07-.05.29-.06.31-.02.13.24.23.51.33.76.01.12,0,.24,0,.34,1.81-1.04,3.55-2.24,5.19-3.63.95-.8,1.56-.6,2.49.06,2.54,1.8,5.07,3.68,7.83,5.1,6.41,3.32,13.24,4.32,20.42,3.21,7.05-1.09,13.34-3.77,18.81-8.33,1.04-.87,1.76-.72,2.85-.03,3.24,2.08,6.55,4.08,9.92,5.94,1.58.87,3.36,1.37,5.14,2.07-.06.06-.12.12-.18.18.05.03.1.07.14.11.04.05.04.18.02.2-.18.08-.37.15-.55.21-.04,0-.08,0-.12,0-6.79,6.86-12.47,14.17-16.87,22.04.11-.05.22-.11.32-.16.09.08.17.15.24.22-.15.07-.3.16-.46.19-.04,0-.11-.07-.17-.13-6.49,11.64-10.19,24.49-10.58,38.81.38.06.77.24,1.15.55-.38.35-.76.7-1.19,1.09,0,.11,0,.21,0,.32.45.1.64.17.82.17,7.03.01,14.07,0,21.1.06,1.33.01,1.22-.74,1.28-1.61.24-3.1.24-6.26.85-9.29.76-3.77,1.77-7.45,3.08-11.03-.01,0-.03,0-.04,0-.48-.35-.46-1.28.02-1.54.08-.04.24-.03.32.02.08.06.14.14.2.23,1.12-2.88,2.44-5.69,4.02-8.41,4.6-7.94,10.55-14.67,18.08-19.81,3.94-2.69,8.25-4.92,12.6-6.93-.09-.17-.2-.34-.24-.52-.02-.08.19-.2.3-.31.11.21.25.41.3.63,0,.01,0,.03-.02.04.22-.1.44-.21.67-.31,5.52-2.5,11.45-3.66,17.54-3.92,1.69-.07,3.36-.34,5.39-.55,0-4.2.04-8.3-.01-12.41-.03-2.62-.29-5.23-.28-7.85,0-2.79.09-2.78-2.68-2.79-4.54,0-9.08-.02-13.63-.03-.45.29-.9.26-3.87.07.03-.03.06-.05.09-.08-9.76-.03-19.51-.04-29.27.06-6.73.07-14.95-6.82-13.02-15.44.79-3.52,2.35-6.4,5.14-8.38-.03-.03-.06-.05-.08-.08.33-.29.65-.6,1-.87.18-.14.42-.22.64-.34.07.09.13.18.18.27.32-.16.63-.32.97-.46,1.12-.45,2.25-.74,3.38-.94-.1-.18-.22-.36-.26-.56-.02-.08.19-.2.3-.31.11.2.23.41.34.6-.09.09-.17.16-.24.24,2.11-.36,4.25-.38,6.39-.38,23.44-.07,46.88-.04,70.31-.04,4.17,0,8.33,0,12.74,0,0,3.06.04,5.69,0,8.32-.3,15.71.15,31.43.14,47.14.1.14.1.44.1,1.12-.03-.02-.06-.03-.1-.05-.01,5.75-.1,11.5-.31,17.25.64.01,1.29-.01,1.94-.1ZM33.84,32.25c-.11-.1-.31-.23-.3-.31.05-.22.19-.42.3-.63.11.1.21.21.34.33-.11.2-.22.4-.34.6ZM5.49,49.77c.24-.36.44-.12.59.08.05.06,0,.18,0,.27h-.3c-.11-.12-.33-.3-.3-.35Zm.61.63c-.12-.28,0-.36.31-.28.29.07.59.1.88.17.05.01.07.13.11.19-.08.26-.63.33-1.1.13-.09-.04-.17-.12-.21-.2Zm-.8,4.35c-.18.08-.37.15-.55.21-.34.03-.67-.05-.57-.39.1-.33.85-.32,1.11-.02.04.05.04.18.02.2Zm.34,3.73c-.06.01-.15-.12-.22-.19.15-.07.3-.15.44-.22.09.08.17.15.24.22-.15.07-.3.16-.46.19Zm1.14-5.33c-.47.02-.7-.19-.68-.61.47-.02.7.19.68.61.43.07.67-.17.66-.47,0-.26-.17-.56-.37-.75-.2-.2-.32-.32-.12-.43.18-.09.44-.2.6-.14.63.21,1.15.55,1.28,1.2-.58-.04-.68.29-.69.7,0,.32-.21.5-.57.51-.47.01-.83-.09-.79-.6Zm.96,7.66c.64-.67,1.27-.67,1.9,0-.64.67-1.27.67-1.9,0Zm1.09-8.26c.66.09.99.52,1.28.98q-1.21.3-1.28-.98Zm5.73-3.13c-.02-.08.19-.2.3-.31.11.21.25.41.3.63.02.08-.19.2-.3.31-.11-.21-.25-.41-.3-.63Zm.76,6.76c-.08-.13-.18-.26-.21-.41-.01-.05.14-.13.21-.2.08.13.16.26.24.39-.09.08-.17.15-.24.22Zm-9.09,17.34c.04-.14.13-.26.21-.39.08.07.15.13.24.22-.07.12-.15.24-.22.36.07.12.13.24.2.35-.13.12-.23.23-.34.33-.11-.21-.25-.41-.3-.63-.01-.06.11-.15.21-.23Zm-.82,4.11c-.26.39-.66.39-1.08.28-.09-.02-.23-.17-.22-.19.1-.13.21-.32.35-.35.31-.05.63-.02.95,0,0,0,.04.2,0,.26Zm.35,9.41c-.08-.13-.18-.26-.21-.41-.01-.05.14-.13.21-.2.08.13.18.26.21.41.01.05-.14.13-.21.2Zm.58-9.7c-.29.06-.61.01-.92.01-.08-.33.15-.53.45-.59.29-.06.61-.01.92-.01.07.33-.15.53-.45.59Zm.74-.6c-.06.04-.24.04-.29,0-.05-.05-.05-.2,0-.25.1-.12.26-.2.39-.29.08.07.22.17.21.19-.08.13-.18.26-.31.36Zm3.04,5.12c-.11-.1-.31-.23-.3-.31.05-.22.19-.42.3-.63.11.1.21.21.34.33-.11.2-.22.4-.34.6Zm.79-11.41c-.08.02-.21-.19-.31-.29.21-.1.41-.24.64-.29.08-.02.21.19.31.29-.21.1-.41.24-.64.29Zm-.36,32.72c-.08-.13-.18-.26-.21-.41-.01-.05.14-.13.21-.2.08.13.18.26.21.41.01.05-.14.13-.21.2Zm1.58-2.62c-.25.3-.93.29-1.12-.01-.03-.05-.02-.15.02-.2.25-.3.93-.29,1.13.01,0,.07.02.16-.02.2Zm47.49-22.3c.13.12.23.23.34.33-.21.1-.41.24-.64.29-.08.02-.21-.19-.31-.29.21-.11.41-.22.61-.33Zm-.2,7.92c.05.06,0,.18,0,.27h-.3c-.11-.12-.33-.3-.3-.35.24-.36.44-.12.59.08Zm-1.02-11.84c.08.07.23.15.21.2-.04.14-.14.27-.21.41-.08-.07-.15-.13-.24-.22.08-.13.16-.26.24-.39Zm-1.61-21.31c.08-.02.21.19.31.29-.21.1-.41.24-.64.29-.08.02-.21-.19-.31-.29.21-.1.41-.24.64-.29Zm-6.14-18.43c.19-.31.87-.32,1.12-.01.04.05.02.13.02.2-.2.3-.87.31-1.13.01-.04-.05-.05-.15-.02-.2Zm.62,12.31c-.13.12-.23.23-.34.33-.11-.21-.25-.41-.3-.63-.02-.08.19-.2.3-.31.11.2.23.41.34.6Zm-2.24-1.54c.11.1.31.23.3.31-.05.22-.19.42-.3.63-.11-.1-.21-.21-.34-.33.11-.2.22-.4.34-.6Zm-6.64-4.68c.11.2.23.41.34.6-.13.12-.23.23-.34.33-.11-.21-.25-.41-.3-.63-.02-.08.19-.2.3-.31Zm-8.68,1.11c.53-.37,1.12-.24,1.58.33-.32.3-.64.62-.99.91-.18.14-.41.22-.64.33-.42-.56-.56-1.14.04-1.56Zm-1.28.3c-.64.67-1.27.67-1.9,0,.63-.67,1.27-.67,1.9,0Zm-2.73-3.34c.42.05.62.54,1.03.79-.67.5-1.34.49-2.1-.02.35-.25.68-.48,1.08-.77Zm-.66,7.44c-.57-.33-.18-.6.13-.81.09-.07.27-.01.42-.01v.42c-.19.14-.47.45-.55.41Zm.41,2.59c-.13.12-.23.23-.34.33-.11-.21-.25-.41-.3-.63-.02-.08.19-.2.3-.31.11.2.23.41.34.6Zm.15-3.82c.15-.18.36-.3.54-.45.11.11.31.26.29.3-.11.2-.25.41-.43.55-.08.07-.33.07-.4,0-.07-.07-.07-.31,0-.39Zm-1.44-4.27c.11.1.21.21.34.33-.11.2-.22.4-.34.6-.11-.1-.31-.23-.3-.31.05-.22.19-.42.3-.63Zm-.16,9.54c.22.05.43.19.64.29-.11.1-.21.21-.34.33-.2-.11-.41-.22-.61-.33.11-.1.23-.31.31-.29Zm-6.54-4.84c.18.14.31.35.46.53-.11.11-.27.31-.3.29-.21-.11-.41-.25-.56-.43-.07-.08-.07-.32,0-.39.07-.07.31-.07.4,0Zm-.42-.42c.07.09.07.33,0,.4-.07.07-.27.02-.41.02-.15-.18-.46-.46-.41-.54.33-.56.6-.18.82.13Zm-2.28,46.33c.08.13.18.26.21.41.01.05-.14.13-.21.2-.08-.13-.16-.26-.24-.39.09-.08.17-.15.24-.22Zm-.09,25.16c-.3.05-.61.01-.92.01s-.65.07-.92-.03c-.18-.07-.29-.37-.36-.59-.02-.07.19-.3.31-.3.62-.03,1.24-.05,1.85.01.15.02.29.37.36.59.02.07-.19.28-.31.3Zm-.03-18.23c-.06.01-.15-.12-.22-.19.15-.07.3-.16.46-.19.06-.01.15.12.22.19-.15.07-.3.16-.46.19Zm1.37,3.63c-.06.01-.15-.12-.22-.19.15-.07.3-.15.44-.22.09.08.17.15.24.22-.15.07-.3.16-.46.19Zm1.02-52.28c-.02.12-.24.33-.31.31-.22-.07-.58-.21-.6-.35-.07-.6-.04-1.22-.01-1.82,0-.11.24-.32.31-.3.22.07.54.18.6.36.1.27.03.6.03.9s.03.61-.02.91Zm.14,17.23c.05-.11.37-.27.41-.24.33.25.63.53,1.01.87-.33.09-.62.23-.91.23-.44,0-.68-.42-.51-.86Zm1.3,3.83c-.11-.21-.25-.41-.3-.63-.02-.08.19-.2.3-.31.11.2.23.41.34.6-.13.12-.23.23-.34.33Zm.74,31.63c-.46.43-.91.43-1.37,0,.46-.43.91-.43,1.37,0Zm-1.61,2.64c-.14-.07-.29-.14-.44-.22.08-.07.17-.2.22-.19.16.03.31.12.46.19-.08.07-.15.13-.24.22Zm1.61,10.04c.24.23.46.44.71.69-1.11.7-1.48-.19-2.04-.67.35-.32.67-.6.98-.88.46,0,1.15.17,1.33-.03,1.05-1.12,1.69-.38,2.51.41-1.29.47-2.47-.08-3.49.49Zm.83-1.62c.11-.2.22-.4.34-.6.11.1.31.23.3.31-.05.22-.19.42-.3.63-.11-.1-.21-.21-.34-.33Zm5.33-6.82c-.46.43-.91.43-1.37,0,.46-.43.91-.43,1.37,0Zm-1.24-4.95s.14-.13.21-.2c.08.13.18.26.21.41.01.05-.14.13-.21.2-.08-.13-.18-.26-.21-.41Zm.7,3.98c-.02-.08.19-.2.3-.31.11.2.23.41.34.6-.13.12-.23.23-.34.33-.11-.21-.25-.41-.3-.63Zm.43,13.6c-.2-.11-.41-.22-.61-.33.11-.1.23-.31.31-.29.22.05.43.19.64.29-.11.1-.21.21-.34.33Zm1.8-4.47c-.56.02-1.12,0-1.68,0-.42,0-.82-.29-.59-.4.18-.09.38-.18.57-.2.44-.03.89,0,1.34,0,.11,0,.27-.04.33,0,.12.11.2.25.25.4.01.04-.14.19-.23.19Zm-1.46-2.42c.11-.1.21-.21.34-.33.2.11.41.22.61.33-.11.1-.23.31-.31.29-.22-.05-.43-.19-.64-.29Zm2.24,1.2c-.15-.05-.24-.22-.36-.34.17-.08.34-.22.52-.24.18-.02.39.05.58.11.09.03.17.12.21.2.12.28,0,.37-.31.28-.21,0-.44.04-.63-.01Zm1.25,1.9c-.16-.04-.32-.12-.47-.2-.05.04-.12.09-.17.13-.08-.13-.16-.26-.24-.39.09-.08.17-.15.24-.22.05.08.1.16.14.25.06-.06.12-.12.2-.2.2.11.41.22.61.33-.11.1-.23.31-.31.29Zm-.09-1.4c-.09-.04-.17-.12-.21-.2-.12-.28,0-.36.31-.28.29.07.59.1.88.17.05.01.07.13.11.19-.08.26-.63.33-1.1.13Zm2.96-10.86c-.14-.07-.29-.14-.44-.22.08-.07.17-.2.22-.19.16.03.31.12.46.19-.08.07-.15.13-.24.22Zm1.48,19.26c-.25.3-.93.29-1.12-.01-.03-.05-.02-.15.02-.2.25-.3.93-.29,1.13.01,0,.07.02.16-.02.2Zm.38-20.11c-.22.38-.63.65-.96.98-.93-.07-.42-.84-.65-1.25-.2-.36-.66-.59-1.52-1.29,1.38-.08,1.84-.17,2.26-.11.41.06.99.2,1.13.47.14.29-.06.84-.27,1.19Zm.5,4.56c.05-.22.19-.42.3-.63.11.1.21.21.34.33-.11.2-.22.4-.34.6-.11-.1-.31-.23-.3-.31Zm.28,6.67c-.08-.13-.18-.26-.21-.41-.01-.05.14-.13.21-.2.08.13.16.26.24.39-.09.08-.17.15-.24.22Zm.34,2.12c.46-.43.91-.43,1.37,0-.46.43-.91.43-1.37,0Zm.81-1.71c.04-.14.14-.27.21-.41.08.07.15.13.24.22-.08.13-.16.26-.24.39-.08-.07-.23-.15-.21-.2Zm.6,3.35c-.08.02-.21-.19-.31-.29.21-.1.41-.24.64-.29.08-.02.21.19.31.29-.21.1-.41.24-.64.29Zm2.23-5.69c-.06.01-.15-.12-.22-.19.15-.07.3-.16.46-.19.06-.01.15.12.22.19-.15.07-.3.16-.46.19Zm1.48-10.78c-.08-.13-.18-.26-.21-.41-.01-.05.14-.13.21-.2.08.13.16.26.24.39-.09.08-.17.15-.24.22Zm-1.35-.99c-3.22,1.15-6.41,1.06-9.41-.38-.24.25-.83.25-1.07-.03-.04-.05-.05-.15-.02-.2.06-.09.17-.15.29-.19-.09-.05-.19-.09-.28-.15-2.5-1.5-4.27-3.41-5.38-5.71h-1.99c-.15-.57.36-.78.64-1.1.21-.24.43-.47.68-.62-.43-1.41-.67-2.94-.66-4.61.05-5.79.09-11.59.06-17.38-.14.12-.27.24-.32.21-.57-.33-.18-.6.13-.81.04-.03.11-.04.19-.05,0-.64-.01-1.28-.02-1.92-1.01.77-1.57.37-3.28-1.24,1.06.09,2.11-.22,3.27-.12-.01-1.03-.02-2.06-.04-3.08-.11-6.49,4.9-11.5,9.59-12.59,8.19-1.9,13.6,2.6,15.88,8.27.66,1.64.81,3.56.87,5.37.12,3.93.04,7.87.04,11.81,0,3.61-.06,7.23.01,10.84.13,6.22-2.79,11.42-9.18,13.69Zm5.45-2.04c-.08-.13-.18-.26-.21-.41l.21-.2c.08.13.18.26.21.41.01.05-.14.13-.21.2Zm.68,10.9c-.08-.13-.16-.26-.24-.39.09-.08.17-.15.24-.22.08.13.18.26.21.41.01.05-.14.13-.21.2Zm2.05,12.11c-.08-.13-.18-.26-.21-.41-.01-.05.14-.13.21-.2.08.13.18.26.21.41.01.05-.14.13-.21.2Zm.68-6.66c.08.13.18.26.21.41.01.05-.14.13-.21.2-.08-.13-.16-.26-.24-.39.09-.08.17-.15.24-.22Zm.32,1.46c-.11-.1-.21-.21-.34-.33.11-.2.22-.4.34-.6.11.1.31.23.3.31-.05.22-.19.42-.3.63Zm.36-48.45c-.08-.13-.18-.26-.21-.41-.01-.05.14-.13.21-.2.08.13.16.26.24.39-.09.08-.17.15-.24.22Zm.57,47.49c-.06.01-.15-.12-.22-.19.15-.07.3-.16.46-.19.06-.01.15.12.22.19-.15.07-.3.16-.46.19Zm.46-11.69c.15-.07.3-.16.46-.19.06-.01.15.12.22.19-.15.07-.3.16-.46.19-.06.01-.15-.12-.22-.19Zm.13,9.18c.04-.14.14-.27.21-.41.08.07.15.13.24.22-.08.13-.16.26-.24.39-.08-.07-.23-.15-.21-.2Zm.38,5.34c-.11-.1-.31-.23-.3-.31.05-.22.19-.42.3-.63.11.1.21.21.34.33-.11.2-.22.4-.34.6Zm.95-72.03c-.11-.1-.21-.21-.34-.33.11-.2.22-.4.34-.6.11.1.31.23.3.31-.05.22-.19.42-.3.63Zm1.11,53.14c-.22-.05-.43-.19-.64-.29.11-.1.21-.21.34-.33.2.11.41.22.61.33-.11.1-.23.31-.31.29Zm1.74,9.54c-.11-.1-.21-.21-.34-.33.11-.2.22-.4.34-.6.11.1.31.23.3.31-.05.22-.19.42-.3.63Zm.26-15.66c-.05.03-.17.04-.23.01-.35-.17-.36-.77-.02-1,.05-.03.15-.01.23-.02.34.18.36.77.01,1Zm-1.47-2.31c-.12-.15-.31-.3-.34-.47-.22-1.19.38-2.16,1.08-3.11.7.68,1.48.93,2.3.22.11-.1.05-.41.36-.26.16.08.3.29.33.47.04.17-.99,1.91-1.12,1.93-.33.04-.69-.04-.88.35.43.18.88.36,1.35.56-.35.31-.67.6-1,.88-.51-.71-1.32-.57-2.08-.57Zm3.29,10.57c-.06.01-.15-.12-.22-.19.15-.07.3-.15.44-.22.09.08.17.15.24.22-.15.07-.3.16-.46.19Zm.23-16.73c-.16-.03-.31-.12-.46-.19.08-.07.15-.13.24-.22.14.07.29.14.44.22-.08.07-.17.2-.22.19ZM119.59,10.17c.18.07.37.13.55.21.03.01.02.15-.02.2-.25.3-1.01.31-1.11-.02-.1-.34.23-.42.57-.39Zm-.48,20.69c.16.03.31.12.46.19-.08.07-.15.13-.24.22-.14-.07-.29-.14-.44-.22.08-.07.17-.2.22-.19Zm-1.88-10.64c.2.11.41.22.61.33-.11.1-.23.31-.31.29-.22-.05-.43-.19-.64-.29.11-.1.21-.21.34-.33Zm-.08,24.47c.14.02.26.25.36.4.05.07,0,.18,0,.28-.09.15-.21.45-.28.44-.33-.05-.49-.29-.39-.57.07-.19-.33-.64.3-.55Zm-4.83-29.89c.14-.51,1.18-.5,1.54-.03.05.07.06.28.02.3-.25.13-.51.23-.77.33-.47.04-.94-.08-.79-.61Zm1.65,42.17s.02.13.02.2c-.2.3-.87.32-1.13.01-.04-.05-.05-.15-.02-.2.19-.31.87-.32,1.12-.01Zm-2.46-32.97c.22.05.43.19.64.29-.11.1-.21.21-.34.33-.2-.11-.41-.22-.61-.33.11-.1.23-.31.31-.29Zm.5,16.07c-.11.2-.22.4-.34.6-.11-.1-.31-.23-.3-.31.05-.22.19-.42.3-.63.11.1.21.21.34.33Zm-.98-2.06c.08.07.15.13.24.22-.08.13-.16.26-.24.39-.08-.07-.23-.15-.21-.2.04-.14.14-.27.21-.41Zm-3.42-8.48c.49.4.49.81,0,1.21-.49-.4-.49-.81,0-1.21Zm.6,28.59c-.13.12-.23.23-.34.33-.11-.21-.25-.41-.3-.63-.02-.08.19-.2.3-.31.11.2.23.41.34.6Zm-2.09-4.88q1.12.81.93,1.6-1.12-.81-.93-1.6Zm-2.99-41.59c.11.2.23.41.34.6-.13.12-.23.23-.34.33-.11-.21-.25-.41-.3-.63-.02-.08.19-.2.3-.31Zm-5.34,7.84c-.41.72-.86,1.38-1.78,1.52q.1-1.99,1.78-1.52Zm-1.8,1.54c.07.07.02.26.02.4-.19.14-.47.45-.55.41-.57-.33-.18-.6.13-.81.09-.07.33-.06.4,0Zm-.69-4.21c.08.13.18.26.21.41.01.05-.14.13-.21.2-.08-.13-.16-.26-.24-.39.09-.08.17-.15.24-.22Zm-3.42,6.05c.08.07.15.13.24.22-.08.13-.16.26-.24.39-.08-.07-.23-.15-.21-.2.04-.14.14-.27.21-.41Zm-.8-4.35q-.88.74-3.23.5c1.2-.62,2.04-.23,3.23-.5Zm-2.38,3.53c-.09.08-.17.15-.24.22-.08-.13-.18-.26-.21-.41-.01-.05.14-.13.21-.2.08.13.16.26.24.39Zm-3.91,2.07c.35-.47,1.29-.45,1.57.02,0,.11.02.24-.03.31-.35.47-1.3.46-1.56-.02-.04-.08-.03-.24.02-.31Zm-3-19.45c.03-.2.4-.36.63-.49.11-.06.29-.01.44-.01.24.13.7.29.68.38-.07.46-.46.67-.89.53-.3-.09-1,.45-.86-.41Zm.74,5.42c-.05.22-.19.42-.3.63-.11-.1-.21-.21-.34-.33.11-.2.22-.4.34-.6.11.1.31.23.3.31Zm-1.19-4.98c.09-.07.33-.06.4,0,.07.07.02.26.02.4-.19.14-.47.45-.55.41-.57-.33-.18-.6.13-.81Zm-1.96,1.86c.11.2.23.41.34.6-.13.12-.23.23-.34.33-.11-.21-.25-.41-.3-.63-.02-.08.19-.2.3-.31Zm-.32,5c.26-.48,1.21-.49,1.56-.02.05.07.02.21.03.31-.28.47-1.21.49-1.57.02-.05-.07-.07-.23-.02-.31Zm-1.11-1.7c.11-.4.15-.81.26-1.2.02-.07.2-.1.3-.15.41.1.52.86.2,1.5-.06.12-.19.23-.32.28-.43.16-.57.01-.45-.43Zm-.41.45c.09-.07.28-.01.42-.01,0,.14,0,.28,0,.42-.19.14-.47.45-.55.41-.57-.33-.18-.6.13-.81Zm-.37,19.11c-.46.43-.91.43-1.37,0,.46-.43.91-.43,1.37,0Zm-1.94-3.12c.19-.31.87-.32,1.12-.01.04.05.02.13.02.2-.2.3-.87.31-1.13.01-.04-.05-.05-.15-.02-.2Zm-.57-18.86c.16.03.31.12.46.19-.08.07-.15.13-.24.22-.14-.07-.29-.14-.44-.22.08-.07.17-.2.22-.19Zm-.02,12.22c.11.1.31.23.3.31-.05.22-.19.42-.3.63-.11-.1-.21-.21-.34-.33.11-.2.22-.4.34-.6Zm.39,68.38c-.08.13-.16.26-.24.39-.08-.07-.23-.15-.21-.2.04-.14.14-.27.21-.41.08.07.15.13.24.22Zm-1.81-71.66c.11-.1.21-.21.34-.33.2.11.41.22.61.33-.11.1-.23.31-.31.29-.22-.05-.43-.19-.64-.29Zm.44,42c-.08.13-.16.26-.24.39-.08-.07-.23-.15-.21-.2.04-.14.14-.27.21-.41.08.07.15.13.24.22Zm-.93-52.27c.08.13.18.26.21.41.01.05-.14.13-.21.2-.08-.13-.18-.26-.21-.41-.01-.05.14-.13.21-.2Zm-.68,5.45c.31.6,1.19.52,1.97,1.06-.69.08-.99.14-1.3.14-1.12,0-1.19-.13-.67-1.21Zm-.58,45.5c.1.16.17.33.24.49.03.3-.06.6-.44.51-.37-.09-.36-.75-.02-.98.05-.03.21-.04.22-.01Zm-.62-24.29c-.11-.21-.25-.41-.3-.63-.02-.08.19-.2.3-.31.11.2.23.41.34.6-.13.12-.23.23-.34.33Zm-.16-15.15c.08.13.18.26.21.41.01.05-.14.13-.21.2-.08-.13-.18-.26-.21-.41-.01-.05.14-.13.21-.2Zm.33,8.77c.08-.02.21.19.31.29-.21.1-.41.24-.64.29-.08.02-.21-.19-.31-.29.21-.1.41-.24.64-.29Zm-2.06-9.54c.11.2.23.41.34.6-.13.12-.23.23-.34.33-.11-.21-.25-.41-.3-.63-.02-.08.19-.2.3-.31Zm-.32,15.89c.08.13.18.26.21.41.01.05-.14.13-.21.2-.08-.13-.18-.26-.21-.41-.01-.05.14-.13.21-.2Zm-1.58-14.02c.11.1.21.21.34.33-.11.2-.22.4-.34.6-.11-.1-.31-.23-.3-.31.05-.22.19-.42.3-.63Zm.56,36.72c-.08.07-.15.13-.24.22-.14-.07-.29-.14-.44-.22.08-.07.17-.2.22-.19.16.03.31.12.46.19Zm-2.46-39.53c.11.1.21.21.34.33-.11.2-.22.4-.34.6-.11-.1-.31-.23-.3-.31.05-.22.19-.42.3-.63Zm.55,6.57s-.05-.02-.06-.03c-.07-.07-.07-.31,0-.39.15-.18.36-.3.54-.45.11.11.31.26.29.3-.11.2-.25.41-.43.55-.05.04-.17.06-.27.04-.7,1.02-1.11,2.26-2.95,1.61.63-1.19,1.43-1.82,2.89-1.62Zm-.61,7.73c-.06.01-.15-.12-.22-.19.15-.07.3-.15.44-.22.09.08.17.15.24.22-.15.07-.3.16-.46.19Zm.35.99c-.05.22-.19.42-.3.63-.11-.1-.21-.21-.34-.33.11-.2.22-.4.34-.6.11.1.31.23.3.31Zm-.44-3.69c.1-.33.85-.32,1.11-.02.04.05.04.18.02.2-.18.08-.37.15-.55.21-.34.03-.67-.05-.57-.39Zm-.8,17.42c-.11-.21-.25-.41-.3-.63-.02-.08.19-.2.3-.31.11.2.23.41.34.6-.13.12-.23.23-.34.33Zm.3,28.71c.02.08-.19.2-.3.31-.11-.2-.23-.41-.34-.6.13-.12.23-.23.34-.33.11.21.25.41.3.63Zm-2.03-60.36c.08-.02.21.19.31.29-.21.1-.41.24-.64.29-.08.02-.21-.19-.31-.29.21-.1.41-.24.64-.29Zm-1.41,31.98c.14-.51,1.18-.5,1.54-.03.05.07.06.28.02.3-.25.13-.51.23-.77.33-.47.04-.94-.08-.79-.61Zm.77,63.75c.64-.67,1.27-.67,1.9,0-.63.67-1.27.67-1.9,0Zm3.32-1.42c-.3.04-.62.01-.92.01s-.65.07-.92-.03c-.18-.07-.29-.37-.36-.59-.02-.07.19-.3.31-.3.62-.03,1.24-.05,1.85.01.15.02.29.37.36.59.02.07-.19.28-.31.3Zm.85,7.78c-.14-.07-.29-.14-.44-.22.08-.07.17-.2.22-.19.16.03.31.12.46.19-.08.07-.15.13-.24.22Zm.93-33.32c-.13.09-.34.29-.39.26-.41-.21-.13-.39.09-.53.07-.04.24-.04.29,0,.05.05.01.17.01.26Zm1.05-.92c-.31.25-.48.71-1.05.65-.3-.85.38-1.28.97-1.77.6.34.54.75.08,1.12Zm.44-39.5c.04-.14.14-.27.21-.41.08.07.15.13.24.22-.08.13-.16.26-.24.39-.08-.07-.23-.15-.21-.2Zm.53,16.41c.31.29.47.57.5.86.06,0,.14.12.21.18-.08.03-.15.07-.23.11-.06.24-.22.48-.48.73-.68-.63-.68-1.25,0-1.88Zm-.3,12.8c.05-.22.19-.42.3-.63.11.1.21.21.34.33-.11.2-.22.4-.34.6-.11-.1-.31-.23-.3-.31Zm1.69,10.64c-.46.43-.91.43-1.37,0,.46-.43.91-.43,1.37,0Zm.69,21.61c.1-.12.26-.2.39-.29.08.07.22.17.21.19-.07.11-.16.21-.26.29.04,0,.07,0,.11-.01-1.1.91-1.77.85-2.49.43.49-.56,1.14-.33,2.03-.38-.04-.06-.04-.18,0-.23Zm.29,4.05c-.21.1-.41.24-.64.29-.08.02-.21-.19-.31-.29.21-.1.41-.24.64-.29.08-.02.21.19.31.29Zm-.62,7.09c-.53-.04-1.11.19-1.6-.17.53-.45.53-.45,2.63-.23-.35.53-.72.42-1.03.39Zm1.04-28.14c-.27.1-.61.03-.92.03s-.62.03-.92-.01c-.12-.02-.33-.23-.31-.3.07-.22.21-.58.36-.59.61-.07,1.23-.04,1.85-.01.11,0,.33.24.31.3-.07.22-.19.53-.36.59Zm.11-2.81c-.18-.07-.29-.37-.36-.59-.02-.07.19-.3.31-.3.62-.03,1.24-.05,1.85.01.15.02.29.37.36.59.02.07-.19.28-.31.3-.3.05-.61.01-.92.01s-.65.07-.92-.03Zm1.7,25.13c-.13-.12-.23-.23-.34-.33.21-.1.41-.24.64-.29.08-.02.21.19.31.29-.21.11-.41.22-.61.33Zm1.56-5.25v.19c-.19.14-.47.45-.55.41-.57-.33-.18-.6.13-.81.09-.06.24-.02.38-.01-.07-1.05-1.94-1.54-.49-2.75.31.27.6.56.94.81.48.34.68,1.08,1.45,1.01.47-.05.82.07.84.62-.82.74-1.8-.04-2.71.55Zm8.07-1.17c-.11-.2-.23-.41-.34-.6.13-.12.23-.23.34-.33.11.21.25.41.3.63.02.08-.19.2-.3.31Zm9.49,9.72c-.16-.03-.31-.12-.46-.19.08-.07.15-.13.24-.22.14.07.29.14.44.22-.08.07-.17.2-.22.19Zm2.83-3.71c-.25.3-.93.29-1.12-.01-.03-.05-.02-.15.02-.2.25-.3.93-.29,1.13.01,0,.07.02.16-.02.2Zm2.18,12c.46-.43.91-.43,1.37,0-.46.43-.91.43-1.37,0Zm1.81-5.84c-.14-.07-.29-.14-.44-.22.08-.07.17-.2.22-.19.16.03.31.12.46.19-.08.07-.15.13-.24.22Zm1.93-52.15h0c0,8.07-.07,16.15.02,24.22.09,8.56-6.45,14.39-14.39,13.81-.27.14-.7-.03-.97.11-.39.2-.68.59-1.01.9-.31-.69-.45-1.11-.42-1.39-4.26-1.16-7.84-4.65-9.16-9.82-.31-1.21-.41-2.5-.41-3.76-.03-16.05-.12-32.11.02-48.16,0,0,0,0,0,0,0,0,0,0,0,0,0-.28,0-.57,0-.85.07-7.82,7.41-14.26,15.76-12.74,6.42,1.16,10.66,7.5,10.57,13.28-.13,8.14-.03,16.27-.03,24.41Zm.6-26.57c-.13-.12-.23-.23-.34-.33.21-.1.41-.24.64-.29.08-.02.21.19.31.29-.21.11-.41.22-.61.33Zm-.77-14.94c-.59-.51-1.04-.89-1.5-1.29,1.01-.78,1.95-.79,2.92,0-.45.41-.89.81-1.41,1.3Zm3.13,66.23c-.25.13-.51.23-.77.33-.47.04-.94-.08-.79-.61.14-.51,1.18-.5,1.54-.03.05.07.06.28.02.3Zm-.7-61.85c-.34-.06-.57-.22-.54-.59.04-.46.31-.68.85-.61.35.04.53.24.53.6,0,.46-.31.7-.84.61Zm1.18,50.25c-.08-.13-.18-.26-.21-.41-.01-.05.14-.13.21-.2.08.13.16.26.24.39-.09.08-.17.15-.24.22Zm.57-40.06c-.06.01-.15-.12-.22-.19.15-.07.3-.15.44-.22.09.08.17.15.24.22-.15.07-.3.16-.46.19Zm.57,47.12c-.03-.05-.02-.15.02-.2.25-.3.93-.29,1.13.01,0,.07.02.16-.02.2-.25.3-.93.29-1.12-.01Zm.91,35.73c-.11-.2-.23-.41-.34-.6.13-.12.23-.23.34-.33.11.21.25.41.3.63.02.08-.19.2-.3.31Zm0-52.38c-.11-.21-.25-.41-.3-.63-.02-.08.19-.2.3-.31.11.2.23.41.34.6-.13.12-.23.23-.34.33Zm.58-27.85c.14.07.29.14.44.22-.08.07-.17.2-.22.19-.16-.03-.31-.12-.46-.19.08-.07.15-.13.24-.22Zm.36,49.38c-.11-.2-.23-.41-.34-.6.13-.12.23-.23.34-.33.11.21.25.41.3.63.02.08-.19.2-.3.31Zm.3-8.42c-.06.01-.15-.12-.22-.19.15-.07.3-.15.44-.22.09.08.17.15.24.22-.15.07-.3.16-.46.19Zm1.14-30.75c.56-.01,1.12,0,1.67,0,.4.28.71.62,1.11.93-.77.45-1.45.25-2.09.26-.41,0-.89.19-1.25-.17-.05-1-.05-1,.55-1.02Zm.35,22.39c-.08-.07-.23-.15-.21-.2.04-.14.14-.27.21-.41.08.07.15.13.24.22-.08.13-.16.26-.24.39Zm1.71,11.17c-.14.09-.34.29-.39.26-.41-.21-.13-.39.09-.53.07-.04.24-.04.29,0,.05.05.01.17.01.26Zm.64-.28c-.22-.06-.72.29-.62-.27.02-.13.28-.23.46-.32.08-.04.21,0,.31,0,.17.08.5.19.49.25-.05.29-.33.43-.64.35Zm1.17-17.04c-.29.05-.7.09-.91-.04-.87-.56-1.85-.91-2.94-1.31.86-1.25,2.02-.99,3.15-.92.44.31.2.89.67,1.28.49.4.39.93.03.99Zm.59,18.26c-.08-.07-.23-.15-.21-.2.04-.14.14-.27.21-.41.08.07.15.13.24.22-.08.13-.16.26-.24.39Zm.32-51.79c-.05.11-.27.19-.43.23-.05.01-.22-.12-.22-.2-.02-.39-.04-.79.01-1.18.01-.09.27-.18.43-.23.05-.01.21.12.22.2.03.19.01.39.01.59s.05.41-.02.58Zm.36,56.63c-.08-.13-.18-.26-.21-.41-.01-.05.14-.13.21-.2.08.13.16.26.24.39-.09.08-.17.15-.24.22Zm1.6-52.88c-.18.08-.37.15-.55.21-.34.03-.67-.05-.57-.39.1-.33.85-.32,1.11-.02.04.05.04.18.02.2Zm.18,8.94c.03-.08.19-.2.21-.19.15.09.36.18.39.31.06.27.02.56.02.84-.11,0-.23.03-.31,0-.44-.23-.44-.58-.31-.95Zm.38,7.53c-.14-.07-.29-.14-.44-.22.08-.07.17-.2.22-.19.16.03.31.12.46.19-.08.07-.15.13-.24.22Zm.91,23.91s-.23.03-.31-.02c-.48-.35-.49-1.38.03-1.52.53-.14.66.32.61.78-.1.25-.2.51-.33.76Zm.33-7.8c.64-.67,1.27-.67,1.9,0-.63.67-1.27.67-1.9,0Zm2.38-39.78c-.11-.1-.21-.21-.34-.33.11-.2.22-.4.34-.6.11.1.31.23.3.31-.05.22-.19.42-.3.63Zm-7.25,128.37c.16.03.31.12.46.19-.08.07-.15.13-.24.22-.14-.07-.29-.14-.44-.22.08-.07.17-.2.22-.19Zm-9.83,22.29c-.11-.21-.25-.41-.3-.63-.02-.08.19-.2.3-.31.11.2.23.41.34.6-.13.12-.23.23-.34.33Zm7.21-27.25c-.08-.07-.23-.15-.21-.2.04-.14.14-.27.21-.41.08.07.15.13.24.22-.08.13-.16.26-.24.39Zm.68,12.71c-.08-.13-.16-.26-.24-.39.09-.08.17-.15.24-.22.08.13.18.26.21.41.01.05-.14.13-.21.2Zm.68-4.84c-.08-.13-.18-.26-.21-.41-.01-.05.14-.13.21-.2.08.13.18.26.21.41.01.05-.14.13-.21.2Zm0-1.21c-.08-.07-.23-.15-.21-.2.04-.14.14-.27.21-.41.08.07.15.13.24.22-.08.13-.16.26-.24.39Zm.34-8.17c.15-.07.3-.16.46-.19.06-.01.15.12.22.19-.15.07-.3.15-.44.22-.09-.08-.17-.15-.24-.22Zm1.83,31.23c-.25.13-.51.23-.77.33-.47.04-.94-.08-.79-.61.14-.51,1.18-.5,1.54-.03.05.07.06.28.02.3Zm-.48-31.67c-.08.02-.21-.19-.31-.29.21-.1.41-.24.64-.29.08-.02.21.19.31.29-.21.1-.41.24-.64.29Zm1.11-5.44c-.11-.21-.25-.41-.3-.63-.02-.08.19-.2.3-.31.11.21.25.41.3.63.02.08-.19.2-.3.31Zm1.29,16.47c-.08-.13-.18-.26-.21-.41-.01-.05.14-.13.21-.2.08.13.16.26.24.39-.09.08-.17.15-.24.22Zm0-3.63c-.08-.13-.18-.26-.21-.41-.01-.05.14-.13.21-.2.08.13.16.26.24.39-.09.08-.17.15-.24.22Zm1.72,30.05c-.22-.05-.43-.19-.64-.29.11-.1.21-.21.34-.33.2.11.41.22.61.33-.11.1-.23.31-.31.29Zm-.33-15.91c-.08.02-.21-.19-.31-.29.21-.11.41-.22.61-.33.13.12.23.23.34.33-.21.1-.41.24-.64.29Zm1.91-12.21c.16.03.31.12.46.19-.08.07-.15.13-.24.22-.14-.07-.29-.14-.44-.22.08-.07.17-.2.22-.19Zm1.01,17.85c-.25.3-1.01.31-1.11-.02-.1-.34.23-.42.57-.39.18.07.37.13.55.21.03.01.02.15-.02.2Zm1.17-19.65c-.2-.11-.41-.22-.61-.33.11-.1.23-.31.31-.29.22.05.43.19.64.29-.11.1-.21.21-.34.33Zm-.3-1.91c-.08.02-.21-.19-.31-.29.21-.1.41-.24.64-.29.08-.02.21.19.31.29-.21.1-.41.24-.64.29Zm3.01,19.94c.08.13.16.26.24.39-.09.08-.17.15-.24.22-.08-.13-.18-.26-.21-.41-.01-.05.14-.13.21-.2Zm1.26,1.44c-.25.13-.51.23-.77.33-.47.04-.94-.08-.79-.61.14-.51,1.18-.5,1.54-.03.05.07.06.28.02.3Zm1.02-3.47c-.18.08-.37.15-.55.21-.34.03-.67-.05-.57-.39.1-.33.85-.32,1.11-.02.04.05.04.18.02.2Zm-.55-35.69c-.08.02-.21-.19-.31-.29.21-.11.41-.22.61-.33.13.12.23.23.34.33-.21.1-.41.24-.64.29Zm1.57,6.74c-.06.01-.15-.12-.22-.19.15-.07.3-.16.46-.19.06-.01.15.12.22.19-.15.07-.3.16-.46.19Zm54.59-35.58c.11.2.23.41.34.6-.13.12-.23.23-.34.33-.11-.21-.25-.41-.3-.63-.02-.08.19-.2.3-.31Zm-3.01,2.05c.22.05.43.19.64.29-.11.1-.21.21-.34.33-.2-.11-.41-.22-.61-.33.11-.1.23-.31.31-.29Zm-1.74,8.25c.11.2.23.41.34.6-.13.12-.23.23-.34.33-.11-.21-.25-.41-.3-.63-.02-.08.19-.2.3-.31Zm-1.88-4.87c.08.13.18.26.21.41.01.05-.14.13-.21.2-.08-.13-.16-.26-.24-.39.09-.08.17-.15.24-.22Zm-3.52-5.33c.38-.09.47.21.44.51-.08.16-.15.33-.24.49-.02.02-.17.02-.22-.01-.34-.23-.35-.89.02-.98Zm-2.63-4.96c.08.13.18.26.21.41.01.05-.14.13-.21.2-.08-.13-.16-.26-.24-.39.09-.08.17-.15.24-.22Zm-1.47,17.64c.14.07.29.14.44.22-.08.07-.17.2-.22.19-.16-.03-.31-.12-.46-.19.08-.07.15-.13.24-.22Zm-3.77.72c0,.07.02.16-.02.2-.25.3-.93.29-1.12-.01-.03-.05-.02-.15.02-.2.25-.3.93-.29,1.13.01Zm-.68-2.23c-.2.3-.87.31-1.13.01-.04-.05-.05-.15-.02-.2.19-.31.87-.32,1.12-.01.04.05.02.13.02.2Zm-.82-17.86c.09.08.17.15.24.22-.15.07-.3.16-.46.19-.06.01-.15-.12-.22-.19.15-.07.3-.15.44-.22Zm-23.34,44.7c-.08-.07-.23-.15-.21-.2.04-.14.14-.27.21-.41.08.07.15.13.24.22-.08.13-.16.26-.24.39Zm20.39-18.89c-.39-.28-.34-.66.19-1.19.28.4.54.77.81,1.15-.21.22-.64.3-1.01.04Zm.22-22.18c.09.08.17.15.24.22-.15.07-.3.16-.46.19-.06.01-.15-.12-.22-.19.15-.07.3-.15.44-.22Zm-.99,19.48c.25-.3.93-.29,1.13.01,0,.07.02.16-.02.2-.25.3-.93.29-1.12-.01-.03-.05-.02-.15.02-.2Zm-5.47,2.42c.25-.3.93-.29,1.13.01,0,.07.02.16-.02.2-.25.3-.93.29-1.12-.01-.03-.05-.02-.15.02-.2Zm-.38-9.25s-.02.04-.04.07c.06.1.12.2.18.29-.09.08-.17.15-.24.22-.04-.07-.08-.13-.12-.19-.04.07-.08.15-.12.22-.11-.1-.31-.23-.3-.31.05-.22.19-.42.3-.63.11.1.21.21.34.33Zm-.44-9.41c-.46.43-.91.43-1.37,0,.46-.43.91-.43,1.37,0Zm-2.61-4.83c.13.12.23.23.34.33-.21.1-.41.24-.64.29-.08.02-.21-.19-.31-.29.21-.11.41-.22.61-.33Zm-1.09,19.52c.11.2.23.41.34.6-.13.12-.23.23-.34.33-.11-.21-.25-.41-.3-.63-.02-.08.19-.2.3-.31Zm-3.58,8.12c.38-.09.47.21.44.51-.08.16-.15.33-.24.49-.02.02-.17.02-.22-.01-.34-.23-.35-.89.02-.98Zm-.58-29.77c.08.07.15.13.24.22-.08.13-.16.26-.24.39-.08-.07-.23-.15-.21-.2.04-.14.14-.27.21-.41Zm-.33,26.37c.1-.12.26-.2.39-.29.08.07.22.17.21.19-.08.13-.18.26-.31.36-.06.04-.24.04-.29,0-.05-.05-.05-.2,0-.25Zm0,.28s.04.2,0,.26c-.26.39-.66.39-1.08.28-.09-.02-.23-.17-.22-.19.1-.13.21-.32.35-.35.31-.05.63-.02.95,0Zm-.68-22.1c-.46.43-.91.43-1.37,0,.46-.43.91-.43,1.37,0Zm-2.61,7.77s.14-.13.21-.2c.08.13.16.26.24.39,0,0,0,0-.01.01.07.06.16.18.23.26-.21.1-.41.24-.64.29-.08.02-.21-.19-.31-.29.13-.06.26-.14.4-.2-.05-.08-.1-.17-.12-.26Zm-1.84,10.69c.57.61.57,1.22,0,1.83-.57-.61-.57-1.22,0-1.83Zm-3.75,22.9c.01-.16.2-.31.3-.47.36.54,1.08.51,1.6.78.04.02.05.15.02.2-.05.08-.14.19-.23.2-.22.03-.44,0-.66,0-.9,0-1.08-.12-1.03-.72Zm-.36-16.84c.08.07.15.13.24.22-.08.13-.16.26-.24.39-.08-.07-.23-.15-.21-.2.04-.14.14-.27.21-.41Zm-1.58,18.37c.1-.33.85-.32,1.11-.02.04.05.04.18.02.2-.18.08-.37.15-.55.21-.34.03-.67-.05-.57-.39Zm-4.62-10.79c.11.21.25.41.3.63.02.08-.19.2-.3.31-.11-.21-.25-.41-.3-.63-.02-.08.19-.2.3-.31Zm-.17,9.16c-.1-.34.23-.42.57-.39.18.07.37.13.55.21.03.01.02.15-.02.2-.25.3-1.01.31-1.11-.02Zm2.07-2.61c-.11-.21-.25-.41-.3-.63-.02-.08.19-.2.3-.31.11.21.25.41.3.63.02.08-.19.2-.3.31Zm2.2,1.24c-.05.22-.19.42-.3.63-.11-.1-.21-.21-.34-.33.11-.2.22-.4.34-.6.11.1.31.23.3.31Zm-.63-3.87c.08.07.15.13.24.22-.08.13-.16.26-.24.39-.08-.07-.23-.15-.21-.2.04-.14.14-.27.21-.41Zm0,4.24c.08.13.18.26.21.41.01.05-.14.13-.21.2-.08-.13-.16-.26-.24-.39.09-.08.17-.15.24-.22Zm-.61,6.82c-.11-.21-.25-.41-.3-.63-.02-.08.19-.2.3-.31.11.2.23.41.34.6-.13.12-.23.23-.34.33Zm0-32.76c.11.1.31.23.3.31-.05.22-.19.42-.3.63-.11-.1-.21-.21-.34-.33.11-.2.22-.4.34-.6Zm-1.27,16.24c.26-.48,1.21-.49,1.56-.02.05.07.02.21.03.31-.28.47-1.21.49-1.57.02-.05-.07-.07-.23-.02-.31Zm-.16,14.18c-.21.11-.41.22-.61.33-.13-.12-.23-.23-.34-.33.21-.1.41-.24.64-.29.08-.02.21.19.31.29Zm-2.37-51.01c.11.21.25.41.3.63.02.08-.19.2-.3.31-.11-.21-.25-.41-.3-.63-.02-.08.19-.2.3-.31Zm83.02-51.31c.08.13.18.26.21.41.01.05-.14.13-.21.2-.08-.13-.18-.26-.21-.41-.01-.05.14-.13.21-.2Zm-1.25-39.23c.06-.01.15.12.22.19-.15.07-.3.16-.46.19-.06.01-.15-.12-.22-.19.15-.07.3-.16.46-.19Zm.33,8.67c-.63.67-1.27.67-1.9,0,.64-.67,1.27-.67,1.9,0Zm-6.72-1.41c.16.03.31.12.46.19-.08.07-.15.13-.24.22-.14-.07-.29-.14-.44-.22.08-.07.17-.2.22-.19Zm-2.3,1.88c.68.63.68,1.25,0,1.88-.68-.63-.68-1.25,0-1.88Zm-2.06,10.47c.22.05.43.19.64.29-.11.1-.21.21-.34.33-.2-.11-.41-.22-.61-.33.11-.1.23-.31.31-.29Zm-.65-5.66c.13.12.23.23.34.33-.21.1-.41.24-.64.29-.08.02-.21-.19-.31-.29.21-.11.41-.22.61-.33Zm-1.09-18.86c.11.21.25.41.3.63.02.08-.19.2-.3.31-.11-.2-.23-.41-.34-.6.13-.12.23-.23.34-.33Zm-3.32,5.4c.91-.01,1.82,0,2.7,0,.34.3.66.59,1.03.91-.75.33-1.48.66-2.17.96-.81-.47-1.31-1.06-1.93-1.58.21-.16.29-.28.37-.28Zm.87,4.63s-.14.13-.21.2c-.08-.13-.16-.26-.24-.39.09-.08.17-.15.24-.22.08.13.18.26.21.41Zm-1.58,9.88c.08.07.23.15.21.2-.04.14-.14.27-.21.41-.08-.07-.15-.13-.24-.22.08-.13.16-.26.24-.39Zm-1.81-3.85c-.09.08-.17.15-.24.22-.08-.13-.18-.26-.21-.41-.01-.05.14-.13.21-.2.08.13.16.26.24.39Zm-.5-15.74c.38.52.24,1.1-.33,1.56-.31-.32-.63-.63-.92-.97-.15-.17-.22-.41-.33-.63.57-.42,1.16-.55,1.58.04Zm-7.11,10.14c.22.05.43.19.64.29-.11.1-.21.21-.34.33-.2-.11-.41-.22-.61-.33.11-.1.23-.31.31-.29Zm-1.8-1.1c.18.14.31.35.46.53-.11.11-.26.31-.3.29-.21-.11-.41-.25-.56-.43-.07-.08-.07-.32,0-.39.07-.07.31-.07.4,0Zm.49,9.74s-.14.13-.21.2c-.08-.13-.18-.26-.21-.41-.01-.05.14-.13.21-.2.08.13.18.26.21.41Zm-1.99-10.67c.26-.03.54.08.8.17.12.04.24.19.29.31.17.43,0,.58-.43.43-.29,0-.61.07-.88-.02-.2-.07-.34-.34-.5-.53.24-.13.47-.33.72-.37Zm-.95,13.89c.08.07.15.13.24.22-.08.13-.16.26-.24.39-.08-.07-.23-.15-.21-.2.04-.14.14-.27.21-.41Zm-1.71-17.25c-.46.43-.91.43-1.37,0,.46-.43.91-.43,1.37,0Zm-2.62,16.25c.19-.31.87-.32,1.12-.01.04.05.02.13.02.2-.2.3-.87.32-1.13.01-.04-.05-.05-.15-.02-.2Zm.21,2.06c.11.21.25.41.3.63.02.08-.19.2-.3.31-.11-.2-.23-.41-.34-.6.13-.12.23-.23.34-.33Zm-2.68-22.23c.3-.02.72-.15.86.2.1.23.03.52,0,.79,0,.07-.14.14-.22.21-.31-.27-.63-.54-.91-.83-.03-.04.16-.35.27-.36Zm1.12,4.11c-.13.12-.23.23-.34.33-.11-.21-.25-.41-.3-.63-.02-.08.19-.2.3-.31.11.2.23.41.34.6Zm-3.8,1.6c-.11.2-.22.4-.34.6-.11-.1-.31-.23-.3-.31.05-.22.19-.42.3-.63.11.1.21.21.34.33Zm.14,2.01c-.11.1-.21.21-.34.33-.2-.11-.41-.22-.61-.33.11-.1.23-.31.31-.29.22.05.43.19.64.29Zm-1.81-4.52c.25-.3.93-.29,1.13.01,0,.07.02.16-.02.2-.25.3-.93.29-1.12-.01-.03-.05-.02-.15.02-.2Zm-.1,16.02c.86-.78.7-1.75.58-2.89.75,0,1.09-.02,1.42,0,.52.03.89.39.7.72-.35.58-.74,1.09-.73,1.82,0,.36-.61.75-1,1.07-.12.1-.54.1-.63,0-.19-.2-.42-.64-.34-.72Zm-.46,1.14c.11.1.21.21.34.33-.11.2-.22.4-.34.6-.11-.1-.31-.23-.3-.31.05-.22.19-.42.3-.63Zm-1.16-.29c.06-.01.15.12.22.19-.15.07-.3.16-.46.19-.06.01-.15-.12-.22-.19.15-.07.3-.16.46-.19Zm-1.48-10.4c.08.13.16.26.24.39-.09.08-.17.15-.24.22-.08-.13-.18-.26-.21-.41-.01-.05.14-.13.21-.2Zm-1.88,11.66c.05.01.07.13.11.19-.08.26-.63.33-1.1.13-.09-.04-.17-.12-.21-.2-.12-.28,0-.36.31-.28.29.07.59.1.88.17Zm-1.5-.16c-.11-.12-.33-.3-.3-.35.24-.36.44-.12.59.08.05.06,0,.18,0,.27h-.3Zm.29-11.08c.2.03.37.39.5.62.06.11.01.28.01.43-.13.24-.3.69-.39.67-.46-.07-.68-.45-.54-.88.09-.3-.46-.99.42-.85Zm-.45-.44c.07.09.01.27.01.41h-.42c-.15-.18-.46-.46-.41-.54.33-.56.6-.18.82.13Zm-4.73-7.55c-.64.67-1.27.67-1.9,0,.64-.67,1.27-.67,1.9,0Zm-6.08.3c.08.07.15.13.24.22-.08.13-.16.26-.24.39-.08-.07-.23-.15-.21-.2.04-.14.14-.27.21-.41Zm-1.99,18.89c.11.1.31.23.3.31-.05.22-.19.42-.3.63-.11-.1-.21-.21-.34-.33.11-.2.22-.4.34-.6Zm-2.35-16.85c.25.1.52.2.77.33.04.02.03.23-.02.3-.35.47-1.4.48-1.54-.03-.14-.53.32-.65.79-.61Zm.88,3.33c-.62.7-1.42.39-2.12.38-.43,0-.79-.35-.68-.91.92.18,2.01-.47,2.8.52Zm-2.58-2.84c.06-.01.15.12.22.19-.15.07-.3.16-.46.19-.06.01-.15-.12-.22-.19.15-.07.3-.16.46-.19Zm-.23,1.9c.07.09.01.27.01.41h-.42c-.15-.18-.46-.46-.41-.54.33-.56.6-.18.82.13Zm-.99,6.26c.08-.14.31-.64.67-.18.11.14.13.37.09.54-.08.3-.3.5-.69.43-.41-.07-.89.18-1.24-.2.02-.75.92-.14,1.18-.6Zm-2.18-5.71c.13.12.23.23.34.33-.21.1-.41.24-.64.29-.08.02-.21-.19-.31-.29.21-.11.41-.22.61-.33Zm-1.49-6.2c.08.13.18.26.21.41.01.05-.14.13-.21.2-.08-.13-.18-.26-.21-.41-.01-.05.14-.13.21-.2Zm-4.82,13.95c.99-.58,1.03-.61,1.17-1.06.47-.39,1.06-.13,1.6-.17.49-.04,1.01-.02,1.71-.01-.05-.05-.05-.14,0-.28.08-.26.11-.52.19-.78.01-.05.14-.07.22-.1.3.07.38.56.15.97-.04.08-.14.15-.23.18,0,0-.01,0-.02,0h0c-1.02,1.02-2.05.31-2.83.73.26-.33-.52-.02-.18.23.5.38,1.37.17,1.66.84.51-.26.86-1.12,1.65-.36-.33.96-1.53.91-2.23,1.46-.33.26-1.07.11-1.62.13-.81.04-1.15-.53-1.5-1.01-.16-.21-.05-.58.28-.78Zm-3.27-18.07c.06-.01.15.12.22.19-.15.07-.3.16-.46.19-.06.01-.15-.12-.22-.19.15-.07.3-.16.46-.19Zm-.02,19.34c.09.08.17.15.24.22-.15.07-.3.16-.46.19-.06.01-.15-.12-.22-.19.15-.07.3-.15.44-.22Zm-2.15-16.43c.08.07.15.13.24.22-.08.13-.16.26-.24.39-.08-.07-.23-.15-.21-.2.04-.14.14-.27.21-.41Zm0,1.21c.49.41.49.81,0,1.21-.49-.4-.49-.81,0-1.21Zm-1.37,0c.08.07.23.15.21.2-.04.14-.14.27-.21.41-.08-.07-.15-.13-.24-.22.08-.13.16-.26.24-.39Zm-3.63,20.57c.64-.67,1.27-.67,1.9,0-.64.67-1.27.67-1.9,0Zm.81,5.75c-.13.12-.23.23-.34.33-.11-.21-.25-.41-.3-.63-.02-.08.19-.2.3-.31.11.2.23.41.34.6Zm-.13-26.11c.1-.33.85-.32,1.11-.02.04.05.04.18.02.2-.18.08-.37.15-.55.21-.34.03-.67-.05-.57-.39Zm-1.16,2.21c.08.13.16.26.24.39-.09.08-.17.15-.24.22-.08-.13-.18-.26-.21-.41-.01-.05.14-.13.21-.2Zm-.3,1.16c.14-.51,1.18-.5,1.54-.03.05.07.06.28.02.3-.25.13-.51.23-.77.33-.47.04-.94-.08-.79-.61Zm-.6,23.27c.1-.33.85-.32,1.11-.02.04.05.04.18.02.2-.18.08-.37.15-.55.21-.34.03-.67-.05-.57-.39Zm.28,21c-.13.12-.23.23-.34.33-.11-.21-.25-.41-.3-.63-.02-.08.19-.2.3-.31.11.2.23.41.34.6Zm-.04,12.19c.02.08-.19.2-.3.31-.11-.21-.25-.41-.3-.63-.02-.08.19-.2.3-.31.11.21.25.41.3.63Zm-.55-26.63c.25.19.34.56.04.89-.32.35-.74.3-1.34-.17.45-.25.87-.48,1.3-.72Zm-.69,31.61c.67.61.68,1.23.03,1.84.02.03.04.07.06.1-.09.08-.17.15-.24.22-.08-.13-.18-.26-.21-.41,0-.03.06-.08.13-.13-.43-.54-.35-1.08.24-1.62Zm1.85,10.27c-.61.07-1.23.04-1.85.01-.11,0-.33-.24-.31-.3.07-.22.19-.53.36-.59.27-.1.61-.03.92-.03s.62-.03.92.01c.12.02.33.23.31.3-.07.22-.21.58-.36.59Zm1.29-10.57c-.35.47-1.4.48-1.54-.03-.14-.53.32-.65.79-.61.25.1.52.2.77.33.04.02.03.23-.02.3Zm1.13-17.01c.64-.67,1.27-.67,1.9,0-.64.67-1.27.67-1.9,0Zm2.38,7.96c-.11-.21-.25-.41-.3-.63-.02-.08.19-.2.3-.31.11.21.25.41.3.63.02.08-.19.2-.3.31Zm.61,4.14c-.06.01-.15-.12-.22-.19.15-.07.3-.15.44-.22.09.08.17.15.24.22-.15.07-.3.16-.46.19Zm3.02.36c-.08.02-.21-.19-.31-.29.21-.1.41-.24.64-.29.08-.02.21.19.31.29-.21.1-.41.24-.64.29Zm4.91,1.11c-.11-.1-.21-.21-.34-.33.11-.2.22-.4.34-.6.11.1.31.23.3.31-.05.22-.19.42-.3.63Zm-.16-4.86c-.08.02-.21-.19-.31-.29.21-.11.41-.22.61-.33.13.12.23.23.34.33-.21.1-.41.24-.64.29Zm1.69-7c-.03-.05-.02-.15.02-.2.25-.3.93-.29,1.13.01,0,.07.02.16-.02.2-.25.3-.93.29-1.12-.01Zm2.59,9.66c-.25.13-.51.23-.77.33-.47.04-.94-.08-.79-.61.14-.51,1.18-.5,1.54-.03.05.07.06.28.02.3Zm-.61-12.46c-.02-.08.19-.2.3-.31.11.2.23.41.34.6-.13.12-.23.23-.34.33-.11-.21-.25-.41-.3-.63Zm2.98,11.69c-.08.02-.21-.19-.31-.29.21-.1.41-.24.64-.29.08-.02.21.19.31.29-.21.1-.41.24-.64.29Zm.3-7.45c-.2-.11-.41-.22-.61-.33.11-.1.23-.31.31-.29.22.05.43.19.64.29-.11.1-.21.21-.34.33Zm4.09-3.86c-.18.08-.37.15-.55.21-.34.03-.67-.05-.57-.39.1-.33.85-.32,1.11-.02.04.05.04.18.02.2Zm1.28-2.65c-2.58-.05-5.16.03-7.74-.06-5.75-.21-11.34.62-16.86,2.42,0-4.96.09-9.67-.03-14.38-.11-4.42,1.31-8.06,4.56-11.11,1.97-1.85,4.21-2.86,6.59-3.19.02-.15.09-.3.32-.42.14.1.29.22.44.33.97-.07,1.95-.04,2.96.11,5.83.85,9.69,4.33,11.15,10.13.42,1.66.44,3.43.48,5.16.07,3.03-.05,6.07.04,9.1.04,1.46-.57,1.93-1.91,1.91Zm2.74-36.75c-.14-.53.32-.65.79-.61.25.1.52.2.77.33.04.02.03.23-.02.3-.35.47-1.4.48-1.54-.03Zm1.46,20.63c-.09.08-.17.15-.24.22-.08-.13-.18-.26-.21-.41-.01-.05.14-.13.21-.2.08.13.16.26.24.39Zm-.7,5.44c.64-.67,1.27-.67,1.9,0-.64.67-1.27.67-1.9,0Zm2.05-15.72c-.2.3-.87.31-1.13.01-.04-.05-.05-.15-.02-.2.19-.31.87-.32,1.12-.01.04.05.02.13.02.2Zm.8-11.42c.21-.11.41-.22.61-.33.13.12.23.23.34.33-.21.1-.41.24-.64.29-.08.02-.21-.19-.31-.29Zm1.59,55.51c-.07.05-.24.07-.32.02-.48-.26-.5-1.19-.02-1.54.07-.05.21-.02.32-.03.48.27.49,1.2.02,1.55Zm1.71-42.88c-.2.3-.87.32-1.13.01-.04-.05-.05-.15-.02-.2.19-.31.87-.32,1.12-.01.04.05.02.13.02.2Zm.02-4.68c-.11-.21-.25-.41-.3-.63-.02-.08.19-.2.3-.31.11.21.25.41.3.63.02.08-.19.2-.3.31Zm-.06-10.32c-.27.1-.61.03-.92.03s-.62.03-.92-.01c-.12-.02-.33-.23-.31-.3.07-.22.21-.58.36-.59.61-.07,1.23-.04,1.85-.01.11,0,.33.24.31.3-.07.22-.19.53-.36.59Zm.53,57.59c.64-.67,1.27-.67,1.9,0-.63.67-1.27.67-1.9,0Zm.94-38.85c-.05-.58.27-.83.74-.92.74-.14,1.16.23,1.17.96.11.56-.26.81-.73.9-.74.14-1.12-.23-1.18-.94Zm2.44,12.21c-.39-.34-.71-.63-1.02-.9.25-.43.82-.19,1.15-.43.34-.26.63-.57.97-.84.4-.32.65-.34,1.15-.07.27.14.39.48.82.43.64-.07.74.33.68.75-.04.31-.28.49-.69.46-.92-.07-.48.72-.86,1.08-.5.21-.53-.47-.93-.48-.44,0-.88,0-1.26,0Zm3.66,2.21c-.09.08-.17.15-.24.22-.08-.13-.18-.26-.21-.41-.01-.05.14-.13.21-.2.08.13.16.26.24.39Zm-2.64,15.65c.46-.43.91-.43,1.37,0-.46.43-.91.43-1.37,0Zm1.82,3.81c-.07.04-.43-.12-.43-.18.02-.27.03-.62.22-.77.17-.14.57-.07.87-.06.08,0,.16.13.33.29-.33.24-.64.51-.99.72Zm1.21-17.35c-.25.13-.51.23-.77.33-.47.04-.94-.08-.79-.61.14-.51,1.18-.5,1.54-.03.05.07.06.28.02.3Zm-.17-24.09s.14-.13.21-.2c.08.13.16.26.24.39-.09.08-.17.15-.24.22-.08-.13-.18-.26-.21-.41Zm.33,38c.11-.1.23-.31.31-.29.22.05.43.19.64.29-.11.1-.21.21-.34.33-.2-.11-.41-.22-.61-.33Zm.91-21.55c.08-.07.17-.2.22-.19.01,0,.02,0,.03.01.56-.46,1.12-.39,1.69.2-.64.67-1.27.67-1.9,0,0,0,0,0,0,0-.01,0-.03-.01-.04-.02Zm.04,34.65c.64-.67,1.27-.67,1.9,0-.64.67-1.27.67-1.9,0Zm1.26-21.24c-.08.02-.21-.19-.31-.29.21-.11.41-.22.61-.33.13.12.23.23.34.33-.21.1-.41.24-.64.29Zm.5,2.38c-.11.2-.22.4-.34.6-.11-.1-.31-.23-.3-.31.05-.22.19-.42.3-.63.11.1.21.21.34.33Zm1.5,15.16c-.18.08-.37.15-.55.21-.34.03-.67-.05-.57-.39.1-.33.85-.32,1.11-.02.04.05.04.18.02.2Zm-1.23-7.67c.13-.12.23-.23.34-.33.11.21.25.41.3.63.02.08-.19.2-.3.31-.11-.2-.23-.41-.34-.6Zm1.29-12.5c-.06-.11-.12-.23-.18-.34-.04.06-.09.11-.14.13-.19.06-.44.02-.66.02s-.45.02-.67,0c-.03,0-.07-.03-.11-.05-.2.09-.4.17-.59.25-.47.04-.94-.08-.79-.61.13-.47,1.03-.49,1.44-.12.03-.03.06-.05.08-.05.44-.04.89-.03,1.33,0,.02,0,.05.01.08.03.07-.06.15-.12.21-.18.11.21.25.41.3.63.02.08-.19.2-.3.31Zm-3.48-21c.33-.25.41-.37.49-.37,1.35-.01,2.7-.01,4.05,0,.08,0,.16.13.24.19-.87.53-.92.53-4.79.18Zm5.09-16.14c.35-.47,1.29-.45,1.57.02,0,.11.03.24-.03.31-.35.47-1.3.46-1.56-.02-.04-.08-.03-.24.02-.31Zm.59,28.41c.02.08-.19.2-.3.31-.11-.21-.25-.41-.3-.63-.02-.08.19-.2.3-.31.11.21.25.41.3.63Zm1.55,32.11c-.27.1-.61.03-.92.03s-.62.03-.92-.01c-.12-.02-.33-.23-.31-.3.07-.22.21-.58.36-.59.61-.07,1.23-.04,1.85-.01.11,0,.33.24.31.3-.07.22-.19.53-.36.59Zm-1.03-2.92c-.13-.12-.23-.23-.34-.33.21-.1.41-.24.64-.29.08-.02.21.19.31.29-.21.11-.41.22-.61.33Zm.76,1.44c-.08.07-.15.13-.24.22-.14-.07-.29-.14-.44-.22.08-.07.17-.2.22-.19.16.03.31.12.46.19Zm2.7-18.95c-.13.24-.3.69-.39.67-.46-.07-.68-.45-.54-.88.09-.3-.46-.99.42-.85.2.03.37.39.5.62.06.11.01.28.01.43Zm2.64,14.21c-.25.3-.93.29-1.12-.01-.03-.05-.02-.15.02-.2.25-.3.93-.29,1.13.01,0,.07.02.16-.02.2Zm.7-6.07c-.18.08-.37.15-.55.21-.34.03-.67-.05-.57-.39.1-.33.85-.32,1.11-.02.04.05.04.18.02.2Zm.76,9.32c-.08.02-.21-.19-.31-.29.21-.11.41-.22.61-.33.13.12.23.23.34.33-.21.1-.41.24-.64.29Zm.26-1.96c-.06.01-.15-.12-.22-.19.15-.07.3-.15.44-.22.09.08.17.15.24.22-.15.07-.3.16-.46.19Zm-.39-16.28c-.02-.08.19-.2.3-.31.11.21.25.41.3.63.02.08-.19.2-.3.31-.11-.21-.25-.41-.3-.63Zm1.4,2.27c-.25.3-.93.29-1.12-.01-.03-.05-.02-.15.02-.2.25-.3.93-.29,1.13.01,0,.07.02.16-.02.2Zm2.69,3.03c-.11-.1-.31-.23-.3-.31.05-.22.19-.42.3-.63.11.1.21.21.34.33-.11.2-.22.4-.34.6Zm10.98-.61c-.25.3-.93.29-1.12-.01-.03-.05-.02-.15.02-.2.25-.3.93-.29,1.13.01,0,.07.02.16-.02.2Zm1.96,10.37c-.16-.03-.31-.12-.46-.19.08-.07.15-.13.24-.22.14.07.29.14.44.22-.08.07-.17.2-.22.19Zm-.36-12.81c.08-.13.16-.26.24-.39.08.07.23.15.21.2-.04.14-.14.27-.21.41-.08-.07-.15-.13-.24-.22Zm1.02-2.64c-3.94-.07-7.87-.02-11.81-.02h0c-3.59,0-7.18-.03-10.78,0,0,.03-.02.06-.04.08-.07.07-.27.02-.41.02-.02-.03-.05-.06-.08-.09-.11,0-.21,0-.32,0-1.15.02-1.63-.31-1.62-1.52.04-3.59-.2-7.2,0-10.77-.03.02-.07.03-.1.05-.5-.33-.35-.83-.27-1.24.03-.15.29-.34.51-.41.85-7.13,5.9-12.64,13.58-12.49,6.56.12,12.49,5.55,12.65,11.92.11,4.23.27,8.46.47,12.69.06,1.35-.43,1.81-1.79,1.79Zm1.96-23.78c-.08-.07-.23-.15-.21-.2.04-.14.14-.27.21-.41.08.07.15.13.24.22-.08.13-.16.26-.24.39Zm.58,12.62c-.11-.21-.25-.41-.3-.63-.02-.08.19-.2.3-.31.11.21.25.41.3.63.02.08-.19.2-.3.31Zm2.22,24.94c-.25.13-.51.23-.77.33-.47.04-.94-.08-.79-.61.14-.51,1.18-.5,1.54-.03.05.07.06.28.02.3Zm-.85-7.42c-.42-.27-.34-.65-.03-1,.56.1.77.55,1.14.82-.32.34-.74.42-1.12.18Zm.24-16.9c.05-.22.19-.42.3-.63.11.1.21.21.34.33-.11.2-.22.4-.34.6-.11-.1-.31-.23-.3-.31Zm3.5,22.26c-.25.3-.93.29-1.12-.01-.03-.05-.02-.15.02-.2.25-.3.93-.29,1.13.01,0,.07.02.16-.02.2Zm.32-39.12c-1.36-.02-1.34-1.09-1.84-1.8-.74-.03-1.5-.07-2.31-.1-.06-.68.5-.44.79-.56.29-.12.51-.36.77-.55.53.58,1.24.71,1.97.53.55.31.43.73.43,1.11,0,.43.07.79.71.75.7-.04.78.67,1.32.79-.25.53-.68.48-1.07.34-.29-.11-.51-.5-.77-.5Zm1.23,39.06c.39-.54.85-.47,1.27-.07.29.27.81.43.73.93-.96.27-1.45-.34-2-.86Zm2.49,1.45c-.31,0-.57-.23-.49-.59.66.12,1.45-.31,2.01.34-.45.45-1.02.25-1.53.25Zm2.31-13.04c.03-.08.19-.2.21-.19.15.09.36.18.39.31.06.27.02.56.02.84-.11,0-.23.03-.31,0-.44-.23-.44-.58-.31-.95Zm1.22,1.91c-.24.38-.68.33-1.34.02.31-.28.54-.48.74-.69.33-.35.45-.38.54-.09.08.24.18.57.06.76Zm1.8-25.16c.08.13.16.26.24.39-.09.08-.17.15-.24.22-.08-.13-.18-.26-.21-.41-.01-.05.14-.13.21-.2Zm-.56,10.48c.13-.13.23-.23.34-.33.11.21.25.41.3.63.02.08-.19.2-.3.31-.11-.2-.23-.41-.34-.6Zm1.47,12.91c-.18.08-.37.15-.55.21-.34.03-.67-.05-.57-.39.1-.33.85-.32,1.11-.02.04.05.04.18.02.2Zm.57-32.58c-.16-.03-.31-.12-.46-.19.08-.07.15-.13.24-.22.14.07.29.14.44.22-.08.07-.17.2-.22.19Zm1.14,21.21c-.11-.21-.25-.41-.3-.63-.02-.08.19-.2.3-.31.11.21.25.41.3.63.02.08-.19.2-.3.31Zm1.7,11.99c0,.07-.14.14-.22.21-.31-.27-.63-.54-.91-.83-.03-.04.16-.35.27-.36.3-.02.72-.15.86.2.1.23.03.52,0,.79Zm8.74,74.09c-.11-.21-.25-.41-.3-.63-.02-.08.19-.2.3-.31.11.2.23.41.34.6-.13.12-.23.23-.34.33Zm.56,20.93c-.06.04-.2,0-.3,0,0-.09-.04-.21,0-.26.1-.12.26-.2.39-.29.08.07.22.17.21.19-.08.13-.18.26-.31.36Zm2.12-67.86c-.08.02-.21-.19-.31-.29.21-.1.41-.24.64-.29.08-.02.21.19.31.29-.21.1-.41.24-.64.29Zm-.31-6.84c.21-.1.41-.24.64-.29.08-.02.21.19.31.29-.21.1-.41.24-.64.29-.08.02-.21-.19-.31-.29Zm.97,58.98c-.08-.07-.23-.15-.21-.2.04-.14.14-.27.21-.41.08.07.15.13.24.22-.08.13-.16.26-.24.39Zm10.9,6.97c-.11-.21-.25-.41-.3-.63-.02-.08.19-.2.3-.31.11.2.23.41.34.6-.13.12-.23.23-.34.33Zm.3,2.5c.02.08-.19.2-.3.31-.11-.21-.25-.41-.3-.63-.02-.08.19-.2.3-.31.11.21.25.41.3.63Zm.49,13.24c-.08.02-.21-.19-.31-.29.21-.11.41-.22.61-.33.13.12.23.23.34.33-.21.1-.41.24-.64.29Zm-.17-12.91c.38-.09.47.21.44.51-.08.16-.15.33-.24.49-.02.02-.17.02-.22-.01-.34-.23-.35-.89.02-.98Zm.57-75.76c.04-.14.14-.27.21-.41.08.07.15.13.24.22-.08.13-.16.26-.24.39-.08-.07-.23-.15-.21-.2Zm1.65,64.51c-.11-.21-.25-.41-.3-.63-.02-.08.19-.2.3-.31.11.21.25.41.3.63.02.08-.19.2-.3.31Zm.95-30.89c-.11-.21-.25-.41-.3-.63-.02-.08.19-.2.3-.31.11.2.23.41.34.6-.13.12-.23.23-.34.33Zm.12-35.03c.19-.31.87-.32,1.12-.01.04.05.02.13.02.2-.2.3-.87.32-1.13.01-.04-.05-.05-.15-.02-.2Zm-.12.43c.11.1.21.21.34.33-.11.2-.22.4-.34.6-.11-.1-.31-.23-.3-.31.05-.22.19-.42.3-.63Zm0,11.23c.11.1.21.21.34.33-.11.2-.22.4-.34.6-.11-.1-.31-.23-.3-.31.05-.22.19-.42.3-.63Zm-.95-14.04c.11.1.21.21.34.33-.11.2-.22.4-.34.6-.11-.1-.31-.23-.3-.31.05-.22.19-.42.3-.63Zm-.28,19.91c.25-.3.93-.29,1.13.01,0,.07.02.16-.02.2-.25.3-.93.29-1.12-.01-.03-.05-.02-.15.02-.2Zm-.83,31.35c-.08.02-.21-.19-.31-.29.21-.11.41-.22.61-.33.13.12.23.23.34.33-.21.1-.41.24-.64.29Zm.16-41.91c-.11-.21-.25-.41-.3-.63-.02-.08.19-.2.3-.31.11.2.23.41.34.6-.13.12-.23.23-.34.33Zm0-12.17c.11.21.25.41.3.63.02.08-.19.2-.3.31-.11-.21-.25-.41-.3-.63-.02-.08.19-.2.3-.31Zm-1.11-1.7c.22.05.43.19.64.29-.11.1-.21.21-.34.33-.2-.11-.41-.22-.61-.33.11-.1.23-.31.31-.29Zm-.92,65.44c.2.11.41.22.61.33-.11.1-.23.31-.31.29-.22-.05-.43-.19-.64-.29.11-.1.21-.21.34-.33Zm-2.08-69.04c.26-.48,1.21-.49,1.56-.02.05.07.02.21.03.31-.28.47-1.21.49-1.57.02-.05-.07-.07-.23-.02-.31Zm1.1,14.91s-.14.13-.21.2c-.08-.13-.18-.26-.21-.41-.01-.05.14-.13.21-.2.08.13.18.26.21.41Zm-2.26,1.41c.08.07.15.13.24.22-.08.13-.16.26-.24.39-.08-.07-.23-.15-.21-.2.04-.14.14-.27.21-.41Zm-2.16-12.72c.08-.02.21.19.31.29-.21.1-.41.24-.64.29-.08.02-.21-.19-.31-.29.21-.1.41-.24.64-.29Zm-2.06.76c.11.1.21.21.34.33-.11.2-.22.4-.34.6-.11-.1-.31-.23-.3-.31.05-.22.19-.42.3-.63Zm.36,12.18c-.08.13-.16.26-.24.39-.08-.07-.23-.15-.21-.2.04-.14.14-.27.21-.41.08.07.15.13.24.22Zm-.51,81.59c.8-.29,1.64-.52,2.47-.63,1.46-.18,2.95.03,4.38-.52.27-.1.71.24,1.07.38.08.14.12.29.11.45-.35.16-.7.44-1.05.45-1.86.07-3.7.18-5.45.96-.5.22-1.07.2-1.52-.24-.11-.29-.32-.73-.01-.85Zm-.79-90.96c.11.1.21.21.34.33-.11.2-.22.4-.34.6-.11-.1-.31-.23-.3-.31.05-.22.19-.42.3-.63Zm.14,73.11c.13.12.23.23.34.33-.21.1-.41.24-.64.29-.08.02-.21-.19-.31-.29.21-.11.41-.22.61-.33Zm-1.09-64.68c.11.2.23.41.34.6-.13.12-.23.23-.34.33-.11-.21-.25-.41-.3-.63-.02-.08.19-.2.3-.31Zm.21,63.86c-.09.08-.17.15-.24.22-.08-.13-.18-.26-.21-.41-.01-.05.14-.13.21-.2.08.13.16.26.24.39Zm-.37,22.39c.22.05.43.19.64.29-.11.1-.21.21-.34.33-.2-.11-.41-.22-.61-.33.11-.1.23-.31.31-.29Zm-.93-80.46c.53-.14.66.32.61.78-.1.25-.2.51-.33.76-.02.04-.23.03-.31-.02-.48-.35-.49-1.38.03-1.52Zm-.81-18.9c.11.1.31.23.3.31-.05.22-.19.42-.3.63-.11-.1-.21-.21-.34-.33.11-.2.22-.4.34-.6Zm.48,12.64c-.64.67-1.27.67-1.9,0,.64-.67,1.27-.67,1.9,0Zm-1.94,10.36c.09.08.17.15.24.22-.15.07-.3.16-.46.19-.06.01-.15-.12-.22-.19.15-.07.3-.15.44-.22Zm.13,20.28c.09-.04.25-.04.33,0,.15.09.27.23.4.35-.54.34-.7.69-.04,1.07-.1.13-.17.34-.31.37-.2.06-.59.05-.64-.03-.33-.67-1.25-.36-1.68-.85.64-.31,1.28-.62,1.92-.92Zm-2.07,42.17c-.25.3-.93.29-1.12-.01-.03-.05-.02-.15.02-.2.25-.3.93-.29,1.13.01,0,.07.02.16-.02.2Zm-.4-43.37c.11.2.23.41.34.6-.13.12-.23.23-.34.33-.11-.21-.25-.41-.3-.63-.02-.08.19-.2.3-.31Zm-.85,35.47c-.21-.11-.41-.25-.56-.43-.07-.08-.07-.32,0-.39.07-.07.31-.07.4,0,.18.14.31.35.46.53-.11.11-.27.31-.3.29Zm-.55-21.42c.25.1.52.2.77.33.04.02.03.23-.02.3-.35.47-1.4.48-1.54-.03-.14-.53.32-.65.79-.61Zm-.16,17.18c-.11.2-.22.4-.34.6-.11-.1-.31-.23-.3-.31.05-.22.19-.42.3-.63.11.1.21.21.34.33Zm.13,3c.07.09.07.33,0,.39s-.27.02-.41.02c-.15-.18-.46-.46-.41-.54.33-.56.6-.18.82.13Zm-.63,13.69c.07-.05.21-.02.32-.03.48.27.49,1.2.02,1.55-.07.05-.24.07-.32.02-.48-.26-.5-1.19-.02-1.54Z"/><path class="cls-1" d="m12.07,37.85c-.12.12-.22.26-.34.39.22-.03.33-.15.34-.39Z"/><path class="cls-1" d="m248.06,163.3h0c-.1-.01-.19-.04-.26-.12.07.08.16.1.26.12Z"/><path class="cls-1" d="m85.56,1.08s-.01,0-.02,0c.03,0,.06,0,.09,0-.02,0-.05,0-.07,0Z"/><path class="cls-1" d="m243.7,182.31c-.96.23-1.13-.36-.91-1.33.26-1.13.12-2.28-1.04-2.98,0-.26,0-.53.01-.79,1-.34,1.88.18,2.8.42.03.13.05.26.07.39.31-.08.63-.15.94-.23.01,0,.02,0,.04,0,.45-2.03.83-4.07,1.12-6.14-3.86-.59-7.75-1-11.84-1.03.98-.5,1.83-.45,2.66-.55,1.3-.15,2.23-.78,2.16-2.33-.61-.48-1.56-.26-2.04-1.02-.45.08-.9.16-1.35.24-.98,1.15-1.2,1.15-1.99-.05-.31-.36-.63-.72-.94-1.07-.47.28-.9.9-1.51.25,0-.68,0-1.36-.01-2.03-1.28-.1-2.65.03-3.4-1.41.09-.32.18-.63.27-.95-.1-.12-.22-.22-.3-.35-.18-.3-.74-.52-.47-.91.22-.32.71-.11,1.08,0,1.58-.01,3.12-.31,4.63-.76-.1-.9-.56-1.8-1.45-1.37-.83.39-1.63.45-2.41.38-.06.69-.17.69-1.56.69-.1-.16-.18-.31-.23-.47-.38.03-.76-.08-1.14-.36.17-.12.33-.21.5-.28-.13-.02-.26-.05-.4-.07-.33.02-.65.04-.98.07,0-.15,0-.3,0-.46,0,.15,0,.3,0,.46l-.86.08c-.05.77-.1,1.55-.16,2.32-.03.4-.06.8-.09,1.21.06,0,.12,0,.19,0,.65-.07,1.05.59,1.07,1.33-.01.13-.02.25-.03.38-.46-.02-.92-.03-1.37-.05-.14,1.57-.32,3.15-.62,4.68.59.15,1.18.35,1.75.63-.53.64-1.3.78-2.1.89-.07.28-.15.57-.23.84-.07.23-.14.46-.21.69.67,0,1.34.06,2,.29,1.35-.78,2.65-1.69,4.32-1.51.31.03.63-.05.93.03.37.1.76.3.7.8-.05.42-.42.41-.72.45-.54.07-1.09.07-1.63.16-.56.09-.7.57-.77,1.06.55,0,1.13-.13,1.54.4-.03.72.29,1.53-.48,2.06-1.96-.05-3.57,1.44-5.54,1.31-.67.16-1.19-.22-1.75-.48-.14.45-.3.9-.44,1.36.2.05.37.16.41.4.07.4-.22.64-.51.7-.09.02-.18.02-.27.04-.3.91-.59,1.83-.9,2.74.28.04.56.04.86.03.31-.01.62-.02.93.42-.62.57-1.4.36-2.08.39-.78,2.29-1.61,4.56-2.47,6.81.03.08.06.16.08.24-.1.27-.24.46-.4.59-.25.64-.48,1.28-.73,1.91-4.13,10.25-10.57,19.08-18.14,27.05-2.86,3.01-5.93,5.89-9.24,8.38-4.56,3.43-9.19,6.83-14.11,9.7.01,0,.02,0,.03.01-.08.07-.15.13-.24.22-.03-.02-.07-.03-.1-.05-.23.13-.46.27-.69.4.45-.02.9-.01,1.36,0,.11,0,.33.24.31.3-.07.22-.19.53-.36.59-.27.1-.61.03-.92.03s-.62.03-.92-.01c-.12-.02-.33-.24-.31-.3.02-.06.04-.12.07-.19-7.47,4.13-15.32,7.42-23.65,9.3-.05.1-.11.2-.17.3-.07-.06-.15-.13-.23-.21-.02,0-.03,0-.05.01-.04.12-.1.22-.17.25-.38.13-.92.23-1.22.06,0,0-.01-.01-.02-.02-1.03.2-2.07.4-3.12.56-4.67.71-9.37,1.61-14.07,1.74-5.54.15-11.12-.3-16.66-.73-2.22-.17-4.42-.45-6.61-.82,0,.06.01.13-.02.17-.25.3-.93.29-1.12-.01-.03-.05-.02-.15.02-.2.05-.06.12-.09.19-.13-3.18-.58-6.33-1.36-9.45-2.34.05.08.09.18.12.25.02.04-.13.18-.22.19-.22.03-.44,0-.67,0s-.46.05-.66-.02c-.13-.04-.21-.24-.26-.38-.02-.04.14-.19.22-.2.34-.02.68-.02,1.02,0-8.68-2.77-16.98-6.31-24.62-11.3-8.3-5.42-15.69-11.88-22.15-19.43-4.82-5.62-9.24-11.52-12.43-18.22-2.31-4.86-4.33-9.87-6.32-14.87-3.34-8.37-4.8-17.16-5.25-26.1-.05-1.1-.08-2.21-.1-3.31-.3.08-.66.02-.79-.2-.03-.05-.02-.15.02-.2.16-.19.49-.24.76-.19-.01-.81,0-1.62,0-2.43-.23-.06-.44-.18-.57-.46.18-.17.36-.36.57-.57.01-3.04.08-6.09.07-9.13,0-.15-.01-.29-.02-.44-.06.11-.12.22-.19.33-.11-.1-.31-.23-.3-.31.05-.22.19-.42.3-.63.05.05.11.11.17.16-.02-.25-.04-.48-.05-.7H1.92c.38,8.22.46,16.32,1.21,24.35.03.29.07.58.09.87.13-.07.27-.14.41-.17.08-.02.21.19.31.29-.21.1-.41.24-.64.29-.01,0-.03,0-.04-.01.59,5.82,1.53,11.65,2.98,17.31,2.24,8.72,5.32,17.21,9.55,25.22,1.37,2.6,2.82,5.15,4.33,7.66.06-.11.22-.24.27-.23.22.07.54.18.6.36.1.27.03.6.03.9,0,.15,0,.31,0,.46,3.4,5.47,7.19,10.67,11.58,15.4,3.5,3.77,7.09,7.53,10.86,11.05.19.02.4.01.62-.04-.13.1-.26.19-.39.26.38.35.77.7,1.16,1.05.84-.71.91-.71,3.12-.47-1.09.64-1.91.25-3.07.51,1.91,1.73,3.86,3.4,5.88,4.98,2.38,1.86,4.84,3.59,7.35,5.25.4.08.82-.03,1.24-.4.11-.1.05-.41.36-.26.16.08.3.29.33.47.02.09-.26.63-.55,1.11,8.65,5.54,17.98,9.91,27.87,13.05,6.22,1.97,12.66,3.31,19.05,4.69,3.68.79,7.46,1.41,11.21,1.52,8.55.25,17.07.03,25.58-1.39,6.78-1.13,13.43-2.6,19.97-4.68,7.93-2.52,15.41-6.04,22.76-9.93,6.94-3.68,13.36-8.09,19.23-13.21,4.73-4.12,9-8.78,13.36-13.31,5.69-5.91,10.25-12.66,14.03-19.9,2.95-5.65,5.89-11.35,8.24-17.27,1.43-3.59,2.67-7.24,3.69-10.96-.24-.03-.49-.04-.82.04Zm-17.18-21.86c-.11-.1-.31-.23-.3-.31.05-.22.19-.42.3-.63.11.1.21.21.34.33-.11.2-.22.4-.34.6Zm.52,2.75c-.04-.94.48-.75,1.01-.52-.21.44-.59.51-1.01.52Zm-216.77-15.68c.08-.02.21.19.31.29-.21.11-.41.22-.61.33-.13-.12-.23-.23-.34-.33.21-.1.41-.24.64-.29Zm-.08,11.03c-.15.07-.3.16-.46.19-.06.01-.15-.12-.22-.19.15-.07.3-.16.46-.19.06-.01.15.12.22.19Zm-5.93-20.39c-.06.01-.15-.12-.22-.19.15-.07.3-.15.44-.22.09.08.17.15.24.22-.15.07-.3.16-.46.19Zm1.1,9.18c-.11-.1-.21-.21-.34-.33.11-.2.22-.4.34-.6.11.1.31.23.3.31-.05.22-.19.42-.3.63Zm.95-8.58c-.06.01-.15-.12-.22-.19.15-.07.3-.15.44-.22.09.08.17.15.24.22-.15.07-.3.16-.46.19Zm2.71,17.14c.2.11.41.22.61.33-.11.1-.23.31-.31.29-.22-.05-.43-.19-.64-.29.11-.1.21-.21.34-.33Zm1.84,24.92c-.08.3-.31.49-.7.43-.41-.06-.88.16-1.23-.18.03-.77.93-.17,1.19-.63.08-.14.32-.62.67-.17.11.14.13.38.08.55Zm4.13-30.81c-.2-.11-.41-.22-.61-.33.11-.1.23-.31.31-.29.22.05.43.19.64.29-.11.1-.21.21-.34.33Zm7.31.29c.3-.34.64-.64,1.14-1.13,1.03,1.51-.29,1.96-.85,2.71-.76-.77-.81-1-.29-1.58Zm1.59,12.48c-.96.78-1.91.78-2.88,0,.96-.78,1.91-.78,2.88,0Zm-3.04,24.18c-.05.22-.19.42-.3.63-.11-.1-.21-.21-.34-.33.11-.2.22-.4.34-.6.11.1.31.23.3.31Zm-.74-16c.08.13.18.26.21.41.01.05-.14.13-.21.2-.08-.13-.18-.26-.21-.41-.01-.05.14-.13.21-.2Zm-3.65-20.51c.35-.47,1.29-.45,1.57.02,0,.11.02.24-.03.31-.35.47-1.3.46-1.56-.02-.04-.08-.03-.24.02-.31Zm-.03,35.9c.24-.36.44-.12.59.08.05.06,0,.18,0,.27h-.3c-.11-.12-.33-.3-.3-.35Zm1.01.89c-.15-.07-.3-.16-.4-.27-.05-.05-.05-.21,0-.25.05-.05.23-.05.29,0,.13.09.22.23.33.34-.08.07-.19.2-.22.19Zm1.53,1.67c-.18.08-.37.15-.55.21-.34.03-.67-.05-.57-.39.1-.33.85-.32,1.11-.02.04.05.04.18.02.2Zm.88,1.08c.24-.36.44-.12.59.08.05.06,0,.18,0,.27.47-.02.7.19.68.61-.47.02-.7-.19-.68-.61h-.3c-.11-.12-.33-.3-.3-.35Zm.75,21.01c-.15-.18-.46-.46-.41-.54.33-.56.6-.18.82.13.07.09.07.33,0,.4s-.27.02-.41.02Zm.99.83c-.21-.11-.41-.25-.56-.43-.07-.08-.07-.32,0-.39.07-.07.31-.07.4,0,.18.14.31.35.46.53-.11.11-.27.31-.3.29Zm-.25-20.41c-.09-.04-.17-.12-.21-.2-.12-.28,0-.36.31-.28.29.07.59.1.88.17.05.01.07.13.11.19-.08.26-.63.33-1.1.13Zm-.21-6.23c.46-.43.91-.43,1.37,0-.46.43-.91.43-1.37,0Zm1.79-12.1c.11-.1.23-.31.31-.29.22.05.43.19.64.29-.11.1-.21.21-.34.33-.2-.11-.41-.22-.61-.33Zm1.17,2.83c.16.03.31.12.46.19-.08.07-.15.13-.24.22-.14-.07-.29-.14-.44-.22.08-.07.17-.2.22-.19Zm.26,24.78c-.11-.21-.25-.41-.3-.63-.02-.08.19-.2.3-.31.11.2.23.41.34.6-.13.12-.23.23-.34.33Zm9.49-3.74c.11.1.21.21.34.33-.11.2-.22.4-.34.6-.11-.1-.31-.23-.3-.31.05-.22.19-.42.3-.63Zm-2.06,1.11c.22.05.43.19.64.29-.11.1-.21.21-.34.33-.2-.11-.41-.22-.61-.33.11-.1.23-.31.31-.29Zm-.83,2.64c.14.07.29.14.44.22-.08.07-.17.2-.22.19-.16-.03-.31-.12-.46-.19.08-.07.15-.13.24-.22Zm-.24,4.46c-.67.5-1.34.49-2.1-.02.35-.25.68-.48,1.08-.77.42.05.62.54,1.03.79Zm-.83-9.32c-.08.02-.21-.19-.31-.29.21-.1.41-.24.64-.29.08-.02.21.19.31.29-.21.1-.41.24-.64.29Zm-.3-4.91c.15-.18.36-.3.54-.45.11.11.31.26.29.3-.11.2-.25.41-.43.55-.08.07-.33.07-.4,0-.07-.07-.07-.31,0-.39Zm-.94,1.02c.1-.4.41-.71.93-.61,0,.42.08.86-.02,1.26-.1.4-.41.71-.93.61,0-.42-.08-.86.02-1.26Zm-.44,1.27c.09-.07.33-.06.4,0,.07.07.02.26.02.4-.19.14-.47.45-.55.41-.57-.33-.18-.6.13-.81Zm-.22,3.91c.22.05.43.19.64.29-.11.1-.21.21-.34.33-.2-.11-.41-.22-.61-.33.11-.1.23-.31.31-.29Zm.5,9.52c-.11.2-.22.4-.34.6-.11-.1-.31-.23-.3-.31.05-.22.19-.42.3-.63.11.1.21.21.34.33Zm-.2,9.83c-.2-.11-.41-.22-.61-.33.11-.1.23-.31.31-.29.22.05.43.19.64.29-.11.1-.21.21-.34.33Zm.81-1.74c-.11-.21-.25-.41-.3-.63-.02-.08.19-.2.3-.31.11.2.23.41.34.6-.13.12-.23.23-.34.33Zm-.07-2.92c-.57-.33-.18-.6.13-.81.09-.07.27-.01.42-.01v.42c-.19.14-.47.45-.55.41Zm.96-.84c-.08.07-.33.07-.4,0-.07-.07-.07-.31,0-.39.15-.18.36-.3.54-.45.11.11.31.26.29.3-.11.2-.25.41-.43.55Zm.53-3.26c.63-.67,1.27-.67,1.9,0-.64.67-1.27.67-1.9,0Zm1.28-4.38c-.46-.14-.48-1.08-.02-1.52.42-.41.87-.8,1.38-1.09.19-.11.62,0,.82.15.19.15.24.49.36.79,0,.86-.81,1.18-1.33,1.66-.22.21-.83.12-1.21.01Zm1.87,5.65c-.42-.56-.56-1.14.04-1.56.53-.37,1.12-.24,1.58.33-.32.3-.64.62-.99.91-.18.14-.41.22-.64.33Zm1.48,20.69c-.08-.13-.16-.26-.24-.39.09-.08.17-.15.24-.22.08.13.18.26.21.41.01.05-.14.13-.21.2Zm2.28-.21c-.2.3-.87.31-1.13.01-.04-.05-.05-.15-.02-.2.19-.31.87-.32,1.12-.01.04.05.02.13.02.2Zm4.95-22.22c-.11-.21-.25-.41-.3-.63-.02-.08.19-.2.3-.31.11.2.23.41.34.6-.13.12-.23.23-.34.33Zm.79,11.99c-.08.02-.21-.19-.31-.29.21-.1.41-.24.64-.29.08-.02.21.19.31.29-.21.1-.41.24-.64.29Zm1.55,9.22c-.08-.07-.15-.13-.24-.22.08-.13.16-.26.24-.39.08.07.23.15.21.2-.04.14-.14.27-.21.41Zm7.07,7.06c-.2.3-.87.32-1.13.01-.04-.05-.05-.15-.02-.2.19-.31.87-.32,1.12-.01.04.05.02.13.02.2Zm.45-2.82c-.08-.13-.18-.26-.21-.41-.01-.05.14-.13.21-.2.08.13.16.26.24.39-.09.08-.17.15-.24.22Zm7.37,11.19c.13.12.23.23.34.33-.21.1-.41.24-.64.29-.08.02-.21-.19-.31-.29.21-.11.41-.22.61-.33Zm-1.21-3.32c-.08-.07-.15-.13-.24-.22.08-.13.16-.26.24-.39.08.07.23.15.21.2-.04.14-.14.27-.21.41Zm1.03,11.5h-.3c-.11-.12-.33-.3-.3-.35.24-.36.44-.12.59.08.05.06,0,.18,0,.27Zm.46-2.53c-.16-.03-.31-.12-.46-.19.08-.07.15-.13.24-.22.14.07.29.14.44.22-.08.07-.17.2-.22.19Zm4.34-9.53c-.11-.2-.23-.41-.34-.6.13-.12.23-.23.34-.33.11.21.25.41.3.63.02.08-.19.2-.3.31Zm2.72,8.09c-.13.09-.34.29-.39.26-.41-.21-.13-.39.09-.53.07-.04.24-.04.29,0,.05.05.01.17.01.26Zm1.05-.92c-.31.25-.48.71-1.05.65-.3-.85.38-1.28.97-1.77.6.34.54.75.08,1.12Zm.68-10.3c.05-.22.19-.42.3-.63.11.1.21.21.34.33-.11.2-.22.4-.34.6-.11-.1-.31-.23-.3-.31Zm1.69,10.64c-.46.43-.91.43-1.37,0,.46-.43.91-.43,1.37,0Zm1.4,4.62c-.27.1-.61.03-.92.03s-.62.03-.92-.01c-.12-.02-.33-.23-.31-.3.07-.22.21-.58.36-.59.61-.07,1.23-.04,1.85-.01.11,0,.33.24.31.3-.07.22-.19.53-.36.59Zm1.95-2.8c-.3.05-.61.01-.92.01s-.65.07-.92-.03c-.18-.07-.29-.37-.36-.59-.02-.07.19-.3.31-.3.62-.03,1.24-.05,1.85.01.15.02.29.37.36.59.02.07-.19.28-.31.3Zm1.09,5.14c-.08-.07-.23-.15-.21-.2.04-.14.14-.27.21-.41.08.07.15.13.24.22-.08.13-.16.26-.24.39Zm18.67,1.62c-.25.3-1.01.31-1.11-.02-.1-.34.23-.42.57-.39.18.07.37.13.55.21.03.01.02.15-.02.2Zm.17-.19c-.11-.21-.25-.41-.3-.63-.02-.08.19-.2.3-.31.11.21.25.41.3.63.02.08-.19.2-.3.31Zm.64,2.81c-.02-.29.04-.56.45-.48.11.02.16.31.23.48h-.68Zm10.12-5.95c-.25.13-.51.23-.77.33-.47.04-.94-.08-.79-.61.14-.51,1.18-.5,1.54-.03.05.07.06.28.02.3Zm3.48.33c-.11-.2-.23-.41-.34-.6.13-.12.23-.23.34-.33.11.21.25.41.3.63.02.08-.19.2-.3.31Zm6.57.17c-.08-.13-.18-.26-.21-.41-.01-.05.14-.13.21-.2.08.13.16.26.24.39-.09.08-.17.15-.24.22Zm12.52,2.2c-.11.12-.35.17-.55.21-.4.08-.67-.15-.67-.44-.01-.46-.22-.98.34-1.39.34.37.7.71.99,1.09.08.11,0,.4-.11.52Zm2.26,3.25c-.03-.45.06-.87.63-.74.16.03.22.48.32.74h-.95Zm6.29-7.98c-.06.01-.15-.12-.22-.19.15-.07.3-.15.44-.22.09.08.17.15.24.22-.15.07-.3.16-.46.19Zm7,1.9c.63-.67,1.27-.67,1.9,0-.64.67-1.27.67-1.9,0Zm3.19-1.54c-.13-.13-.23-.23-.34-.33.21-.1.41-.24.64-.29.08-.02.21.19.31.29-.21.11-.41.22-.61.33Zm2.35,2.62c-.18.35-.21.34-1.58.03.12-.76.86-1.04,1.27-1.57.54.43.61.96.31,1.54Zm25.86-5.89c.08.13.18.26.21.41.01.05-.14.13-.21.2-.08-.13-.18-.26-.21-.41-.01-.05.14-.13.21-.2Zm-19.82,1.21c.08.13.16.26.24.39-.09.08-.17.15-.24.22-.08-.13-.18-.26-.21-.41-.01-.05.14-.13.21-.2Zm-.8,1.13c-.13-.12-.23-.23-.34-.33.21-.1.41-.24.64-.29.08-.02.21.19.31.29-.21.11-.41.22-.61.33Zm2.35,5.42c-.25.13-.51.23-.77.33-.47.04-.94-.08-.79-.61.14-.51,1.18-.5,1.54-.03.05.07.06.28.02.3Zm2.51,1.3c-.31-.65-.54-1.32-.94-1.88-.29-.4-.48-.69.02-.94.24-.12.68-.14.88,0,.49.34.88.79,1.48,1.36-.58.58-.99,1.01-1.44,1.46Zm3.21-1.4c.08-.13.16-.26.24-.39.08.07.23.15.21.2-.04.14-.14.27-.21.41-.08-.07-.15-.13-.24-.22Zm1.87,1.04c-.25.13-.51.23-.77.33-.47.04-.94-.08-.79-.61.14-.51,1.18-.5,1.54-.03.05.07.06.28.02.3Zm1.99-3.24c-1.08,0-1.97,0-2.85,0-.09,0-.17-.1-.26-.15-.06-.08-.16-.16-.16-.23.02-1.03,1.15-1.33,1.69-2.03.65.24.05,1.56,1.37,1.23.07-.02.29.26.34.43.04.17-.05.36-.12.76Zm.7-3.15c-.22-.05-.43-.19-.64-.29.11-.1.21-.21.34-.33.2.11.41.22.61.33-.11.1-.23.31-.31.29Zm2.85,8.6c-.02-.29.04-.56.45-.48.11.02.16.31.23.48h-.68Zm3.08-10.29c-.08-.07-.23-.15-.21-.2.04-.14.14-.27.21-.41.08.07.15.13.24.22-.08.13-.16.26-.24.39Zm1.02,10.29c-.07-.88.54-.99,1.18-.92.47.05.83.35.72.92h-1.9Zm8.85-23.58c-.08.02-.21-.19-.31-.29.21-.11.41-.22.61-.33.13.12.23.23.34.33-.21.1-.41.24-.64.29Zm.26-1.96c-.06.01-.15-.12-.22-.19.15-.07.3-.15.44-.22.09.08.17.15.24.22-.15.07-.3.16-.46.19Zm16.52-14.41c.08.07.23.15.21.2-.04.14-.14.27-.21.41-.08-.07-.15-.13-.24-.22.08-.13.16-.26.24-.39Zm-1.84,2.83c-.25.3-.93.29-1.12-.01-.03-.05-.02-.15.02-.2.25-.3.93-.29,1.13.01,0,.07.02.16-.02.2Zm1.96,10.37c-.16-.03-.31-.12-.46-.19.08-.07.15-.13.24-.22.14.07.29.14.44.22-.08.07-.17.2-.22.19Zm5.41-1.67c-.25.13-.51.23-.77.33-.47.04-.94-.08-.79-.61.14-.51,1.18-.5,1.54-.03.05.07.06.28.02.3Zm-.85-7.42c-.42-.27-.34-.65-.03-1,.56.1.77.55,1.14.82-.32.34-.74.42-1.12.18Zm13.09-29.54c.08.13.16.26.24.39-.09.08-.17.15-.24.22-.08-.13-.18-.26-.21-.41-.01-.05.14-.13.21-.2Zm-3.01,23.25c.03-.08.19-.2.21-.19.15.09.36.18.39.31.06.27.02.56.02.84-.11,0-.23.03-.31,0-.44-.23-.44-.58-.31-.95Zm-2.46-2.67c.08.13.18.26.21.41.01.05-.14.13-.21.2-.08-.13-.18-.26-.21-.41-.01-.05.14-.13.21-.2Zm-3.89,14.33c-.25.3-.93.29-1.12-.01-.03-.05-.02-.15.02-.2.25-.3.93-.29,1.13.01,0,.07.02.16-.02.2Zm1.55-.06c.39-.54.85-.47,1.27-.07.29.27.81.43.73.93-.96.27-1.45-.34-2-.86Zm2.49,1.45c-.31,0-.57-.23-.49-.59.66.12,1.45-.31,2.01.34-.45.45-1.02.25-1.53.25Zm3.52-11.14c-.24.38-.68.33-1.34.02.31-.28.54-.48.74-.69.33-.35.45-.38.54-.09.08.24.18.57.06.76Zm1.24-14.68c.13-.12.23-.23.34-.33.11.21.25.41.3.63.02.08-.19.2-.3.31-.11-.2-.23-.41-.34-.6Zm1.47,12.91c-.18.08-.37.15-.55.21-.34.03-.67-.05-.57-.39.1-.33.85-.32,1.11-.02.04.05.04.18.02.2Zm1.71-11.37c-.11-.21-.25-.41-.3-.63-.02-.08.19-.2.3-.31.11.21.25.41.3.63.02.08-.19.2-.3.31Zm1.7,11.99c0,.07-.14.14-.22.21-.31-.27-.63-.54-.91-.83-.03-.04.16-.35.27-.36.3-.02.72-.15.86.2.1.23.03.52,0,.79Zm.46-33.08c-.08-.07-.23-.15-.21-.2.04-.14.14-.27.21-.41.08.07.15.13.24.22-.08.13-.16.26-.24.39Zm5.47-1.82c.08.13.18.26.21.41.01.05-.14.13-.21.2-.08-.13-.16-.26-.24-.39.09-.08.17-.15.24-.22Zm-2.05,0c.08.13.16.26.24.39-.09.08-.17.15-.24.22-.08-.13-.18-.26-.21-.41-.01-.05.14-.13.21-.2Zm-.68,20.58c-.08-.13-.18-.26-.21-.41-.01-.05.14-.13.21-.2.08.13.16.26.24.39-.09.08-.17.15-.24.22Zm-.63-6.56c.64-.67,1.27-.67,1.9,0-.64.67-1.27.67-1.9,0Zm4.73,17.45c-.6-.33-.27-1.05-.89-1.48-.52-.35-.06-.84.9-.93.36,1.29.36,1.29-.01,2.41Zm10.54-21.52c-.57,0-1.13.01-1.7.02-1.88.04-3.78-.21-5.63.46-.54.2-1.18.14-1.74-.4-1.59-1.52-2.01-1.37-2.68.71-.04.14-.16.25-.25.37,0,.01,0,.02,0,.03h-.01s.01,0,.01,0c-.03.05-.06.1-.09.15.03-.05.05-.11.08-.16,0,0,.01-.01.02-.02.15-1.66-.33-3.4.62-4.97.28-.47-.15-.89-.34-1.33-.17-.41-.22-.84-.17-1.25h-2.99c-.03-.33-.11-.61-.05-.86.03-.12.32-.24.51-.27,1.14-.2,1.76.6,2.56,1,.1-.59.4-1.11.85-1.37,1.02-.58,2.89-.29,3.1.77.28,1.36,1.23,1.01,1.89,1.46,1.86,1.26,4.03.77,6.08,1.4-.48,1.55-1.71,1.06-2.59,1.31-.47.13-.93.35-.89.96.03.48.5.56.84.74.29.83.98.64,1.59.67.76.04,1.6-.32,2.25.39-.42.06-.84.12-1.26.17Z"/></svg>