<?xml version="1.0" encoding="UTF-8"?><svg id="Layer_1" xmlns="http://www.w3.org/2000/svg" viewBox="0 0 224 226"><defs><style>.cls-1{fill:#fff;}.cls-2{fill:#0499c5;}.cls-3{fill:none;stroke:#fff;stroke-miterlimit:10;}</style></defs><rect class="cls-3" x="5.48" y="6.48" width="213.03" height="213.03" rx="24.34" ry="24.34"/><path class="cls-2" d="m74.14,79.87c.05-.08.1-.16.15-.24.55-.52,1.1-1.04,1.65-1.56.43-.27.86-.53,1.28-.8,1.89-1.18,3.95-1.8,6.11-1.91.24-1.16.4-2.32.71-3.43.41-1.46,1.23-2.73,2.14-3.93.04-.06.03-.15.05-.22.49-.42.99-.84,1.46-1.28.15-.14.23-.35.34-.53.48-.29.97-.58,1.45-.88,1.66-1.02,3.45-1.65,5.39-1.81.24-.02.47-.08.7-.12,0-1.97.6-3.77,1.53-5.47.38-.69.81-1.34,1.22-2,.6-.6,1.21-1.21,1.81-1.81.47-.28.94-.55,1.4-.84,2.33-1.52,4.9-2.17,7.66-1.93,2.21.19,4.31.82,6.07,2.25,1.06.86,2,1.87,3.02,2.8.65.59,1.32,1.16,2.07,1.8,1.96-1.96,3.92-3.92,5.92-5.92.56.56,1.05,1.05,1.53,1.53,8.13,8.14,16.28,16.26,24.38,24.43,1.13,1.14,1.99,2.53,2.96,3.82,1.6,2.11,2.88,4.42,3.92,6.84.87,2.02,1.54,4.13,2.2,6.23.84,2.69,1.38,5.45,1.43,8.28.04,2.17.14,4.35-.01,6.51-.18,2.68-.67,5.33-1.47,7.92-.84,2.74-1.81,5.43-3.13,7.98-1.09,2.1-2.35,4.08-3.73,6.01-1.73,2.42-3.76,4.55-5.9,6.58-.94.89-2.01,1.66-3.11,2.37-1.9,1.22-3.79,2.47-5.79,3.5-4.28,2.22-8.86,3.65-13.62,4.24-2.86.35-5.78.31-8.67.2-3.44-.13-6.8-.87-10.1-1.89-2.99-.92-5.81-2.24-8.48-3.82-1.86-1.1-3.63-2.39-5.29-3.77-2.14-1.78-4.14-3.73-6.24-5.65,1.96-1.96,3.83-3.83,5.73-5.73.12.11.27.23.41.37,1.34,1.34,2.63,2.74,4.03,4.01,2.29,2.07,4.79,3.86,7.65,5.09,1.71.73,3.42,1.46,5.17,2.09,2.41.86,4.93,1.22,7.48,1.41,3.42.26,6.8.04,10.15-.67,3.1-.65,6-1.82,8.81-3.27,1.82-.94,3.51-2.06,5.06-3.38,1.46-1.25,2.93-2.5,4.25-3.89,1.12-1.18,2.04-2.55,3.01-3.86,2.17-2.95,3.59-6.27,4.56-9.76.57-2.03.89-4.13,1.18-6.22.2-1.42.25-2.87.21-4.3-.1-3.79-.68-7.52-2.17-11.03-.99-2.34-2.15-4.61-3.36-6.85-.54-1-1.32-1.89-2.07-2.77-5.89-6.86-12.68-12.87-18.94-19.37-.63-.65-1.28-1.29-2.03-2.03-1.08,1.08-2.09,2.09-3.11,3.11-5.72,5.72-11.45,11.43-17.15,17.17-.81.81-1.62,1.64-2.09,2.75-.66,1.56-.37,2.97.49,4.32,1.64,2.58,5.32,2.25,6.95.59,3.76-3.84,7.59-7.6,11.38-11.4.68-.68.66-.66,1.33.02.64.64,1.34,1.22,1.98,1.85,1.01.99,2.01,2,3.03,3.02-.44.55-.79,1.02-1.18,1.45-1.42,1.55-2.58,3.28-3.32,5.24-.63,1.66-1.19,3.38-1.51,5.12-.58,3.09-.39,6.19.42,9.25.67,2.5,1.79,4.78,3.21,6.91.59.89,1.36,1.66,2.06,2.48.2.23.41.38.08.71-1.73,1.7-3.44,3.42-5.16,5.14-.04.04-.11.07-.24.16-6.13-6.2-8.66-13.78-8.63-22.42-.6.26-1.16.58-1.76.75-1.28.37-2.57.69-3.87.97-.44.09-.65.23-.69.7-.22,2.45-1.1,4.64-2.56,6.62-1.48,2.02-3.39,3.44-5.77,4.2-1.02.32-2.1.48-3.16.67-.39.07-.59.17-.62.59-.17,2.04-.84,3.89-1.92,5.65-1.6,2.62-3.79,4.46-6.72,5.33-3.59,1.07-7.08.67-10.31-1.25-1.15-.68-2.17-1.62-3.15-2.56-1.87-1.78-3.7-3.62-5.49-5.48-1.97-2.04-3.12-4.49-3.43-7.34-.28-2.61.2-5.05,1.37-7.38,1.14-2.26,2.92-3.87,5.12-5.04.43-.23.85-.47,1.28-.71-1-1.75-1.65-3.5-1.84-5.45-.27-2.82.54-5.32,1.92-7.7.26-.45.58-.88.88-1.31Zm19,10.85h0c-1.99-1.98-3.99-3.95-5.95-5.96-1.39-1.43-3.97-1.94-5.82-.66-2.41,1.67-2.63,5.03-.74,6.96,3.95,4.02,7.96,7.99,11.96,11.97.31.31.65.6,1.02.82,1.8,1.07,3.78.9,5.14-.18,2.24-1.77,2.48-4.91.31-7.03-1.99-1.95-3.94-3.94-5.91-5.91Zm-8.98,15.22c-.96-.96-1.9-1.94-2.89-2.87-.45-.43-.96-.86-1.52-1.1-1.94-.83-4.36-.61-5.89,1.86-.88,1.41-.88,3.86.73,5.41,2.02,1.95,3.99,3.95,5.96,5.95,1.29,1.31,2.81,1.74,4.58,1.3,1.29-.32,2.22-1.13,2.79-2.33,1-2.11.45-4.1-1.1-5.58-.9-.86-1.77-1.76-2.65-2.64Zm12.45-23.18c.91-1.79,2.07-3.35,3.53-4.7.65-.61,1.26-1.26,1.9-1.87.33-.32.37-.59,0-.93-.76-.72-1.47-1.49-2.23-2.21-.43-.41-.87-.84-1.38-1.14-1.77-1.06-3.56-.97-5.19.25-1.06.79-1.7,1.88-1.74,3.29-.05,1.54.49,2.77,1.6,3.82,1.18,1.12,2.3,2.29,3.51,3.5Zm14.71-15.87h0c.96-.96,1.91-1.93,2.89-2.87.34-.33.35-.56,0-.87-1.08-.98-2.15-1.98-3.21-2.98-1.59-1.51-4.36-1.39-5.99.18-1.96,1.89-1.8,4.55-.15,6.51.87,1.04,1.91,1.93,2.86,2.9.29.3.49.26.77-.02.93-.96,1.88-1.9,2.83-2.84Z"/><path class="cls-1" d="m63.6,161.53h12.68c5.6,0,9.36,3.36,9.36,8.28,0,3.64-2.24,6.48-5.76,7.64l6.24,12.08h-4.64l-5.8-11.48h-7.88v11.48h-4.2v-28Zm12.36,13c3.28,0,5.48-1.84,5.48-4.68s-2.2-4.64-5.48-4.64h-8.16v9.32h8.16Z"/><path class="cls-1" d="m89.76,179.37c0-5.92,4.68-10.6,10.6-10.6s10.6,4.68,10.6,10.6-4.68,10.56-10.6,10.56-10.6-4.64-10.6-10.56Zm17.28,0c0-3.96-2.96-7.08-6.68-7.08s-6.68,3.12-6.68,7.08,2.96,7.04,6.68,7.04,6.68-3.08,6.68-7.04Z"/><path class="cls-1" d="m113.84,179.33c0-5.92,4.6-10.56,10.48-10.56,3.08,0,6.08,1.24,8.16,3.36l-2.48,2.76c-1.56-1.68-3.52-2.56-5.6-2.56-3.72,0-6.6,3.08-6.6,7s2.92,7.04,6.68,7.04c2.04,0,3.84-.8,5.48-2.44l2.44,2.56c-2.16,2.16-5.04,3.4-8.08,3.4-5.88,0-10.48-4.6-10.48-10.56Z"/><path class="cls-1" d="m135.6,161.53l4-.76v17.32l9.88-8.92h4.68l-10.52,9.52,11.08,10.84h-5.28l-9.84-9.56v9.56h-4v-28Z"/></svg>